<svg width="2" height="4" viewBox="0 0 2 4" fill="none" xmlns="http://www.w3.org/2000/svg">
<path fill-rule="evenodd" clip-rule="evenodd" d="M1.29585 0.670997C1.29221 0.604497 1.28441 0.538998 1.26673 0.473998C1.22825 0.337499 1.14973 0.217999 1.03741 0.131999C0.926133 0.0459998 0.790414 0 0.650015 0C0.509615 0 0.373896 0.0459998 0.262616 0.131999C0.150297 0.217999 0.0717769 0.337499 0.0332971 0.473998C0.0156171 0.538998 0.00781716 0.604497 0.00417717 0.670997C-0.000502808 0.744997 1.719e-05 0.818496 1.719e-05 0.891996V0.893496V3.10599V3.10749C1.719e-05 3.18099 -0.000502808 3.25449 0.00417717 3.32849C0.00781716 3.39549 0.0156171 3.46048 0.0332971 3.52548C0.0717769 3.66198 0.150297 3.78148 0.262616 3.86748C0.373896 3.95348 0.509615 3.99998 0.650015 3.99998C0.790414 3.99998 0.926133 3.95348 1.03741 3.86748C1.14973 3.78148 1.22825 3.66198 1.26673 3.52548C1.28441 3.46048 1.29221 3.39549 1.29585 3.32849C1.30053 3.25449 1.30001 3.18099 1.30001 3.10749V3.10599V0.893496V0.891996C1.30001 0.818496 1.30053 0.744997 1.29585 0.670997V0.670997Z" fill="#262883"/>
</svg>
