<svg width="14" height="14" viewBox="0 0 14 14" fill="none" xmlns="http://www.w3.org/2000/svg">
<path d="M11.5818 6.49081C11.5818 9.30244 9.30257 11.5817 6.49093 11.5817C3.6793 11.5817 1.40002 9.30244 1.40002 6.49081C1.40002 3.67918 3.6793 1.3999 6.49093 1.3999C9.30257 1.3999 11.5818 3.67918 11.5818 6.49081Z" fill="#EE9E04"/>
<path d="M12.9182 7.50919C12.9182 10.4965 10.4964 12.9183 7.50907 12.9183C4.52171 12.9183 2.09998 10.4965 2.09998 7.50919C2.09998 4.52183 4.52171 2.1001 7.50907 2.1001C10.4964 2.1001 12.9182 4.52183 12.9182 7.50919Z" fill="#F5B400"/>
<path fill-rule="evenodd" clip-rule="evenodd" d="M7 12.274C9.91273 12.274 12.274 9.91273 12.274 7C12.274 4.08727 9.91273 1.72603 7 1.72603C4.08727 1.72603 1.72603 4.08727 1.72603 7C1.72603 9.91273 4.08727 12.274 7 12.274ZM7 14C10.866 14 14 10.866 14 7C14 3.13401 10.866 0 7 0C3.13401 0 0 3.13401 0 7C0 10.866 3.13401 14 7 14Z" fill="#FFDB03"/>
<path fill-rule="evenodd" clip-rule="evenodd" d="M7.19089 12.1902C9.95186 12.1902 12.1901 9.95198 12.1901 7.19101C12.1901 4.43004 9.95186 2.19183 7.19089 2.19183C4.42991 2.19183 2.1917 4.43004 2.1917 7.19101C2.1917 9.95198 4.42991 12.1902 7.19089 12.1902ZM7.19089 12.2819C10.0025 12.2819 12.2818 10.0026 12.2818 7.19101C12.2818 4.37938 10.0025 2.1001 7.19089 2.1001C4.37925 2.1001 2.09998 4.37938 2.09998 7.19101C2.09998 10.0026 4.37925 12.2819 7.19089 12.2819Z" fill="#EE9E04"/>
<path fill-rule="evenodd" clip-rule="evenodd" d="M7 13.9041C10.813 13.9041 13.9041 10.813 13.9041 7C13.9041 3.18697 10.813 0.0958904 7 0.0958904C3.18697 0.0958904 0.0958904 3.18697 0.0958904 7C0.0958904 10.813 3.18697 13.9041 7 13.9041ZM7 14C10.866 14 14 10.866 14 7C14 3.13401 10.866 0 7 0C3.13401 0 0 3.13401 0 7C0 10.866 3.13401 14 7 14Z" fill="#FEFA2B"/>
<path d="M6.91958 4.42859C7.07972 4.12374 7.54241 4.12374 7.70255 4.42859L8.32573 5.61493C8.38932 5.73598 8.51224 5.81989 8.65443 5.8393L10.0479 6.02954C10.406 6.07842 10.549 6.49186 10.2899 6.72915L9.28153 7.65258C9.17864 7.74681 9.13169 7.88258 9.15598 8.01563L9.39401 9.31954C9.45518 9.65461 9.08085 9.91012 8.76058 9.75193L7.51421 9.1363C7.38703 9.07348 7.23509 9.07348 7.10791 9.1363L5.86155 9.75193C5.54127 9.91012 5.16695 9.65461 5.22811 9.31954L5.46615 8.01563C5.49044 7.88258 5.44349 7.74681 5.34059 7.65258L4.33227 6.72915C4.07316 6.49186 4.21614 6.07842 4.57422 6.02954L5.96769 5.8393C6.10988 5.81989 6.23281 5.73598 6.2964 5.61493L6.91958 4.42859Z" fill="#FFDB03"/>
</svg>
