<svg width="2" height="6" viewBox="0 0 2 6" fill="none" xmlns="http://www.w3.org/2000/svg">
<path fill-rule="evenodd" clip-rule="evenodd" d="M1.29636 0.671C1.2922 0.6045 1.2844 0.539 1.2662 0.474C1.22824 0.3375 1.1492 0.218 1.0374 0.132C0.92612 0.046 0.7904 0 0.65 0C0.51012 0 0.37388 0.046 0.2626 0.132C0.1508 0.218 0.07176 0.3375 0.0338 0.474C0.0156 0.539 0.0078 0.6045 0.00364 0.671C0 0.745 0 0.8185 0 0.892V0.8935V5.106V5.1075C0 5.181 0 5.2545 0.00364 5.3285C0.0078 5.3955 0.0156 5.4605 0.0338 5.5255C0.07176 5.662 0.1508 5.7815 0.2626 5.8675C0.37388 5.9535 0.51012 6 0.65 6C0.7904 6 0.92612 5.9535 1.0374 5.8675C1.1492 5.7815 1.22824 5.662 1.2662 5.5255C1.2844 5.4605 1.2922 5.3955 1.29636 5.3285C1.3 5.2545 1.3 5.181 1.3 5.1075V5.106V0.8935V0.892C1.3 0.8185 1.3 0.745 1.29636 0.671V0.671Z" fill="#262883"/>
</svg>
