<svg width="16" height="16" viewBox="0 0 16 16" fill="none" xmlns="http://www.w3.org/2000/svg">
<path fill-rule="evenodd" clip-rule="evenodd" d="M9.40303 14.7786H15.2258Z" fill="#000140"/>
<path d="M9.40303 14.7786H15.2258" stroke="#000140" stroke-width="1.5" stroke-linecap="round" stroke-linejoin="round"/>
<path fill-rule="evenodd" clip-rule="evenodd" d="M8.62617 1.41229C9.2489 0.668039 10.3684 0.558905 11.1281 1.16898C11.1701 1.20208 12.5196 2.25048 12.5196 2.25048C13.3542 2.755 13.6135 3.82755 13.0976 4.64605C13.0702 4.68989 5.44037 14.2337 5.44037 14.2337C5.18653 14.5504 4.8012 14.7373 4.38939 14.7418L1.46748 14.7785L0.809136 11.992C0.716913 11.6002 0.809136 11.1887 1.06298 10.872L8.62617 1.41229Z" stroke="#000140" stroke-width="1.5" stroke-linecap="round" stroke-linejoin="round"/>
<path fill-rule="evenodd" clip-rule="evenodd" d="M7.21378 3.18344L11.5912 6.54512Z" fill="#000140"/>
<path d="M7.21378 3.18344L11.5912 6.54512" stroke="#000140" stroke-width="1.5" stroke-linecap="round" stroke-linejoin="round"/>
</svg>
