<svg width="16" height="12" viewBox="0 0 16 12" fill="none" xmlns="http://www.w3.org/2000/svg">
<path d="M16 7.1218C15.9985 6.05575 15.4999 5.03374 14.6138 4.27993C13.7276 3.52612 12.5261 3.10205 11.2729 3.10074H2.48339L4.87822 1.06361C4.94768 1.00654 5.00308 0.938279 5.04119 0.862804C5.07931 0.787329 5.09937 0.706153 5.10021 0.624013C5.10105 0.541872 5.08265 0.460413 5.04608 0.384386C5.00951 0.308359 4.95551 0.239288 4.88723 0.181204C4.81895 0.123119 4.73775 0.0771837 4.64837 0.0460787C4.559 0.0149737 4.46323 -0.000678479 4.36667 3.53006e-05C4.27011 0.000749081 4.17468 0.0178152 4.08595 0.0502368C3.99722 0.0826583 3.91698 0.129786 3.84989 0.188871L0.213656 3.282C0.14593 3.33946 0.092197 3.40773 0.0555344 3.48289C0.0188718 3.55804 0 3.63861 0 3.71998C0 3.80135 0.0188718 3.88193 0.0555344 3.95708C0.092197 4.03224 0.14593 4.10051 0.213656 4.15797L3.84989 7.2511C3.98705 7.36378 4.17075 7.42614 4.36144 7.42473C4.55212 7.42332 4.73452 7.35826 4.86936 7.24356C5.00419 7.12886 5.08068 6.9737 5.08234 6.8115C5.08399 6.6493 5.01069 6.49303 4.87822 6.37636L2.48339 4.33799H11.2729C12.1408 4.33799 12.9732 4.63128 13.587 5.15335C14.2007 5.67542 14.5455 6.38349 14.5455 7.1218C14.5455 7.86012 14.2007 8.56819 13.587 9.09026C12.9732 9.61232 12.1408 9.90562 11.2729 9.90562H8.00029C7.80741 9.90562 7.62243 9.97079 7.48605 10.0868C7.34966 10.2028 7.27304 10.3602 7.27304 10.5242C7.27304 10.6883 7.34966 10.8457 7.48605 10.9617C7.62243 11.0777 7.80741 11.1429 8.00029 11.1429H11.2729C12.5261 11.1416 13.7276 10.7175 14.6138 9.96368C15.4999 9.20987 15.9985 8.18785 16 7.1218V7.1218Z" fill="#FFDB03"/>
</svg>
