<svg width="2" height="5" viewBox="0 0 2 5" fill="none" xmlns="http://www.w3.org/2000/svg">
<path fill-rule="evenodd" clip-rule="evenodd" d="M1.25948 0.473999C1.22172 0.337499 1.1431 0.217999 1.03189 0.132C0.921205 0.0459999 0.786205 0 0.64655 0C0.507413 0 0.371896 0.0459999 0.261206 0.132C0.15 0.217999 0.0713791 0.337499 0.0336206 0.473999C0.0155172 0.538999 0.0077586 0.604498 0.00362068 0.670998C0 0.744998 0 0.818498 0 0.891998V4.10749C0 4.18099 0 4.25449 0.00362068 4.32849C0.0077586 4.39549 0.0155172 4.46049 0.0336206 4.52549C0.0713791 4.66199 0.15 4.78149 0.261206 4.86749C0.371896 4.95349 0.507413 4.99999 0.64655 4.99999C0.786205 4.99999 0.921205 4.95349 1.03189 4.86749C1.1431 4.78149 1.22172 4.66199 1.25948 4.52549C1.27758 4.46049 1.28534 4.39549 1.28948 4.32849C1.2931 4.25449 1.2931 4.18099 1.2931 4.10749V0.891998C1.2931 0.818498 1.2931 0.744998 1.28948 0.670998C1.28534 0.604498 1.27758 0.538999 1.25948 0.473999V0.473999Z" fill="#262883"/>
</svg>
