<svg width="2" height="10" viewBox="0 0 2 10" fill="none" xmlns="http://www.w3.org/2000/svg">
<path fill-rule="evenodd" clip-rule="evenodd" d="M1.15109 0.43091C1.11658 0.306819 1.04473 0.198182 0.943092 0.12C0.841928 0.0418182 0.718546 0 0.59091 0C0.463746 0 0.339891 0.0418182 0.238728 0.12C0.137091 0.198182 0.0652365 0.306819 0.0307273 0.43091C0.0141818 0.490001 0.00709092 0.549546 0.0033091 0.610001C0 0.677274 0 0.744092 0 0.81091V9.18865C0 9.25592 0 9.32228 0.0033091 9.38956C0.00709092 9.45047 0.0141818 9.50956 0.0307273 9.56819C0.0652365 9.69274 0.137091 9.80138 0.238728 9.87956C0.339891 9.95774 0.463746 10 0.59091 10C0.718546 10 0.841928 9.95774 0.943092 9.87956C1.04473 9.80138 1.11658 9.69274 1.15109 9.56819C1.16764 9.50956 1.17473 9.45047 1.17851 9.38956C1.18182 9.32228 1.18182 9.25592 1.18182 9.18865V0.81091C1.18182 0.744092 1.18182 0.677274 1.17851 0.610001C1.17473 0.549546 1.16764 0.490001 1.15109 0.43091V0.43091Z" fill="#262883"/>
</svg>
