<svg width="15" height="12" viewBox="0 0 15 12" fill="none" xmlns="http://www.w3.org/2000/svg">
<path d="M11.897 1.32044C11.545 0.906231 11.1029 0.573102 10.6025 0.345056C10.1022 0.11701 9.55609 -0.000275162 9.00354 0.00164873C8.05812 -0.026191 7.13768 0.299419 6.43161 0.911487C5.72553 0.299419 4.80509 -0.026191 3.85967 0.00164873C3.30712 -0.000275162 2.76101 0.11701 2.26068 0.345056C1.76035 0.573102 1.31826 0.906231 0.966246 1.32044C0.353483 2.04331 -0.287572 3.3521 0.13744 5.48506C0.815788 8.89117 5.90243 11.6863 6.11719 11.8008C6.21292 11.8527 6.32071 11.8799 6.43032 11.8799C6.53993 11.8799 6.64772 11.8527 6.74345 11.8008C6.95949 11.6838 12.0461 8.88867 12.7232 5.48506C13.1508 3.3521 12.5097 2.04331 11.897 1.32044ZM11.4636 5.24744C10.9839 7.65554 7.49767 9.89543 6.43161 10.532C4.9296 9.65031 1.83942 7.43668 1.40283 5.24744C1.07298 3.59285 1.52436 2.63174 1.96158 2.11647C2.1928 1.84516 2.4829 1.62697 2.81107 1.47755C3.13923 1.32814 3.49733 1.25121 3.85967 1.25228C4.24668 1.22406 4.6346 1.29384 4.98562 1.45483C5.33664 1.61582 5.63877 1.86252 5.86256 2.17088C5.91775 2.26964 5.99916 2.35219 6.09831 2.40995C6.19747 2.4677 6.31073 2.49853 6.4263 2.49924C6.54188 2.49994 6.65553 2.47048 6.75541 2.41394C6.8553 2.3574 6.93777 2.27584 6.99422 2.17776C7.21757 1.86699 7.52035 1.61821 7.8727 1.45592C8.22505 1.29363 8.6148 1.22345 9.00354 1.25228C9.36664 1.25057 9.72562 1.32718 10.0546 1.47662C10.3836 1.62605 10.6744 1.84458 10.9061 2.11647C11.3421 2.63174 11.7934 3.59285 11.4636 5.24744Z" fill="#FFDB03"/>
<mask id="path-2-outside-1_818_1177" maskUnits="userSpaceOnUse" x="7.50853" y="4.87384" width="8.52919" height="7.46304" fill="black">
<rect fill="white" x="7.50853" y="4.87384" width="8.52919" height="7.46304"/>
<path fill-rule="evenodd" clip-rule="evenodd" d="M11.2543 5.93998C10.9583 5.93998 10.7183 6.17992 10.7183 6.4759V7.91997H9.06968C8.7963 7.91997 8.57468 8.14159 8.57468 8.41497C8.57468 8.68835 8.7963 8.90997 9.06968 8.90997H10.7183V10.354C10.7183 10.65 10.9583 10.89 11.2543 10.89C11.5502 10.89 11.7902 10.65 11.7902 10.354V8.90997H13.4389C13.7122 8.90997 13.9339 8.68835 13.9339 8.41497C13.9339 8.14159 13.7122 7.91997 13.4389 7.91997H11.7902V6.4759C11.7902 6.17992 11.5502 5.93998 11.2543 5.93998Z"/>
</mask>
<path fill-rule="evenodd" clip-rule="evenodd" d="M11.2543 5.93998C10.9583 5.93998 10.7183 6.17992 10.7183 6.4759V7.91997H9.06968C8.7963 7.91997 8.57468 8.14159 8.57468 8.41497C8.57468 8.68835 8.7963 8.90997 9.06968 8.90997H10.7183V10.354C10.7183 10.65 10.9583 10.89 11.2543 10.89C11.5502 10.89 11.7902 10.65 11.7902 10.354V8.90997H13.4389C13.7122 8.90997 13.9339 8.68835 13.9339 8.41497C13.9339 8.14159 13.7122 7.91997 13.4389 7.91997H11.7902V6.4759C11.7902 6.17992 11.5502 5.93998 11.2543 5.93998Z" fill="#FFDB03"/>
<path d="M10.7183 7.91997V8.98612H11.7845V7.91997H10.7183ZM10.7183 8.90997H11.7845V7.84382H10.7183V8.90997ZM11.7902 8.90997V7.84382H10.724V8.90997H11.7902ZM11.7902 7.91997H10.724V8.98612H11.7902V7.91997ZM11.7845 6.4759C11.7845 6.76874 11.5471 7.00613 11.2543 7.00613V4.87384C10.3695 4.87384 9.6522 5.59111 9.6522 6.4759H11.7845ZM11.7845 7.91997V6.4759H9.6522V7.91997H11.7845ZM9.06968 8.98612H10.7183V6.85382H9.06968V8.98612ZM9.64083 8.41497C9.64083 8.73041 9.38512 8.98612 9.06968 8.98612V6.85382C8.20748 6.85382 7.50853 7.55277 7.50853 8.41497H9.64083ZM9.06968 7.84382C9.38512 7.84382 9.64083 8.09954 9.64083 8.41497H7.50853C7.50853 9.27716 8.20748 9.97612 9.06968 9.97612V7.84382ZM10.7183 7.84382H9.06968V9.97612H10.7183V7.84382ZM11.7845 10.354V8.90997H9.6522V10.354H11.7845ZM11.2543 9.82381C11.5471 9.82381 11.7845 10.0612 11.7845 10.354H9.6522C9.6522 11.2388 10.3695 11.9561 11.2543 11.9561V9.82381ZM10.724 10.354C10.724 10.0612 10.9614 9.82381 11.2543 9.82381V11.9561C12.1391 11.9561 12.8563 11.2388 12.8563 10.354H10.724ZM10.724 8.90997V10.354H12.8563V8.90997H10.724ZM13.4389 7.84382H11.7902V9.97612H13.4389V7.84382ZM12.8677 8.41497C12.8677 8.09953 13.1234 7.84382 13.4389 7.84382V9.97612C14.3011 9.97612 15 9.27717 15 8.41497H12.8677ZM13.4389 8.98612C13.1234 8.98612 12.8677 8.73041 12.8677 8.41497H15C15 7.55278 14.3011 6.85382 13.4389 6.85382V8.98612ZM11.7902 8.98612H13.4389V6.85382H11.7902V8.98612ZM10.724 6.4759V7.91997H12.8563V6.4759H10.724ZM11.2543 7.00613C10.9614 7.00613 10.724 6.76874 10.724 6.4759H12.8563C12.8563 5.5911 12.1391 4.87384 11.2543 4.87384V7.00613Z" fill="#FAFAFA" mask="url(#path-2-outside-1_818_1177)"/>
</svg>
