<svg width="10" height="6" viewBox="0 0 10 6" fill="none" xmlns="http://www.w3.org/2000/svg">
<path fill-rule="evenodd" clip-rule="evenodd" d="M4.99973 2.05132C4.33473 2.05132 3.79423 2.44478 3.79423 2.92842C3.79423 3.41169 4.33473 3.80479 4.99973 3.80479C5.66474 3.80479 6.20574 3.41169 6.20574 2.92842C6.20574 2.44478 5.66474 2.05132 4.99973 2.05132M4.99973 4.35024C3.92123 4.35024 3.04423 3.71242 3.04423 2.92842C3.04423 2.14405 3.92123 1.50587 4.99973 1.50587C6.07824 1.50587 6.95574 2.14405 6.95574 2.92842C6.95574 3.71242 6.07824 4.35024 4.99973 4.35024" fill="#F2F5F9"/>
<mask id="mask0_818_2148" style="mask-type:alpha" maskUnits="userSpaceOnUse" x="0" y="0" width="10" height="6">
<path fill-rule="evenodd" clip-rule="evenodd" d="M0 0H9.99997V5.85639H0V0Z" fill="white"/>
</mask>
<g mask="url(#mask0_818_2148)">
<path fill-rule="evenodd" clip-rule="evenodd" d="M0.784987 2.92813C1.71499 4.42232 3.2815 5.31069 5.00001 5.31105C6.71851 5.31069 8.28502 4.42232 9.21503 2.92813C8.28502 1.43431 6.71851 0.545939 5.00001 0.545576C3.282 0.545939 1.71499 1.43431 0.784987 2.92813V2.92813ZM5.0009 5.85653H4.9989H4.9984C2.93039 5.85544 1.07338 4.80125 0.0303751 3.03579C-0.010125 2.96706 -0.010125 2.88924 0.0303751 2.82052C1.07338 1.05542 2.93089 0.00123047 4.9984 0.00013956C4.9994 -0.000224078 4.9994 -0.000224078 4.9999 0.00013956C5.0009 -0.000224078 5.0009 -0.000224078 5.0014 0.00013956C7.06941 0.00123047 8.92641 1.05542 9.96942 2.82052C10.0104 2.88924 10.0104 2.96706 9.96942 3.03579C8.92691 4.80125 7.06941 5.85544 5.0014 5.85653H5.0009Z" fill="#F2F5F9"/>
</g>
</svg>
