<svg width="2" height="9" viewBox="0 0 2 9" fill="none" xmlns="http://www.w3.org/2000/svg">
<path fill-rule="evenodd" clip-rule="evenodd" d="M1.1932 0.449053C1.15742 0.319737 1.08294 0.206526 0.977587 0.125053C0.872723 0.043579 0.744828 0 0.612523 0C0.480708 0 0.352323 0.043579 0.247459 0.125053C0.142105 0.206526 0.0676226 0.319737 0.0318512 0.449053C0.0147006 0.510632 0.00735028 0.572685 0.00343013 0.635685C0 0.70579 0 0.775422 0 0.845053V8.15448C0 8.22459 0 8.29374 0.00343013 8.36385C0.00735028 8.42732 0.0147006 8.4889 0.0318512 8.55001C0.0676226 8.6798 0.142105 8.79301 0.247459 8.87448C0.352323 8.95596 0.480708 9.00001 0.612523 9.00001C0.744828 9.00001 0.872723 8.95596 0.977587 8.87448C1.08294 8.79301 1.15742 8.6798 1.1932 8.55001C1.21035 8.4889 1.2177 8.42732 1.22162 8.36385C1.22505 8.29374 1.22505 8.22459 1.22505 8.15448V0.845053C1.22505 0.775422 1.22505 0.70579 1.22162 0.635685C1.2177 0.572685 1.21035 0.510632 1.1932 0.449053V0.449053Z" fill="#262883"/>
</svg>
