<svg width="2" height="9" viewBox="0 0 2 9" fill="none" xmlns="http://www.w3.org/2000/svg">
<path fill-rule="evenodd" clip-rule="evenodd" d="M1.08532 0.406286C1.05278 0.289286 0.98503 0.186857 0.889201 0.113143C0.793818 0.0394286 0.677487 0 0.557144 0C0.437246 0 0.320469 0.0394286 0.225086 0.113143C0.129257 0.186857 0.0615086 0.289286 0.0289715 0.406286C0.0133714 0.462001 0.00668572 0.518143 0.00312 0.575144C0 0.638572 0 0.701572 0 0.764572V8.23501C0 8.29844 0 8.36101 0.00312 8.42444C0.00668572 8.48187 0.0133714 8.53758 0.0289715 8.59287C0.0615086 8.7103 0.129257 8.81273 0.225086 8.88644C0.320469 8.96015 0.437246 9.00001 0.557144 9.00001C0.677487 9.00001 0.793818 8.96015 0.889201 8.88644C0.98503 8.81273 1.05278 8.7103 1.08532 8.59287C1.10092 8.53758 1.1076 8.48187 1.11117 8.42444C1.11429 8.36101 1.11429 8.29844 1.11429 8.23501V0.764572C1.11429 0.701572 1.11429 0.638572 1.11117 0.575144C1.1076 0.518143 1.10092 0.462001 1.08532 0.406286V0.406286Z" fill="#262883"/>
</svg>
