<svg width="2" height="10" viewBox="0 0 2 10" fill="none" xmlns="http://www.w3.org/2000/svg">
<path fill-rule="evenodd" clip-rule="evenodd" d="M1.12129 0.583479C1.11769 0.525653 1.11095 0.468696 1.0952 0.412175C1.06237 0.293479 0.994005 0.189565 0.897303 0.114783C0.801051 0.0400001 0.683659 0 0.56222 0C0.44123 0 0.323389 0.0400001 0.227137 0.114783C0.130435 0.189565 0.0620691 0.293479 0.0292354 0.412175C0.0134933 0.468696 0.00674664 0.525653 0.00314843 0.583479C0 0.647827 0 0.71174 0 0.775653V0.776958V9.22262V9.22393C0 9.28827 0 9.35175 0.00314843 9.4161C0.00674664 9.47436 0.0134933 9.53088 0.0292354 9.58697C0.0620691 9.7061 0.130435 9.81001 0.227137 9.8848C0.323389 9.95958 0.44123 10 0.56222 10C0.683659 10 0.801051 9.95958 0.897303 9.8848C0.994005 9.81001 1.06237 9.7061 1.0952 9.58697C1.11095 9.53088 1.11769 9.47436 1.12129 9.4161C1.12444 9.35175 1.12444 9.28827 1.12444 9.22393V9.22262V0.776958V0.775653C1.12444 0.71174 1.12444 0.647827 1.12129 0.583479V0.583479Z" fill="#262883"/>
</svg>
