<svg width="2" height="10" viewBox="0 0 2 10" fill="none" xmlns="http://www.w3.org/2000/svg">
<path fill-rule="evenodd" clip-rule="evenodd" d="M1.12727 0.583478C1.12365 0.525652 1.11687 0.468696 1.10104 0.412174C1.06803 0.293478 0.999304 0.189565 0.902087 0.114783C0.805322 0.04 0.687304 0 0.565217 0C0.443583 0 0.325113 0.04 0.228348 0.114783C0.13113 0.189565 0.0624 0.293478 0.0293913 0.412174C0.0135652 0.468696 0.00678261 0.525652 0.00316522 0.583478C0 0.647826 0 0.711739 0 0.775652V0.776956V9.22261V9.22391C0 9.28826 0 9.35174 0.00316522 9.41609C0.00678261 9.47435 0.0135652 9.53087 0.0293913 9.58695C0.0624 9.70609 0.13113 9.81 0.228348 9.88478C0.325113 9.95956 0.443583 10 0.565217 10C0.687304 10 0.805322 9.95956 0.902087 9.88478C0.999304 9.81 1.06803 9.70609 1.10104 9.58695C1.11687 9.53087 1.12365 9.47435 1.12727 9.41609C1.13043 9.35174 1.13043 9.28826 1.13043 9.22391V9.22261V0.776956V0.775652C1.13043 0.711739 1.13043 0.647826 1.12727 0.583478V0.583478Z" fill="#262883"/>
</svg>
