<svg width="16" height="12" viewBox="0 0 16 12" fill="none" xmlns="http://www.w3.org/2000/svg">
<path d="M16 7.12179C15.9985 6.05574 15.4999 5.03373 14.6138 4.27992C13.7276 3.5261 12.5261 3.10204 11.2729 3.10073H2.48339L4.87822 1.0636C4.94768 1.00653 5.00308 0.938267 5.04119 0.862792C5.07931 0.787317 5.09937 0.706141 5.10021 0.624C5.10105 0.54186 5.08265 0.4604 5.04608 0.384373C5.00951 0.308347 4.95551 0.239276 4.88723 0.181191C4.81895 0.123107 4.73775 0.0771713 4.64837 0.0460663C4.559 0.0149613 4.46323 -0.000690877 4.36667 2.29028e-05C4.27011 0.000736683 4.17468 0.0178028 4.08595 0.0502244C3.99722 0.0826459 3.91698 0.129773 3.84989 0.188858L0.213656 3.28199C0.14593 3.33945 0.092197 3.40772 0.0555344 3.48287C0.0188718 3.55803 0 3.6386 0 3.71997C0 3.80134 0.0188718 3.88191 0.0555344 3.95707C0.092197 4.03223 0.14593 4.10049 0.213656 4.15796L3.84989 7.25108C3.98705 7.36377 4.17075 7.42613 4.36144 7.42472C4.55212 7.42331 4.73452 7.35825 4.86936 7.24355C5.00419 7.12885 5.08068 6.97369 5.08234 6.81149C5.08399 6.64929 5.01069 6.49302 4.87822 6.37635L2.48339 4.33798H11.2729C12.1408 4.33798 12.9732 4.63127 13.587 5.15334C14.2007 5.6754 14.5455 6.38348 14.5455 7.12179C14.5455 7.8601 14.2007 8.56818 13.587 9.09025C12.9732 9.61231 12.1408 9.90561 11.2729 9.90561H8.00029C7.80741 9.90561 7.62243 9.97078 7.48605 10.0868C7.34966 10.2028 7.27304 10.3602 7.27304 10.5242C7.27304 10.6883 7.34966 10.8456 7.48605 10.9617C7.62243 11.0777 7.80741 11.1429 8.00029 11.1429H11.2729C12.5261 11.1415 13.7276 10.7175 14.6138 9.96367C15.4999 9.20985 15.9985 8.18784 16 7.12179V7.12179Z" fill="#FFDB03"/>
</svg>
