<svg width="2" height="12" viewBox="0 0 2 12" fill="none" xmlns="http://www.w3.org/2000/svg">
<path fill-rule="evenodd" clip-rule="evenodd" d="M1.11117 0.575143C1.1076 0.518143 1.10091 0.462 1.08531 0.406286C1.05278 0.289286 0.985029 0.186857 0.8892 0.113143C0.793817 0.0394286 0.677486 0 0.557143 0C0.437246 0 0.320469 0.0394286 0.225086 0.113143C0.129257 0.186857 0.0615086 0.289286 0.0289714 0.406286C0.0133714 0.462 0.00668572 0.518143 0.00312 0.575143C0 0.638572 0 0.701572 0 0.764572V0.765857V11.2337V11.235C0 11.2984 0 11.361 0.00312 11.4244C0.00668572 11.4819 0.0133714 11.5376 0.0289714 11.5929C0.0615086 11.7103 0.129257 11.8127 0.225086 11.8864C0.320469 11.9601 0.437246 12 0.557143 12C0.677486 12 0.793817 11.9601 0.8892 11.8864C0.985029 11.8127 1.05278 11.7103 1.08531 11.5929C1.10091 11.5376 1.1076 11.4819 1.11117 11.4244C1.11429 11.361 1.11429 11.2984 1.11429 11.235V11.2337V0.765857V0.764572C1.11429 0.701572 1.11429 0.638572 1.11117 0.575143V0.575143Z" fill="#262883"/>
</svg>
