<svg width="20" height="21" viewBox="0 0 20 21" fill="none" xmlns="http://www.w3.org/2000/svg">
<path fill-rule="evenodd" clip-rule="evenodd" d="M18.9394 6.18098L18.2941 5.08732C17.7482 4.16192 16.5385 3.84267 15.5898 4.37366V4.37366C15.1382 4.63351 14.5993 4.70723 14.092 4.57857C13.5847 4.44991 13.1506 4.12943 12.8855 3.6878C12.7149 3.4071 12.6232 3.08738 12.6198 2.76098V2.76098C12.6352 2.23767 12.433 1.73056 12.0594 1.35517C11.6858 0.979777 11.1726 0.768077 10.6366 0.768293H9.33661C8.81151 0.768287 8.30805 0.972666 7.93763 1.33621C7.56722 1.69975 7.3604 2.19248 7.36292 2.70537V2.70537C7.34736 3.76431 6.464 4.61474 5.37974 4.61463C5.04557 4.61124 4.71824 4.52172 4.43085 4.35512V4.35512C3.48213 3.82414 2.2724 4.14338 1.72652 5.06878L1.03383 6.18098C0.488609 7.10522 0.811001 8.28608 1.75498 8.82244V8.82244C2.36859 9.16846 2.74658 9.80795 2.74658 10.5C2.74658 11.1921 2.36859 11.8315 1.75498 12.1776V12.1776C0.812199 12.7103 0.489456 13.8883 1.03383 14.8098V14.8098L1.68856 15.9127C1.94433 16.3635 2.37346 16.6961 2.881 16.837C3.38854 16.9779 3.93264 16.9154 4.3929 16.6634V16.6634C4.84536 16.4055 5.38453 16.3349 5.89058 16.4672C6.39663 16.5994 6.82761 16.9237 7.08774 17.3678C7.25831 17.6485 7.34996 17.9682 7.35343 18.2946V18.2946C7.35343 19.3645 8.24133 20.2317 9.33661 20.2317H10.6366C11.7282 20.2317 12.6145 19.3701 12.6198 18.3039V18.3039C12.6172 17.7894 12.8254 17.2953 13.1978 16.9314C13.5703 16.5676 14.0762 16.3644 14.6029 16.3668C14.9363 16.3755 15.2623 16.4647 15.5518 16.6263V16.6263C16.4981 17.1589 17.707 16.844 18.2562 15.922V15.922L18.9394 14.8098C19.2038 14.3664 19.2764 13.8384 19.141 13.3426C19.0057 12.8468 18.6736 12.4242 18.2182 12.1683V12.1683C17.7629 11.9124 17.4307 11.4898 17.2954 10.994C17.16 10.4982 17.2326 9.97019 17.4971 9.52683C17.669 9.23357 17.918 8.99041 18.2182 8.82244V8.82244C19.1565 8.28637 19.4782 7.11241 18.9394 6.19024V6.19024V6.18098Z" stroke="#000140" stroke-width="1.5" stroke-linecap="round" stroke-linejoin="round"/>
<ellipse cx="9.58032" cy="10.3876" rx="2.59165" ry="2.5314" stroke="#000140" stroke-width="1.5" stroke-linecap="round" stroke-linejoin="round"/>
</svg>
