<svg width="2" height="9" viewBox="0 0 2 9" fill="none" xmlns="http://www.w3.org/2000/svg">
<path fill-rule="evenodd" clip-rule="evenodd" d="M1.19956 0.449053C1.1636 0.319737 1.08872 0.206526 0.982801 0.125053C0.877378 0.043579 0.748801 0 0.61579 0C0.483272 0 0.354202 0.043579 0.248779 0.125053C0.142863 0.206526 0.0679832 0.319737 0.0320211 0.449053C0.014779 0.510632 0.00738948 0.572685 0.00344842 0.635685C0 0.70579 0 0.775422 0 0.845053V8.15448C0 8.22459 0 8.29374 0.00344842 8.36385C0.00738948 8.42732 0.014779 8.4889 0.0320211 8.55001C0.0679832 8.6798 0.142863 8.79301 0.248779 8.87448C0.354202 8.95596 0.483272 9.00001 0.61579 9.00001C0.748801 9.00001 0.877378 8.95596 0.982801 8.87448C1.08872 8.79301 1.1636 8.6798 1.19956 8.55001C1.2168 8.4889 1.22419 8.42732 1.22813 8.36385C1.23158 8.29374 1.23158 8.22459 1.23158 8.15448V0.845053C1.23158 0.775422 1.23158 0.70579 1.22813 0.635685C1.22419 0.572685 1.2168 0.510632 1.19956 0.449053V0.449053Z" fill="#262883"/>
</svg>
