<svg width="2" height="12" viewBox="0 0 2 12" fill="none" xmlns="http://www.w3.org/2000/svg">
<path fill-rule="evenodd" clip-rule="evenodd" d="M1.19664 0.619384C1.1928 0.558 1.1856 0.497538 1.1688 0.437538C1.13376 0.311538 1.0608 0.201231 0.9576 0.121846C0.85488 0.0424615 0.7296 0 0.6 0C0.47088 0 0.34512 0.0424615 0.2424 0.121846C0.1392 0.201231 0.06624 0.311538 0.0312 0.437538C0.0144 0.497538 0.0072 0.558 0.00336 0.619384C0 0.687692 0 0.755538 0 0.823384V0.824769V11.1748V11.1762C0 11.2445 0 11.3118 0.00336 11.3802C0.0072 11.442 0.0144 11.502 0.0312 11.5615C0.06624 11.688 0.1392 11.7983 0.2424 11.8777C0.34512 11.9571 0.47088 12 0.6 12C0.7296 12 0.85488 11.9571 0.9576 11.8777C1.0608 11.7983 1.13376 11.688 1.1688 11.5615C1.1856 11.502 1.1928 11.442 1.19664 11.3802C1.2 11.3118 1.2 11.2445 1.2 11.1762V11.1748V0.824769V0.823384C1.2 0.755538 1.2 0.687692 1.19664 0.619384V0.619384Z" fill="#262883"/>
</svg>
