<svg width="16" height="12" viewBox="0 0 16 12" fill="none" xmlns="http://www.w3.org/2000/svg">
<path d="M16 7.66962C15.9985 6.52157 15.4999 5.42094 14.6138 4.60914C13.7276 3.79734 12.5261 3.34066 11.2729 3.33925H2.48339L4.87822 1.14541C4.94768 1.08395 5.00308 1.01044 5.04119 0.929161C5.07931 0.84788 5.09937 0.76046 5.10021 0.672001C5.10105 0.583542 5.08265 0.495816 5.04608 0.413941C5.00951 0.332066 4.95551 0.257682 4.88723 0.195129C4.81895 0.132577 4.73775 0.083108 4.64837 0.0496103C4.559 0.0161126 4.46323 -0.000743564 4.36667 2.51223e-05C4.27011 0.000793808 4.17468 0.0191728 4.08595 0.0540883C3.99722 0.0890037 3.91698 0.139756 3.84989 0.203386L0.213656 3.53445C0.14593 3.59633 0.092197 3.66985 0.0555344 3.75079C0.0188718 3.83173 0 3.91849 0 4.00612C0 4.09375 0.0188718 4.18052 0.0555344 4.26146C0.092197 4.3424 0.14593 4.41592 0.213656 4.4778L3.84989 7.80886C3.98705 7.93022 4.17075 7.99737 4.36144 7.99585C4.55212 7.99433 4.73452 7.92427 4.86936 7.80075C5.00419 7.67722 5.08068 7.51013 5.08234 7.33545C5.08399 7.16077 5.01069 6.99249 4.87822 6.86684L2.48339 4.67167H11.2729C12.1408 4.67167 12.9732 4.98752 13.587 5.54975C14.2007 6.11198 14.5455 6.87452 14.5455 7.66962C14.5455 8.46473 14.2007 9.22727 13.587 9.7895C12.9732 10.3517 12.1408 10.6676 11.2729 10.6676H8.00029C7.80741 10.6676 7.62243 10.7378 7.48605 10.8627C7.34966 10.9876 7.27304 11.1571 7.27304 11.3338C7.27304 11.5105 7.34966 11.6799 7.48605 11.8049C7.62243 11.9298 7.80741 12 8.00029 12H11.2729C12.5261 11.9986 13.7276 11.5419 14.6138 10.7301C15.4999 9.91831 15.9985 8.81768 16 7.66962V7.66962Z" fill="#FFDB03"/>
</svg>
