<svg width="2" height="14" viewBox="0 0 2 14" fill="none" xmlns="http://www.w3.org/2000/svg">
<path fill-rule="evenodd" clip-rule="evenodd" d="M1.13432 0.587125C1.13068 0.528938 1.12385 0.471625 1.10793 0.41475C1.07471 0.295313 1.00555 0.19075 0.907725 0.1155C0.810355 0.04025 0.6916 0 0.56875 0C0.446355 0 0.327145 0.04025 0.229775 0.1155C0.13195 0.19075 0.06279 0.295313 0.029575 0.41475C0.01365 0.471625 0.006825 0.528938 0.003185 0.587125C0 0.651875 0 0.716188 0 0.7805V0.781813V13.2178V13.2191C0 13.2838 0 13.3477 0.003185 13.4124C0.006825 13.4711 0.01365 13.5279 0.029575 13.5844C0.06279 13.7043 0.13195 13.8088 0.229775 13.8841C0.327145 13.9593 0.446355 14 0.56875 14C0.6916 14 0.810355 13.9593 0.907725 13.8841C1.00555 13.8088 1.07471 13.7043 1.10793 13.5844C1.12385 13.5279 1.13068 13.4711 1.13432 13.4124C1.1375 13.3477 1.1375 13.2838 1.1375 13.2191V13.2178V0.781813V0.7805C1.1375 0.716188 1.1375 0.651875 1.13432 0.587125V0.587125Z" fill="#262883"/>
</svg>
