<svg width="2" height="14" viewBox="0 0 2 14" fill="none" xmlns="http://www.w3.org/2000/svg">
<path fill-rule="evenodd" clip-rule="evenodd" d="M1.1283 0.587125C1.12468 0.528938 1.11789 0.471625 1.10205 0.41475C1.06901 0.295313 1.00022 0.19075 0.90291 0.1155C0.806056 0.04025 0.687931 0 0.565733 0C0.443987 0 0.32541 0.04025 0.228556 0.1155C0.13125 0.19075 0.0624569 0.295313 0.0294181 0.41475C0.0135776 0.471625 0.00678879 0.528938 0.0031681 0.587125C0 0.651875 0 0.716188 0 0.7805V0.781813V13.2178V13.2191C0 13.2838 0 13.3477 0.0031681 13.4124C0.00678879 13.4711 0.0135776 13.5279 0.0294181 13.5844C0.0624569 13.7043 0.13125 13.8088 0.228556 13.8841C0.32541 13.9593 0.443987 14 0.565733 14C0.687931 14 0.806056 13.9593 0.90291 13.8841C1.00022 13.8088 1.06901 13.7043 1.10205 13.5844C1.11789 13.5279 1.12468 13.4711 1.1283 13.4124C1.13147 13.3477 1.13147 13.2838 1.13147 13.2191V13.2178V0.781813V0.7805C1.13147 0.716188 1.13147 0.651875 1.1283 0.587125V0.587125Z" fill="#262883"/>
</svg>
