<svg width="2" height="9" viewBox="0 0 2 9" fill="none" xmlns="http://www.w3.org/2000/svg">
<path fill-rule="evenodd" clip-rule="evenodd" d="M1.16673 0.603901C1.16298 0.544051 1.15596 0.485101 1.13958 0.4266C1.10542 0.30375 1.03428 0.1962 0.933661 0.1188C0.833509 0.0414 0.711361 0 0.585001 0C0.459108 0 0.336492 0.0414 0.23634 0.1188C0.13572 0.1962 0.0645841 0.30375 0.03042 0.4266C0.01404 0.485101 0.00702001 0.544051 0.003276 0.603901C0 0.670501 0 0.736651 0 0.802801V0.804151V8.19541V8.19676C0 8.26336 0 8.32906 0.003276 8.39566C0.00702001 8.45596 0.01404 8.51446 0.03042 8.57251C0.0645841 8.69581 0.13572 8.80336 0.23634 8.88076C0.336492 8.95816 0.459108 9.00001 0.585001 9.00001C0.711361 9.00001 0.833509 8.95816 0.933661 8.88076C1.03428 8.80336 1.10542 8.69581 1.13958 8.57251C1.15596 8.51446 1.16298 8.45596 1.16673 8.39566C1.17 8.32906 1.17 8.26336 1.17 8.19676V8.19541V0.804151V0.802801C1.17 0.736651 1.17 0.670501 1.16673 0.603901V0.603901Z" fill="#262883"/>
</svg>
