<svg width="2" height="4" viewBox="0 0 2 4" fill="none" xmlns="http://www.w3.org/2000/svg">
<path fill-rule="evenodd" clip-rule="evenodd" d="M1.29586 0.671C1.29222 0.6045 1.28442 0.539 1.26674 0.474C1.22826 0.3375 1.14974 0.218 1.03742 0.132C0.926138 0.046 0.790417 0 0.650017 0C0.509617 0 0.373897 0.046 0.262617 0.132C0.150297 0.218 0.0717772 0.3375 0.0332972 0.474C0.0156172 0.539 0.00781719 0.6045 0.00417719 0.671C-0.00050281 0.745 1.71901e-05 0.8185 1.71901e-05 0.892V0.8935V3.106V3.1075C1.71901e-05 3.181 -0.00050281 3.2545 0.00417719 3.3285C0.00781719 3.3955 0.0156172 3.4605 0.0332972 3.5255C0.0717772 3.662 0.150297 3.7815 0.262617 3.8675C0.373897 3.9535 0.509617 4 0.650017 4C0.790417 4 0.926138 3.9535 1.03742 3.8675C1.14974 3.7815 1.22826 3.662 1.26674 3.5255C1.28442 3.4605 1.29222 3.3955 1.29586 3.3285C1.30054 3.2545 1.30002 3.181 1.30002 3.1075V3.106V0.8935V0.892C1.30002 0.8185 1.30054 0.745 1.29586 0.671V0.671Z" fill="#262883"/>
</svg>
