<svg width="2" height="10" viewBox="0 0 2 10" fill="none" xmlns="http://www.w3.org/2000/svg">
<path fill-rule="evenodd" clip-rule="evenodd" d="M1.14499 0.43091C1.11066 0.306819 1.03919 0.198182 0.938089 0.12C0.837462 0.0418182 0.714735 0 0.587775 0C0.461286 0 0.338088 0.0418182 0.237461 0.12C0.136364 0.198182 0.0648904 0.306819 0.0305643 0.43091C0.0141066 0.490001 0.0070533 0.549546 0.00329154 0.610001C0 0.677274 0 0.744092 0 0.81091V9.18865C0 9.25592 0 9.32228 0.00329154 9.38956C0.0070533 9.45047 0.0141066 9.50956 0.0305643 9.56819C0.0648904 9.69274 0.136364 9.80138 0.237461 9.87956C0.338088 9.95774 0.461286 10 0.587775 10C0.714735 10 0.837462 9.95774 0.938089 9.87956C1.03919 9.80138 1.11066 9.69274 1.14499 9.56819C1.16144 9.50956 1.1685 9.45047 1.17226 9.38956C1.17555 9.32228 1.17555 9.25592 1.17555 9.18865V0.81091C1.17555 0.744092 1.17555 0.677274 1.17226 0.610001C1.1685 0.549546 1.16144 0.490001 1.14499 0.43091V0.43091Z" fill="#262883"/>
</svg>
