<svg width="24" height="22" viewBox="0 0 24 22" fill="none" xmlns="http://www.w3.org/2000/svg">
<path d="M17.374 0C15.2891 0 13.2881 0.971118 11.9821 2.50572C10.676 0.971118 8.67502 0 6.59014 0C2.89966 0 0 2.90137 0 6.59401C0 11.1259 4.0739 14.8185 10.2447 20.4295L11.9821 22L13.7195 20.4175C19.8902 14.8185 23.9641 11.1259 23.9641 6.59401C23.9641 2.90137 21.0645 0 17.374 0ZM12.1019 18.6431L11.9821 18.763L11.8622 18.6431C6.15878 13.4758 2.39641 10.0589 2.39641 6.59401C2.39641 4.19619 4.19372 2.39782 6.59014 2.39782C8.43538 2.39782 10.2327 3.58475 10.8677 5.22725H13.1084C13.7315 3.58475 15.5288 2.39782 17.374 2.39782C19.7704 2.39782 21.5677 4.19619 21.5677 6.59401C21.5677 10.0589 17.8054 13.4758 12.1019 18.6431Z" fill="#F2F5F9" fill-opacity="0.05"/>
</svg>
