<svg width="13" height="11" viewBox="0 0 13 11" fill="none" xmlns="http://www.w3.org/2000/svg">
<path d="M0 9.19064V1.62188C0 1.19173 0.186769 0.779198 0.51922 0.475037C0.851672 0.170876 1.30257 0 1.77273 0H11.2273C11.384 0 11.5343 0.0569586 11.6451 0.158346C11.7559 0.259733 11.8182 0.397243 11.8182 0.540626C11.8182 0.684008 11.7559 0.821519 11.6451 0.922906C11.5343 1.02429 11.384 1.08125 11.2273 1.08125H1.77273C1.61601 1.08125 1.46571 1.13821 1.35489 1.2396C1.24408 1.34098 1.18182 1.47849 1.18182 1.62188C1.18182 1.76526 1.24408 1.90277 1.35489 2.00416C1.46571 2.10554 1.61601 2.1625 1.77273 2.1625H11.2273C11.384 2.1625 11.5343 2.21946 11.6451 2.32085C11.7559 2.42224 11.8182 2.55975 11.8182 2.70313V4.325C11.8182 4.46839 11.7559 4.6059 11.6451 4.70728C11.5343 4.80867 11.384 4.86563 11.2273 4.86563C11.0706 4.86563 10.9203 4.80867 10.8094 4.70728C10.6986 4.6059 10.6364 4.46839 10.6364 4.325V3.24375H1.77273C1.57097 3.24196 1.37106 3.20831 1.18182 3.14428V9.19064C1.18182 9.33402 1.24408 9.47153 1.35489 9.57292C1.46571 9.6743 1.61601 9.73126 1.77273 9.73126H6.50001C6.65673 9.73126 6.80703 9.78822 6.91784 9.88961C7.02866 9.99099 7.09092 10.1285 7.09092 10.2719C7.09092 10.4153 7.02866 10.5528 6.91784 10.6542C6.80703 10.7556 6.65673 10.8125 6.50001 10.8125H1.77273C1.30257 10.8125 0.851672 10.6416 0.51922 10.3375C0.186769 10.0333 0 9.62078 0 9.19064ZM13 8.10938C13 8.64401 12.8267 9.16663 12.5021 9.61116C12.1774 10.0557 11.716 10.4022 11.1761 10.6067C10.6362 10.8113 10.0422 10.8649 9.46906 10.7606C8.89594 10.6563 8.36949 10.3988 7.95628 10.0208C7.54308 9.64274 7.26169 9.16109 7.14769 8.63674C7.03369 8.11238 7.0922 7.56887 7.31582 7.07494C7.53944 6.58101 7.91813 6.15884 8.40401 5.86182C8.88988 5.56479 9.46111 5.40626 10.0455 5.40626C10.8288 5.40711 11.5797 5.69218 12.1336 6.19893C12.6875 6.70568 12.9991 7.39273 13 8.10938ZM11.8182 8.10938C11.8182 7.78861 11.7142 7.47503 11.5194 7.20832C11.3246 6.9416 11.0478 6.73372 10.7239 6.61097C10.3999 6.48821 10.0435 6.45609 9.69962 6.51867C9.35575 6.58125 9.03988 6.73572 8.79196 6.96254C8.54404 7.18937 8.3752 7.47836 8.3068 7.79297C8.2384 8.10758 8.2735 8.43369 8.40768 8.73005C8.54185 9.02641 8.76907 9.27971 9.06059 9.45793C9.35211 9.63614 9.69485 9.73126 10.0455 9.73126C10.5156 9.73126 10.9665 9.56038 11.299 9.25622C11.6314 8.95206 11.8182 8.53953 11.8182 8.10938Z" fill="#FDE74C"/>
</svg>
