<svg width="12" height="12" viewBox="0 0 12 12" fill="none" xmlns="http://www.w3.org/2000/svg">
<path d="M9.81183 4.3597C10.2425 4.3597 10.6634 4.23185 11.0215 3.99233C11.3795 3.7528 11.6586 3.41236 11.8234 3.01404C11.9882 2.61573 12.0313 2.17743 11.9473 1.75458C11.8633 1.33173 11.6559 0.943321 11.3514 0.638464C11.0469 0.333606 10.659 0.125996 10.2366 0.0418861C9.81424 -0.0422238 9.37646 0.000944487 8.97862 0.165932C8.58077 0.33092 8.24072 0.610316 8.00148 0.96879C7.76223 1.32726 7.63454 1.74872 7.63454 2.17985C7.63744 2.38543 7.66989 2.58952 7.73088 2.78585L3.85748 4.6082C3.57226 4.26172 3.18713 4.01187 2.75473 3.89279C2.32232 3.77372 1.86374 3.79123 1.44165 3.94293C1.01956 4.09462 0.654557 4.37311 0.396519 4.74034C0.138481 5.10756 0 5.54559 0 5.99458C0 6.44357 0.138481 6.88161 0.396519 7.24883C0.654557 7.61605 1.01956 7.89454 1.44165 8.04624C1.86374 8.19794 2.32232 8.21545 2.75473 8.09637C3.18713 7.9773 3.57226 7.72745 3.85748 7.38097L7.73088 9.20332C7.66989 9.39964 7.63744 9.60374 7.63454 9.80932C7.6333 10.3145 7.8069 10.8045 8.12583 11.1959C8.44475 11.5874 8.88929 11.8562 9.38381 11.9565C9.87834 12.0568 10.3923 11.9825 10.8383 11.7462C11.2842 11.5099 11.6347 11.1262 11.8299 10.6604C12.0252 10.1946 12.0532 9.67542 11.9093 9.19124C11.7653 8.70707 11.4583 8.28778 11.0404 8.00471C10.6224 7.72164 10.1195 7.59227 9.61703 7.63862C9.11458 7.68496 8.64369 7.90415 8.28446 8.2589L4.32778 6.39785C4.38221 6.13195 4.38221 5.85776 4.32778 5.59186L8.28446 3.73027C8.69088 4.13332 9.23977 4.35952 9.81183 4.3597ZM9.81183 1.08993C10.0271 1.08993 10.2376 1.15385 10.4166 1.27361C10.5957 1.39337 10.7352 1.5636 10.8176 1.76275C10.9 1.96191 10.9216 2.18106 10.8796 2.39248C10.8376 2.60391 10.7339 2.79811 10.5816 2.95054C10.4294 3.10297 10.2354 3.20678 10.0242 3.24883C9.81304 3.29089 9.59415 3.2693 9.39522 3.18681C9.1963 3.10431 9.02628 2.96462 8.90665 2.78538C8.78703 2.60614 8.72318 2.39542 8.72318 2.17985C8.72318 1.89078 8.83788 1.61356 9.04204 1.40916C9.2462 1.20476 9.5231 1.08993 9.81183 1.08993V1.08993ZM2.19131 7.08451C1.976 7.08451 1.76552 7.02058 1.58649 6.90082C1.40746 6.78106 1.26793 6.61084 1.18553 6.41168C1.10314 6.21252 1.08158 5.99337 1.12358 5.78195C1.16559 5.57052 1.26927 5.37632 1.42152 5.22389C1.57377 5.07146 1.76775 4.96766 1.97893 4.9256C2.1901 4.88355 2.40899 4.90513 2.60792 4.98762C2.80684 5.07012 2.97686 5.20982 3.09649 5.38905C3.21611 5.56829 3.27996 5.77902 3.27996 5.99458C3.27996 6.28365 3.16526 6.56087 2.9611 6.76528C2.75694 6.96968 2.48004 7.08451 2.19131 7.08451ZM9.81183 8.71939C10.0271 8.71939 10.2376 8.78332 10.4166 8.90308C10.5957 9.02284 10.7352 9.19306 10.8176 9.39222C10.9 9.59138 10.9216 9.81053 10.8796 10.022C10.8376 10.2334 10.7339 10.4276 10.5816 10.58C10.4294 10.7324 10.2354 10.8362 10.0242 10.8783C9.81304 10.9204 9.59415 10.8988 9.39522 10.8163C9.1963 10.7338 9.02628 10.5941 8.90665 10.4148C8.78703 10.2356 8.72318 10.0249 8.72318 9.80932C8.72318 9.52025 8.83788 9.24302 9.04204 9.03862C9.2462 8.83422 9.5231 8.71939 9.81183 8.71939V8.71939Z" fill="#FFDB03"/>
</svg>
