<svg width="2" height="2" viewBox="0 0 2 2" fill="none" xmlns="http://www.w3.org/2000/svg">
<path fill-rule="evenodd" clip-rule="evenodd" d="M1.67587 0.632003C1.62553 0.450002 1.5207 0.290668 1.37242 0.176001C1.22483 0.0613336 1.04483 0 0.858625 0C0.673107 0 0.492416 0.0613336 0.344829 0.176001C0.196553 0.290668 0.0917246 0.450002 0.0413795 0.632003C0.0172415 0.71867 0.00689659 0.806004 0.00137932 0.894671C-0.000689658 0.930004 0.000689659 0.964671 0 1C0.000689659 1.03467 -0.000689658 1.07 0.00137932 1.10467C0.00689659 1.19401 0.0172415 1.28067 0.0413795 1.36734C0.0917246 1.54934 0.196553 1.70867 0.344829 1.82334C0.492416 1.93801 0.673107 2.00001 0.858625 2.00001C1.04483 2.00001 1.22483 1.93801 1.37242 1.82334C1.5207 1.70867 1.62553 1.54934 1.67587 1.36734C1.70001 1.28067 1.71035 1.19401 1.71587 1.10467C1.71794 1.07 1.71656 1.03467 1.71725 1C1.71656 0.964671 1.71794 0.930004 1.71587 0.894671C1.71035 0.806004 1.70001 0.71867 1.67587 0.632003V0.632003Z" fill="#262883"/>
</svg>
