<svg width="7" height="8" viewBox="0 0 7 8" fill="none" xmlns="http://www.w3.org/2000/svg">
<path d="M0 1.2V0.4C0 0.293913 0.0368749 0.192172 0.102513 0.117157C0.16815 0.0421427 0.257174 0 0.35 0H6.65C6.74283 0 6.83185 0.0421427 6.89749 0.117157C6.96313 0.192172 7 0.293913 7 0.4V1.2C7 1.30609 6.96313 1.40783 6.89749 1.48284C6.83185 1.55786 6.74283 1.6 6.65 1.6C6.55717 1.6 6.46815 1.55786 6.40251 1.48284C6.33687 1.40783 6.3 1.30609 6.3 1.2V0.8H3.85V7.2H4.9C4.99283 7.2 5.08185 7.24214 5.14749 7.31716C5.21313 7.39217 5.25 7.49391 5.25 7.6C5.25 7.70609 5.21313 7.80783 5.14749 7.88284C5.08185 7.95786 4.99283 8 4.9 8H2.1C2.00717 8 1.91815 7.95786 1.85251 7.88284C1.78687 7.80783 1.75 7.70609 1.75 7.6C1.75 7.49391 1.78687 7.39217 1.85251 7.31716C1.91815 7.24214 2.00717 7.2 2.1 7.2H3.15V0.8H0.7V1.2C0.7 1.30609 0.663125 1.40783 0.597487 1.48284C0.53185 1.55786 0.442826 1.6 0.35 1.6C0.257174 1.6 0.16815 1.55786 0.102513 1.48284C0.0368749 1.40783 0 1.30609 0 1.2V1.2Z" fill="#FDE74C"/>
</svg>
