<svg width="2" height="7" viewBox="0 0 2 7" fill="none" xmlns="http://www.w3.org/2000/svg">
<path fill-rule="evenodd" clip-rule="evenodd" d="M1.13432 0.587125C1.13068 0.528938 1.12385 0.471625 1.10793 0.41475C1.07471 0.295313 1.00555 0.19075 0.907725 0.1155C0.810355 0.04025 0.6916 0 0.56875 0C0.446355 0 0.327145 0.04025 0.229775 0.1155C0.13195 0.19075 0.06279 0.295313 0.029575 0.41475C0.01365 0.471625 0.006825 0.528938 0.003185 0.587125C0 0.651875 0 0.716188 0 0.7805V0.781813V6.21775V6.21906C0 6.28338 0 6.34769 0.003185 6.41244C0.006825 6.47106 0.01365 6.52794 0.029575 6.58438C0.06279 6.70425 0.13195 6.80881 0.229775 6.88406C0.327145 6.95931 0.446355 7 0.56875 7C0.6916 7 0.810355 6.95931 0.907725 6.88406C1.00555 6.80881 1.07471 6.70425 1.10793 6.58438C1.12385 6.52794 1.13068 6.47106 1.13432 6.41244C1.1375 6.34769 1.1375 6.28338 1.1375 6.21906V6.21775V0.781813V0.7805C1.1375 0.716188 1.1375 0.651875 1.13432 0.587125V0.587125Z" fill="#262883"/>
</svg>
