<svg width="204" height="177" viewBox="0 0 204 177" fill="none" xmlns="http://www.w3.org/2000/svg">
<path fill-rule="evenodd" clip-rule="evenodd" d="M151.465 93.1838C160.956 109.623 156.46 127.704 138.545 138.048L87.2638 167.655C69.3646 177.989 51.5321 172.799 42.0409 156.36L8.89559 98.9505C-0.590837 82.5195 3.78347 64.3989 21.7734 54.0124L72.9635 24.4578C90.8792 14.1142 108.833 19.3434 118.32 35.7743L151.465 93.1838Z" fill="#000140" stroke="#070856" stroke-width="8" stroke-linecap="round" stroke-linejoin="round"/>
<path fill-rule="evenodd" clip-rule="evenodd" d="M130.779 57.3538L148.6 10.1774C151.414 2.66897 161.769 1.80416 165.803 8.79062L198.529 65.4742C202.568 72.4689 196.631 80.9883 188.727 79.6791L138.96 71.5247" fill="#000140"/>
<path d="M130.779 57.3538L148.6 10.1774C151.414 2.66897 161.769 1.80416 165.803 8.79062L198.529 65.4742C202.568 72.4689 196.631 80.9883 188.727 79.6791L138.96 71.5247" stroke="#070856" stroke-width="8" stroke-linecap="round" stroke-linejoin="round"/>
</svg>
