<svg width="2" height="9" viewBox="0 0 2 9" fill="none" xmlns="http://www.w3.org/2000/svg">
<path fill-rule="evenodd" clip-rule="evenodd" d="M1.13354 0.4266C1.09955 0.30375 1.02879 0.1962 0.928708 0.1188C0.829087 0.0414 0.707587 0 0.581897 0C0.456673 0 0.334707 0.0414 0.235086 0.1188C0.135 0.1962 0.0642414 0.30375 0.0302587 0.4266C0.0139655 0.485101 0.00698277 0.544051 0.00325862 0.603901C0 0.670501 0 0.736651 0 0.802801V8.19676C0 8.26336 0 8.32906 0.00325862 8.39566C0.00698277 8.45596 0.0139655 8.51446 0.0302587 8.57251C0.0642414 8.69581 0.135 8.80336 0.235086 8.88076C0.334707 8.95816 0.456673 9.00001 0.581897 9.00001C0.707587 9.00001 0.829087 8.95816 0.928708 8.88076C1.02879 8.80336 1.09955 8.69581 1.13354 8.57251C1.14983 8.51446 1.15681 8.45596 1.16054 8.39566C1.16379 8.32906 1.16379 8.26336 1.16379 8.19676V0.802801C1.16379 0.736651 1.16379 0.670501 1.16054 0.603901C1.15681 0.544051 1.14983 0.485101 1.13354 0.4266V0.4266Z" fill="#262883"/>
</svg>
