<svg width="14" height="14" viewBox="0 0 14 14" fill="none" xmlns="http://www.w3.org/2000/svg">
<path d="M13.3 4.2H4.9C4.71435 4.2 4.5363 4.27375 4.40503 4.40503C4.27375 4.5363 4.2 4.71435 4.2 4.9V13.3C4.2 13.4857 4.27375 13.6637 4.40503 13.795C4.5363 13.9263 4.71435 14 4.9 14H13.3C13.4857 14 13.6637 13.9263 13.795 13.795C13.9263 13.6637 14 13.4857 14 13.3V4.9C14 4.71435 13.9263 4.5363 13.795 4.40503C13.6637 4.27375 13.4857 4.2 13.3 4.2ZM12.6 12.6H5.6V5.6H12.6V12.6ZM2.8 9.1C2.8 9.28565 2.72625 9.4637 2.59497 9.59497C2.4637 9.72625 2.28565 9.8 2.1 9.8H0.7C0.514348 9.8 0.336301 9.72625 0.205025 9.59497C0.0737498 9.4637 0 9.28565 0 9.1V0.7C0 0.514348 0.0737498 0.336301 0.205025 0.205025C0.336301 0.0737498 0.514348 0 0.7 0H9.1C9.28565 0 9.4637 0.0737498 9.59497 0.205025C9.72625 0.336301 9.8 0.514348 9.8 0.7V2.1C9.8 2.28565 9.72625 2.4637 9.59497 2.59497C9.4637 2.72625 9.28565 2.8 9.1 2.8C8.91435 2.8 8.7363 2.72625 8.60503 2.59497C8.47375 2.4637 8.4 2.28565 8.4 2.1V1.4H1.4V8.4H2.1C2.28565 8.4 2.4637 8.47375 2.59497 8.60503C2.72625 8.7363 2.8 8.91435 2.8 9.1Z" fill="#000140"/>
</svg>
