<svg width="28" height="29" viewBox="0 0 28 29" fill="none" xmlns="http://www.w3.org/2000/svg">
<path d="M23.9244 28.0164H25.9084L24.5055 26.4222C23.749 25.5626 23.2767 24.4445 23.1497 23.2317C25.1236 21.7596 26.567 19.8229 27.3396 17.6019C28.1118 15.3826 28.2088 12.9395 27.6202 10.5367C26.914 7.65353 25.2576 5.02565 22.9563 3.13703C20.4555 1.0848 17.3423 0 13.9532 0C9.68384 0 6.08522 1.39391 3.54657 4.03094C1.25955 6.40667 3.12949e-07 9.61119 3.12949e-07 13.0543C3.12949e-07 14.727 0.299738 16.3547 0.890832 17.892C1.50253 19.4827 2.39824 20.8992 3.55309 22.1018C6.09514 24.7493 9.69151 26.1487 13.9533 26.1487C15.5353 26.1487 17.1862 25.9086 18.6602 25.4682C20.0553 27.0946 21.9458 28.0164 23.9244 28.0164V28.0164ZM13.9532 1.86776C20.7489 1.86776 24.9188 6.47323 26.0368 11.0375C27.0933 15.3508 25.5359 19.4265 21.8707 21.94L21.4611 22.2208L21.4737 22.7641C21.4987 23.8396 21.7243 24.8755 22.1282 25.8118C21.1448 25.4337 20.2525 24.7483 19.5537 23.8102L19.2063 23.3437L18.691 23.5188C17.245 24.0103 15.5625 24.2809 13.9532 24.2809C5.49566 24.2809 1.6436 18.4614 1.6436 13.0543C1.6436 10.1421 2.71326 7.42709 4.65556 5.40953C6.88609 3.09251 10.1012 1.86776 13.9532 1.86776V1.86776Z" fill="white" fill-opacity="0.12"/>
</svg>
