<svg width="2" height="15" viewBox="0 0 2 15" fill="none" xmlns="http://www.w3.org/2000/svg">
<path fill-rule="evenodd" clip-rule="evenodd" d="M1.14385 0.592059C1.14018 0.533382 1.13329 0.475588 1.11724 0.418235C1.08374 0.297794 1.014 0.192353 0.915353 0.116471C0.817165 0.0405882 0.697412 0 0.573529 0C0.450106 0 0.329894 0.0405882 0.231706 0.116471C0.133059 0.192353 0.0633176 0.297794 0.0298235 0.418235C0.0137647 0.475588 0.00688235 0.533382 0.00321176 0.592059C0 0.657353 0 0.722206 0 0.787059V0.788382V14.2112V14.2125C0 14.2778 0 14.3422 0.00321176 14.4075C0.00688235 14.4666 0.0137647 14.524 0.0298235 14.5809C0.0633176 14.7018 0.133059 14.8072 0.231706 14.8831C0.329894 14.959 0.450106 15 0.573529 15C0.697412 15 0.817165 14.959 0.915353 14.8831C1.014 14.8072 1.08374 14.7018 1.11724 14.5809C1.13329 14.524 1.14018 14.4666 1.14385 14.4075C1.14706 14.3422 1.14706 14.2778 1.14706 14.2125V14.2112V0.788382V0.787059C1.14706 0.722206 1.14706 0.657353 1.14385 0.592059V0.592059Z" fill="#262883"/>
</svg>
