<svg width="289" height="22" viewBox="0 0 289 22" fill="none" xmlns="http://www.w3.org/2000/svg">
<path d="M7.41622 19.7954V16.725C7.4162 15.944 8.0529 15.3094 8.84175 15.3042H11.7313C12.524 15.3042 13.1665 15.9403 13.1665 16.725V16.725V19.805C13.1663 20.4681 13.7009 21.01 14.3705 21.0255H16.2969C18.2172 21.0255 19.774 19.4843 19.774 17.5832V17.5832V8.84858C19.7638 8.10066 19.409 7.39833 18.8108 6.94146L12.2226 1.68735C11.0684 0.772504 9.42765 0.772504 8.27346 1.68735L1.71411 6.951C1.11361 7.40602 0.758308 8.10951 0.750912 8.85812V17.5832C0.750912 19.4843 2.30768 21.0255 4.22805 21.0255H6.15444C6.84066 21.0255 7.39696 20.4748 7.39696 19.7954V19.7954" stroke="#FDE74C" stroke-width="1.5" stroke-linecap="round" stroke-linejoin="round"/>
<circle cx="77.8331" cy="10.0007" r="8.99949" stroke="#FDE74C" stroke-width="1.5" stroke-linecap="round" stroke-linejoin="round"/>
<path d="M84.0924 16.7273L87.6207 20.2465" stroke="#FDE74C" stroke-width="1.5" stroke-linecap="round" stroke-linejoin="round"/>
<circle cx="280.67" cy="5.78506" r="4.78384" stroke="#FDE74C" stroke-width="1.5" stroke-linecap="round" stroke-linejoin="round"/>
<path fill-rule="evenodd" clip-rule="evenodd" d="M273.082 17.2222C273.08 16.8859 273.156 16.5537 273.302 16.2508C273.76 15.3343 275.052 14.8486 276.124 14.6287C276.898 14.4637 277.682 14.3534 278.47 14.2988C279.931 14.1705 281.4 14.1705 282.86 14.2988C283.649 14.354 284.433 14.4643 285.206 14.6287C286.278 14.8486 287.571 15.2885 288.029 16.2508C288.323 16.8683 288.323 17.5853 288.029 18.2028C287.571 19.1651 286.278 19.605 285.206 19.8158C284.434 19.9876 283.65 20.101 282.86 20.1548C281.671 20.2556 280.477 20.274 279.286 20.2098C279.011 20.2098 278.745 20.2098 278.47 20.1548C277.684 20.1016 276.903 19.9883 276.133 19.8158C275.052 19.605 273.769 19.1651 273.302 18.2028C273.156 17.8964 273.081 17.5614 273.082 17.2222Z" stroke="#FDE74C" stroke-width="1.5" stroke-linecap="round" stroke-linejoin="round"/>
<path fill-rule="evenodd" clip-rule="evenodd" d="M205 12.8027V12.5834C205.032 11.9347 205.24 11.3062 205.602 10.7627C206.205 10.1097 206.618 9.30961 206.797 8.44623C206.797 7.77895 206.797 7.10213 206.855 6.43484C207.156 3.22233 210.333 1.00122 213.47 1.00122H213.548C216.686 1.00122 219.862 3.22233 220.173 6.43484C220.231 7.10213 220.173 7.77895 220.221 8.44623C220.403 9.31161 220.815 10.1142 221.416 10.7722C221.781 11.3109 221.989 11.9372 222.019 12.5834V12.7931C222.04 13.6646 221.74 14.5144 221.173 15.1858C220.425 15.9709 219.409 16.4593 218.318 16.5585C215.118 16.9017 211.89 16.9017 208.691 16.5585C207.601 16.455 206.587 15.9673 205.835 15.1858C205.277 14.5139 204.981 13.6692 205 12.8027Z" stroke="#FDE74C" stroke-width="1.5" stroke-linecap="round" stroke-linejoin="round"/>
<path d="M211.061 19.8759C211.561 20.5034 212.295 20.9094 213.101 21.0043C213.907 21.0991 214.718 20.8748 215.355 20.3812C215.551 20.2352 215.727 20.0654 215.879 19.8759" stroke="#FDE74C" stroke-width="1.5" stroke-linecap="round" stroke-linejoin="round"/>
<circle cx="221.018" cy="5.00608" r="4.00365" fill="#FDE74C" stroke="#000140" stroke-width="2"/>
</svg>
