<svg width="70" height="63" viewBox="0 0 70 63" fill="none" xmlns="http://www.w3.org/2000/svg">
<path d="M30.5958 2.57219C32.3974 -0.857395 37.6026 -0.857398 39.4042 2.57219L46.415 15.9185C47.1304 17.2803 48.5133 18.2243 50.1129 18.4427L65.7895 20.5829C69.8179 21.1328 71.4264 25.7839 68.5115 28.4535L57.1678 38.8421C56.0102 39.9022 55.482 41.4296 55.7553 42.9264L58.4332 57.5954C59.1213 61.3649 54.9101 64.2394 51.307 62.4597L37.2855 55.534C35.8547 54.8272 34.1453 54.8272 32.7145 55.534L18.693 62.4597C15.0899 64.2394 10.8787 61.3649 11.5668 57.5954L14.2447 42.9264C14.518 41.4296 13.9898 39.9022 12.8322 38.8421L1.48854 28.4535C-1.42644 25.7839 0.182082 21.1328 4.21049 20.5829L19.8871 18.4427C21.4867 18.2243 22.8696 17.2803 23.585 15.9185L30.5958 2.57219Z" fill="#FFDB03"/>
</svg>
