<svg width="2" height="3" viewBox="0 0 2 3" fill="none" xmlns="http://www.w3.org/2000/svg">
<path fill-rule="evenodd" clip-rule="evenodd" d="M1.28949 0.671003C1.28535 0.604503 1.27759 0.539002 1.25949 0.474002C1.22173 0.337502 1.14311 0.218001 1.0319 0.132001C0.921211 0.0460002 0.786211 0 0.646555 0C0.507416 0 0.371898 0.0460002 0.261208 0.132001C0.150001 0.218001 0.0713796 0.337502 0.0336208 0.474002C0.0155173 0.539002 0.00775866 0.604503 0.00362071 0.671003C0 0.745003 0 0.818504 0 0.892004V0.893504V2.10601V2.10751C0 2.18101 0 2.25451 0.00362071 2.32851C0.00775866 2.39551 0.0155173 2.46051 0.0336208 2.52551C0.0713796 2.66201 0.150001 2.78151 0.261208 2.86751C0.371898 2.95351 0.507416 3.00001 0.646555 3.00001C0.786211 3.00001 0.921211 2.95351 1.0319 2.86751C1.14311 2.78151 1.22173 2.66201 1.25949 2.52551C1.27759 2.46051 1.28535 2.39551 1.28949 2.32851C1.29311 2.25451 1.29311 2.18101 1.29311 2.10751V2.10601V0.893504V0.892004C1.29311 0.818504 1.29311 0.745003 1.28949 0.671003V0.671003Z" fill="#262883"/>
</svg>
