<svg width="2" height="2" viewBox="0 0 2 2" fill="none" xmlns="http://www.w3.org/2000/svg">
<path fill-rule="evenodd" clip-rule="evenodd" d="M1.26002 0.474002C1.22175 0.337502 1.14364 0.218001 1.03192 0.132001C0.921228 0.0460002 0.786228 0 0.646572 0C0.506916 0 0.371915 0.0460002 0.261225 0.132001C0.149501 0.218001 0.0713968 0.337502 0.0331207 0.474002C0.0155344 0.539002 0.00777576 0.604503 0.00415505 0.671003C-0.000500145 0.745003 1.7099e-05 0.818504 1.7099e-05 0.892004V1.1075C1.7099e-05 1.18101 -0.000500145 1.25451 0.00415505 1.32851C0.00777576 1.39551 0.0155344 1.46051 0.0331207 1.52551C0.0713968 1.66201 0.149501 1.78151 0.261225 1.86751C0.371915 1.95351 0.506916 2.00001 0.646572 2.00001C0.786228 2.00001 0.921228 1.95351 1.03192 1.86751C1.14364 1.78151 1.22175 1.66201 1.26002 1.52551C1.27761 1.46051 1.28537 1.39551 1.28899 1.32851C1.29364 1.25451 1.29313 1.18101 1.29313 1.1075V0.892004C1.29313 0.818504 1.29364 0.745003 1.28899 0.671003C1.28537 0.604503 1.27761 0.539002 1.26002 0.474002V0.474002Z" fill="#262883"/>
</svg>
