<svg width="17" height="21" viewBox="0 0 17 21" fill="none" xmlns="http://www.w3.org/2000/svg">
<circle cx="8.86711" cy="5.82696" r="5.06692" stroke="#FDE74C" stroke-width="1.5" stroke-linecap="round" stroke-linejoin="round"/>
<path fill-rule="evenodd" clip-rule="evenodd" d="M0.760054 17.1782C0.758753 16.8378 0.834879 16.5016 0.982674 16.1949C1.44646 15.2674 2.75436 14.7757 3.83963 14.5531C4.62232 14.3861 5.41583 14.2745 6.21424 14.2192C7.69243 14.0893 9.17916 14.0893 10.6574 14.2192C11.4557 14.2751 12.2492 14.3867 13.032 14.5531C14.1172 14.7757 15.4251 15.221 15.8889 16.1949C16.1861 16.82 16.1861 17.5456 15.8889 18.1707C15.4251 19.1447 14.1172 19.5899 13.032 19.8032C12.2502 19.9772 11.4564 20.0919 10.6574 20.1464C9.45423 20.2484 8.24548 20.267 7.03979 20.2021C6.76151 20.2021 6.49251 20.2021 6.21424 20.1464C5.41819 20.0926 4.62743 19.9778 3.8489 19.8032C2.75436 19.5899 1.45574 19.1447 0.982674 18.1707C0.835634 17.8605 0.759584 17.5214 0.760054 17.1782Z" stroke="#FDE74C" stroke-width="1.5" stroke-linecap="round" stroke-linejoin="round"/>
</svg>
