<svg width="17" height="12" viewBox="0 0 17 12" fill="none" xmlns="http://www.w3.org/2000/svg">
<path d="M17 7.52676C16.9984 6.40009 16.4687 5.31996 15.5271 4.52329C14.5856 3.72661 13.309 3.27843 11.9775 3.27704H2.63861L5.18311 1.12407C5.25691 1.06376 5.31577 0.991617 5.35627 0.91185C5.39677 0.832084 5.41808 0.746292 5.41897 0.65948C5.41987 0.572669 5.40031 0.486577 5.36146 0.406227C5.32261 0.325877 5.26524 0.252879 5.19268 0.191491C5.12013 0.130104 5.03386 0.0815565 4.9389 0.0486828C4.84394 0.015809 4.74219 -0.000733187 4.63959 2.11815e-05C4.53699 0.00077555 4.4356 0.0188122 4.34132 0.0530773C4.24705 0.0873424 4.16179 0.13715 4.09051 0.199595L0.22701 3.46861C0.155051 3.52934 0.0979594 3.60149 0.0590053 3.68092C0.0200513 3.76035 0 3.8455 0 3.9315C0 4.0175 0.0200513 4.10265 0.0590053 4.18208C0.0979594 4.26151 0.155051 4.33366 0.22701 4.39439L4.09051 7.66341C4.23624 7.7825 4.43143 7.8484 4.63403 7.84691C4.83663 7.84542 5.03043 7.77666 5.17369 7.65544C5.31696 7.53422 5.39822 7.37024 5.39998 7.19881C5.40174 7.02739 5.32386 6.86224 5.18311 6.73893L2.63861 4.58465H11.9775C12.8997 4.58465 13.7841 4.89462 14.4362 5.44637C15.0883 5.99813 15.4546 6.74646 15.4546 7.52676C15.4546 8.30706 15.0883 9.0554 14.4362 9.60715C13.7841 10.1589 12.8997 10.4689 11.9775 10.4689H8.50031C8.29537 10.4689 8.09884 10.5378 7.95393 10.6604C7.80902 10.783 7.72761 10.9493 7.72761 11.1227C7.72761 11.2961 7.80902 11.4624 7.95393 11.585C8.09884 11.7076 8.29537 11.7765 8.50031 11.7765H11.9775C13.309 11.7751 14.5856 11.3269 15.5271 10.5302C16.4687 9.73356 16.9984 8.65343 17 7.52676V7.52676Z" fill="#FFDB03"/>
</svg>
