<svg width="331" height="21" viewBox="0 0 331 21" fill="none" xmlns="http://www.w3.org/2000/svg">
<path d="M327.142 9.51878C327.139 9.14281 327.248 8.77446 327.455 8.46031C327.661 8.14616 327.956 7.90033 328.303 7.75389C328.649 7.60745 329.031 7.56699 329.4 7.63762C329.769 7.70825 330.109 7.8868 330.377 8.15069C330.645 8.41458 330.829 8.75196 330.905 9.12017C330.981 9.48837 330.946 9.87086 330.805 10.2193C330.663 10.5677 330.422 10.8664 330.111 11.0775C329.8 11.2887 329.433 11.4029 329.057 11.4057C328.553 11.4094 328.068 11.2127 327.709 10.8588C327.35 10.505 327.146 10.0229 327.142 9.51878V9.51878ZM331 17.0945C330.997 16.7185 330.883 16.3518 330.672 16.0408C330.461 15.7297 330.162 15.4882 329.814 15.3469C329.465 15.2056 329.083 15.1708 328.714 15.2468C328.346 15.3229 328.009 15.5064 327.745 15.7742C327.481 16.0421 327.303 16.3821 327.232 16.7514C327.161 17.1207 327.202 17.5026 327.348 17.8489C327.495 18.1952 327.74 18.4903 328.055 18.6969C328.369 18.9034 328.737 19.0122 329.113 19.0094C329.617 19.0057 330.099 18.8019 330.453 18.4428C330.807 18.0836 331.004 17.5987 331 17.0945ZM327.086 1.91504C327.089 2.291 327.203 2.65771 327.414 2.96878C327.625 3.27985 327.924 3.5213 328.272 3.66262C328.621 3.80394 329.003 3.83877 329.372 3.7627C329.74 3.68663 330.077 3.50309 330.341 3.23528C330.605 2.96747 330.783 2.62742 330.854 2.25813C330.925 1.88885 330.884 1.50691 330.738 1.16062C330.591 0.814331 330.346 0.519243 330.031 0.312669C329.717 0.106096 329.349 -0.00268273 328.973 8.85377e-05C328.469 0.0038047 327.987 0.207646 327.633 0.566768C327.279 0.92589 327.082 1.41088 327.086 1.91504Z" fill="#F2F5F9"/>
<path fill-rule="evenodd" clip-rule="evenodd" d="M0.750593 5.92068L0.750593 14.5965C0.750593 17.6189 2.89128 19.5154 5.92068 19.5154L14.0951 19.5154C17.1245 19.5154 19.2652 17.6289 19.2652 14.5965L19.2652 5.92068C19.2652 2.88828 17.1245 1.00079 14.0951 1.00079L5.92068 1.00079C2.89128 1.00079 0.750593 2.88828 0.750593 5.92068Z" fill="#F2F5F9" stroke="#262883" stroke-width="1.5" stroke-linecap="round" stroke-linejoin="round"/>
<path fill-rule="evenodd" clip-rule="evenodd" d="M5.91867 10.2581L14.0971 10.2581Z" fill="#F2F5F9"/>
<path d="M5.91867 10.2581L14.0971 10.2581" stroke="#262883" stroke-width="1.5" stroke-linecap="round" stroke-linejoin="round"/>
<path fill-rule="evenodd" clip-rule="evenodd" d="M9.68532 14.009L5.91835 10.2581L9.68532 6.50709" fill="#F2F5F9"/>
<path d="M9.68532 14.009L5.91835 10.2581L9.68532 6.50709" stroke="#262883" stroke-width="1.5" stroke-linecap="round" stroke-linejoin="round"/>
</svg>
