<svg width="2" height="10" viewBox="0 0 2 10" fill="none" xmlns="http://www.w3.org/2000/svg">
<path d="M2 5C2 5.19778 1.94135 5.39112 1.83147 5.55557C1.72159 5.72002 1.56541 5.84819 1.38268 5.92388C1.19996 5.99957 0.99889 6.01937 0.80491 5.98079C0.610929 5.9422 0.432746 5.84696 0.292894 5.70711C0.153041 5.56725 0.0578002 5.38907 0.019215 5.19509C-0.0193702 5.00111 0.000433131 4.80004 0.0761207 4.61732C0.151808 4.43459 0.279981 4.27841 0.44443 4.16853C0.608879 4.05865 0.802219 4 1 4C1.26522 4 1.51957 4.10536 1.70711 4.29289C1.89464 4.48043 2 4.73478 2 5V5ZM6.71545e-07 1C6.62899e-07 1.19778 0.0586496 1.39112 0.168531 1.55557C0.278412 1.72002 0.434591 1.84819 0.617317 1.92388C0.800043 1.99957 1.00111 2.01937 1.19509 1.98079C1.38907 1.9422 1.56725 1.84696 1.70711 1.70711C1.84696 1.56725 1.9422 1.38907 1.98078 1.19509C2.01937 1.00111 1.99957 0.800043 1.92388 0.617317C1.84819 0.43459 1.72002 0.278412 1.55557 0.16853C1.39112 0.0586489 1.19778 -3.50661e-08 1 -4.37114e-08C0.734784 -5.53044e-08 0.48043 0.105357 0.292894 0.292893C0.105358 0.480429 6.83138e-07 0.734783 6.71545e-07 1ZM2 9C2 8.80222 1.94135 8.60888 1.83147 8.44443C1.72159 8.27998 1.56541 8.15181 1.38268 8.07612C1.19996 8.00043 0.99889 7.98063 0.804909 8.01921C0.610929 8.0578 0.432746 8.15304 0.292893 8.29289C0.153041 8.43275 0.0578 8.61093 0.0192148 8.80491C-0.0193704 8.99889 0.000432938 9.19996 0.0761205 9.38268C0.151808 9.56541 0.279981 9.72159 0.44443 9.83147C0.608879 9.94135 0.802218 10 1 10C1.26522 10 1.51957 9.89464 1.70711 9.70711C1.89464 9.51957 2 9.26522 2 9Z" fill="black"/>
</svg>
