<svg width="2" height="5" viewBox="0 0 2 5" fill="none" xmlns="http://www.w3.org/2000/svg">
<path fill-rule="evenodd" clip-rule="evenodd" d="M1.29636 0.670998C1.2922 0.604498 1.2844 0.538999 1.2662 0.473999C1.22824 0.337499 1.1492 0.217999 1.0374 0.132C0.926118 0.0459999 0.790398 0 0.649998 0C0.510119 0 0.373879 0.0459999 0.262599 0.132C0.1508 0.217999 0.0717598 0.337499 0.0337999 0.473999C0.0156 0.538999 0.00779998 0.604498 0.00363999 0.670998C0 0.744998 0 0.818498 0 0.891998V0.893498V4.10599V4.10749C0 4.18099 0 4.25449 0.00363999 4.32849C0.00779998 4.39549 0.0156 4.46049 0.0337999 4.52549C0.0717598 4.66199 0.1508 4.78149 0.262599 4.86749C0.373879 4.95349 0.510119 4.99999 0.649998 4.99999C0.790398 4.99999 0.926118 4.95349 1.0374 4.86749C1.1492 4.78149 1.22824 4.66199 1.2662 4.52549C1.2844 4.46049 1.2922 4.39549 1.29636 4.32849C1.3 4.25449 1.3 4.18099 1.3 4.10749V4.10599V0.893498V0.891998C1.3 0.818498 1.3 0.744998 1.29636 0.670998V0.670998Z" fill="#262883"/>
</svg>
