<svg width="2" height="1" viewBox="0 0 2 1" fill="none" xmlns="http://www.w3.org/2000/svg">
<path fill-rule="evenodd" clip-rule="evenodd" d="M1.00242 0.132001C0.891728 0.0460002 0.756728 0 0.617072 0C0.477933 0 0.342415 0.0460002 0.231725 0.132001C0.120518 0.218001 0.0418967 0.337502 0.00413795 0.474002C0.00206898 0.482502 0.00206898 0.491502 0 0.500002C0.00206898 0.508502 0.00206898 0.517002 0.00413795 0.525502C0.0418967 0.662003 0.120518 0.781504 0.231725 0.867504C0.342415 0.953504 0.477933 1 0.617072 1C0.756728 1 0.891728 0.953504 1.00242 0.867504C1.11363 0.781504 1.19225 0.662003 1.23001 0.525502C1.23207 0.517002 1.23207 0.508502 1.23414 0.500002C1.23207 0.491502 1.23207 0.482502 1.23001 0.474002C1.19225 0.337502 1.11363 0.218001 1.00242 0.132001V0.132001Z" fill="#262883"/>
</svg>
