<svg width="20" height="21" viewBox="0 0 20 21" fill="none" xmlns="http://www.w3.org/2000/svg">
<path fill-rule="evenodd" clip-rule="evenodd" d="M18.9394 6.18098L18.2942 5.08732C17.7483 4.16192 16.5386 3.84267 15.5899 4.37366V4.37366C15.1382 4.63351 14.5994 4.70723 14.0921 4.57857C13.5847 4.44991 13.1507 4.12943 12.8855 3.6878C12.715 3.4071 12.6233 3.08738 12.6198 2.76098V2.76098C12.6352 2.23767 12.4331 1.73056 12.0595 1.35517C11.6859 0.979777 11.1726 0.768077 10.6367 0.768293H9.33667C8.81157 0.768287 8.30811 0.972666 7.9377 1.33621C7.56728 1.69975 7.36046 2.19248 7.36298 2.70537V2.70537C7.34742 3.76431 6.46406 4.61474 5.3798 4.61463C5.04563 4.61124 4.7183 4.52172 4.43091 4.35512V4.35512C3.48219 3.82414 2.27246 4.14338 1.72658 5.06878L1.03389 6.18098C0.488672 7.10522 0.811063 8.28608 1.75505 8.82244V8.82244C2.36865 9.16846 2.74665 9.80795 2.74665 10.5C2.74665 11.1921 2.36865 11.8315 1.75505 12.1776V12.1776C0.812262 12.7103 0.489519 13.8883 1.03389 14.8098V14.8098L1.68862 15.9127C1.94439 16.3635 2.37352 16.6961 2.88106 16.837C3.3886 16.9779 3.9327 16.9154 4.39296 16.6634V16.6634C4.84542 16.4055 5.3846 16.3349 5.89064 16.4672C6.39669 16.5994 6.82768 16.9237 7.0878 17.3678C7.25837 17.6485 7.35002 17.9682 7.35349 18.2946V18.2946C7.35349 19.3645 8.24139 20.2317 9.33667 20.2317H10.6367C11.7282 20.2317 12.6146 19.3701 12.6198 18.3039V18.3039C12.6173 17.7894 12.8254 17.2953 13.1979 16.9314C13.5704 16.5676 14.0763 16.3644 14.603 16.3668C14.9364 16.3755 15.2624 16.4647 15.5519 16.6263V16.6263C16.4981 17.1589 17.7071 16.844 18.2562 15.922V15.922L18.9394 14.8098C19.2039 14.3664 19.2765 13.8384 19.1411 13.3426C19.0057 12.8468 18.6736 12.4242 18.2183 12.1683V12.1683C17.7629 11.9124 17.4308 11.4898 17.2954 10.994C17.1601 10.4982 17.2327 9.97019 17.4971 9.52683C17.6691 9.23357 17.918 8.99041 18.2183 8.82244V8.82244C19.1566 8.28637 19.4782 7.11241 18.9394 6.19024V6.19024V6.18098Z" stroke="#000140" stroke-width="1.5" stroke-linecap="round" stroke-linejoin="round"/>
<ellipse cx="9.58035" cy="10.3876" rx="2.59165" ry="2.5314" stroke="#000140" stroke-width="1.5" stroke-linecap="round" stroke-linejoin="round"/>
</svg>
