<svg width="139" height="125" viewBox="0 0 139 125" fill="none" xmlns="http://www.w3.org/2000/svg">
<path d="M139 38.3464C139 17.1681 121.832 0 100.657 0C87.8028 0 76.4597 6.34574 69.5 16.045C62.5403 6.34574 51.1972 0 38.3464 0C17.1681 0 0 17.1642 0 38.3464C0 41.3464 0.380822 44.2531 1.03366 47.0548C6.35739 80.1358 43.1378 115.035 69.5 124.618C95.8583 115.035 132.643 80.1358 137.959 47.0587C138.619 44.257 139 41.3503 139 38.3464V38.3464Z" fill="#000140"/>
<path d="M66.2477 18.3787L69.5 22.9113L72.7523 18.3787C78.9979 9.67464 89.1559 4.00295 100.657 4.00295C119.621 4.00295 134.997 19.3786 134.997 38.3464C134.997 41.0094 134.66 43.6071 134.062 46.1401L134.029 46.2808L134.006 46.4235C131.525 61.8647 121.572 78.1559 108.697 91.9136C96.3059 105.155 81.6675 115.557 69.4999 120.339C57.3306 115.557 42.6922 105.155 30.3001 91.9132C17.4248 78.155 7.47113 61.8626 4.98576 46.4188L4.96369 46.2817L4.93217 46.1464C4.3403 43.6063 4.00295 41.0055 4.00295 38.3464C4.00295 19.3752 19.3786 4.00295 38.3464 4.00295C49.8438 4.00295 60.002 9.67445 66.2477 18.3787Z" stroke="#0E106C" stroke-opacity="0.5" stroke-width="8"/>
</svg>
