<svg width="14" height="14" viewBox="0 0 14 14" fill="none" xmlns="http://www.w3.org/2000/svg">
<path d="M7.77778 0.777778V13.2222C7.77778 13.4285 7.69583 13.6263 7.54997 13.7722C7.40411 13.9181 7.20628 14 7 14C6.79372 14 6.59589 13.9181 6.45003 13.7722C6.30417 13.6263 6.22222 13.4285 6.22222 13.2222V0.777778C6.22222 0.571498 6.30417 0.373667 6.45003 0.227806C6.59589 0.0819442 6.79372 0 7 0C7.20628 0 7.40411 0.0819442 7.54997 0.227806C7.69583 0.373667 7.77778 0.571498 7.77778 0.777778V0.777778ZM3.88889 1.55556C3.68261 1.55556 3.48478 1.6375 3.33892 1.78336C3.19306 1.92922 3.11111 2.12705 3.11111 2.33333V11.6667C3.11111 11.8729 3.19306 12.0708 3.33892 12.2166C3.48478 12.3625 3.68261 12.4444 3.88889 12.4444C4.09517 12.4444 4.293 12.3625 4.43886 12.2166C4.58472 12.0708 4.66667 11.8729 4.66667 11.6667V2.33333C4.66667 2.12705 4.58472 1.92922 4.43886 1.78336C4.293 1.6375 4.09517 1.55556 3.88889 1.55556V1.55556ZM0.777778 3.11111C0.571498 3.11111 0.373667 3.19306 0.227806 3.33892C0.0819442 3.48478 0 3.68261 0 3.88889V10.1111C0 10.3174 0.0819442 10.5152 0.227806 10.6611C0.373667 10.8069 0.571498 10.8889 0.777778 10.8889C0.984057 10.8889 1.18189 10.8069 1.32775 10.6611C1.47361 10.5152 1.55556 10.3174 1.55556 10.1111V3.88889C1.55556 3.68261 1.47361 3.48478 1.32775 3.33892C1.18189 3.19306 0.984057 3.11111 0.777778 3.11111ZM10.1111 1.55556C9.90483 1.55556 9.707 1.6375 9.56114 1.78336C9.41528 1.92922 9.33333 2.12705 9.33333 2.33333V11.6667C9.33333 11.8729 9.41528 12.0708 9.56114 12.2166C9.707 12.3625 9.90483 12.4444 10.1111 12.4444C10.3174 12.4444 10.5152 12.3625 10.6611 12.2166C10.8069 12.0708 10.8889 11.8729 10.8889 11.6667V2.33333C10.8889 2.12705 10.8069 1.92922 10.6611 1.78336C10.5152 1.6375 10.3174 1.55556 10.1111 1.55556ZM13.2222 3.11111C13.0159 3.11111 12.8181 3.19306 12.6722 3.33892C12.5264 3.48478 12.4444 3.68261 12.4444 3.88889V10.1111C12.4444 10.3174 12.5264 10.5152 12.6722 10.6611C12.8181 10.8069 13.0159 10.8889 13.2222 10.8889C13.4285 10.8889 13.6263 10.8069 13.7722 10.6611C13.9181 10.5152 14 10.3174 14 10.1111V3.88889C14 3.68261 13.9181 3.48478 13.7722 3.33892C13.6263 3.19306 13.4285 3.11111 13.2222 3.11111Z" fill="#FDE74C"/>
</svg>
