<svg width="375" height="114" viewBox="0 0 375 114" fill="none" xmlns="http://www.w3.org/2000/svg">
<path fill-rule="evenodd" clip-rule="evenodd" d="M30 0C13.4315 0 0 13.4315 0 30V43V51V114H375V51V43V30C375 13.4315 361.569 0 345 0H30Z" fill="#000140"/>
<rect opacity="0.34" x="120" y="61" width="134" height="5" rx="2.5" fill="#01047E"/>
<path fill-rule="evenodd" clip-rule="evenodd" d="M51.6572 35.7714V32.7047C51.6572 31.9246 52.2931 31.2908 53.081 31.2856H55.9671C56.7587 31.2856 57.4005 31.9209 57.4005 32.7047V32.7047V35.7809C57.4003 36.4432 57.9343 36.9845 58.603 37H60.5271C62.4451 37 64 35.4607 64 33.5618V33.5618V24.8378C63.9898 24.0908 63.6355 23.3893 63.038 22.933L56.4577 17.6853C55.3049 16.7716 53.6662 16.7716 52.5134 17.6853L45.962 22.9426C45.3623 23.397 45.0074 24.0997 45 24.8474V33.5618C45 35.4607 46.5549 37 48.4729 37H50.397C51.0824 37 51.638 36.4499 51.638 35.7714V35.7714" fill="#FDE74C"/>
<path d="M51.6572 35.7714V32.7047C51.6572 31.9246 52.2931 31.2908 53.081 31.2856H55.9671C56.7587 31.2856 57.4005 31.9209 57.4005 32.7047V32.7047V35.7809C57.4003 36.4432 57.9343 36.9845 58.603 37H60.5271C62.4451 37 64 35.4607 64 33.5618V33.5618V24.8378C63.9898 24.0908 63.6355 23.3893 63.038 22.933L56.4577 17.6853C55.3049 16.7716 53.6662 16.7716 52.5134 17.6853L45.962 22.9426C45.3623 23.397 45.0074 24.0997 45 24.8474V33.5618C45 35.4607 46.5549 37 48.4729 37H50.397C51.0824 37 51.638 36.4499 51.638 35.7714V35.7714" stroke="#FDE74C" stroke-width="1.5" stroke-linecap="round" stroke-linejoin="round"/>
<circle cx="122" cy="26" r="9" stroke="#FDE74C" stroke-width="1.5" stroke-linecap="round" stroke-linejoin="round"/>
<path d="M128.24 32.707L131.764 36.2219" stroke="#FDE74C" stroke-width="1.5" stroke-linecap="round" stroke-linejoin="round"/>
<circle cx="325" cy="22" r="5" stroke="#FDE74C" stroke-width="1.5" stroke-linecap="round" stroke-linejoin="round"/>
<path fill-rule="evenodd" clip-rule="evenodd" d="M317 33.2013C316.999 32.8654 317.074 32.5336 317.22 32.2311C317.677 31.3157 318.968 30.8306 320.039 30.6109C320.811 30.4461 321.594 30.336 322.382 30.2814C323.841 30.1533 325.308 30.1533 326.767 30.2814C327.554 30.3366 328.337 30.4467 329.11 30.6109C330.181 30.8306 331.471 31.27 331.929 32.2311C332.222 32.8479 332.222 33.5639 331.929 34.1807C331.471 35.1418 330.181 35.5812 329.11 35.7917C328.338 35.9633 327.555 36.0766 326.767 36.1304C325.579 36.231 324.387 36.2494 323.197 36.1853C322.922 36.1853 322.657 36.1853 322.382 36.1304C321.597 36.0772 320.816 35.964 320.048 35.7917C318.968 35.5812 317.687 35.1418 317.22 34.1807C317.075 33.8746 317 33.54 317 33.2013Z" stroke="#FDE74C" stroke-width="1.5" stroke-linecap="round" stroke-linejoin="round"/>
<path d="M190 23.3274V30.6537" stroke="#FDE74C" stroke-width="1.5" stroke-linecap="round" stroke-linejoin="round"/>
<path d="M193.667 26.9904H186.333" stroke="#FDE74C" stroke-width="1.5" stroke-linecap="round" stroke-linejoin="round"/>
<path fill-rule="evenodd" clip-rule="evenodd" d="M194.686 17H185.314C182.048 17 180 19.3121 180 22.5852V31.4148C180 34.6879 182.038 37 185.314 37H194.686C197.962 37 200 34.6879 200 31.4148V22.5852C200 19.3121 197.962 17 194.686 17Z" stroke="#FDE74C" stroke-width="1.5" stroke-linecap="round" stroke-linejoin="round"/>
<path fill-rule="evenodd" clip-rule="evenodd" d="M249.001 28.7871V28.5681C249.033 27.9202 249.241 27.2925 249.602 26.7496C250.205 26.0975 250.617 25.2983 250.796 24.436C250.796 23.7695 250.796 23.0935 250.854 22.427C251.155 19.2184 254.327 17 257.461 17H257.539C260.672 17 263.845 19.2184 264.156 22.427C264.214 23.0935 264.156 23.7695 264.204 24.436C264.385 25.3003 264.797 26.1019 265.397 26.7591C265.762 27.2972 265.97 27.9227 265.999 28.5681V28.7776C266.021 29.648 265.721 30.4968 265.155 31.1674C264.407 31.9515 263.392 32.4393 262.302 32.5384C259.107 32.8812 255.883 32.8812 252.688 32.5384C251.599 32.435 250.586 31.9479 249.835 31.1674C249.278 30.4963 248.982 29.6526 249.001 28.7871Z" stroke="#FDE74C" stroke-width="1.5" stroke-linecap="round" stroke-linejoin="round"/>
<path d="M255.055 35.8518C255.554 36.4785 256.287 36.884 257.092 36.9788C257.897 37.0735 258.707 36.8495 259.343 36.3564C259.539 36.2106 259.715 36.041 259.867 35.8518" stroke="#FDE74C" stroke-width="1.5" stroke-linecap="round" stroke-linejoin="round"/>
<circle cx="265" cy="21" r="4" fill="#FDE74C" stroke="#000140" stroke-width="2"/>
</svg>
