<svg width="12" height="12" viewBox="0 0 12 12" fill="none" xmlns="http://www.w3.org/2000/svg">
<path d="M9.81183 4.04829C10.2425 4.04829 10.6634 3.92958 11.0215 3.70716C11.3795 3.48474 11.6586 3.16862 11.8234 2.79875C11.9882 2.42889 12.0313 2.0219 11.9473 1.62925C11.8633 1.23661 11.6559 0.875941 11.3514 0.592859C11.0469 0.309777 10.659 0.116996 10.2366 0.0388943C9.81424 -0.0392078 9.37646 0.000877023 8.97862 0.15408C8.58077 0.307282 8.24072 0.566722 8.00148 0.899591C7.76223 1.23246 7.63454 1.62381 7.63454 2.02415C7.63744 2.21504 7.66989 2.40456 7.73088 2.58686L3.85748 4.27904C3.57226 3.95731 3.18713 3.72531 2.75473 3.61474C2.32232 3.50417 1.86374 3.52042 1.44165 3.66129C1.01956 3.80215 0.654557 4.06075 0.396519 4.40174C0.138481 4.74273 0 5.14948 0 5.5664C0 5.98332 0.138481 6.39007 0.396519 6.73106C0.654557 7.07205 1.01956 7.33064 1.44165 7.47151C1.86374 7.61237 2.32232 7.62863 2.75473 7.51806C3.18713 7.40749 3.57226 7.17549 3.85748 6.85375L7.73088 8.54594C7.66989 8.72824 7.63744 8.91775 7.63454 9.10865C7.6333 9.57773 7.8069 10.0327 8.12583 10.3962C8.44475 10.7597 8.88929 11.0093 9.38381 11.1024C9.87834 11.1956 10.3923 11.1266 10.8383 10.9072C11.2842 10.6877 11.6347 10.3315 11.8299 9.89892C12.0252 9.46638 12.0532 8.98431 11.9093 8.53472C11.7653 8.08514 11.4583 7.6958 11.0404 7.43295C10.6224 7.17009 10.1195 7.04997 9.61703 7.093C9.11458 7.13603 8.64369 7.33957 8.28446 7.66898L4.32778 5.94086C4.38221 5.69396 4.38221 5.43935 4.32778 5.19244L8.28446 3.46382C8.69088 3.83809 9.23977 4.04813 9.81183 4.04829ZM9.81183 1.01207C10.0271 1.01207 10.2376 1.07143 10.4166 1.18264C10.5957 1.29385 10.7352 1.45191 10.8176 1.63684C10.9 1.82177 10.9216 2.02527 10.8796 2.22159C10.8376 2.41791 10.7339 2.59825 10.5816 2.73979C10.4294 2.88133 10.2354 2.97772 10.0242 3.01677C9.81304 3.05582 9.59415 3.03578 9.39522 2.95918C9.1963 2.88258 9.02628 2.75286 8.90665 2.58642C8.78703 2.41999 8.72318 2.22431 8.72318 2.02415C8.72318 1.75573 8.83788 1.4983 9.04204 1.3085C9.2462 1.1187 9.5231 1.01207 9.81183 1.01207V1.01207ZM2.19131 6.57847C1.976 6.57847 1.76552 6.51911 1.58649 6.40791C1.40746 6.2967 1.26793 6.13863 1.18553 5.9537C1.10314 5.76877 1.08158 5.56528 1.12358 5.36895C1.16559 5.17263 1.26927 4.9923 1.42152 4.85076C1.57377 4.70921 1.76775 4.61282 1.97893 4.57377C2.1901 4.53472 2.40899 4.55476 2.60792 4.63137C2.80684 4.70797 2.97686 4.83769 3.09649 5.00412C3.21611 5.17056 3.27996 5.36623 3.27996 5.5664C3.27996 5.83482 3.16526 6.09224 2.9611 6.28204C2.75694 6.47184 2.48004 6.57847 2.19131 6.57847ZM9.81183 8.09658C10.0271 8.09658 10.2376 8.15594 10.4166 8.26714C10.5957 8.37835 10.7352 8.53642 10.8176 8.72135C10.9 8.90628 10.9216 9.10977 10.8796 9.3061C10.8376 9.50242 10.7339 9.68275 10.5816 9.82429C10.4294 9.96583 10.2354 10.0622 10.0242 10.1013C9.81304 10.1403 9.59415 10.1203 9.39522 10.0437C9.1963 9.96708 9.02628 9.83736 8.90665 9.67093C8.78703 9.50449 8.72318 9.30882 8.72318 9.10865C8.72318 8.84023 8.83788 8.58281 9.04204 8.39301C9.2462 8.20321 9.5231 8.09658 9.81183 8.09658V8.09658Z" fill="#FFDB03"/>
</svg>
