<svg width="2" height="8" viewBox="0 0 2 8" fill="none" xmlns="http://www.w3.org/2000/svg">
<path fill-rule="evenodd" clip-rule="evenodd" d="M1.19172 0.446118C1.15599 0.317647 1.0816 0.205177 0.976377 0.124235C0.871643 0.0432941 0.743906 0 0.611765 0C0.480113 0 0.351887 0.0432941 0.247153 0.124235C0.141929 0.205177 0.0675389 0.317647 0.0318118 0.446118C0.0146824 0.507294 0.00734118 0.568941 0.00342588 0.63153C0 0.701177 0 0.770353 0 0.83953V7.16C0 7.22918 0 7.29836 0.00342588 7.368C0.00734118 7.43106 0.0146824 7.49224 0.0318118 7.55294C0.0675389 7.68189 0.141929 7.79436 0.247153 7.8753C0.351887 7.95624 0.480113 8 0.611765 8C0.743906 8 0.871643 7.95624 0.976377 7.8753C1.0816 7.79436 1.15599 7.68189 1.19172 7.55294C1.20885 7.49224 1.21619 7.43106 1.2201 7.368C1.22353 7.29836 1.22353 7.22918 1.22353 7.16V0.83953C1.22353 0.770353 1.22353 0.701177 1.2201 0.63153C1.21619 0.568941 1.20885 0.507294 1.19172 0.446118V0.446118Z" fill="#262883"/>
</svg>
