<svg width="2" height="3" viewBox="0 0 2 3" fill="none" xmlns="http://www.w3.org/2000/svg">
<path fill-rule="evenodd" clip-rule="evenodd" d="M1.51203 0.568803C1.4661 0.405002 1.37237 0.261601 1.2383 0.158401C1.10547 0.0552002 0.943473 0 0.775886 0C0.608299 0 0.446299 0.0552002 0.31347 0.158401C0.179401 0.261601 0.0856761 0.405002 0.0397448 0.568803C0.0186413 0.646803 0.00933091 0.725403 0.00498606 0.805204C-0.000600174 0.894004 2.05188e-05 0.982205 2.05188e-05 1.0704V1.0722V1.92721V1.92901C2.05188e-05 2.01721 -0.000600174 2.10541 0.00498606 2.19421C0.00933091 2.27461 0.0186413 2.35261 0.0397448 2.43061C0.0856761 2.59441 0.179401 2.73781 0.31347 2.84101C0.446299 2.94421 0.608299 3.00001 0.775886 3.00001C0.943473 3.00001 1.10547 2.94421 1.2383 2.84101C1.37237 2.73781 1.4661 2.59441 1.51203 2.43061C1.53313 2.35261 1.54244 2.27461 1.54679 2.19421C1.55237 2.10541 1.55175 2.01721 1.55175 1.92901V1.0704C1.55175 0.982205 1.55237 0.894004 1.54679 0.805204C1.54244 0.725403 1.53313 0.646803 1.51203 0.568803V0.568803Z" fill="#262883"/>
</svg>
