<svg width="2" height="15" viewBox="0 0 2 15" fill="none" xmlns="http://www.w3.org/2000/svg">
<path fill-rule="evenodd" clip-rule="evenodd" d="M1.07956 0.406286C1.04719 0.289286 0.979804 0.186857 0.884483 0.113143C0.789606 0.0394286 0.673892 0 0.554188 0C0.434926 0 0.318769 0.0394286 0.223892 0.113143C0.128572 0.186857 0.0611823 0.289286 0.0288177 0.406286C0.0133005 0.462 0.00665025 0.518143 0.00310345 0.575143C0 0.638572 0 0.701572 0 0.764572V0.765858V14.2337V14.235C0 14.2984 0 14.361 0.00310345 14.4244C0.00665025 14.4819 0.0133005 14.5376 0.0288177 14.5929C0.0611823 14.7103 0.128572 14.8127 0.223892 14.8864C0.318769 14.9602 0.434926 15 0.554188 15C0.673892 15 0.789606 14.9602 0.884483 14.8864C0.979804 14.8127 1.04719 14.7103 1.07956 14.5929C1.09507 14.5376 1.10172 14.4819 1.10527 14.4244C1.10838 14.361 1.10838 14.2984 1.10838 14.235V0.764572C1.10838 0.701572 1.10838 0.638572 1.10527 0.575143C1.10172 0.518143 1.09507 0.462 1.07956 0.406286V0.406286Z" fill="#262883"/>
</svg>
