<svg width="2" height="7" viewBox="0 0 2 7" fill="none" xmlns="http://www.w3.org/2000/svg">
<path fill-rule="evenodd" clip-rule="evenodd" d="M1.1283 0.587125C1.12468 0.528938 1.11789 0.471625 1.10205 0.41475C1.06901 0.295313 1.00022 0.19075 0.90291 0.1155C0.806056 0.04025 0.687931 0 0.565733 0C0.443987 0 0.32541 0.04025 0.228556 0.1155C0.13125 0.19075 0.0624569 0.295313 0.0294181 0.41475C0.0135776 0.471625 0.00678879 0.528938 0.0031681 0.587125C0 0.651875 0 0.716188 0 0.7805V0.781813V6.21775V6.21906C0 6.28338 0 6.34769 0.0031681 6.41244C0.00678879 6.47106 0.0135776 6.52794 0.0294181 6.58438C0.0624569 6.70425 0.13125 6.80881 0.228556 6.88406C0.32541 6.95931 0.443987 7 0.565733 7C0.687931 7 0.806056 6.95931 0.90291 6.88406C1.00022 6.80881 1.06901 6.70425 1.10205 6.58438C1.11789 6.52794 1.12468 6.47106 1.1283 6.41244C1.13147 6.34769 1.13147 6.28338 1.13147 6.21906V6.21775V0.781813V0.7805C1.13147 0.716188 1.13147 0.651875 1.1283 0.587125V0.587125Z" fill="#262883"/>
</svg>
