<svg width="2" height="3" viewBox="0 0 2 3" fill="none" xmlns="http://www.w3.org/2000/svg">
<path fill-rule="evenodd" clip-rule="evenodd" d="M1.52009 0.568801C1.47391 0.405 1.37969 0.2616 1.2449 0.1584C1.11137 0.0552001 0.948502 0 0.780022 0C0.611541 0 0.448677 0.0552001 0.315141 0.1584C0.180357 0.2616 0.0861327 0.405 0.0399567 0.568801C0.0187407 0.646801 0.00938064 0.725401 0.00501263 0.805201C-0.000603373 0.894001 2.06281e-05 0.982201 2.06281e-05 1.0704V1.0722V1.9272V1.929C2.06281e-05 2.0172 -0.000603373 2.1054 0.00501263 2.1942C0.00938064 2.2746 0.0187407 2.3526 0.0399567 2.4306C0.0861327 2.5944 0.180357 2.7378 0.315141 2.841C0.448677 2.9442 0.611541 3 0.780022 3C0.948502 3 1.11137 2.9442 1.2449 2.841C1.37969 2.7378 1.47391 2.5944 1.52009 2.4306C1.5413 2.3526 1.55066 2.2746 1.55503 2.1942C1.56065 2.1054 1.56002 2.0172 1.56002 1.929V1.0704C1.56002 0.982201 1.56065 0.894001 1.55503 0.805201C1.55066 0.725401 1.5413 0.646801 1.52009 0.568801V0.568801Z" fill="#262883"/>
</svg>
