<svg width="2" height="9" viewBox="0 0 2 9" fill="none" xmlns="http://www.w3.org/2000/svg">
<path fill-rule="evenodd" clip-rule="evenodd" d="M1.08531 0.406286C1.05278 0.289286 0.985029 0.186857 0.8892 0.113143C0.793817 0.0394286 0.677486 0 0.557143 0C0.437246 0 0.320469 0.0394286 0.225086 0.113143C0.129257 0.186857 0.0615086 0.289286 0.0289714 0.406286C0.0133714 0.462 0.00668572 0.518143 0.00312 0.575143C0 0.638572 0 0.701572 0 0.764572V8.235C0 8.29843 0 8.361 0.00312 8.42443C0.00668572 8.48186 0.0133714 8.53757 0.0289714 8.59286C0.0615086 8.71029 0.129257 8.81272 0.225086 8.88643C0.320469 8.96015 0.437246 9 0.557143 9C0.677486 9 0.793817 8.96015 0.8892 8.88643C0.985029 8.81272 1.05278 8.71029 1.08531 8.59286C1.10091 8.53757 1.1076 8.48186 1.11117 8.42443C1.11429 8.361 1.11429 8.29843 1.11429 8.235V0.764572C1.11429 0.701572 1.11429 0.638572 1.11117 0.575143C1.1076 0.518143 1.10091 0.462 1.08531 0.406286V0.406286Z" fill="#262883"/>
</svg>
