<svg width="2" height="8" viewBox="0 0 2 8" fill="none" xmlns="http://www.w3.org/2000/svg">
<path fill-rule="evenodd" clip-rule="evenodd" d="M1.14621 0.596445C1.14253 0.537334 1.13563 0.479111 1.11954 0.421334C1.08598 0.3 1.01609 0.193778 0.917242 0.117333C0.818851 0.0408889 0.698851 0 0.574713 0C0.451035 0 0.330575 0.0408889 0.232184 0.117333C0.133333 0.193778 0.0634483 0.3 0.0298851 0.421334C0.0137931 0.479111 0.00689656 0.537334 0.00321839 0.596445C0 0.662223 0 0.727556 0 0.792889V0.794223V7.20534V7.20667C0 7.27245 0 7.33734 0.00321839 7.40312C0.00689656 7.46267 0.0137931 7.52045 0.0298851 7.57778C0.0634483 7.69956 0.133333 7.80578 0.232184 7.88223C0.330575 7.95867 0.451035 8.00001 0.574713 8.00001C0.698851 8.00001 0.818851 7.95867 0.917242 7.88223C1.01609 7.80578 1.08598 7.69956 1.11954 7.57778C1.13563 7.52045 1.14253 7.46267 1.14621 7.40312C1.14943 7.33734 1.14943 7.27245 1.14943 7.20667V7.20534V0.794223V0.792889C1.14943 0.727556 1.14943 0.662223 1.14621 0.596445V0.596445Z" fill="#262883"/>
</svg>
