<svg width="2" height="13" viewBox="0 0 2 13" fill="none" xmlns="http://www.w3.org/2000/svg">
<path fill-rule="evenodd" clip-rule="evenodd" d="M1.12351 0.581533C1.11991 0.5239 1.11315 0.467133 1.09737 0.4108C1.06447 0.2925 0.995973 0.188933 0.89908 0.1144C0.802637 0.0398667 0.685013 0 0.563333 0C0.442104 0 0.324029 0.0398667 0.227587 0.1144C0.130693 0.188933 0.062192 0.2925 0.0292933 0.4108C0.01352 0.467133 0.00676 0.5239 0.00315467 0.581533C0 0.645667 0 0.709367 0 0.773067V0.774367V12.2252V12.2265C0 12.2906 0 12.3539 0.00315467 12.418C0.00676 12.4761 0.01352 12.5324 0.0292933 12.5883C0.062192 12.7071 0.130693 12.8106 0.227587 12.8852C0.324029 12.9597 0.442104 13 0.563333 13C0.685013 13 0.802637 12.9597 0.89908 12.8852C0.995973 12.8106 1.06447 12.7071 1.09737 12.5883C1.11315 12.5324 1.11991 12.4761 1.12351 12.418C1.12667 12.3539 1.12667 12.2906 1.12667 12.2265V12.2252V0.774367V0.773067C1.12667 0.709367 1.12667 0.645667 1.12351 0.581533V0.581533Z" fill="#262883"/>
</svg>
