<svg width="2" height="4" viewBox="0 0 2 4" fill="none" xmlns="http://www.w3.org/2000/svg">
<path fill-rule="evenodd" clip-rule="evenodd" d="M1.28948 0.670997C1.28534 0.604497 1.27758 0.538998 1.25948 0.473998C1.22172 0.337499 1.1431 0.217999 1.03189 0.131999C0.921203 0.0459998 0.786204 0 0.646549 0C0.507412 0 0.371895 0.0459998 0.261206 0.131999C0.149999 0.217999 0.071379 0.337499 0.0336205 0.473998C0.0155172 0.538998 0.00775859 0.604497 0.00362067 0.670997C0 0.744997 0 0.818496 0 0.891996V0.893496V3.10599V3.10749C0 3.18099 0 3.25449 0.00362067 3.32849C0.00775859 3.39549 0.0155172 3.46048 0.0336205 3.52548C0.071379 3.66198 0.149999 3.78148 0.261206 3.86748C0.371895 3.95348 0.507412 3.99998 0.646549 3.99998C0.786204 3.99998 0.921203 3.95348 1.03189 3.86748C1.1431 3.78148 1.22172 3.66198 1.25948 3.52548C1.27758 3.46048 1.28534 3.39549 1.28948 3.32849C1.2931 3.25449 1.2931 3.18099 1.2931 3.10749V3.10599V0.893496V0.891996C1.2931 0.818496 1.2931 0.744997 1.28948 0.670997V0.670997Z" fill="#262883"/>
</svg>
