<svg width="26" height="28" viewBox="0 0 26 28" fill="none" xmlns="http://www.w3.org/2000/svg">
<path d="M10.298 4.68138L1.1714 9.94784C0.329722 10.4335 -0.0978558 11.3563 0.018994 12.2624L1.07949 21.183C1.12273 21.469 1.21238 21.7418 1.36444 22.0056L2.53407 24.0349C3.17738 25.1511 4.61637 25.5376 5.73185 24.8939L12.1306 21.2016L13.8399 26.3945L13.9966 26.7367C14.2364 27.1527 14.631 27.4388 15.0627 27.5548L16.7517 27.9999L19.5804 17.4571C19.7349 16.8811 19.6656 16.2451 19.344 15.687L13.4958 5.54038C12.8525 4.42425 11.4135 4.0377 10.298 4.68138ZM17.3158 16.8573L15.4529 23.8006L13.6888 17.5982L4.56221 22.8646L3.39257 20.8353L2.34104 11.9772L11.4676 6.7107L17.3158 16.8573ZM25.4284 12.176L21.3721 14.5167L14.3543 2.34073L18.4105 7.68341e-05L25.4284 12.176Z" fill="#F2F5F9" fill-opacity="0.15"/>
</svg>
