<svg width="2" height="2" viewBox="0 0 2 2" fill="none" xmlns="http://www.w3.org/2000/svg">
<path fill-rule="evenodd" clip-rule="evenodd" d="M1.26621 0.474002C1.22825 0.337502 1.14921 0.218001 1.0374 0.132001C0.926124 0.0460002 0.790404 0 0.650003 0C0.510122 0 0.373882 0.0460002 0.262601 0.132001C0.150801 0.218001 0.0717603 0.337502 0.0338002 0.474002C0.0156001 0.539002 0.00780004 0.604503 0.00364002 0.671003C0 0.745003 0 0.818504 0 0.892004V1.1075C0 1.18101 0 1.25451 0.00364002 1.32851C0.00780004 1.39551 0.0156001 1.46051 0.0338002 1.52551C0.0717603 1.66201 0.150801 1.78151 0.262601 1.86751C0.373882 1.95351 0.510122 2.00001 0.650003 2.00001C0.790404 2.00001 0.926124 1.95351 1.0374 1.86751C1.14921 1.78151 1.22825 1.66201 1.26621 1.52551C1.28441 1.46051 1.29221 1.39551 1.29637 1.32851C1.30001 1.25451 1.30001 1.18101 1.30001 1.1075V0.892004C1.30001 0.818504 1.30001 0.745003 1.29637 0.671003C1.29221 0.604503 1.28441 0.539002 1.26621 0.474002V0.474002Z" fill="#262883"/>
</svg>
