<svg width="67" height="12" viewBox="0 0 67 12" fill="none" xmlns="http://www.w3.org/2000/svg">
<path opacity="0.35" d="M45.2286 0.505239H61.9799C63.1826 0.505239 64.1576 1.48021 64.1576 2.68291V8.71338C64.1576 9.91608 63.1826 10.8911 61.9799 10.8911H45.2286C44.0259 10.8911 43.0509 9.91608 43.0509 8.71338V2.68291C43.0509 1.48021 44.0259 0.505239 45.2286 0.505239Z" stroke="white"/>
<path opacity="0.4" d="M65.6652 3.68807V7.70839C66.474 7.36789 67 6.5758 67 5.69823C67 4.82066 66.474 4.02857 65.6652 3.68807" fill="white"/>
<path d="M44.5585 3.35296C44.5585 2.61284 45.1585 2.01286 45.8986 2.01286H61.3098C62.05 2.01286 62.65 2.61284 62.65 3.35296V8.04333C62.65 8.78345 62.05 9.38344 61.3098 9.38344H45.8986C45.1585 9.38344 44.5585 8.78345 44.5585 8.04333V3.35296Z" fill="white"/>
<path fill-rule="evenodd" clip-rule="evenodd" d="M29.8144 2.28889C32.0415 2.28899 34.1835 3.14475 35.7976 4.67931C35.9191 4.79778 36.1134 4.79628 36.2331 4.67596L37.395 3.50336C37.4556 3.44233 37.4894 3.35966 37.4889 3.27365C37.4884 3.18763 37.4536 3.10537 37.3923 3.04505C33.1558 -1.01502 26.4722 -1.01502 22.2357 3.04505C22.1744 3.10532 22.1395 3.18756 22.139 3.27358C22.1384 3.35959 22.1721 3.44229 22.2327 3.50336L23.3949 4.67596C23.5146 4.79647 23.709 4.79796 23.8305 4.67931C25.4448 3.14465 27.587 2.28889 29.8144 2.28889ZM29.8144 6.10384C31.038 6.10376 32.218 6.55859 33.1251 7.37995C33.2478 7.49652 33.441 7.494 33.5606 7.37426L34.7212 6.20167C34.7823 6.14016 34.8162 6.05672 34.8153 5.97002C34.8144 5.88332 34.7788 5.80058 34.7165 5.74033C31.9543 3.17097 27.6768 3.17097 24.9146 5.74033C24.8522 5.80058 24.8166 5.88336 24.8158 5.97009C24.815 6.05682 24.849 6.14025 24.9102 6.20167L26.0704 7.37426C26.19 7.494 26.3833 7.49652 26.506 7.37995C27.4124 6.55914 28.5915 6.10434 29.8144 6.10384ZM32.1391 8.67063C32.1409 8.75757 32.1067 8.8414 32.0446 8.90231L30.0372 10.9282C29.9783 10.9878 29.8981 11.0213 29.8144 11.0213C29.7306 11.0213 29.6504 10.9878 29.5916 10.9282L27.5838 8.90231C27.5217 8.84135 27.4876 8.7575 27.4895 8.67055C27.4913 8.58361 27.5289 8.50127 27.5935 8.44299C28.8755 7.35863 30.7532 7.35863 32.0353 8.44299C32.0998 8.50132 32.1373 8.58368 32.1391 8.67063Z" fill="white"/>
<path fill-rule="evenodd" clip-rule="evenodd" d="M16.0813 0.337644H15.0762C14.5211 0.337644 14.0711 0.787633 14.0711 1.34272V10.0534C14.0711 10.6085 14.5211 11.0585 15.0762 11.0585H16.0813C16.6364 11.0585 17.0863 10.6085 17.0863 10.0534V1.34272C17.0863 0.787633 16.6364 0.337644 16.0813 0.337644ZM10.3858 2.68283H11.3909C11.946 2.68283 12.396 3.13282 12.396 3.68791V10.0534C12.396 10.6085 11.946 11.0585 11.3909 11.0585H10.3858C9.83072 11.0585 9.38074 10.6085 9.38074 10.0534V3.68791C9.38074 3.13282 9.83072 2.68283 10.3858 2.68283ZM6.70053 5.02801H5.69545C5.14036 5.02801 4.69037 5.478 4.69037 6.03309V10.0534C4.69037 10.6085 5.14036 11.0585 5.69545 11.0585H6.70053C7.25562 11.0585 7.7056 10.6085 7.7056 10.0534V6.03309C7.7056 5.478 7.25562 5.02801 6.70053 5.02801ZM2.01016 7.03817H1.00508C0.449989 7.03817 0 7.48816 0 8.04325V10.0534C0 10.6085 0.449989 11.0585 1.00508 11.0585H2.01016C2.56525 11.0585 3.01524 10.6085 3.01524 10.0534V8.04325C3.01524 7.48816 2.56525 7.03817 2.01016 7.03817Z" fill="white"/>
</svg>
