<svg width="24" height="25" viewBox="0 0 24 25" fill="none" xmlns="http://www.w3.org/2000/svg">
<path d="M7.98525 12.2062L9.36495 13.2405L8.83742 14.9215C8.67794 15.4295 8.84398 15.9606 9.26031 16.2745C9.46824 16.4313 9.7064 16.5096 9.94462 16.5096C10.1834 16.5096 10.4221 16.4309 10.6303 16.2734L12.0073 15.2316L13.3768 16.2652C13.7931 16.5794 14.331 16.5791 14.7472 16.2644C15.1632 15.9497 15.3284 15.4181 15.168 14.9102L14.6405 13.2409L16.0167 12.2048C16.433 11.8913 16.5994 11.3606 16.4408 10.8528C16.2821 10.3449 15.8473 10.0168 15.3332 10.0168H13.6253L13.102 8.34064C12.9432 7.83248 12.5086 7.50439 11.9943 7.50439C11.9938 7.50439 11.9932 7.50439 11.9928 7.50439C11.4779 7.505 11.0433 7.8343 10.8856 8.34337L10.3675 10.0168H8.66687C8.15211 10.0168 7.71721 10.3454 7.5589 10.854C7.40048 11.3626 7.56793 11.8933 7.98525 12.2062V12.2062ZM10.7945 11.2335C11.049 11.2335 11.2743 11.0629 11.3523 10.8113L11.9942 8.73819L12.6419 10.8127C12.7202 11.0636 12.9453 11.2335 13.1993 11.2335H15.3106L13.6066 12.5164C13.4004 12.6716 13.3145 12.9473 13.3938 13.1985L14.0474 15.2672L12.3513 13.9872C12.1457 13.832 11.8673 13.8322 11.6618 13.9876L9.95851 15.2762L10.6115 13.1955C10.6904 12.9442 10.6039 12.6686 10.3974 12.5138L8.68948 11.2335H10.7945Z" fill="#F2F5F9" fill-opacity="0.1"/>
<path fill-rule="evenodd" clip-rule="evenodd" d="M12 22.537C17.8121 22.537 22.5238 17.8226 22.5238 12.007C22.5238 6.1915 17.8121 1.47706 12 1.47706C6.18786 1.47706 1.47619 6.1915 1.47619 12.007C1.47619 17.8226 6.18786 22.537 12 22.537ZM12 24.0141C18.6274 24.0141 24 18.6384 24 12.007C24 5.37574 18.6274 0 12 0C5.37258 0 0 5.37574 0 12.007C0 18.6384 5.37258 24.0141 12 24.0141Z" fill="#F2F5F9" fill-opacity="0.1"/>
<path fill-rule="evenodd" clip-rule="evenodd" d="M12.0001 19.1889C15.9642 19.1889 19.1778 15.9734 19.1778 12.0069C19.1778 8.04044 15.9642 4.82495 12.0001 4.82495C8.03588 4.82495 4.82228 8.04044 4.82228 12.0069C4.82228 15.9734 8.03588 19.1889 12.0001 19.1889ZM12.0001 20.5119C16.6945 20.5119 20.5001 16.7041 20.5001 12.0069C20.5001 7.30977 16.6945 3.50195 12.0001 3.50195C7.30564 3.50195 3.50006 7.30977 3.50006 12.0069C3.50006 16.7041 7.30564 20.5119 12.0001 20.5119Z" fill="#F2F5F9" fill-opacity="0.1"/>
</svg>
