<svg width="14" height="12" viewBox="0 0 14 12" fill="none" xmlns="http://www.w3.org/2000/svg">
<path d="M11.0996 1.23852C10.7712 0.850005 10.3587 0.537544 9.89194 0.323647C9.42515 0.109751 8.91564 -0.00025809 8.40012 0.00154644C7.51806 -0.024566 6.65931 0.280842 6.00056 0.854934C5.3418 0.280842 4.48305 -0.024566 3.60099 0.00154644C3.08548 -0.00025809 2.57597 0.109751 2.10917 0.323647C1.64237 0.537544 1.22991 0.850005 0.901488 1.23852C0.329792 1.91654 -0.268299 3.14412 0.128229 5.14475C0.761113 8.33952 5.50685 10.9613 5.70721 11.0686C5.79653 11.1173 5.89709 11.1429 5.99936 11.1429C6.10162 11.1429 6.20219 11.1173 6.2915 11.0686C6.49307 10.9589 11.2388 8.33718 11.8705 5.14475C12.2694 3.14412 11.6713 1.91654 11.0996 1.23852ZM10.6953 4.92187C10.2478 7.18056 6.99518 9.28148 6.00056 9.87855C4.59921 9.05156 1.71614 6.97528 1.30881 4.92187C1.00107 3.36993 1.42219 2.46845 1.83012 1.98516C2.04584 1.73067 2.3165 1.52602 2.62267 1.38588C2.92884 1.24574 3.26293 1.17358 3.60099 1.17459C3.96206 1.14811 4.32399 1.21356 4.65148 1.36457C4.97898 1.51557 5.26086 1.74696 5.46965 2.03619C5.52114 2.12882 5.5971 2.20625 5.6896 2.26042C5.78211 2.31459 5.88778 2.34351 5.99561 2.34417C6.10344 2.34483 6.20947 2.31721 6.30266 2.26417C6.39586 2.21113 6.47279 2.13463 6.52546 2.04264C6.73385 1.75116 7.01634 1.51781 7.34507 1.36559C7.6738 1.21337 8.03744 1.14754 8.40012 1.17459C8.73889 1.17298 9.0738 1.24484 9.38075 1.385C9.68769 1.52516 9.95902 1.73014 10.1752 1.98516C10.5819 2.46845 11.003 3.36993 10.6953 4.92187Z" fill="#FFDB03"/>
<mask id="path-2-outside-1_818_2344" maskUnits="userSpaceOnUse" x="7" y="4.57143" width="7" height="7" fill="black">
<rect fill="white" x="7" y="4.57143" width="7" height="7"/>
<path fill-rule="evenodd" clip-rule="evenodd" d="M10.5 5.57143C10.2239 5.57143 10 5.79528 10 6.07143V7.42857H8.46429C8.20787 7.42857 8 7.63644 8 7.89285C8 8.14927 8.20787 8.35714 8.46429 8.35714H10V9.71428C10 9.99043 10.2239 10.2143 10.5 10.2143C10.7761 10.2143 11 9.99043 11 9.71428V8.35714H12.5357C12.7921 8.35714 13 8.14927 13 7.89285C13 7.63644 12.7921 7.42857 12.5357 7.42857H11V6.07143C11 5.79528 10.7761 5.57143 10.5 5.57143Z"/>
</mask>
<path fill-rule="evenodd" clip-rule="evenodd" d="M10.5 5.57143C10.2239 5.57143 10 5.79528 10 6.07143V7.42857H8.46429C8.20787 7.42857 8 7.63644 8 7.89285C8 8.14927 8.20787 8.35714 8.46429 8.35714H10V9.71428C10 9.99043 10.2239 10.2143 10.5 10.2143C10.7761 10.2143 11 9.99043 11 9.71428V8.35714H12.5357C12.7921 8.35714 13 8.14927 13 7.89285C13 7.63644 12.7921 7.42857 12.5357 7.42857H11V6.07143C11 5.79528 10.7761 5.57143 10.5 5.57143Z" fill="#FFDB03"/>
<path d="M10 7.42857V8.42857H11V7.42857H10ZM10 8.35714H11V7.35714H10V8.35714ZM11 8.35714V7.35714H10V8.35714H11ZM11 7.42857H10V8.42857H11V7.42857ZM11 6.07143C11 6.34757 10.7761 6.57143 10.5 6.57143V4.57143C9.67157 4.57143 9 5.243 9 6.07143H11ZM11 7.42857V6.07143H9V7.42857H11ZM8.46429 8.42857H10V6.42857H8.46429V8.42857ZM9 7.89285C9 8.18872 8.76015 8.42857 8.46429 8.42857V6.42857C7.65558 6.42857 7 7.08415 7 7.89285H9ZM8.46429 7.35714C8.76015 7.35714 9 7.59699 9 7.89285H7C7 8.70156 7.65558 9.35714 8.46429 9.35714V7.35714ZM10 7.35714H8.46429V9.35714H10V7.35714ZM11 9.71428V8.35714H9V9.71428H11ZM10.5 9.21428C10.7761 9.21428 11 9.43814 11 9.71428H9C9 10.5427 9.67157 11.2143 10.5 11.2143V9.21428ZM10 9.71428C10 9.43814 10.2239 9.21428 10.5 9.21428V11.2143C11.3284 11.2143 12 10.5427 12 9.71428H10ZM10 8.35714V9.71428H12V8.35714H10ZM12.5357 7.35714H11V9.35714H12.5357V7.35714ZM12 7.89285C12 7.59699 12.2398 7.35714 12.5357 7.35714V9.35714C13.3444 9.35714 14 8.70156 14 7.89285H12ZM12.5357 8.42857C12.2398 8.42857 12 8.18872 12 7.89285H14C14 7.08415 13.3444 6.42857 12.5357 6.42857V8.42857ZM11 8.42857H12.5357V6.42857H11V8.42857ZM10 6.07143V7.42857H12V6.07143H10ZM10.5 6.57143C10.2239 6.57143 10 6.34757 10 6.07143H12C12 5.243 11.3284 4.57143 10.5 4.57143V6.57143Z" fill="#FAFAFA" mask="url(#path-2-outside-1_818_2344)"/>
</svg>
