<svg width="177" height="81" viewBox="0 0 177 81" fill="none" xmlns="http://www.w3.org/2000/svg">
<g filter="url(#filter0_di_601_2375)">
<ellipse cx="41" cy="36.5" rx="26" ry="25.5" fill="#FDE74C"/>
</g>
<path d="M34 30.7V28.9C34 28.6613 34.0843 28.4324 34.2343 28.2636C34.3843 28.0948 34.5878 28 34.8 28H49.2C49.4122 28 49.6157 28.0948 49.7657 28.2636C49.9157 28.4324 50 28.6613 50 28.9V30.7C50 30.9387 49.9157 31.1676 49.7657 31.3364C49.6157 31.5052 49.4122 31.6 49.2 31.6C48.9878 31.6 48.7843 31.5052 48.6343 31.3364C48.4843 31.1676 48.4 30.9387 48.4 30.7V29.8H42.8V44.2H45.2C45.4122 44.2 45.6157 44.2948 45.7657 44.4636C45.9157 44.6324 46 44.8613 46 45.1C46 45.3387 45.9157 45.5676 45.7657 45.7364C45.6157 45.9052 45.4122 46 45.2 46H38.8C38.5878 46 38.3843 45.9052 38.2343 45.7364C38.0843 45.5676 38 45.3387 38 45.1C38 44.8613 38.0843 44.6324 38.2343 44.4636C38.3843 44.2948 38.5878 44.2 38.8 44.2H41.2V29.8H35.6V30.7C35.6 30.9387 35.5157 31.1676 35.3657 31.3364C35.2157 31.5052 35.0122 31.6 34.8 31.6C34.5878 31.6 34.3843 31.5052 34.2343 31.3364C34.0843 31.1676 34 30.9387 34 30.7V30.7Z" fill="#0E106C"/>
<g filter="url(#filter1_di_601_2375)">
<ellipse cx="136" cy="36.5" rx="26" ry="25.5" fill="#FDE74C"/>
</g>
<path d="M138.111 27.2222V46.7778C138.111 47.1019 137.994 47.4128 137.786 47.642C137.577 47.8712 137.295 48 137 48C136.705 48 136.423 47.8712 136.214 47.642C136.006 47.4128 135.889 47.1019 135.889 46.7778V27.2222C135.889 26.8981 136.006 26.5872 136.214 26.358C136.423 26.1288 136.705 26 137 26C137.295 26 137.577 26.1288 137.786 26.358C137.994 26.5872 138.111 26.8981 138.111 27.2222V27.2222ZM132.556 28.4444C132.261 28.4444 131.978 28.5732 131.77 28.8024C131.562 29.0316 131.444 29.3425 131.444 29.6667V44.3333C131.444 44.6575 131.562 44.9684 131.77 45.1976C131.978 45.4268 132.261 45.5556 132.556 45.5556C132.85 45.5556 133.133 45.4268 133.341 45.1976C133.55 44.9684 133.667 44.6575 133.667 44.3333V29.6667C133.667 29.3425 133.55 29.0316 133.341 28.8024C133.133 28.5732 132.85 28.4444 132.556 28.4444V28.4444ZM128.111 30.8889C127.816 30.8889 127.534 31.0177 127.325 31.2469C127.117 31.4761 127 31.787 127 32.1111V41.8889C127 42.213 127.117 42.5239 127.325 42.7531C127.534 42.9823 127.816 43.1111 128.111 43.1111C128.406 43.1111 128.688 42.9823 128.897 42.7531C129.105 42.5239 129.222 42.213 129.222 41.8889V32.1111C129.222 31.787 129.105 31.4761 128.897 31.2469C128.688 31.0177 128.406 30.8889 128.111 30.8889ZM141.444 28.4444C141.15 28.4444 140.867 28.5732 140.659 28.8024C140.45 29.0316 140.333 29.3425 140.333 29.6667V44.3333C140.333 44.6575 140.45 44.9684 140.659 45.1976C140.867 45.4268 141.15 45.5556 141.444 45.5556C141.739 45.5556 142.022 45.4268 142.23 45.1976C142.438 44.9684 142.556 44.6575 142.556 44.3333V29.6667C142.556 29.3425 142.438 29.0316 142.23 28.8024C142.022 28.5732 141.739 28.4444 141.444 28.4444ZM145.889 30.8889C145.594 30.8889 145.312 31.0177 145.103 31.2469C144.895 31.4761 144.778 31.787 144.778 32.1111V41.8889C144.778 42.213 144.895 42.5239 145.103 42.7531C145.312 42.9823 145.594 43.1111 145.889 43.1111C146.184 43.1111 146.466 42.9823 146.675 42.7531C146.883 42.5239 147 42.213 147 41.8889V32.1111C147 31.787 146.883 31.4761 146.675 31.2469C146.466 31.0177 146.184 30.8889 145.889 30.8889Z" fill="#0E106C"/>
<defs>
<filter id="filter0_di_601_2375" x="0" y="0" width="82" height="83" filterUnits="userSpaceOnUse" color-interpolation-filters="sRGB">
<feFlood flood-opacity="0" result="BackgroundImageFix"/>
<feColorMatrix in="SourceAlpha" type="matrix" values="0 0 0 0 0 0 0 0 0 0 0 0 0 0 0 0 0 0 127 0" result="hardAlpha"/>
<feOffset dy="4"/>
<feGaussianBlur stdDeviation="7.5"/>
<feColorMatrix type="matrix" values="0 0 0 0 1 0 0 0 0 0.858824 0 0 0 0 0.0117647 0 0 0 0.5 0"/>
<feBlend mode="normal" in2="BackgroundImageFix" result="effect1_dropShadow_601_2375"/>
<feBlend mode="normal" in="SourceGraphic" in2="effect1_dropShadow_601_2375" result="shape"/>
<feColorMatrix in="SourceAlpha" type="matrix" values="0 0 0 0 0 0 0 0 0 0 0 0 0 0 0 0 0 0 127 0" result="hardAlpha"/>
<feOffset dy="27"/>
<feGaussianBlur stdDeviation="10.5"/>
<feComposite in2="hardAlpha" operator="arithmetic" k2="-1" k3="1"/>
<feColorMatrix type="matrix" values="0 0 0 0 1 0 0 0 0 0.980392 0 0 0 0 0.470588 0 0 0 1 0"/>
<feBlend mode="normal" in2="shape" result="effect2_innerShadow_601_2375"/>
</filter>
<filter id="filter1_di_601_2375" x="95" y="0" width="82" height="83" filterUnits="userSpaceOnUse" color-interpolation-filters="sRGB">
<feFlood flood-opacity="0" result="BackgroundImageFix"/>
<feColorMatrix in="SourceAlpha" type="matrix" values="0 0 0 0 0 0 0 0 0 0 0 0 0 0 0 0 0 0 127 0" result="hardAlpha"/>
<feOffset dy="4"/>
<feGaussianBlur stdDeviation="7.5"/>
<feColorMatrix type="matrix" values="0 0 0 0 1 0 0 0 0 0.858824 0 0 0 0 0.0117647 0 0 0 0.5 0"/>
<feBlend mode="normal" in2="BackgroundImageFix" result="effect1_dropShadow_601_2375"/>
<feBlend mode="normal" in="SourceGraphic" in2="effect1_dropShadow_601_2375" result="shape"/>
<feColorMatrix in="SourceAlpha" type="matrix" values="0 0 0 0 0 0 0 0 0 0 0 0 0 0 0 0 0 0 127 0" result="hardAlpha"/>
<feOffset dy="27"/>
<feGaussianBlur stdDeviation="10.5"/>
<feComposite in2="hardAlpha" operator="arithmetic" k2="-1" k3="1"/>
<feColorMatrix type="matrix" values="0 0 0 0 1 0 0 0 0 0.980392 0 0 0 0 0.470588 0 0 0 1 0"/>
<feBlend mode="normal" in2="shape" result="effect2_innerShadow_601_2375"/>
</filter>
</defs>
</svg>
