<svg width="2" height="7" viewBox="0 0 2 7" fill="none" xmlns="http://www.w3.org/2000/svg">
<path fill-rule="evenodd" clip-rule="evenodd" d="M1.17552 0.4424C1.14028 0.315 1.0669 0.203467 0.963103 0.1232C0.859793 0.0429333 0.733793 0 0.603448 0C0.473586 0 0.347103 0.0429333 0.243793 0.1232C0.14 0.203467 0.0666207 0.315 0.0313793 0.4424C0.0144828 0.503067 0.00724138 0.5642 0.00337931 0.626267C0 0.695333 0 0.763933 0 0.832533V6.167C0 6.2356 0 6.3042 0.00337931 6.37327C0.00724138 6.4358 0.0144828 6.49647 0.0313793 6.55713C0.0666207 6.68453 0.14 6.79607 0.243793 6.87633C0.347103 6.9566 0.473586 7 0.603448 7C0.733793 7 0.859793 6.9566 0.963103 6.87633C1.0669 6.79607 1.14028 6.68453 1.17552 6.55713C1.19241 6.49647 1.19966 6.4358 1.20352 6.37327C1.2069 6.3042 1.2069 6.2356 1.2069 6.167V0.832533C1.2069 0.763933 1.2069 0.695333 1.20352 0.626267C1.19966 0.5642 1.19241 0.503067 1.17552 0.4424V0.4424Z" fill="#262883"/>
</svg>
