<svg width="2" height="2" viewBox="0 0 2 2" fill="none" xmlns="http://www.w3.org/2000/svg">
<path fill-rule="evenodd" clip-rule="evenodd" d="M1.26674 0.474002C1.22826 0.337502 1.14974 0.218001 1.03742 0.132001C0.926142 0.0460002 0.790421 0 0.65002 0C0.50962 0 0.373899 0.0460002 0.262618 0.132001C0.150298 0.218001 0.0717775 0.337502 0.0332974 0.474002C0.0156173 0.539002 0.00781723 0.604503 0.00417721 0.671003C-0.000502812 0.745003 1.71902e-05 0.818504 1.71902e-05 0.892004V0.893504V1.106V1.1075C1.71902e-05 1.18101 -0.000502812 1.25451 0.00417721 1.32851C0.00781723 1.39551 0.0156173 1.46051 0.0332974 1.52551C0.0717775 1.66201 0.150298 1.78151 0.262618 1.86751C0.373899 1.95351 0.50962 2.00001 0.65002 2.00001C0.790421 2.00001 0.926142 1.95351 1.03742 1.86751C1.14974 1.78151 1.22826 1.66201 1.26674 1.52551C1.28442 1.46051 1.29222 1.39551 1.29586 1.32851C1.30054 1.25451 1.30002 1.18101 1.30002 1.1075V0.892004C1.30002 0.818504 1.30054 0.745003 1.29586 0.671003C1.29222 0.604503 1.28442 0.539002 1.26674 0.474002V0.474002Z" fill="#262883"/>
</svg>
