<svg width="14" height="12" viewBox="0 0 14 12" fill="none" xmlns="http://www.w3.org/2000/svg">
<path d="M11.0996 1.33379C10.7712 0.91539 10.3587 0.578894 9.89194 0.348543C9.42515 0.118193 8.91564 -0.000277943 8.40012 0.00166539C7.51806 -0.0264557 6.65931 0.302445 6.00056 0.920698C5.3418 0.302445 4.48305 -0.0264557 3.60099 0.00166539C3.08548 -0.000277943 2.57597 0.118193 2.10917 0.348543C1.64237 0.578894 1.22991 0.91539 0.901488 1.33379C0.329792 2.06396 -0.268299 3.38598 0.128229 5.5405C0.761113 8.98103 5.50685 11.8044 5.70721 11.92C5.79653 11.9725 5.89709 12 5.99936 12C6.10162 12 6.20219 11.9725 6.2915 11.92C6.49307 11.8019 11.2388 8.9785 11.8705 5.5405C12.2694 3.38598 11.6713 2.06396 11.0996 1.33379ZM10.6953 5.30047C10.2478 7.73291 6.99518 9.99544 6.00056 10.6384C4.59921 9.74783 1.71614 7.51184 1.30881 5.30047C1.00107 3.62916 1.42219 2.65833 1.83012 2.13786C2.04584 1.8638 2.3165 1.64341 2.62267 1.49249C2.92884 1.34157 3.26293 1.26386 3.60099 1.26494C3.96206 1.23643 4.32399 1.30692 4.65148 1.46953C4.97898 1.63215 5.26086 1.88134 5.46965 2.19282C5.52114 2.29257 5.5971 2.37597 5.6896 2.4343C5.78211 2.49264 5.88778 2.52379 5.99561 2.5245C6.10344 2.5252 6.20947 2.49545 6.30266 2.43834C6.39586 2.38122 6.47279 2.29884 6.52546 2.19976C6.73385 1.88586 7.01634 1.63456 7.34507 1.47063C7.6738 1.30671 8.03744 1.23581 8.40012 1.26494C8.73889 1.2632 9.0738 1.3406 9.38075 1.49154C9.68769 1.64249 9.95902 1.86323 10.1752 2.13786C10.5819 2.65833 11.003 3.62916 10.6953 5.30047Z" fill="#FFDB03"/>
<mask id="path-2-outside-1_865_328" maskUnits="userSpaceOnUse" x="7" y="5" width="7" height="7" fill="black">
<rect fill="white" x="7" y="5" width="7" height="7"/>
<path fill-rule="evenodd" clip-rule="evenodd" d="M10.5 6C10.2239 6 10 6.22386 10 6.5V8H8.5C8.22386 8 8 8.22386 8 8.5C8 8.77614 8.22386 9 8.5 9H10V10.5C10 10.7761 10.2239 11 10.5 11C10.7761 11 11 10.7761 11 10.5V9H12.5C12.7761 9 13 8.77614 13 8.5C13 8.22386 12.7761 8 12.5 8H11V6.5C11 6.22386 10.7761 6 10.5 6Z"/>
</mask>
<path fill-rule="evenodd" clip-rule="evenodd" d="M10.5 6C10.2239 6 10 6.22386 10 6.5V8H8.5C8.22386 8 8 8.22386 8 8.5C8 8.77614 8.22386 9 8.5 9H10V10.5C10 10.7761 10.2239 11 10.5 11C10.7761 11 11 10.7761 11 10.5V9H12.5C12.7761 9 13 8.77614 13 8.5C13 8.22386 12.7761 8 12.5 8H11V6.5C11 6.22386 10.7761 6 10.5 6Z" fill="#FFDB03"/>
<path d="M10 8V9H11V8H10ZM10 9H11V8H10V9ZM11 9V8H10V9H11ZM11 8H10V9H11V8ZM11 6.5C11 6.77614 10.7761 7 10.5 7V5C9.67157 5 9 5.67157 9 6.5H11ZM11 8V6.5H9V8H11ZM8.5 9H10V7H8.5V9ZM9 8.5C9 8.77614 8.77614 9 8.5 9V7C7.67157 7 7 7.67157 7 8.5H9ZM8.5 8C8.77614 8 9 8.22386 9 8.5H7C7 9.32843 7.67157 10 8.5 10V8ZM10 8H8.5V10H10V8ZM11 10.5V9H9V10.5H11ZM10.5 10C10.7761 10 11 10.2239 11 10.5H9C9 11.3284 9.67157 12 10.5 12V10ZM10 10.5C10 10.2239 10.2239 10 10.5 10V12C11.3284 12 12 11.3284 12 10.5H10ZM10 9V10.5H12V9H10ZM12.5 8H11V10H12.5V8ZM12 8.5C12 8.22386 12.2239 8 12.5 8V10C13.3284 10 14 9.32843 14 8.5H12ZM12.5 9C12.2239 9 12 8.77614 12 8.5H14C14 7.67157 13.3284 7 12.5 7V9ZM11 9H12.5V7H11V9ZM10 6.5V8H12V6.5H10ZM10.5 7C10.2239 7 10 6.77614 10 6.5H12C12 5.67157 11.3284 5 10.5 5V7Z" fill="#FAFAFA" mask="url(#path-2-outside-1_865_328)"/>
</svg>
