<svg width="14" height="11" viewBox="0 0 14 11" fill="none" xmlns="http://www.w3.org/2000/svg">
<path d="M4.86719 0.625012C4.86719 0.279798 5.112 1.31894e-05 5.41406 1.31894e-05H10.0078C11.214 1.31894e-05 12.1953 1.12159 12.1953 2.50001V7.59375C12.1953 7.93897 11.9505 8.21875 11.6484 8.21875C11.3464 8.21875 11.1015 7.93897 11.1015 7.59375V2.50001C11.1015 1.8108 10.6109 1.25001 10.0078 1.25001H5.41406C5.112 1.25001 4.86719 0.970227 4.86719 0.625012ZM13.8372 8.21131C13.6222 7.969 13.2759 7.97168 13.0638 8.21741L11.8471 9.62708C11.7956 9.68616 11.7276 9.71875 11.6554 9.71875C11.6553 9.71875 11.6553 9.71875 11.6551 9.71875C11.5831 9.71875 11.515 9.68628 11.4635 9.62732L10.2309 8.21497C10.0176 7.97046 9.67134 7.96997 9.45751 8.21375C9.24367 8.45752 9.24324 8.85327 9.45655 9.09766L10.6891 10.5101C10.9473 10.8059 11.2904 10.9688 11.6551 10.9688H11.6561C12.0212 10.9685 12.3645 10.8051 12.6241 10.5067L13.8424 9.09522C14.0546 8.84949 14.0522 8.45374 13.8372 8.21131ZM8.53124 9.75H3.99219C3.38913 9.75 2.89844 9.18933 2.89844 8.5V3.25001C2.89844 2.90479 2.65363 2.62501 2.35157 2.62501C2.04951 2.62501 1.8047 2.90479 1.8047 3.25001V8.5C1.8047 9.87854 2.78597 11 3.99219 11H8.53124C8.8333 11 9.07811 10.7202 9.07811 10.375C9.07811 10.0298 8.8333 9.75 8.53124 9.75ZM2.34463 1.25001H2.34484C2.41694 1.25001 2.48498 1.28248 2.53646 1.34144L3.76906 2.75392C3.87587 2.87635 4.01612 2.93751 4.15625 2.93751C4.29596 2.93751 4.43567 2.87672 4.54248 2.75501C4.75632 2.51136 4.75674 2.11561 4.54344 1.87123L3.31084 0.458753C3.05246 0.162733 2.70939 -0.00169579 2.34388 1.31894e-05C1.9788 0.000379401 1.63551 0.163709 1.37585 0.462049L0.15756 1.87367C-0.0545676 2.1194 -0.0522177 2.51502 0.1629 2.75746C0.377804 2.99989 0.724086 2.9972 0.936213 2.75147L2.15301 1.34181C2.20438 1.28273 2.27242 1.25013 2.34463 1.25001Z" fill="#FDE74C"/>
</svg>
