<svg width="2" height="2" viewBox="0 0 2 2" fill="none" xmlns="http://www.w3.org/2000/svg">
<path fill-rule="evenodd" clip-rule="evenodd" d="M1.68481 0.632003C1.63419 0.450002 1.52881 0.290668 1.37974 0.176001C1.23137 0.0613336 1.05041 0 0.863204 0C0.676697 0 0.495042 0.0613336 0.346668 0.176001C0.197601 0.290668 0.0922138 0.450002 0.0416002 0.632003C0.0173334 0.71867 0.00693337 0.806004 0.00138667 0.894671C-0.000693337 0.930004 0.000693337 0.964671 0 1C0.000693337 1.03467 -0.000693337 1.07 0.00138667 1.10467C0.00693337 1.19401 0.0173334 1.28067 0.0416002 1.36734C0.0922138 1.54934 0.197601 1.70867 0.346668 1.82334C0.495042 1.93801 0.676697 2.00001 0.863204 2.00001C1.05041 2.00001 1.23137 1.93801 1.37974 1.82334C1.52881 1.70867 1.63419 1.54934 1.68481 1.36734C1.70907 1.28067 1.71947 1.19401 1.72502 1.10467C1.7271 1.07 1.72572 1.03467 1.72641 1C1.72572 0.964671 1.7271 0.930004 1.72502 0.894671C1.71947 0.806004 1.70907 0.71867 1.68481 0.632003V0.632003Z" fill="#262883"/>
</svg>
