<svg width="2" height="8" viewBox="0 0 2 8" fill="none" xmlns="http://www.w3.org/2000/svg">
<path fill-rule="evenodd" clip-rule="evenodd" d="M1.1854 0.446118C1.14986 0.317647 1.07586 0.205177 0.971197 0.124235C0.867019 0.0432941 0.73996 0 0.60852 0C0.477566 0 0.35002 0.0432941 0.245842 0.124235C0.141177 0.205177 0.0671806 0.317647 0.031643 0.446118C0.0146045 0.507294 0.00730223 0.568941 0.00340771 0.63153C0 0.701177 0 0.770353 0 0.83953V7.16C0 7.22918 0 7.29836 0.00340771 7.368C0.00730223 7.43106 0.0146045 7.49224 0.031643 7.55294C0.0671806 7.68189 0.141177 7.79436 0.245842 7.8753C0.35002 7.95624 0.477566 8 0.60852 8C0.73996 8 0.867019 7.95624 0.971197 7.8753C1.07586 7.79436 1.14986 7.68189 1.1854 7.55294C1.20243 7.49224 1.20974 7.43106 1.21363 7.368C1.21704 7.29836 1.21704 7.22918 1.21704 7.16V0.83953C1.21704 0.770353 1.21704 0.701177 1.21363 0.63153C1.20974 0.568941 1.20243 0.507294 1.1854 0.446118V0.446118Z" fill="#262883"/>
</svg>
