<svg width="2" height="3" viewBox="0 0 2 3" fill="none" xmlns="http://www.w3.org/2000/svg">
<path fill-rule="evenodd" clip-rule="evenodd" d="M1.55563 0.805201C1.55064 0.725401 1.54128 0.646801 1.51944 0.568801C1.47389 0.405 1.37904 0.2616 1.24488 0.1584C1.11135 0.0552001 0.948481 0 0.780001 0C0.612145 0 0.448656 0.0552001 0.31512 0.1584C0.18096 0.2616 0.0861121 0.405 0.04056 0.568801C0.01872 0.646801 0.00936001 0.725401 0.004368 0.805201C0 0.894001 0 0.982201 0 1.0704V1.0722V1.9272V1.929C0 2.0172 0 2.1054 0.004368 2.1942C0.00936001 2.2746 0.01872 2.3526 0.04056 2.4306C0.0861121 2.5944 0.18096 2.7378 0.31512 2.841C0.448656 2.9442 0.612145 3 0.780001 3C0.948481 3 1.11135 2.9442 1.24488 2.841C1.37904 2.7378 1.47389 2.5944 1.51944 2.4306C1.54128 2.3526 1.55064 2.2746 1.55563 2.1942C1.56 2.1054 1.56 2.0172 1.56 1.929V1.9272V1.0722V1.0704C1.56 0.982201 1.56 0.894001 1.55563 0.805201V0.805201Z" fill="#262883"/>
</svg>
