<svg width="15" height="13" viewBox="0 0 15 13" fill="none" xmlns="http://www.w3.org/2000/svg">
<path d="M11.6436 6.02727C11.6436 8.63807 9.35216 10.7545 6.52554 10.7545C3.69891 10.7545 1.40747 8.63807 1.40747 6.02727C1.40747 3.41647 3.69891 1.3 6.52554 1.3C9.35216 1.3 11.6436 3.41647 11.6436 6.02727Z" fill="#EE9E04"/>
<path d="M12.9871 6.97273C12.9871 9.74671 10.5524 11.9955 7.54916 11.9955C4.54587 11.9955 2.11122 9.74671 2.11122 6.97273C2.11122 4.19876 4.54587 1.95 7.54916 1.95C10.5524 1.95 12.9871 4.19876 12.9871 6.97273Z" fill="#F5B400"/>
<path fill-rule="evenodd" clip-rule="evenodd" d="M7.03734 11.3973C9.96561 11.3973 12.3394 9.20468 12.3394 6.5C12.3394 3.79532 9.96561 1.60274 7.03734 1.60274C4.10907 1.60274 1.73523 3.79532 1.73523 6.5C1.73523 9.20468 4.10907 11.3973 7.03734 11.3973ZM7.03734 13C10.924 13 14.0747 10.0899 14.0747 6.5C14.0747 2.91015 10.924 0 7.03734 0C3.15072 0 0 2.91015 0 6.5C0 10.0899 3.15072 13 7.03734 13Z" fill="#FFDB03"/>
<path fill-rule="evenodd" clip-rule="evenodd" d="M7.22928 11.3194C10.005 11.3194 12.2551 9.24104 12.2551 6.67728C12.2551 4.11352 10.005 2.03518 7.22928 2.03518C4.45358 2.03518 2.20344 4.11352 2.20344 6.67728C2.20344 9.24104 4.45358 11.3194 7.22928 11.3194ZM7.22928 11.4046C10.0559 11.4046 12.3473 9.28808 12.3473 6.67728C12.3473 4.06648 10.0559 1.95 7.22928 1.95C4.40265 1.95 2.11122 4.06648 2.11122 6.67728C2.11122 9.28808 4.40265 11.4046 7.22928 11.4046Z" fill="#EE9E04"/>
<path fill-rule="evenodd" clip-rule="evenodd" d="M7.03734 12.911C10.8707 12.911 13.9783 10.0407 13.9783 6.5C13.9783 2.95932 10.8707 0.0890411 7.03734 0.0890411C3.20396 0.0890411 0.0964019 2.95932 0.0964019 6.5C0.0964019 10.0407 3.20396 12.911 7.03734 12.911ZM7.03734 13C10.924 13 14.0747 10.0899 14.0747 6.5C14.0747 2.91015 10.924 0 7.03734 0C3.15072 0 0 2.91015 0 6.5C0 10.0899 3.15072 13 7.03734 13Z" fill="#FEFA2B"/>
<path d="M6.95654 4.11231C7.11753 3.82923 7.58269 3.82923 7.74369 4.11231L8.37019 5.21391C8.43412 5.32632 8.5577 5.40423 8.70065 5.42226L10.1016 5.5989C10.4615 5.6443 10.6053 6.0282 10.3448 6.24854L9.33109 7.10602C9.22765 7.19352 9.18045 7.31958 9.20487 7.44313L9.44417 8.65391C9.50566 8.96504 9.12934 9.2023 8.80736 9.05541L7.55435 8.48376C7.42649 8.42542 7.27374 8.42542 7.14588 8.48376L5.89287 9.05541C5.57089 9.2023 5.19456 8.96504 5.25606 8.65391L5.49536 7.44313C5.51978 7.31958 5.47258 7.19352 5.36914 7.10602L4.35543 6.24854C4.09494 6.0282 4.23868 5.6443 4.59867 5.5989L5.99958 5.42226C6.14253 5.40423 6.26611 5.32632 6.33004 5.21391L6.95654 4.11231Z" fill="#FFDB03"/>
</svg>
