<svg width="12" height="11" viewBox="0 0 12 11" fill="none" xmlns="http://www.w3.org/2000/svg">
<path d="M9.49872 1.14325C9.21767 0.784619 8.8647 0.496195 8.46522 0.298751C8.06575 0.101308 7.62973 -0.000238237 7.18857 0.00142748C6.43373 -0.0226763 5.69884 0.259239 5.13509 0.78917C4.57135 0.259239 3.83646 -0.0226763 3.08162 0.00142748C2.64046 -0.000238237 2.20443 0.101308 1.80496 0.298751C1.40549 0.496195 1.05252 0.784619 0.771466 1.14325C0.282226 1.76911 -0.229602 2.90227 0.109734 4.749C0.651337 7.69802 4.71259 10.1181 4.88406 10.2172C4.96049 10.2621 5.04655 10.2857 5.13407 10.2857C5.22158 10.2857 5.30764 10.2621 5.38408 10.2172C5.55657 10.1159 9.61782 7.69586 10.1584 4.749C10.4998 2.90227 9.98796 1.76911 9.49872 1.14325ZM9.15271 4.54326C8.76974 6.62821 5.98626 8.56752 5.13509 9.11866C3.93587 8.35529 1.46862 6.43872 1.12004 4.54326C0.856685 3.11071 1.21707 2.27857 1.56616 1.83245C1.75077 1.59755 1.98239 1.40864 2.2444 1.27927C2.50641 1.14991 2.79232 1.08331 3.08162 1.08423C3.39061 1.0598 3.70034 1.12021 3.9806 1.2596C4.26086 1.39898 4.50208 1.61258 4.68076 1.87956C4.72482 1.96506 4.78982 2.03654 4.86899 2.08654C4.94815 2.13655 5.03858 2.16324 5.13086 2.16385C5.22313 2.16446 5.31388 2.13896 5.39363 2.09C5.47338 2.04105 5.53922 1.97043 5.58429 1.88551C5.76262 1.61645 6.00437 1.40105 6.28569 1.26054C6.56701 1.12003 6.87819 1.05927 7.18857 1.08423C7.47847 1.08275 7.76508 1.14908 8.02776 1.27846C8.29043 1.40784 8.52263 1.59705 8.70762 1.83245C9.05568 2.27857 9.41607 3.11071 9.15271 4.54326Z" fill="#FFDB03"/>
<mask id="path-2-outside-1_601_2642" maskUnits="userSpaceOnUse" x="6" y="4" width="6" height="6" fill="black">
<rect fill="white" x="6" y="4" width="6" height="6"/>
<path fill-rule="evenodd" clip-rule="evenodd" d="M9.5 5C9.22386 5 9 5.22386 9 5.5V7H7.5C7.22386 7 7 7.22386 7 7.5C7 7.77614 7.22386 8 7.5 8H9V8.5C9 8.77614 9.22386 9 9.5 9C9.77614 9 10 8.77614 10 8.5V8H10.5C10.7761 8 11 7.77614 11 7.5C11 7.22386 10.7761 7 10.5 7H10V5.5C10 5.22386 9.77614 5 9.5 5Z"/>
</mask>
<path fill-rule="evenodd" clip-rule="evenodd" d="M9.5 5C9.22386 5 9 5.22386 9 5.5V7H7.5C7.22386 7 7 7.22386 7 7.5C7 7.77614 7.22386 8 7.5 8H9V8.5C9 8.77614 9.22386 9 9.5 9C9.77614 9 10 8.77614 10 8.5V8H10.5C10.7761 8 11 7.77614 11 7.5C11 7.22386 10.7761 7 10.5 7H10V5.5C10 5.22386 9.77614 5 9.5 5Z" fill="#FFDB03"/>
<path d="M9 7V8H10V7H9ZM9 8H10V7H9V8ZM10 8V7H9V8H10ZM10 7H9V8H10V7ZM10 5.5C10 5.77614 9.77614 6 9.5 6V4C8.67157 4 8 4.67157 8 5.5H10ZM10 7V5.5H8V7H10ZM7.5 8H9V6H7.5V8ZM8 7.5C8 7.77614 7.77614 8 7.5 8V6C6.67157 6 6 6.67157 6 7.5H8ZM7.5 7C7.77614 7 8 7.22386 8 7.5H6C6 8.32843 6.67157 9 7.5 9V7ZM9 7H7.5V9H9V7ZM10 8.5V8H8V8.5H10ZM9.5 8C9.77614 8 10 8.22386 10 8.5H8C8 9.32843 8.67157 10 9.5 10V8ZM9 8.5C9 8.22386 9.22386 8 9.5 8V10C10.3284 10 11 9.32843 11 8.5H9ZM9 8V8.5H11V8H9ZM10.5 7H10V9H10.5V7ZM10 7.5C10 7.22386 10.2239 7 10.5 7V9C11.3284 9 12 8.32843 12 7.5H10ZM10.5 8C10.2239 8 10 7.77614 10 7.5H12C12 6.67157 11.3284 6 10.5 6V8ZM10 8H10.5V6H10V8ZM9 5.5V7H11V5.5H9ZM9.5 6C9.22386 6 9 5.77614 9 5.5H11C11 4.67157 10.3284 4 9.5 4V6Z" fill="#FAFAFA" mask="url(#path-2-outside-1_601_2642)"/>
</svg>
