<svg width="67" height="12" viewBox="0 0 67 12" fill="none" xmlns="http://www.w3.org/2000/svg">
<path opacity="0.35" d="M45.2285 0.505239H61.9798C63.1825 0.505239 64.1575 1.48022 64.1575 2.68291V8.71339C64.1575 9.91609 63.1825 10.8911 61.9798 10.8911H45.2285C44.0258 10.8911 43.0508 9.91609 43.0508 8.71339V2.68291C43.0508 1.48021 44.0258 0.505239 45.2285 0.505239Z" stroke="black"/>
<path opacity="0.4" d="M65.6651 3.68807V7.70839C66.4739 7.36789 66.9999 6.5758 66.9999 5.69823C66.9999 4.82066 66.4739 4.02857 65.6651 3.68807" fill="black"/>
<path d="M44.5585 3.35297C44.5585 2.61285 45.1584 2.01286 45.8986 2.01286H61.3098C62.0499 2.01286 62.6499 2.61284 62.6499 3.35297V8.04334C62.6499 8.78346 62.0499 9.38344 61.3098 9.38344H45.8986C45.1584 9.38344 44.5585 8.78346 44.5585 8.04334V3.35297Z" fill="black"/>
<path fill-rule="evenodd" clip-rule="evenodd" d="M29.8144 2.2889C32.0415 2.28899 34.1835 3.14476 35.7976 4.67931C35.9192 4.79778 36.1135 4.79629 36.2332 4.67596L37.395 3.50337C37.4557 3.44234 37.4894 3.35967 37.4889 3.27365C37.4884 3.18764 37.4537 3.10537 37.3924 3.04505C33.1558 -1.01502 26.4723 -1.01502 22.2358 3.04505C22.1744 3.10532 22.1396 3.18757 22.139 3.27358C22.1384 3.3596 22.1722 3.44229 22.2327 3.50337L23.3949 4.67596C23.5146 4.79647 23.709 4.79797 23.8305 4.67931C25.4448 3.14466 27.587 2.28889 29.8144 2.2889ZM29.8144 6.10384C31.0381 6.10377 32.2181 6.5586 33.1251 7.37996C33.2478 7.49653 33.4411 7.494 33.5607 7.37426L34.7212 6.20167C34.7823 6.14017 34.8162 6.05673 34.8153 5.97002C34.8145 5.88332 34.7789 5.80059 34.7165 5.74034C31.9543 3.17097 27.6768 3.17097 24.9146 5.74034C24.8522 5.80059 24.8166 5.88336 24.8158 5.97009C24.815 6.05682 24.849 6.14025 24.9103 6.20167L26.0705 7.37426C26.1901 7.494 26.3833 7.49653 26.506 7.37996C27.4125 6.55914 28.5915 6.10435 29.8144 6.10384ZM32.1391 8.67063C32.1409 8.75758 32.1067 8.84141 32.0447 8.90232L30.0372 10.9282C29.9783 10.9878 29.8981 11.0213 29.8144 11.0213C29.7307 11.0213 29.6504 10.9878 29.5916 10.9282L27.5838 8.90232C27.5218 8.84136 27.4876 8.75751 27.4895 8.67056C27.4913 8.58362 27.529 8.50128 27.5935 8.443C28.8755 7.35863 30.7532 7.35863 32.0353 8.443C32.0998 8.50133 32.1374 8.58369 32.1391 8.67063Z" fill="black"/>
<path fill-rule="evenodd" clip-rule="evenodd" d="M16.0813 0.337644H15.0762C14.5211 0.337644 14.0711 0.787633 14.0711 1.34272V10.0534C14.0711 10.6085 14.5211 11.0585 15.0762 11.0585H16.0813C16.6364 11.0585 17.0864 10.6085 17.0864 10.0534V1.34272C17.0864 0.787633 16.6364 0.337644 16.0813 0.337644ZM10.3858 2.68283H11.3909C11.946 2.68283 12.396 3.13282 12.396 3.68791V10.0534C12.396 10.6085 11.946 11.0585 11.3909 11.0585H10.3858C9.83073 11.0585 9.38074 10.6085 9.38074 10.0534V3.68791C9.38074 3.13282 9.83073 2.68283 10.3858 2.68283ZM6.70053 5.02802H5.69545C5.14036 5.02802 4.69037 5.47801 4.69037 6.0331V10.0534C4.69037 10.6085 5.14036 11.0585 5.69545 11.0585H6.70053C7.25562 11.0585 7.70561 10.6085 7.70561 10.0534V6.0331C7.70561 5.47801 7.25562 5.02802 6.70053 5.02802ZM2.01016 7.03818H1.00508C0.44999 7.03818 0 7.48817 0 8.04326V10.0534C0 10.6085 0.44999 11.0585 1.00508 11.0585H2.01016C2.56525 11.0585 3.01524 10.6085 3.01524 10.0534V8.04326C3.01524 7.48817 2.56525 7.03818 2.01016 7.03818Z" fill="black"/>
</svg>
