<svg width="14" height="11" viewBox="0 0 14 11" fill="none" xmlns="http://www.w3.org/2000/svg">
<path d="M14 6.72164C13.9987 5.71548 13.5625 4.75088 12.7871 4.03942C12.0117 3.32795 10.9604 2.92771 9.86382 2.92647H2.17298L4.26845 1.00378C4.32923 0.949916 4.37771 0.885488 4.41106 0.814253C4.44441 0.743018 4.46196 0.666403 4.4627 0.588876C4.46343 0.51135 4.44733 0.434467 4.41534 0.362711C4.38334 0.290955 4.33609 0.225764 4.27634 0.170943C4.21659 0.116121 4.14554 0.0727663 4.06734 0.0434086C3.98914 0.014051 3.90534 -0.000721889 3.82085 -4.82071e-05C3.73636 0.000625475 3.65286 0.0167329 3.57522 0.0473331C3.49758 0.0779333 3.42737 0.122413 3.36867 0.178179L0.18695 3.09754C0.127689 3.15178 0.0806727 3.21621 0.0485928 3.28715C0.0165129 3.35808 0 3.43413 0 3.51093C0 3.58773 0.0165129 3.66377 0.0485928 3.73471C0.0806727 3.80564 0.127689 3.87007 0.18695 3.92431L3.36867 6.84367C3.48868 6.95003 3.64942 7.00888 3.81627 7.00755C3.98312 7.00622 4.14272 6.94482 4.2607 6.83656C4.37869 6.72831 4.44561 6.58186 4.44706 6.42877C4.44851 6.27568 4.38437 6.1282 4.26845 6.01808L2.17298 4.09422H9.86382C10.6233 4.09422 11.3516 4.37103 11.8886 4.86377C12.4257 5.35651 12.7274 6.02481 12.7274 6.72164C12.7274 7.41848 12.4257 8.08678 11.8886 8.57952C11.3516 9.07226 10.6233 9.34907 9.86382 9.34907H7.00027C6.83151 9.34907 6.66965 9.41059 6.55031 9.52009C6.43097 9.62958 6.36393 9.77809 6.36393 9.93295C6.36393 10.0878 6.43097 10.2363 6.55031 10.3458C6.66965 10.4553 6.83151 10.5168 7.00027 10.5168H9.86382C10.9604 10.5156 12.0117 10.1153 12.7871 9.40387C13.5625 8.69241 13.9987 7.72781 14 6.72164V6.72164Z" fill="#FFDB03"/>
</svg>
