<svg width="2" height="8" viewBox="0 0 2 8" fill="none" xmlns="http://www.w3.org/2000/svg">
<path fill-rule="evenodd" clip-rule="evenodd" d="M1.15232 0.596445C1.14862 0.537334 1.14169 0.479111 1.12551 0.421334C1.09177 0.3 1.02151 0.193778 0.922134 0.117333C0.823218 0.0408889 0.702578 0 0.577778 0C0.45344 0 0.332338 0.0408889 0.233422 0.117333C0.134045 0.193778 0.0637867 0.3 0.0300445 0.421334C0.0138667 0.479111 0.00693334 0.537334 0.00323556 0.596445C0 0.662223 0 0.727556 0 0.792889V0.794223V7.20534V7.20667C0 7.27245 0 7.33734 0.00323556 7.40312C0.00693334 7.46267 0.0138667 7.52045 0.0300445 7.57778C0.0637867 7.69956 0.134045 7.80578 0.233422 7.88223C0.332338 7.95867 0.45344 8.00001 0.577778 8.00001C0.702578 8.00001 0.823218 7.95867 0.922134 7.88223C1.02151 7.80578 1.09177 7.69956 1.12551 7.57778C1.14169 7.52045 1.14862 7.46267 1.15232 7.40312C1.15556 7.33734 1.15556 7.27245 1.15556 7.20667V7.20534V0.794223V0.792889C1.15556 0.727556 1.15556 0.662223 1.15232 0.596445V0.596445Z" fill="#262883"/>
</svg>
