<svg width="2" height="3" viewBox="0 0 2 3" fill="none" xmlns="http://www.w3.org/2000/svg">
<path fill-rule="evenodd" clip-rule="evenodd" d="M1.55564 0.805204C1.55065 0.725403 1.54129 0.646803 1.51945 0.568803C1.47389 0.405002 1.37905 0.261601 1.24489 0.158401C1.11135 0.0552002 0.948484 0 0.780004 0C0.612147 0 0.448658 0.0552002 0.315121 0.158401C0.180961 0.261601 0.0861124 0.405002 0.0405602 0.568803C0.0187201 0.646803 0.00936004 0.725403 0.00436802 0.805204C0 0.894004 0 0.982205 0 1.0704V1.0722V1.92721V1.92901C0 2.01721 0 2.10541 0.00436802 2.19421C0.00936004 2.27461 0.0187201 2.35261 0.0405602 2.43061C0.0861124 2.59441 0.180961 2.73781 0.315121 2.84101C0.448658 2.94421 0.612147 3.00001 0.780004 3.00001C0.948484 3.00001 1.11135 2.94421 1.24489 2.84101C1.37905 2.73781 1.47389 2.59441 1.51945 2.43061C1.54129 2.35261 1.55065 2.27461 1.55564 2.19421C1.56001 2.10541 1.56001 2.01721 1.56001 1.92901V1.92721V1.0722V1.0704C1.56001 0.982205 1.56001 0.894004 1.55564 0.805204V0.805204Z" fill="#262883"/>
</svg>
