<svg width="9" height="11" viewBox="0 0 9 11" fill="none" xmlns="http://www.w3.org/2000/svg">
<path d="M0.257497 10.9374C0.33559 10.9806 0.423842 11.0022 0.513085 10.9998C0.602329 10.9975 0.689309 10.9712 0.764992 10.9239L4.49995 8.58941L8.23491 10.9239C8.31059 10.9712 8.39756 10.9974 8.48678 10.9997C8.576 11.002 8.66422 10.9805 8.74229 10.9372C8.82035 10.8939 8.88541 10.8306 8.93071 10.7537C8.97601 10.6768 8.9999 10.5891 8.9999 10.4999V1.49998C8.9999 1.10216 8.84187 0.720636 8.56057 0.439335C8.27926 0.158033 7.89774 0 7.49992 0H1.49998C1.10216 0 0.720637 0.158033 0.439335 0.439335C0.158034 0.720636 5.90142e-08 1.10216 5.90142e-08 1.49998V10.4999C-4.3307e-05 10.5892 0.0238144 10.6768 0.0690954 10.7537C0.114376 10.8307 0.179429 10.8941 0.257497 10.9374V10.9374ZM0.999989 1.49998C0.999989 1.36738 1.05267 1.2402 1.14643 1.14643C1.2402 1.05267 1.36738 0.999989 1.49998 0.999989H7.49992C7.63252 0.999989 7.7597 1.05267 7.85347 1.14643C7.94723 1.2402 7.99991 1.36738 7.99991 1.49998V9.59989L4.76495 7.57792C4.68548 7.52825 4.59366 7.50192 4.49995 7.50192C4.40624 7.50192 4.31442 7.52825 4.23495 7.57792L0.999989 9.59989V1.49998Z" fill="#FFDB03"/>
</svg>
