<svg width="2" height="13" viewBox="0 0 2 13" fill="none" xmlns="http://www.w3.org/2000/svg">
<path fill-rule="evenodd" clip-rule="evenodd" d="M1.16225 0.601586C1.15852 0.541966 1.15153 0.483241 1.13521 0.424966C1.10118 0.302586 1.03032 0.195448 0.930083 0.118345C0.830315 0.0412414 0.708635 0 0.582759 0C0.457349 0 0.335203 0.0412414 0.235435 0.118345C0.1352 0.195448 0.0643366 0.302586 0.0303035 0.424966C0.0139862 0.483241 0.00699311 0.541966 0.00326345 0.601586C0 0.667931 0 0.733828 0 0.799724V0.801069V12.1985V12.1998C0 12.2662 0 12.3316 0.00326345 12.398C0.00699311 12.458 0.0139862 12.5163 0.0303035 12.5741C0.0643366 12.697 0.1352 12.8041 0.235435 12.8812C0.335203 12.9583 0.457349 13 0.582759 13C0.708635 13 0.830315 12.9583 0.930083 12.8812C1.03032 12.8041 1.10118 12.697 1.13521 12.5741C1.15153 12.5163 1.15852 12.458 1.16225 12.398C1.16552 12.3316 1.16552 12.2662 1.16552 12.1998V12.1985V0.801069V0.799724C1.16552 0.733828 1.16552 0.667931 1.16225 0.601586V0.601586Z" fill="#262883"/>
</svg>
