<svg width="3" height="10" viewBox="0 0 3 10" fill="none" xmlns="http://www.w3.org/2000/svg">
<path d="M2.01067 5C2.01067 5.19778 1.9517 5.39112 1.84124 5.55557C1.73077 5.72002 1.57376 5.84819 1.39006 5.92388C1.20636 5.99957 1.00422 6.01937 0.809202 5.98079C0.614186 5.9422 0.435053 5.84696 0.294455 5.70711C0.153857 5.56725 0.0581077 5.38907 0.0193167 5.19509C-0.0194742 5.00111 0.000434719 4.80004 0.076526 4.61732C0.152617 4.43459 0.281473 4.27841 0.4468 4.16853C0.612126 4.05865 0.806496 4 1.00533 4C1.27196 4 1.52767 4.10536 1.71621 4.29289C1.90475 4.48043 2.01067 4.73478 2.01067 5V5ZM-4.64874e-08 1C-5.51788e-08 1.19778 0.0589616 1.39112 0.169429 1.55557C0.279896 1.72002 0.436908 1.84819 0.620608 1.92388C0.804309 1.99957 1.00645 2.01937 1.20146 1.98079C1.39648 1.9422 1.57561 1.84696 1.71621 1.70711C1.85681 1.56725 1.95256 1.38907 1.99135 1.19509C2.03014 1.00111 2.01023 0.800043 1.93414 0.617317C1.85805 0.43459 1.72919 0.278412 1.56387 0.16853C1.39854 0.0586489 1.20417 -3.50661e-08 1.00533 -4.37114e-08C0.738702 -5.53044e-08 0.482992 0.105357 0.294455 0.292893C0.105919 0.480429 -3.48325e-08 0.734783 -4.64874e-08 1ZM2.01066 9C2.01066 8.80222 1.9517 8.60888 1.84124 8.44443C1.73077 8.27998 1.57376 8.15181 1.39006 8.07612C1.20636 8.00043 1.00422 7.98063 0.809202 8.01921C0.614186 8.0578 0.435053 8.15304 0.294455 8.29289C0.153857 8.43275 0.0581076 8.61093 0.0193166 8.80491C-0.0194744 8.99889 0.000434526 9.19996 0.0765258 9.38268C0.152617 9.56541 0.281473 9.72159 0.446799 9.83147C0.612125 9.94135 0.806496 10 1.00533 10C1.27196 10 1.52767 9.89464 1.71621 9.70711C1.90475 9.51957 2.01066 9.26522 2.01066 9Z" fill="black"/>
</svg>
