<svg width="2" height="15" viewBox="0 0 2 15" fill="none" xmlns="http://www.w3.org/2000/svg">
<path fill-rule="evenodd" clip-rule="evenodd" d="M1.13778 0.592059C1.13413 0.533383 1.12728 0.475588 1.11131 0.418235C1.07799 0.297794 1.00862 0.192353 0.910497 0.116471C0.81283 0.0405882 0.693712 0 0.570487 0C0.447718 0 0.328144 0.0405882 0.230477 0.116471C0.132353 0.192353 0.0629818 0.297794 0.0296653 0.418235C0.0136917 0.475588 0.00684585 0.533383 0.00319473 0.592059C0 0.657353 0 0.722206 0 0.787059V0.788383V14.2112V14.2125C0 14.2778 0 14.3422 0.00319473 14.4075C0.00684585 14.4666 0.0136917 14.524 0.0296653 14.5809C0.0629818 14.7018 0.132353 14.8072 0.230477 14.8831C0.328144 14.959 0.447718 15 0.570487 15C0.693712 15 0.81283 14.959 0.910497 14.8831C1.00862 14.8072 1.07799 14.7018 1.11131 14.5809C1.12728 14.524 1.13413 14.4666 1.13778 14.4075C1.14097 14.3422 1.14097 14.2778 1.14097 14.2125V14.2112V0.788383V0.787059C1.14097 0.722206 1.14097 0.657353 1.13778 0.592059V0.592059Z" fill="#262883"/>
</svg>
