<svg width="8" height="10" viewBox="0 0 8 10" fill="none" xmlns="http://www.w3.org/2000/svg">
<path d="M0.228889 9.72222C0.298305 9.76068 0.376752 9.77985 0.456081 9.77774C0.535409 9.77562 0.612726 9.75231 0.68 9.71022L4 7.63511L7.32 9.71022C7.38728 9.75227 7.46458 9.77554 7.54389 9.77763C7.6232 9.77971 7.70162 9.76052 7.77101 9.72206C7.8404 9.6836 7.89823 9.62727 7.9385 9.55891C7.97876 9.49056 8 9.41267 8 9.33333V1.33333C8 0.979711 7.85952 0.640573 7.60948 0.390524C7.35943 0.140476 7.02029 0 6.66667 0H1.33333C0.979711 0 0.640573 0.140476 0.390524 0.390524C0.140476 0.640573 5.24576e-08 0.979711 5.24576e-08 1.33333V9.33333C-3.84955e-05 9.41269 0.0211686 9.4906 0.0614188 9.55899C0.101669 9.62737 0.159494 9.68374 0.228889 9.72222V9.72222ZM0.888889 1.33333C0.888889 1.21546 0.935714 1.10241 1.01906 1.01906C1.10241 0.935714 1.21546 0.888889 1.33333 0.888889H6.66667C6.78454 0.888889 6.89759 0.935714 6.98094 1.01906C7.06429 1.10241 7.11111 1.21546 7.11111 1.33333V8.53333L4.23556 6.736C4.16492 6.69185 4.0833 6.66844 4 6.66844C3.9167 6.66844 3.83508 6.69185 3.76444 6.736L0.888889 8.53333V1.33333Z" fill="#FFDB03"/>
</svg>
