<svg width="2" height="11" viewBox="0 0 2 11" fill="none" xmlns="http://www.w3.org/2000/svg">
<path fill-rule="evenodd" clip-rule="evenodd" d="M1.11426 0.41712C1.08085 0.297 1.0113 0.19184 0.912912 0.11616C0.814986 0.04048 0.695552 0 0.572 0C0.448906 0 0.329015 0.04048 0.231088 0.11616C0.132704 0.19184 0.0631488 0.297 0.029744 0.41712C0.013728 0.47432 0.006864 0.53196 0.0032032 0.59048C0 0.6556 0 0.72028 0 0.78496V0.78628V10.2133V10.2146C0 10.2797 0 10.344 0.0032032 10.4091C0.006864 10.468 0.013728 10.5252 0.029744 10.582C0.0631488 10.7026 0.132704 10.8077 0.231088 10.8834C0.329015 10.9591 0.448906 11 0.572 11C0.695552 11 0.814986 10.9591 0.912912 10.8834C1.0113 10.8077 1.08085 10.7026 1.11426 10.582C1.13027 10.5252 1.13714 10.468 1.1408 10.4091C1.144 10.344 1.144 10.2797 1.144 10.2146V0.78496C1.144 0.72028 1.144 0.6556 1.1408 0.59048C1.13714 0.53196 1.13027 0.47432 1.11426 0.41712V0.41712Z" fill="#262883"/>
</svg>
