<svg width="2" height="12" viewBox="0 0 2 12" fill="none" xmlns="http://www.w3.org/2000/svg">
<path fill-rule="evenodd" clip-rule="evenodd" d="M1.19029 0.619384C1.18647 0.557999 1.17931 0.497538 1.1626 0.437538C1.12774 0.311538 1.05517 0.201231 0.952519 0.121846C0.850344 0.0424615 0.725729 0 0.596816 0C0.468382 0 0.343289 0.0424615 0.241114 0.121846C0.138461 0.201231 0.0658885 0.311538 0.0310345 0.437538C0.0143236 0.497538 0.0071618 0.557999 0.00334217 0.619384C0 0.687692 0 0.755538 0 0.823384V0.824768V11.1748V11.1761C0 11.2445 0 11.3118 0.00334217 11.3801C0.0071618 11.442 0.0143236 11.502 0.0310345 11.5615C0.0658885 11.688 0.138461 11.7983 0.241114 11.8777C0.343289 11.9571 0.468382 12 0.596816 12C0.725729 12 0.850344 11.9571 0.952519 11.8777C1.05517 11.7983 1.12774 11.688 1.1626 11.5615C1.17931 11.502 1.18647 11.442 1.19029 11.3801C1.19363 11.3118 1.19363 11.2445 1.19363 11.1761V11.1748V0.824768V0.823384C1.19363 0.755538 1.19363 0.687692 1.19029 0.619384V0.619384Z" fill="#262883"/>
</svg>
