<svg width="14" height="13" viewBox="0 0 14 13" fill="none" xmlns="http://www.w3.org/2000/svg">
<path d="M11.5818 6.02726C11.5818 8.63806 9.30257 10.7545 6.49094 10.7545C3.6793 10.7545 1.40002 8.63806 1.40002 6.02726C1.40002 3.41646 3.6793 1.29999 6.49094 1.29999C9.30257 1.29999 11.5818 3.41646 11.5818 6.02726Z" fill="#EE9E04"/>
<path d="M12.9182 6.97274C12.9182 9.74672 10.4964 11.9955 7.50906 11.9955C4.52171 11.9955 2.09998 9.74672 2.09998 6.97274C2.09998 4.19876 4.52171 1.95001 7.50906 1.95001C10.4964 1.95001 12.9182 4.19876 12.9182 6.97274Z" fill="#F5B400"/>
<path fill-rule="evenodd" clip-rule="evenodd" d="M7 11.3973C9.91273 11.3973 12.274 9.20468 12.274 6.5C12.274 3.79532 9.91273 1.60274 7 1.60274C4.08727 1.60274 1.72603 3.79532 1.72603 6.5C1.72603 9.20468 4.08727 11.3973 7 11.3973ZM7 13C10.866 13 14 10.0899 14 6.5C14 2.91015 10.866 0 7 0C3.13401 0 0 2.91015 0 6.5C0 10.0899 3.13401 13 7 13Z" fill="#FFDB03"/>
<path fill-rule="evenodd" clip-rule="evenodd" d="M7.19088 11.3194C9.95185 11.3194 12.1901 9.24105 12.1901 6.67729C12.1901 4.11353 9.95185 2.03519 7.19088 2.03519C4.42991 2.03519 2.1917 4.11353 2.1917 6.67729C2.1917 9.24105 4.42991 11.3194 7.19088 11.3194ZM7.19088 11.4046C10.0025 11.4046 12.2818 9.28809 12.2818 6.67729C12.2818 4.06648 10.0025 1.95001 7.19088 1.95001C4.37925 1.95001 2.09998 4.06648 2.09998 6.67729C2.09998 9.28809 4.37925 11.4046 7.19088 11.4046Z" fill="#EE9E04"/>
<path fill-rule="evenodd" clip-rule="evenodd" d="M7 12.911C10.813 12.911 13.9041 10.0407 13.9041 6.5C13.9041 2.95932 10.813 0.0890411 7 0.0890411C3.18697 0.0890411 0.0958904 2.95932 0.0958904 6.5C0.0958904 10.0407 3.18697 12.911 7 12.911ZM7 13C10.866 13 14 10.0899 14 6.5C14 2.91015 10.866 0 7 0C3.13401 0 0 2.91015 0 6.5C0 10.0899 3.13401 13 7 13Z" fill="#FEFA2B"/>
<path d="M6.91964 4.1123C7.07978 3.82922 7.54247 3.82922 7.70261 4.1123L8.32579 5.2139C8.38938 5.32631 8.51231 5.40422 8.6545 5.42225L10.048 5.5989C10.4061 5.64429 10.549 6.02819 10.2899 6.24854L9.2816 7.10601C9.17871 7.19351 9.13175 7.31958 9.15604 7.44313L9.39408 8.6539C9.45524 8.96503 9.08092 9.20229 8.76064 9.0554L7.51428 8.48375C7.3871 8.42542 7.23516 8.42542 7.10797 8.48375L5.86161 9.0554C5.54134 9.20229 5.16701 8.96503 5.22818 8.6539L5.46621 7.44313C5.4905 7.31958 5.44355 7.19351 5.34066 7.10601L4.33233 6.24854C4.07322 6.02819 4.2162 5.64429 4.57428 5.5989L5.96775 5.42225C6.10995 5.40422 6.23287 5.32631 6.29646 5.2139L6.91964 4.1123Z" fill="#FFDB03"/>
</svg>
