<svg width="18" height="22" viewBox="0 0 18 22" fill="none" xmlns="http://www.w3.org/2000/svg">
<path d="M17.4862 3.45441L9.31954 0.0637031C9.11496 -0.0212135 8.885 -0.0212552 8.68046 0.0637031L0.513792 3.45441C0.20275 3.58358 0 3.88724 0 4.22404V8.34591C0 14.0215 3.43038 19.1267 8.68508 21.2715C8.88692 21.3539 9.11304 21.3539 9.31492 21.2715C14.5695 19.1268 18 14.0215 18 8.34591V4.22404C18 3.88724 17.7973 3.58358 17.4862 3.45441ZM16.3333 8.34591C16.3333 13.1707 13.5 17.6122 9 19.5948C4.62025 17.6652 1.66667 13.3015 1.66667 8.34591V4.78037L9 1.73562L16.3333 4.78037V8.34591ZM8.07892 11.1548L11.6608 7.57304C11.9862 7.24762 12.5138 7.24758 12.8393 7.57304C13.1647 7.8985 13.1647 8.42612 12.8392 8.75154L8.66817 12.9226C8.34267 13.2481 7.81504 13.248 7.48967 12.9226L5.16075 10.5937C4.83529 10.2682 4.83529 9.74058 5.16075 9.41516C5.48621 9.08975 6.01383 9.0897 6.33925 9.41516L8.07892 11.1548Z" fill="#2196F3"/>
</svg>
