<svg width="2" height="5" viewBox="0 0 2 5" fill="none" xmlns="http://www.w3.org/2000/svg">
<path fill-rule="evenodd" clip-rule="evenodd" d="M1.29636 0.670999C1.2922 0.6045 1.2844 0.539 1.2662 0.474C1.22824 0.3375 1.1492 0.218 1.0374 0.132C0.926119 0.046 0.790399 0 0.65 0C0.51012 0 0.37388 0.046 0.2626 0.132C0.1508 0.218 0.0717599 0.3375 0.0338 0.474C0.0156 0.539 0.00779999 0.6045 0.00364 0.670999C0 0.744999 0 0.818499 0 0.891999V0.893499V4.106V4.1075C0 4.181 0 4.2545 0.00364 4.3285C0.00779999 4.3955 0.0156 4.4605 0.0338 4.5255C0.0717599 4.662 0.1508 4.7815 0.2626 4.8675C0.37388 4.9535 0.51012 5 0.65 5C0.790399 5 0.926119 4.9535 1.0374 4.8675C1.1492 4.7815 1.22824 4.662 1.2662 4.5255C1.2844 4.4605 1.2922 4.3955 1.29636 4.3285C1.3 4.2545 1.3 4.181 1.3 4.1075V4.106V0.893499V0.891999C1.3 0.818499 1.3 0.744999 1.29636 0.670999V0.670999Z" fill="#262883"/>
</svg>
