<svg width="189" height="50" viewBox="0 0 189 50" fill="none" xmlns="http://www.w3.org/2000/svg">
<path d="M35.3064 39.0124C34.6942 39.6254 33.618 39.6254 33.0058 39.0124L28 34.0001L40.3122 34.0001L35.3064 39.0124Z" fill="#000255"/>
<g filter="url(#filter0_d_803_936)">
<rect x="10" y="4" width="169" height="30" rx="15" fill="#0E106C"/>
</g>
<path d="M73.9117 18C73.9117 22.4171 70.3287 26.0001 65.9117 26.0001C61.4936 26.0001 57.9116 22.4171 57.9116 18C57.9116 13.582 61.4936 10 65.9117 10C70.3287 10 73.9117 13.582 73.9117 18Z" fill="#FFCC4D"/>
<path d="M69.8422 18.0645C69.7672 17.984 69.6552 17.979 69.5747 18.05C69.5582 18.0645 67.9232 19.5001 65.9117 19.5001C63.9052 19.5001 62.2652 18.0645 62.2487 18.05C62.1677 17.979 62.0562 17.985 61.9812 18.0645C61.9067 18.1445 61.8902 18.2765 61.9417 18.3785C61.9957 18.486 63.2962 21.0001 65.9117 21.0001C68.5272 21.0001 69.8282 18.486 69.8817 18.3785C69.9332 18.276 69.9167 18.1445 69.8422 18.0645V18.0645Z" fill="#664500"/>
<path d="M63.6082 21.577L62.8387 20.4675C62.8387 20.4675 62.5672 20.034 62.1332 20.305C61.6997 20.5755 61.9712 21.0095 61.9712 21.0095L62.8502 22.6995C62.8502 22.6995 62.9222 23.0835 62.3912 22.654C62.1597 22.467 62.2927 22.5725 62.2927 22.5725L62.0727 22.392L59.3271 20.138C59.3271 20.138 58.9726 19.764 58.6476 20.159C58.3236 20.5545 58.7591 20.8295 58.7591 20.8295L61.3557 22.9625C61.2957 23.0225 61.1147 23.2295 61.0557 23.294L58.2771 21.014C58.2771 21.014 57.9221 20.6395 57.5981 21.0345C57.2731 21.43 57.7091 21.705 57.7091 21.705L60.4866 23.986C60.4351 24.056 60.3051 24.224 60.2571 24.293L57.8611 22.326C57.8611 22.326 57.5061 21.952 57.1821 22.347C56.8566 22.7425 57.2931 23.018 57.2931 23.018L59.8401 25.11C59.8081 25.199 59.6586 25.433 59.6351 25.52L57.7991 24.014C57.7991 24.014 57.4446 23.638 57.1206 24.0345C56.7956 24.43 57.2316 24.705 57.2316 24.705L60.1966 27.139L60.3941 27.302C61.7042 28.3775 63.6387 28.1875 64.7142 26.8775C65.6997 25.676 65.6227 23.951 64.5942 22.843C64.2297 22.452 63.9142 22.0165 63.6082 21.577V21.577ZM74.7032 24.035C74.3792 23.6385 74.0247 24.0145 74.0247 24.0145L72.1887 25.5205C72.1652 25.4335 72.0157 25.199 71.9837 25.1105L74.5307 23.0185C74.5307 23.0185 74.9672 22.743 74.6422 22.3475C74.3182 21.9525 73.9632 22.3265 73.9632 22.3265L71.5672 24.2935C71.5192 24.224 71.3887 24.056 71.3377 23.9865L74.1152 21.7055C74.1152 21.7055 74.5517 21.4305 74.2267 21.035C73.9027 20.64 73.5482 21.0145 73.5482 21.0145L70.7692 23.2945C70.7107 23.23 70.5297 23.023 70.4692 22.963L73.0657 20.83C73.0657 20.83 73.5007 20.555 73.1772 20.1595C72.8522 19.7645 72.4977 20.1385 72.4977 20.1385L69.7522 22.3925L69.5327 22.573C69.5327 22.573 70.0277 22.1525 69.4342 22.6545C68.8402 23.1565 68.9752 22.7 68.9752 22.7L69.8542 21.01C69.8542 21.01 70.1257 20.576 69.6922 20.3055C69.2577 20.0345 68.9867 20.468 68.9867 20.468L68.2177 21.5775C67.9112 22.017 67.5957 22.4525 67.2307 22.844C66.2017 23.9525 66.1247 25.677 67.1112 26.8785C68.1862 28.1885 70.1212 28.3785 71.4312 27.303L71.6292 27.14L74.5942 24.706C74.5917 24.7055 75.0277 24.4305 74.7032 24.035V24.035Z" fill="#F4900C"/>
<path d="M70.7502 15.4915C70.7247 15.4305 70.1077 14 68.8397 14C67.5727 14 66.9557 15.4305 66.9302 15.4915C66.8902 15.5855 66.9162 15.6945 66.9917 15.7595C67.0662 15.8235 67.1742 15.8255 67.2532 15.7655C67.2582 15.761 67.7937 15.3575 68.8397 15.3575C69.8792 15.3575 70.4142 15.756 70.4267 15.7655C70.4642 15.795 70.5092 15.81 70.5542 15.81C70.6017 15.81 70.6487 15.793 70.6877 15.7605C70.7642 15.696 70.7902 15.5855 70.7502 15.4915ZM65.2502 15.4915C65.2242 15.4305 64.6077 14 63.3397 14C62.0727 14 61.4557 15.4305 61.4297 15.4915C61.3902 15.5855 61.4157 15.6945 61.4917 15.7595C61.5667 15.8235 61.6747 15.8255 61.7532 15.7655C61.7587 15.761 62.2937 15.3575 63.3397 15.3575C64.3797 15.3575 64.9142 15.756 64.9262 15.7655C64.9642 15.795 65.0087 15.81 65.0537 15.81C65.1012 15.81 65.1482 15.793 65.1872 15.7605C65.2642 15.696 65.2897 15.5855 65.2502 15.4915Z" fill="#664500"/>
<path d="M62.5026 22.739C62.5026 22.739 61.2061 24.396 62.7446 26.469C62.8506 26.6115 63.1196 26.542 63.0051 26.375C62.8801 26.193 61.6301 24.427 62.8051 22.8465C62.8051 22.8465 62.6146 22.823 62.5026 22.739V22.739ZM69.2942 22.788C69.2942 22.788 70.5912 24.445 69.0522 26.518C68.9462 26.6605 68.6772 26.591 68.7917 26.424C68.9167 26.242 70.1667 24.476 68.9917 22.8955C68.9912 22.896 69.1822 22.8725 69.2942 22.788V22.788Z" fill="#B55005"/>
<path d="M102.509 18.8376C102.509 18.5861 102.449 18.3501 102.349 18.1356C101.678 15.9725 98.5394 16.1305 94.0744 16.025C93.3279 16.0075 93.7549 15.126 94.0169 13.191C94.1874 11.9325 93.3759 10 92.0119 10C89.7629 10 91.9264 11.774 89.9379 16.161C88.8754 18.5051 86.5004 17.192 86.5004 19.5466V24.9061C86.5004 25.8226 86.5904 26.7036 87.8794 26.8486C89.1289 26.9891 88.8479 27.8796 90.6504 27.8796H99.6724C100.591 27.8796 101.339 27.1316 101.339 26.2126C101.339 25.8316 101.205 25.4846 100.99 25.2036C101.5 24.9181 101.85 24.3791 101.85 23.7541C101.85 23.3741 101.717 23.0271 101.502 22.7466C102.013 22.4616 102.364 21.9221 102.364 21.2961C102.364 20.8416 102.18 20.4296 101.884 20.1281C102.262 19.8226 102.509 19.3606 102.509 18.8376V18.8376Z" fill="#FFDB5E"/>
<path d="M96.5414 20.5042H100.843C101.428 20.5042 101.977 20.1912 102.276 19.6877C102.399 19.4802 102.331 19.2117 102.123 19.0882C101.915 18.9647 101.647 19.0342 101.523 19.2417C101.382 19.4812 101.12 19.6292 100.843 19.6292H96.4379C96.0014 19.6292 95.6464 19.2742 95.6464 18.8377C95.6464 18.4012 96.0014 18.0461 96.4379 18.0461H99.3814C99.6229 18.0461 99.8189 17.8501 99.8189 17.6086C99.8189 17.3671 99.6229 17.1711 99.3814 17.1711H96.4374C95.5184 17.1711 94.7709 17.9186 94.7709 18.8377C94.7709 19.3502 95.0084 19.8037 95.3734 20.1097C95.0659 20.4122 94.8744 20.8322 94.8744 21.2962C94.8744 21.8102 95.1134 22.2652 95.4804 22.5707C95.1749 22.8727 94.9854 23.2912 94.9854 23.7542C94.9854 24.3142 95.2649 24.8082 95.6899 25.1107C95.4279 25.4052 95.2639 25.7887 95.2639 26.2127C95.2639 27.1317 96.0114 27.8792 96.9304 27.8792H99.6724C100.257 27.8792 100.807 27.5667 101.106 27.0632C101.229 26.8557 101.161 26.5872 100.953 26.4637C100.745 26.3412 100.477 26.4087 100.354 26.6162C100.211 26.8557 99.9499 27.0042 99.6724 27.0042H96.9304C96.4939 27.0042 96.1389 26.6492 96.1389 26.2127C96.1389 25.7762 96.4939 25.4212 96.9304 25.4212H100.183C100.768 25.4212 101.318 25.1082 101.617 24.6047C101.74 24.3967 101.672 24.1282 101.464 24.0052C101.255 23.8797 100.987 23.9502 100.865 24.1577C100.72 24.4012 100.465 24.5462 100.183 24.5462H96.6519C96.2154 24.5462 95.8604 24.1907 95.8604 23.7542C95.8604 23.3177 96.2154 22.9627 96.6519 22.9627H100.697C101.282 22.9627 101.832 22.6502 102.131 22.1467C102.254 21.9392 102.186 21.6707 101.978 21.5472C101.77 21.4242 101.502 21.4922 101.379 21.6997C101.234 21.9427 100.979 22.0877 100.697 22.0877H96.5414C96.1049 22.0877 95.7499 21.7327 95.7499 21.2962C95.7499 20.8597 96.1044 20.5042 96.5414 20.5042V20.5042Z" fill="#EE9547"/>
<path d="M130.51 19.0421C130.51 19.2936 130.45 19.5296 130.349 19.7441C129.679 21.9071 126.54 21.7491 122.075 21.8546C121.328 21.8721 121.755 22.7536 122.017 24.6886C122.188 25.9471 121.376 27.8796 120.012 27.8796C117.763 27.8796 119.927 26.1056 117.938 21.7186C116.876 19.3746 114.5 20.6876 114.5 18.3331V12.974C114.5 12.0575 114.59 11.1765 115.879 11.0315C117.129 10.8905 116.848 10 118.651 10H127.673C128.592 10 129.339 10.748 129.339 11.667C129.339 12.048 129.206 12.395 128.99 12.676C129.5 12.9615 129.85 13.5005 129.85 14.1255C129.85 14.5055 129.717 14.8525 129.502 15.133C130.014 15.418 130.365 15.9575 130.365 16.5835C130.365 17.038 130.181 17.45 129.884 17.7515C130.263 18.0571 130.51 18.5191 130.51 19.0421V19.0421Z" fill="#FFDB5E"/>
<path d="M124.542 17.3755H128.844C129.429 17.3755 129.978 17.6885 130.277 18.192C130.4 18.3995 130.331 18.668 130.123 18.7915C129.916 18.915 129.647 18.8455 129.524 18.638C129.382 18.3985 129.121 18.2505 128.843 18.2505H124.438C124.002 18.2505 123.647 18.6055 123.647 19.042C123.647 19.4785 124.002 19.8335 124.438 19.8335H127.382C127.623 19.8335 127.819 20.0296 127.819 20.2711C127.819 20.5126 127.623 20.7086 127.382 20.7086H124.438C123.519 20.7086 122.771 19.9611 122.771 19.042C122.771 18.5295 123.008 18.076 123.373 17.77C123.066 17.4675 122.874 17.0475 122.874 16.5835C122.874 16.0695 123.113 15.6145 123.481 15.309C123.175 15.007 122.985 14.5885 122.985 14.1255C122.985 13.5655 123.265 13.0715 123.69 12.769C123.428 12.4745 123.264 12.091 123.264 11.667C123.264 10.748 124.012 10.0005 124.931 10.0005H127.673C128.258 10.0005 128.807 10.313 129.106 10.8165C129.23 11.024 129.161 11.2925 128.954 11.416C128.746 11.5385 128.477 11.471 128.354 11.2635C128.212 11.024 127.95 10.8755 127.673 10.8755H124.931C124.494 10.8755 124.139 11.2305 124.139 11.667C124.139 12.1035 124.494 12.4585 124.931 12.4585H128.184C128.769 12.4585 129.319 12.7715 129.617 13.275C129.741 13.483 129.672 13.7515 129.465 13.8745C129.255 14 128.988 13.9295 128.865 13.722C128.721 13.4785 128.466 13.3335 128.184 13.3335H124.652C124.216 13.3335 123.861 13.689 123.861 14.1255C123.861 14.562 124.216 14.917 124.652 14.917H128.698C129.283 14.917 129.832 15.2295 130.131 15.733C130.255 15.9405 130.186 16.209 129.979 16.3325C129.77 16.4555 129.502 16.3875 129.379 16.18C129.235 15.937 128.98 15.792 128.698 15.792H124.542C124.105 15.792 123.75 16.147 123.75 16.5835C123.75 17.02 124.105 17.3755 124.542 17.3755V17.3755Z" fill="#EE9547"/>
<path d="M45.0001 19.0001C45.0001 23.9706 40.9706 28.0001 36.0001 28.0001C31.0295 28.0001 27 23.9706 27 19.0001C27 14.0295 31.0295 10 36.0001 10C40.9706 10 45.0001 14.0295 45.0001 19.0001Z" fill="#FFCC4D"/>
<path d="M33 19.625C33.6904 19.625 34.25 19.0094 34.25 18.25C34.25 17.4906 33.6904 16.875 33 16.875C32.3096 16.875 31.75 17.4906 31.75 18.25C31.75 19.0094 32.3096 19.625 33 19.625Z" fill="#664500"/>
<path d="M39.0001 20C39.6905 20 40.2501 19.2165 40.2501 18.25C40.2501 17.2835 39.6905 16.5 39.0001 16.5C38.3098 16.5 37.7501 17.2835 37.7501 18.25C37.7501 19.2165 38.3098 20 39.0001 20Z" fill="#664500"/>
<path d="M30.551 16.2795C30.6755 16.3675 30.838 16.3975 30.9935 16.347C33.087 15.6695 34.507 16.624 34.5665 16.665C34.793 16.821 35.104 16.7655 35.2615 16.54C35.419 16.3145 35.3655 16.0045 35.141 15.846C35.066 15.793 33.273 14.5585 30.686 15.3955C30.423 15.4805 30.279 15.7625 30.3645 16.025C30.3985 16.132 30.466 16.219 30.551 16.2795ZM39.5001 23H32.5C32.224 23 32 22.7765 32 22.5C32 22.2235 32.224 22 32.5 22H39.5001C39.7766 22 40.0001 22.2235 40.0001 22.5C40.0001 22.7765 39.7766 23 39.5001 23ZM42.0006 15.204C41.8166 15.204 41.6351 15.1235 41.5111 14.9685C40.8136 14.093 39.3616 13.325 38.8541 13.325C38.5331 13.325 37.8915 13.7805 37.552 14.109C37.304 14.35 36.908 14.3425 36.6685 14.095C36.4285 13.8475 36.434 13.4525 36.6805 13.212C36.876 13.022 37.8985 12.0745 38.8541 12.0745C39.8566 12.0745 41.6231 13.1025 42.4891 14.189C42.7046 14.459 42.6596 14.852 42.3901 15.067C42.2746 15.1595 42.1366 15.204 42.0006 15.204Z" fill="#664500"/>
<path d="M162.578 15.5388C162.578 12.4798 160.098 10 157.04 10C155.183 10 153.545 10.9166 152.539 12.3176C151.534 10.9166 149.896 10 148.04 10C144.981 10 142.501 12.4792 142.501 15.5388C142.501 15.9722 142.556 16.392 142.65 16.7967C143.419 21.575 148.732 26.616 152.539 28.0001C156.347 26.616 161.66 21.575 162.428 16.7973C162.523 16.3926 162.578 15.9727 162.578 15.5388V15.5388Z" fill="#DD2E44"/>
<defs>
<filter id="filter0_d_803_936" x="0" y="0" width="189" height="50" filterUnits="userSpaceOnUse" color-interpolation-filters="sRGB">
<feFlood flood-opacity="0" result="BackgroundImageFix"/>
<feColorMatrix in="SourceAlpha" type="matrix" values="0 0 0 0 0 0 0 0 0 0 0 0 0 0 0 0 0 0 127 0" result="hardAlpha"/>
<feOffset dy="6"/>
<feGaussianBlur stdDeviation="5"/>
<feColorMatrix type="matrix" values="0 0 0 0 0.147344 0 0 0 0 0.155113 0 0 0 0 0.5125 0 0 0 0.42 0"/>
<feBlend mode="normal" in2="BackgroundImageFix" result="effect1_dropShadow_803_936"/>
<feBlend mode="normal" in="SourceGraphic" in2="effect1_dropShadow_803_936" result="shape"/>
</filter>
</defs>
</svg>
