<svg width="331" height="21" viewBox="0 0 331 21" fill="none" xmlns="http://www.w3.org/2000/svg">
<path d="M327.142 9.51865C327.139 9.14268 327.248 8.77434 327.455 8.46019C327.661 8.14604 327.956 7.90021 328.303 7.75377C328.649 7.60733 329.031 7.56687 329.4 7.6375C329.769 7.70813 330.109 7.88668 330.377 8.15057C330.645 8.41446 330.829 8.75184 330.905 9.12004C330.981 9.48825 330.946 9.87074 330.805 10.2192C330.663 10.5676 330.422 10.8662 330.111 11.0774C329.8 11.2886 329.433 11.4028 329.057 11.4056C328.553 11.4093 328.068 11.2126 327.709 10.8587C327.35 10.5048 327.146 10.0228 327.142 9.51865V9.51865ZM331 17.0944C330.997 16.7184 330.883 16.3517 330.672 16.0406C330.461 15.7296 330.162 15.4881 329.814 15.3468C329.465 15.2055 329.083 15.1706 328.714 15.2467C328.346 15.3228 328.009 15.5063 327.745 15.7741C327.481 16.0419 327.303 16.382 327.232 16.7513C327.161 17.1206 327.202 17.5025 327.348 17.8488C327.495 18.1951 327.74 18.4902 328.055 18.6967C328.369 18.9033 328.737 19.0121 329.113 19.0093C329.617 19.0056 330.099 18.8018 330.453 18.4426C330.807 18.0835 331.004 17.5985 331 17.0944ZM327.086 1.91491C327.089 2.29088 327.203 2.65759 327.414 2.96866C327.625 3.27972 327.924 3.52118 328.272 3.6625C328.621 3.80382 329.003 3.83864 329.372 3.76258C329.74 3.68651 330.077 3.50297 330.341 3.23516C330.605 2.96735 330.783 2.6273 330.854 2.25801C330.925 1.88873 330.884 1.50679 330.738 1.1605C330.591 0.814209 330.346 0.51912 330.031 0.312547C329.717 0.105974 329.349 -0.0028049 328.973 -3.36291e-05C328.469 0.00368253 327.987 0.207523 327.633 0.566646C327.279 0.925768 327.082 1.41075 327.086 1.91491Z" fill="#F2F5F9"/>
<path fill-rule="evenodd" clip-rule="evenodd" d="M0.750593 5.92068L0.750593 14.5965C0.750593 17.6189 2.89128 19.5154 5.92068 19.5154L14.0951 19.5154C17.1245 19.5154 19.2652 17.6289 19.2652 14.5965L19.2652 5.92068C19.2652 2.88828 17.1245 1.00079 14.0951 1.00079L5.92068 1.00079C2.89128 1.00079 0.750593 2.88828 0.750593 5.92068Z" stroke="#F2F5F9" stroke-width="1.5" stroke-linecap="round" stroke-linejoin="round"/>
<path d="M5.91867 10.2581L14.0971 10.2581" stroke="#F2F5F9" stroke-width="1.5" stroke-linecap="round" stroke-linejoin="round"/>
<path d="M9.68532 14.009L5.91835 10.2581L9.68532 6.50709" stroke="#F2F5F9" stroke-width="1.5" stroke-linecap="round" stroke-linejoin="round"/>
</svg>
