<svg width="2" height="1" viewBox="0 0 2 1" fill="none" xmlns="http://www.w3.org/2000/svg">
<path fill-rule="evenodd" clip-rule="evenodd" d="M1.00776 0.131999C0.896476 0.0459998 0.760757 0 0.620357 0C0.480478 0 0.344239 0.0459998 0.232959 0.131999C0.12116 0.217999 0.0421198 0.337499 0.00415998 0.473998C0.00207999 0.482498 0.00207999 0.491498 0 0.499998C0.00207999 0.508498 0.00207999 0.516998 0.00415998 0.525498C0.0421198 0.661997 0.12116 0.781497 0.232959 0.867496C0.344239 0.953496 0.480478 0.999996 0.620357 0.999996C0.760757 0.999996 0.896476 0.953496 1.00776 0.867496C1.11956 0.781497 1.1986 0.661997 1.23655 0.525498C1.23863 0.516998 1.23863 0.508498 1.24071 0.499998C1.23863 0.491498 1.23863 0.482498 1.23655 0.473998C1.1986 0.337499 1.11956 0.217999 1.00776 0.131999V0.131999Z" fill="#262883"/>
</svg>
