<svg width="14" height="14" viewBox="0 0 14 14" fill="none" xmlns="http://www.w3.org/2000/svg">
<path d="M11.5818 6.49081C11.5818 9.30244 9.30254 11.5817 6.4909 11.5817C3.67927 11.5817 1.39999 9.30244 1.39999 6.49081C1.39999 3.67918 3.67927 1.3999 6.4909 1.3999C9.30254 1.3999 11.5818 3.67918 11.5818 6.49081Z" fill="#EE9E04"/>
<path d="M12.9182 7.50919C12.9182 10.4965 10.4965 12.9183 7.5091 12.9183C4.52174 12.9183 2.10001 10.4965 2.10001 7.50919C2.10001 4.52183 4.52174 2.1001 7.5091 2.1001C10.4965 2.1001 12.9182 4.52183 12.9182 7.50919Z" fill="#F5B400"/>
<path fill-rule="evenodd" clip-rule="evenodd" d="M7 12.274C9.91273 12.274 12.274 9.91273 12.274 7C12.274 4.08727 9.91273 1.72603 7 1.72603C4.08727 1.72603 1.72603 4.08727 1.72603 7C1.72603 9.91273 4.08727 12.274 7 12.274ZM7 14C10.866 14 14 10.866 14 7C14 3.13401 10.866 0 7 0C3.13401 0 0 3.13401 0 7C0 10.866 3.13401 14 7 14Z" fill="#FFDB03"/>
<path fill-rule="evenodd" clip-rule="evenodd" d="M7.19092 12.1902C9.95189 12.1902 12.1901 9.95198 12.1901 7.19101C12.1901 4.43004 9.95189 2.19183 7.19092 2.19183C4.42994 2.19183 2.19173 4.43004 2.19173 7.19101C2.19173 9.95198 4.42994 12.1902 7.19092 12.1902ZM7.19092 12.2819C10.0025 12.2819 12.2818 10.0026 12.2818 7.19101C12.2818 4.37938 10.0025 2.1001 7.19092 2.1001C4.37928 2.1001 2.10001 4.37938 2.10001 7.19101C2.10001 10.0026 4.37928 12.2819 7.19092 12.2819Z" fill="#EE9E04"/>
<path fill-rule="evenodd" clip-rule="evenodd" d="M7 13.9041C10.813 13.9041 13.9041 10.813 13.9041 7C13.9041 3.18697 10.813 0.0958904 7 0.0958904C3.18697 0.0958904 0.0958904 3.18697 0.0958904 7C0.0958904 10.813 3.18697 13.9041 7 13.9041ZM7 14C10.866 14 14 10.866 14 7C14 3.13401 10.866 0 7 0C3.13401 0 0 3.13401 0 7C0 10.866 3.13401 14 7 14Z" fill="#FEFA2B"/>
<path d="M6.71963 4.42859C6.87977 4.12374 7.34246 4.12374 7.5026 4.42859L8.12578 5.61493C8.18937 5.73598 8.31229 5.81989 8.45448 5.8393L9.84796 6.02954C10.206 6.07842 10.349 6.49186 10.0899 6.72915L9.08158 7.65258C8.97869 7.74681 8.93174 7.88258 8.95603 8.01563L9.19406 9.31954C9.25523 9.65461 8.8809 9.91012 8.56062 9.75193L7.31426 9.1363C7.18708 9.07348 7.03514 9.07348 6.90796 9.1363L5.6616 9.75193C5.34132 9.91012 4.967 9.65461 5.02816 9.31954L5.2662 8.01563C5.29049 7.88258 5.24353 7.74681 5.14064 7.65258L4.13232 6.72915C3.87321 6.49186 4.01619 6.07842 4.37427 6.02954L5.76774 5.8393C5.90993 5.81989 6.03286 5.73598 6.09645 5.61493L6.71963 4.42859Z" fill="#FFDB03"/>
</svg>
