<svg width="2" height="2" viewBox="0 0 2 2" fill="none" xmlns="http://www.w3.org/2000/svg">
<path fill-rule="evenodd" clip-rule="evenodd" d="M1.2662 0.474C1.22824 0.3375 1.1492 0.218 1.0374 0.132C0.92612 0.046 0.7904 0 0.65 0C0.51012 0 0.37388 0.046 0.2626 0.132C0.1508 0.218 0.07176 0.3375 0.0338 0.474C0.0156 0.539 0.0078 0.6045 0.00364 0.671C0 0.745 0 0.8185 0 0.892V1.1075C0 1.181 0 1.2545 0.00364 1.3285C0.0078 1.3955 0.0156 1.4605 0.0338 1.5255C0.07176 1.662 0.1508 1.7815 0.2626 1.8675C0.37388 1.9535 0.51012 2 0.65 2C0.7904 2 0.92612 1.9535 1.0374 1.8675C1.1492 1.7815 1.22824 1.662 1.2662 1.5255C1.2844 1.4605 1.2922 1.3955 1.29636 1.3285C1.3 1.2545 1.3 1.181 1.3 1.1075V0.892C1.3 0.8185 1.3 0.745 1.29636 0.671C1.2922 0.6045 1.2844 0.539 1.2662 0.474V0.474Z" fill="#262883"/>
</svg>
