<svg width="15" height="12" viewBox="0 0 15 12" fill="none" xmlns="http://www.w3.org/2000/svg">
<path d="M11.897 1.32044C11.545 0.906231 11.1029 0.573102 10.6025 0.345056C10.1022 0.11701 9.55609 -0.000275162 9.00354 0.00164873C8.05812 -0.026191 7.13768 0.299419 6.43161 0.911487C5.72553 0.299419 4.80509 -0.026191 3.85967 0.00164873C3.30712 -0.000275162 2.76101 0.11701 2.26068 0.345056C1.76035 0.573102 1.31826 0.906231 0.966246 1.32044C0.353483 2.04331 -0.287572 3.3521 0.13744 5.48506C0.815788 8.89117 5.90243 11.6863 6.11719 11.8008C6.21292 11.8527 6.32071 11.8799 6.43032 11.8799C6.53993 11.8799 6.64772 11.8527 6.74345 11.8008C6.95949 11.6838 12.0461 8.88867 12.7232 5.48506C13.1508 3.3521 12.5097 2.04331 11.897 1.32044ZM11.4636 5.24744C10.9839 7.65554 7.49767 9.89543 6.43161 10.532C4.9296 9.65031 1.83942 7.43668 1.40283 5.24744C1.07298 3.59285 1.52436 2.63174 1.96158 2.11647C2.1928 1.84516 2.4829 1.62697 2.81107 1.47755C3.13923 1.32814 3.49733 1.25121 3.85967 1.25228C4.24668 1.22406 4.6346 1.29384 4.98562 1.45483C5.33664 1.61582 5.63877 1.86252 5.86256 2.17088C5.91775 2.26964 5.99916 2.35219 6.09831 2.40995C6.19747 2.4677 6.31073 2.49853 6.4263 2.49924C6.54188 2.49994 6.65553 2.47048 6.75541 2.41394C6.8553 2.3574 6.93777 2.27584 6.99422 2.17776C7.21757 1.86699 7.52035 1.61821 7.8727 1.45592C8.22505 1.29363 8.6148 1.22345 9.00354 1.25228C9.36664 1.25057 9.72562 1.32718 10.0546 1.47662C10.3836 1.62605 10.6744 1.84458 10.9061 2.11647C11.3421 2.63174 11.7934 3.59285 11.4636 5.24744Z" fill="#FFDB03"/>
<mask id="path-2-outside-1_818_1075" maskUnits="userSpaceOnUse" x="7.50853" y="4.87382" width="8.52919" height="7.46304" fill="black">
<rect fill="white" x="7.50853" y="4.87382" width="8.52919" height="7.46304"/>
<path fill-rule="evenodd" clip-rule="evenodd" d="M11.2543 5.93997C10.9583 5.93997 10.7183 6.17991 10.7183 6.47588V7.91996H9.06968C8.7963 7.91996 8.57468 8.14157 8.57468 8.41495C8.57468 8.68833 8.7963 8.90995 9.06968 8.90995H10.7183V10.354C10.7183 10.65 10.9583 10.8899 11.2543 10.8899C11.5502 10.8899 11.7902 10.65 11.7902 10.354V8.90995H13.4389C13.7122 8.90995 13.9339 8.68833 13.9339 8.41495C13.9339 8.14157 13.7122 7.91996 13.4389 7.91996H11.7902V6.47588C11.7902 6.17991 11.5502 5.93997 11.2543 5.93997Z"/>
</mask>
<path fill-rule="evenodd" clip-rule="evenodd" d="M11.2543 5.93997C10.9583 5.93997 10.7183 6.17991 10.7183 6.47588V7.91996H9.06968C8.7963 7.91996 8.57468 8.14157 8.57468 8.41495C8.57468 8.68833 8.7963 8.90995 9.06968 8.90995H10.7183V10.354C10.7183 10.65 10.9583 10.8899 11.2543 10.8899C11.5502 10.8899 11.7902 10.65 11.7902 10.354V8.90995H13.4389C13.7122 8.90995 13.9339 8.68833 13.9339 8.41495C13.9339 8.14157 13.7122 7.91996 13.4389 7.91996H11.7902V6.47588C11.7902 6.17991 11.5502 5.93997 11.2543 5.93997Z" fill="#FFDB03"/>
<path d="M10.7183 7.91996V8.9861H11.7845V7.91996H10.7183ZM10.7183 8.90995H11.7845V7.8438H10.7183V8.90995ZM11.7902 8.90995V7.8438H10.724V8.90995H11.7902ZM11.7902 7.91996H10.724V8.9861H11.7902V7.91996ZM11.7845 6.47588C11.7845 6.76872 11.5471 7.00612 11.2543 7.00612V4.87382C10.3695 4.87382 9.6522 5.59109 9.6522 6.47588H11.7845ZM11.7845 7.91996V6.47588H9.6522V7.91996H11.7845ZM9.06968 8.9861H10.7183V6.85381H9.06968V8.9861ZM9.64083 8.41495C9.64083 8.73039 9.38512 8.9861 9.06968 8.9861V6.85381C8.20748 6.85381 7.50853 7.55276 7.50853 8.41495H9.64083ZM9.06968 7.8438C9.38512 7.8438 9.64083 8.09952 9.64083 8.41495H7.50853C7.50853 9.27715 8.20748 9.9761 9.06968 9.9761V7.8438ZM10.7183 7.8438H9.06968V9.9761H10.7183V7.8438ZM11.7845 10.354V8.90995H9.6522V10.354H11.7845ZM11.2543 9.82379C11.5471 9.82379 11.7845 10.0612 11.7845 10.354H9.6522C9.6522 11.2388 10.3695 11.9561 11.2543 11.9561V9.82379ZM10.724 10.354C10.724 10.0612 10.9614 9.82379 11.2543 9.82379V11.9561C12.1391 11.9561 12.8563 11.2388 12.8563 10.354H10.724ZM10.724 8.90995V10.354H12.8563V8.90995H10.724ZM13.4389 7.8438H11.7902V9.9761H13.4389V7.8438ZM12.8677 8.41495C12.8677 8.09952 13.1234 7.8438 13.4389 7.8438V9.9761C14.3011 9.9761 15 9.27715 15 8.41495H12.8677ZM13.4389 8.9861C13.1234 8.9861 12.8677 8.73039 12.8677 8.41495H15C15 7.55276 14.3011 6.85381 13.4389 6.85381V8.9861ZM11.7902 8.9861H13.4389V6.85381H11.7902V8.9861ZM10.724 6.47588V7.91996H12.8563V6.47588H10.724ZM11.2543 7.00612C10.9614 7.00612 10.724 6.76872 10.724 6.47588H12.8563C12.8563 5.59109 12.1391 4.87382 11.2543 4.87382V7.00612Z" fill="#FAFAFA" mask="url(#path-2-outside-1_818_1075)"/>
</svg>
