<svg width="2" height="9" viewBox="0 0 2 9" fill="none" xmlns="http://www.w3.org/2000/svg">
<path fill-rule="evenodd" clip-rule="evenodd" d="M1.19956 0.449053C1.1636 0.319737 1.08872 0.206526 0.9828 0.125053C0.877377 0.0435789 0.7488 0 0.615789 0C0.483272 0 0.354202 0.0435789 0.248779 0.125053C0.142863 0.206526 0.0679832 0.319737 0.032021 0.449053C0.0147789 0.510632 0.00738947 0.572684 0.00344842 0.635684C0 0.705789 0 0.775421 0 0.845053V8.15447C0 8.22458 0 8.29374 0.00344842 8.36384C0.00738947 8.42731 0.0147789 8.48889 0.032021 8.55C0.0679832 8.67979 0.142863 8.793 0.248779 8.87447C0.354202 8.95595 0.483272 9 0.615789 9C0.7488 9 0.877377 8.95595 0.9828 8.87447C1.08872 8.793 1.1636 8.67979 1.19956 8.55C1.2168 8.48889 1.22419 8.42731 1.22813 8.36384C1.23158 8.29374 1.23158 8.22458 1.23158 8.15447V0.845053C1.23158 0.775421 1.23158 0.705789 1.22813 0.635684C1.22419 0.572684 1.2168 0.510632 1.19956 0.449053V0.449053Z" fill="#262883"/>
</svg>
