<svg width="11" height="10" viewBox="0 0 11 10" fill="none" xmlns="http://www.w3.org/2000/svg">
<path d="M8.53818 1.02764C8.28555 0.705276 7.96827 0.446018 7.60919 0.268541C7.25011 0.0910635 6.85818 -0.000214146 6.46163 0.00128313C5.78313 -0.0203832 5.12255 0.233024 4.61581 0.709366C4.10908 0.233024 3.4485 -0.0203832 2.77 0.00128313C2.37344 -0.000214146 1.98151 0.0910635 1.62244 0.268541C1.26336 0.446018 0.946082 0.705276 0.693452 1.02764C0.253686 1.59021 -0.206384 2.60878 0.0986376 4.26876C0.585472 6.91957 4.23604 9.09492 4.39016 9.18397C4.45887 9.22438 4.53623 9.24558 4.61489 9.24558C4.69356 9.24558 4.77091 9.22438 4.83962 9.18397C4.99467 9.09297 8.64523 6.91762 9.13114 4.26876C9.43801 2.60878 8.97794 1.59021 8.53818 1.02764ZM8.22716 4.08383C7.88291 5.95794 5.38091 7.70114 4.61581 8.19655C3.53786 7.51037 1.32011 5.78761 1.00678 4.08383C0.770054 2.79614 1.09399 2.04815 1.40778 1.64715C1.57372 1.436 1.78192 1.26619 2.01744 1.14991C2.25295 1.03363 2.50995 0.973759 2.77 0.974593C3.04774 0.952625 3.32615 1.00693 3.57806 1.13222C3.82998 1.25751 4.04682 1.44951 4.20743 1.68949C4.24703 1.76635 4.30546 1.8306 4.37662 1.87555C4.44778 1.92049 4.52906 1.94449 4.61201 1.94504C4.69495 1.94558 4.77652 1.92266 4.8482 1.87865C4.91989 1.83465 4.97907 1.77117 5.01959 1.69484C5.17989 1.45299 5.39718 1.25937 5.65006 1.13307C5.90293 1.00677 6.18264 0.952151 6.46163 0.974593C6.72222 0.973255 6.97985 1.03288 7.21596 1.14918C7.45207 1.26548 7.66079 1.43555 7.82707 1.64715C8.13994 2.04815 8.46388 2.79614 8.22716 4.08383Z" fill="#FFDB03"/>
<mask id="path-2-outside-1_601_3069" maskUnits="userSpaceOnUse" x="5" y="4" width="6" height="6" fill="black">
<rect fill="white" x="5" y="4" width="6" height="6"/>
<path fill-rule="evenodd" clip-rule="evenodd" d="M8.5 5C8.22386 5 8 5.22386 8 5.5V6H6.5C6.22386 6 6 6.22386 6 6.5C6 6.77614 6.22386 7 6.5 7H8V8.5C8 8.77614 8.22386 9 8.5 9C8.77614 9 9 8.77614 9 8.5V7H9.5C9.77614 7 10 6.77614 10 6.5C10 6.22386 9.77614 6 9.5 6H9V5.5C9 5.22386 8.77614 5 8.5 5Z"/>
</mask>
<path fill-rule="evenodd" clip-rule="evenodd" d="M8.5 5C8.22386 5 8 5.22386 8 5.5V6H6.5C6.22386 6 6 6.22386 6 6.5C6 6.77614 6.22386 7 6.5 7H8V8.5C8 8.77614 8.22386 9 8.5 9C8.77614 9 9 8.77614 9 8.5V7H9.5C9.77614 7 10 6.77614 10 6.5C10 6.22386 9.77614 6 9.5 6H9V5.5C9 5.22386 8.77614 5 8.5 5Z" fill="#FFDB03"/>
<path d="M8 6V7H9V6H8ZM8 7H9V6H8V7ZM9 7V6H8V7H9ZM9 6H8V7H9V6ZM9 5.5C9 5.77614 8.77614 6 8.5 6V4C7.67157 4 7 4.67157 7 5.5H9ZM9 6V5.5H7V6H9ZM6.5 7H8V5H6.5V7ZM7 6.5C7 6.77614 6.77614 7 6.5 7V5C5.67157 5 5 5.67157 5 6.5H7ZM6.5 6C6.77614 6 7 6.22386 7 6.5H5C5 7.32843 5.67157 8 6.5 8V6ZM8 6H6.5V8H8V6ZM9 8.5V7H7V8.5H9ZM8.5 8C8.77614 8 9 8.22386 9 8.5H7C7 9.32843 7.67157 10 8.5 10V8ZM8 8.5C8 8.22386 8.22386 8 8.5 8V10C9.32843 10 10 9.32843 10 8.5H8ZM8 7V8.5H10V7H8ZM9.5 6H9V8H9.5V6ZM9 6.5C9 6.22386 9.22386 6 9.5 6V8C10.3284 8 11 7.32843 11 6.5H9ZM9.5 7C9.22386 7 9 6.77614 9 6.5H11C11 5.67157 10.3284 5 9.5 5V7ZM9 7H9.5V5H9V7ZM8 5.5V6H10V5.5H8ZM8.5 6C8.22386 6 8 5.77614 8 5.5H10C10 4.67157 9.32843 4 8.5 4V6Z" fill="#FAFAFA" mask="url(#path-2-outside-1_601_3069)"/>
</svg>
