<svg width="22" height="20" viewBox="0 0 22 20" fill="none" xmlns="http://www.w3.org/2000/svg">
<path fill-rule="evenodd" clip-rule="evenodd" d="M11.0275 11.7314C10.343 11.7314 9.66047 11.5053 9.08949 11.053L4.50016 7.3529C4.16964 7.08685 4.11848 6.60285 4.38351 6.27335C4.65058 5.94489 5.13356 5.8927 5.46305 6.15773L10.0483 9.85375C10.6244 10.3101 11.4358 10.3101 12.016 9.84965L16.5552 6.15977C16.8847 5.89065 17.3677 5.94182 17.6358 6.27131C17.9028 6.59978 17.8527 7.08275 17.5242 7.35085L12.9769 11.0469C12.4018 11.5032 11.7142 11.7314 11.0275 11.7314" fill="#9098B1"/>
<mask id="mask0_0_3" style="mask-type:alpha" maskUnits="userSpaceOnUse" x="0" y="0" width="22" height="20">
<path fill-rule="evenodd" clip-rule="evenodd" d="M0 0H22V19.9536H0V0Z" fill="white"/>
</mask>
<g mask="url(#mask0_0_3)">
<path fill-rule="evenodd" clip-rule="evenodd" d="M5.9747 18.4187H16.0231C16.0252 18.4167 16.0334 18.4187 16.0395 18.4187C17.207 18.4187 18.2426 18.0012 19.0366 17.2082C19.9586 16.2903 20.4651 14.9713 20.4651 13.4948V6.46701C20.4651 3.60904 18.5966 1.53489 16.0231 1.53489H5.97675C3.40324 1.53489 1.53477 3.60904 1.53477 6.46701V13.4948C1.53477 14.9713 2.04231 16.2903 2.96324 17.2082C3.75729 18.0012 4.79386 18.4187 5.96037 18.4187H5.9747ZM5.9573 19.9536C4.37841 19.9536 2.96836 19.3806 1.87961 18.2959C0.667042 17.0864 -0.00012491 15.3817 -0.00012491 13.4948V6.46701C-0.00012491 2.7802 2.56929 0 5.97675 0H16.0231C19.4306 0 22 2.7802 22 6.46701V13.4948C22 15.3817 21.3328 17.0864 20.1203 18.2959C19.0325 19.3796 17.6215 19.9536 16.0395 19.9536H16.0231H5.97675H5.9573Z" fill="#9098B1"/>
</g>
</svg>
