<svg width="2" height="10" viewBox="0 0 2 10" fill="none" xmlns="http://www.w3.org/2000/svg">
<path fill-rule="evenodd" clip-rule="evenodd" d="M1.12727 0.583479C1.12365 0.525653 1.11687 0.468696 1.10105 0.412175C1.06804 0.293479 0.999306 0.189565 0.902088 0.114783C0.805323 0.0400001 0.687305 0 0.565218 0C0.443583 0 0.325114 0.0400001 0.228348 0.114783C0.131131 0.189565 0.0624001 0.293479 0.0293913 0.412175C0.0135652 0.468696 0.00678262 0.525653 0.00316522 0.583479C0 0.647827 0 0.71174 0 0.775653V0.776958V9.22262V9.22393C0 9.28827 0 9.35175 0.00316522 9.4161C0.00678262 9.47436 0.0135652 9.53088 0.0293913 9.58697C0.0624001 9.7061 0.131131 9.81001 0.228348 9.8848C0.325114 9.95958 0.443583 10 0.565218 10C0.687305 10 0.805323 9.95958 0.902088 9.8848C0.999306 9.81001 1.06804 9.7061 1.10105 9.58697C1.11687 9.53088 1.12365 9.47436 1.12727 9.4161C1.13044 9.35175 1.13044 9.28827 1.13044 9.22393V9.22262V0.776958V0.775653C1.13044 0.71174 1.13044 0.647827 1.12727 0.583479V0.583479Z" fill="#262883"/>
</svg>
