<svg width="42" height="46" viewBox="0 0 42 46" fill="none" xmlns="http://www.w3.org/2000/svg">
<path d="M23.3333 2.55556V43.4444C23.3333 44.1222 23.0875 44.7722 22.6499 45.2515C22.2123 45.7308 21.6188 46 21 46C20.3812 46 19.7877 45.7308 19.3501 45.2515C18.9125 44.7722 18.6667 44.1222 18.6667 43.4444V2.55556C18.6667 1.87778 18.9125 1.22776 19.3501 0.748505C19.7877 0.269245 20.3812 0 21 0C21.6188 0 22.2123 0.269245 22.6499 0.748505C23.0875 1.22776 23.3333 1.87778 23.3333 2.55556V2.55556ZM11.6667 5.11111C11.0478 5.11111 10.4543 5.38036 10.0168 5.85962C9.57917 6.33888 9.33333 6.98889 9.33333 7.66667V38.3333C9.33333 39.0111 9.57917 39.6611 10.0168 40.1404C10.4543 40.6196 11.0478 40.8889 11.6667 40.8889C12.2855 40.8889 12.879 40.6196 13.3166 40.1404C13.7542 39.6611 14 39.0111 14 38.3333V7.66667C14 6.98889 13.7542 6.33888 13.3166 5.85962C12.879 5.38036 12.2855 5.11111 11.6667 5.11111V5.11111ZM2.33333 10.2222C1.71449 10.2222 1.121 10.4915 0.683417 10.9707C0.245833 11.45 0 12.1 0 12.7778V33.2222C0 33.9 0.245833 34.55 0.683417 35.0293C1.121 35.5085 1.71449 35.7778 2.33333 35.7778C2.95217 35.7778 3.54566 35.5085 3.98325 35.0293C4.42083 34.55 4.66667 33.9 4.66667 33.2222V12.7778C4.66667 12.1 4.42083 11.45 3.98325 10.9707C3.54566 10.4915 2.95217 10.2222 2.33333 10.2222ZM30.3333 5.11111C29.7145 5.11111 29.121 5.38036 28.6834 5.85962C28.2458 6.33888 28 6.98889 28 7.66667V38.3333C28 39.0111 28.2458 39.6611 28.6834 40.1404C29.121 40.6196 29.7145 40.8889 30.3333 40.8889C30.9522 40.8889 31.5457 40.6196 31.9832 40.1404C32.4208 39.6611 32.6667 39.0111 32.6667 38.3333V7.66667C32.6667 6.98889 32.4208 6.33888 31.9832 5.85962C31.5457 5.38036 30.9522 5.11111 30.3333 5.11111ZM39.6667 10.2222C39.0478 10.2222 38.4543 10.4915 38.0167 10.9707C37.5792 11.45 37.3333 12.1 37.3333 12.7778V33.2222C37.3333 33.9 37.5792 34.55 38.0167 35.0293C38.4543 35.5085 39.0478 35.7778 39.6667 35.7778C40.2855 35.7778 40.879 35.5085 41.3166 35.0293C41.7542 34.55 42 33.9 42 33.2222V12.7778C42 12.1 41.7542 11.45 41.3166 10.9707C40.879 10.4915 40.2855 10.2222 39.6667 10.2222Z" fill="#FDE74C"/>
</svg>
