<svg width="2" height="14" viewBox="0 0 2 14" fill="none" xmlns="http://www.w3.org/2000/svg">
<path fill-rule="evenodd" clip-rule="evenodd" d="M1.1376 0.428129C1.10349 0.304839 1.03248 0.196903 0.932036 0.119226C0.832058 0.0415484 0.710122 0 0.583982 0C0.458309 0 0.335907 0.0415484 0.235929 0.119226C0.135484 0.196903 0.0644716 0.304839 0.0303671 0.428129C0.0140156 0.486839 0.00700779 0.546 0.0032703 0.606064C0 0.672903 0 0.73929 0 0.805677V13.1939C0 13.2607 0 13.3266 0.0032703 13.3935C0.00700779 13.454 0.0140156 13.5127 0.0303671 13.571C0.0644716 13.6947 0.135484 13.8026 0.235929 13.8803C0.335907 13.958 0.458309 14 0.583982 14C0.710122 14 0.832058 13.958 0.932036 13.8803C1.03248 13.8026 1.10349 13.6947 1.1376 13.571C1.15395 13.5127 1.16096 13.454 1.16469 13.3935C1.16796 13.3266 1.16796 13.2607 1.16796 13.1939V0.805677C1.16796 0.73929 1.16796 0.672903 1.16469 0.606064C1.16096 0.546 1.15395 0.486839 1.1376 0.428129V0.428129Z" fill="#262883"/>
</svg>
