<svg width="11" height="9" viewBox="0 0 11 9" fill="none" xmlns="http://www.w3.org/2000/svg">
<path d="M3.82422 0.511374C3.82422 0.228926 4.01657 1.07913e-05 4.2539 1.07913e-05H7.86327C8.81101 1.07913e-05 9.58202 0.917668 9.58202 2.04546V6.21307C9.58202 6.49552 9.38966 6.72443 9.15233 6.72443C8.91499 6.72443 8.72264 6.49552 8.72264 6.21307V2.04546C8.72264 1.48157 8.3371 1.02274 7.86327 1.02274H4.2539C4.01657 1.02274 3.82422 0.793822 3.82422 0.511374ZM10.8721 6.71834C10.7031 6.52009 10.4311 6.52229 10.2644 6.72334L9.30843 7.8767C9.26797 7.92504 9.21452 7.95171 9.15778 7.95171C9.1577 7.95171 9.1577 7.95171 9.15762 7.95171C9.10097 7.95171 9.04751 7.92514 9.00706 7.8769L8.03859 6.72134C7.87099 6.52129 7.59891 6.52089 7.4309 6.72034C7.26288 6.91979 7.26255 7.24359 7.43014 7.44354L8.39862 8.5992C8.60146 8.8412 8.87102 8.97443 9.15762 8.97443H9.15837C9.44522 8.97423 9.71495 8.8405 9.91897 8.5964L10.8762 7.44154C11.0429 7.24049 11.041 6.91669 10.8721 6.71834ZM6.70312 7.97727H3.13672C2.66289 7.97727 2.27735 7.51855 2.27735 6.95455V2.6591C2.27735 2.37665 2.085 2.14774 1.84766 2.14774C1.61033 2.14774 1.41797 2.37665 1.41797 2.6591V6.95455C1.41797 8.08244 2.18898 9 3.13672 9H6.70312C6.94045 9 7.1328 8.77108 7.1328 8.48864C7.1328 8.20619 6.94045 7.97727 6.70312 7.97727ZM1.84221 1.02274H1.84237C1.89902 1.02274 1.95248 1.0493 1.99293 1.09754L2.9614 2.2532C3.04533 2.35338 3.15552 2.40342 3.26563 2.40342C3.3754 2.40342 3.48517 2.35368 3.56909 2.2541C3.73711 2.05475 3.73744 1.73095 3.56985 1.531L2.60137 0.375343C2.39836 0.133145 2.1288 -0.00138747 1.84162 1.07913e-05C1.55477 0.000310419 1.28504 0.133944 1.08102 0.37804L0.123797 1.533C-0.0428745 1.73405 -0.0410282 2.05775 0.127993 2.2561C0.296846 2.45445 0.568925 2.45226 0.735596 2.25121L1.69165 1.09784C1.73202 1.0495 1.78547 1.02284 1.84221 1.02274Z" fill="#FDE74C"/>
</svg>
