<svg width="2" height="4" viewBox="0 0 2 4" fill="none" xmlns="http://www.w3.org/2000/svg">
<path fill-rule="evenodd" clip-rule="evenodd" d="M1.29636 0.671C1.2922 0.6045 1.2844 0.539 1.2662 0.474C1.22824 0.3375 1.1492 0.218 1.0374 0.132C0.92612 0.046 0.7904 0 0.65 0C0.51012 0 0.37388 0.046 0.2626 0.132C0.1508 0.218 0.07176 0.3375 0.0338 0.474C0.0156 0.539 0.0078 0.6045 0.00364 0.671C0 0.745 0 0.8185 0 0.892V0.8935V3.106V3.1075C0 3.181 0 3.2545 0.00364 3.3285C0.0078 3.3955 0.0156 3.4605 0.0338 3.5255C0.07176 3.662 0.1508 3.7815 0.2626 3.8675C0.37388 3.9535 0.51012 4 0.65 4C0.7904 4 0.92612 3.9535 1.0374 3.8675C1.1492 3.7815 1.22824 3.662 1.2662 3.5255C1.2844 3.4605 1.2922 3.3955 1.29636 3.3285C1.3 3.2545 1.3 3.181 1.3 3.1075V3.106V0.8935V0.892C1.3 0.8185 1.3 0.745 1.29636 0.671V0.671Z" fill="#262883"/>
</svg>
