<svg width="28" height="29" viewBox="0 0 28 29" fill="none" xmlns="http://www.w3.org/2000/svg">
<path d="M4.0756 28.0164H2.09161L3.49453 26.4222C4.25097 25.5626 4.72335 24.4445 4.85034 23.2317C2.87643 21.7596 1.43302 19.8229 0.660358 17.6019C-0.111752 15.3826 -0.208779 12.9395 0.379795 10.5367C1.086 7.65353 2.74236 5.02565 5.04368 3.13703C7.54448 1.0848 10.6577 0 14.0468 0C18.3162 0 21.9148 1.39391 24.4534 4.03094C26.7405 6.40668 28 9.6112 28 13.0543C28 14.7271 27.7003 16.3547 27.1092 17.892C26.4975 19.4828 25.6018 20.8992 24.4469 22.1019C21.9049 24.7493 18.3085 26.1487 14.0467 26.1487C12.4647 26.1487 10.8138 25.9087 9.33984 25.4683C7.9447 27.0946 6.05417 28.0164 4.0756 28.0164V28.0164ZM14.0468 1.86776C7.2511 1.86776 3.08122 6.47323 1.96319 11.0375C0.906679 15.3508 2.4641 19.4265 6.12934 21.94L6.53887 22.2208L6.52627 22.7642C6.50129 23.8396 6.27567 24.8755 5.87184 25.8119C6.85521 25.4338 7.74752 24.7483 8.44627 23.8102L8.79373 23.3437L9.309 23.5188C10.755 24.0103 12.4375 24.2809 14.0468 24.2809C22.5043 24.2809 26.3564 18.4614 26.3564 13.0543C26.3564 10.1421 25.2867 7.4271 23.3444 5.40954C21.1139 3.09252 17.8988 1.86776 14.0468 1.86776V1.86776Z" fill="white" fill-opacity="0.12"/>
</svg>
