<svg width="20" height="21" viewBox="0 0 20 21" fill="none" xmlns="http://www.w3.org/2000/svg">
<path fill-rule="evenodd" clip-rule="evenodd" d="M18.5235 6.17734L17.8927 5.08275C17.3591 4.15657 16.1765 3.83705 15.249 4.36849V4.36849C14.8075 4.62856 14.2807 4.70234 13.7848 4.57357C13.2889 4.4448 12.8645 4.12405 12.6053 3.68205C12.4386 3.40111 12.349 3.08112 12.3456 2.75444V2.75444C12.3606 2.23068 12.163 1.72314 11.7978 1.34744C11.4326 0.971728 10.9308 0.759849 10.4069 0.760065H9.13603C8.6227 0.760059 8.13053 0.964611 7.76842 1.32846C7.40632 1.69231 7.20413 2.18546 7.2066 2.69878V2.69878C7.19138 3.75862 6.32783 4.60978 5.26788 4.60967C4.9412 4.60627 4.62121 4.51668 4.34026 4.34993V4.34993C3.41281 3.8185 2.2302 4.13801 1.69656 5.0642L1.0194 6.17734C0.486409 7.10237 0.801572 8.28423 1.72439 8.82104V8.82104C2.32424 9.16736 2.69376 9.80738 2.69376 10.5C2.69376 11.1927 2.32424 11.8327 1.72439 12.179V12.179C0.802744 12.7122 0.487237 13.8912 1.0194 14.8134V14.8134L1.65946 15.9173C1.90949 16.3685 2.329 16.7014 2.82516 16.8424C3.32132 16.9834 3.85322 16.9209 4.30316 16.6687V16.6687C4.74548 16.4106 5.27256 16.3399 5.76727 16.4722C6.26197 16.6046 6.68329 16.9291 6.93759 17.3736C7.10433 17.6546 7.19393 17.9746 7.19732 18.3013V18.3013C7.19732 19.372 8.06531 20.24 9.13603 20.24H10.4069C11.474 20.24 12.3405 19.3776 12.3456 18.3105V18.3105C12.3431 17.7956 12.5466 17.301 12.9107 16.9369C13.2748 16.5728 13.7694 16.3693 14.2843 16.3718C14.6102 16.3805 14.9289 16.4698 15.2119 16.6316V16.6316C16.1369 17.1646 17.3188 16.8494 17.8556 15.9266V15.9266L18.5235 14.8134C18.782 14.3697 18.853 13.8412 18.7207 13.345C18.5883 12.8488 18.2636 12.4258 17.8185 12.1697V12.1697C17.3734 11.9136 17.0487 11.4907 16.9164 10.9945C16.784 10.4982 16.855 9.96976 17.1135 9.52603C17.2816 9.23251 17.525 8.98915 17.8185 8.82104V8.82104C18.7358 8.28452 19.0502 7.10956 18.5235 6.18661V6.18661V6.17734Z" fill="#000140" stroke="#000140" stroke-width="1.5" stroke-linecap="round" stroke-linejoin="round"/>
<circle cx="9.77609" cy="10.5" r="2.67153" fill="#E4E7F1"/>
</svg>
