<svg width="2" height="10" viewBox="0 0 2 10" fill="none" xmlns="http://www.w3.org/2000/svg">
<path fill-rule="evenodd" clip-rule="evenodd" d="M1.15109 0.430909C1.11658 0.306818 1.04473 0.198182 0.943091 0.12C0.841927 0.0418182 0.718545 0 0.590909 0C0.463745 0 0.339891 0.0418182 0.238727 0.12C0.137091 0.198182 0.0652363 0.306818 0.0307273 0.430909C0.0141818 0.49 0.00709091 0.549545 0.00330909 0.61C0 0.677272 0 0.744091 0 0.810909V9.18863C0 9.25591 0 9.32227 0.00330909 9.38954C0.00709091 9.45045 0.0141818 9.50954 0.0307273 9.56818C0.0652363 9.69272 0.137091 9.80136 0.238727 9.87954C0.339891 9.95772 0.463745 10 0.590909 10C0.718545 10 0.841927 9.95772 0.943091 9.87954C1.04473 9.80136 1.11658 9.69272 1.15109 9.56818C1.16764 9.50954 1.17473 9.45045 1.17851 9.38954C1.18182 9.32227 1.18182 9.25591 1.18182 9.18863V0.810909C1.18182 0.744091 1.18182 0.677272 1.17851 0.61C1.17473 0.549545 1.16764 0.49 1.15109 0.430909V0.430909Z" fill="#262883"/>
</svg>
