<svg width="2" height="9" viewBox="0 0 2 9" fill="none" xmlns="http://www.w3.org/2000/svg">
<path fill-rule="evenodd" clip-rule="evenodd" d="M1.16672 0.6039C1.16298 0.54405 1.15596 0.4851 1.13958 0.4266C1.10542 0.30375 1.03428 0.1962 0.93366 0.1188C0.833508 0.0414 0.71136 0 0.585 0C0.459108 0 0.336492 0.0414 0.23634 0.1188C0.13572 0.1962 0.064584 0.30375 0.03042 0.4266C0.01404 0.4851 0.00702 0.54405 0.003276 0.6039C0 0.6705 0 0.73665 0 0.8028V0.80415V8.1954V8.19675C0 8.26335 0 8.32905 0.003276 8.39565C0.00702 8.45595 0.01404 8.51445 0.03042 8.5725C0.064584 8.6958 0.13572 8.80335 0.23634 8.88075C0.336492 8.95815 0.459108 9 0.585 9C0.71136 9 0.833508 8.95815 0.93366 8.88075C1.03428 8.80335 1.10542 8.6958 1.13958 8.5725C1.15596 8.51445 1.16298 8.45595 1.16672 8.39565C1.17 8.32905 1.17 8.26335 1.17 8.19675V8.1954V0.80415V0.8028C1.17 0.73665 1.17 0.6705 1.16672 0.6039V0.6039Z" fill="#262883"/>
</svg>
