<svg width="2" height="6" viewBox="0 0 2 6" fill="none" xmlns="http://www.w3.org/2000/svg">
<path fill-rule="evenodd" clip-rule="evenodd" d="M1.28948 0.670999C1.28534 0.604499 1.27758 0.538999 1.25948 0.473999C1.22172 0.3375 1.1431 0.218 1.0319 0.132C0.921206 0.0459999 0.786206 0 0.646551 0C0.507413 0 0.371896 0.0459999 0.261207 0.132C0.15 0.218 0.0713792 0.3375 0.0336206 0.473999C0.0155172 0.538999 0.00775861 0.604499 0.00362069 0.670999C0 0.744999 0 0.818499 0 0.891999V0.893499V5.10599V5.10749C0 5.18099 0 5.25449 0.00362069 5.32849C0.00775861 5.39549 0.0155172 5.46049 0.0336206 5.52549C0.0713792 5.66199 0.15 5.78149 0.261207 5.86749C0.371896 5.95349 0.507413 5.99999 0.646551 5.99999C0.786206 5.99999 0.921206 5.95349 1.0319 5.86749C1.1431 5.78149 1.22172 5.66199 1.25948 5.52549C1.27758 5.46049 1.28534 5.39549 1.28948 5.32849C1.2931 5.25449 1.2931 5.18099 1.2931 5.10749V5.10599V0.893499V0.891999C1.2931 0.818499 1.2931 0.744999 1.28948 0.670999V0.670999Z" fill="#262883"/>
</svg>
