<svg width="2" height="13" viewBox="0 0 2 13" fill="none" xmlns="http://www.w3.org/2000/svg">
<path fill-rule="evenodd" clip-rule="evenodd" d="M1.11755 0.581533C1.11397 0.5239 1.10724 0.467133 1.09155 0.4108C1.05883 0.2925 0.99069 0.188933 0.89431 0.1144C0.798379 0.0398667 0.681379 0 0.560345 0C0.439759 0 0.32231 0.0398667 0.226379 0.1144C0.13 0.188933 0.0618621 0.2925 0.0291379 0.4108C0.0134483 0.467133 0.00672414 0.5239 0.00313793 0.581533C0 0.645667 0 0.709367 0 0.773067V0.774367V12.2252V12.2265C0 12.2906 0 12.3539 0.00313793 12.418C0.00672414 12.4761 0.0134483 12.5324 0.0291379 12.5883C0.0618621 12.7071 0.13 12.8106 0.226379 12.8852C0.32231 12.9597 0.439759 13 0.560345 13C0.681379 13 0.798379 12.9597 0.89431 12.8852C0.99069 12.8106 1.05883 12.7071 1.09155 12.5883C1.10724 12.5324 1.11397 12.4761 1.11755 12.418C1.12069 12.3539 1.12069 12.2906 1.12069 12.2265V12.2252V0.774367V0.773067C1.12069 0.709367 1.12069 0.645667 1.11755 0.581533V0.581533Z" fill="#262883"/>
</svg>
