<svg width="2" height="8" viewBox="0 0 2 8" fill="none" xmlns="http://www.w3.org/2000/svg">
<path fill-rule="evenodd" clip-rule="evenodd" d="M1.15232 0.596444C1.14862 0.537333 1.14169 0.479111 1.12551 0.421333C1.09177 0.3 1.02151 0.193778 0.922133 0.117333C0.823218 0.0408889 0.702578 0 0.577778 0C0.45344 0 0.332338 0.0408889 0.233422 0.117333C0.134044 0.193778 0.0637866 0.3 0.0300444 0.421333C0.0138667 0.479111 0.00693333 0.537333 0.00323555 0.596444C0 0.662222 0 0.727555 0 0.792889V0.794222V7.20533V7.20666C0 7.27244 0 7.33733 0.00323555 7.40311C0.00693333 7.46266 0.0138667 7.52044 0.0300444 7.57777C0.0637866 7.69955 0.134044 7.80578 0.233422 7.88222C0.332338 7.95866 0.45344 8 0.577778 8C0.702578 8 0.823218 7.95866 0.922133 7.88222C1.02151 7.80578 1.09177 7.69955 1.12551 7.57777C1.14169 7.52044 1.14862 7.46266 1.15232 7.40311C1.15556 7.33733 1.15556 7.27244 1.15556 7.20666V7.20533V0.794222V0.792889C1.15556 0.727555 1.15556 0.662222 1.15232 0.596444V0.596444Z" fill="#262883"/>
</svg>
