<svg width="12" height="11" viewBox="0 0 12 11" fill="none" xmlns="http://www.w3.org/2000/svg">
<path d="M9.76473 1.17526C9.47581 0.806593 9.11295 0.510091 8.70229 0.307118C8.29163 0.104145 7.8434 -0.000244909 7.38988 0.00146746C6.6139 -0.0233114 5.85843 0.266499 5.2789 0.81127C4.69937 0.266499 3.9439 -0.0233114 3.16792 0.00146746C2.7144 -0.000244909 2.26617 0.104145 1.85551 0.307118C1.44485 0.510091 1.08199 0.806593 0.793071 1.17526C0.29013 1.81865 -0.236032 2.98355 0.112807 4.88199C0.669578 7.9136 4.84457 10.4015 5.02083 10.5033C5.09941 10.5495 5.18788 10.5738 5.27785 10.5738C5.36781 10.5738 5.45628 10.5495 5.53486 10.5033C5.71218 10.3992 9.88717 7.91138 10.4429 4.88199C10.7938 2.98355 10.2677 1.81865 9.76473 1.17526ZM9.40903 4.6705C9.01533 6.81383 6.1539 8.80745 5.2789 9.37403C4.04609 8.58927 1.50975 6.61903 1.15141 4.6705C0.880676 3.19782 1.25115 2.34238 1.61002 1.88377C1.7998 1.64228 2.0379 1.44808 2.30725 1.3151C2.5766 1.18212 2.87052 1.11365 3.16792 1.1146C3.48557 1.08947 3.80397 1.15159 4.09207 1.29487C4.38018 1.43816 4.62816 1.65774 4.81185 1.93219C4.85714 2.02009 4.92396 2.09358 5.00534 2.14498C5.08673 2.19638 5.17969 2.22383 5.27455 2.22445C5.36941 2.22508 5.46269 2.19886 5.54468 2.14853C5.62666 2.09821 5.69435 2.02561 5.74068 1.93832C5.92401 1.66172 6.17252 1.44029 6.46172 1.29584C6.75092 1.1514 7.07082 1.08893 7.38988 1.1146C7.68791 1.11307 7.98254 1.18126 8.25257 1.31427C8.5226 1.44727 8.7613 1.64178 8.95148 1.88377C9.30929 2.34238 9.67977 3.19782 9.40903 4.6705Z" fill="#FFDB03"/>
<mask id="path-2-outside-1_601_3026" maskUnits="userSpaceOnUse" x="5.83197" y="4.11202" width="6.16803" height="6.16803" fill="black">
<rect fill="white" x="5.83197" y="4.11202" width="6.16803" height="6.16803"/>
<path fill-rule="evenodd" clip-rule="evenodd" d="M9.42999 5.14002C9.14611 5.14002 8.91599 5.37015 8.91599 5.65403V7.19603H7.37398C7.0901 7.19603 6.85998 7.42616 6.85998 7.71004C6.85998 7.99391 7.0901 8.22404 7.37398 8.22404H8.91599V8.73804C8.91599 9.02192 9.14611 9.25204 9.42999 9.25204C9.71386 9.25204 9.94399 9.02192 9.94399 8.73804V8.22404H10.458C10.7419 8.22404 10.972 7.99391 10.972 7.71004C10.972 7.42616 10.7419 7.19603 10.458 7.19603H9.94399V5.65403C9.94399 5.37015 9.71386 5.14002 9.42999 5.14002Z"/>
</mask>
<path fill-rule="evenodd" clip-rule="evenodd" d="M9.42999 5.14002C9.14611 5.14002 8.91599 5.37015 8.91599 5.65403V7.19603H7.37398C7.0901 7.19603 6.85998 7.42616 6.85998 7.71004C6.85998 7.99391 7.0901 8.22404 7.37398 8.22404H8.91599V8.73804C8.91599 9.02192 9.14611 9.25204 9.42999 9.25204C9.71386 9.25204 9.94399 9.02192 9.94399 8.73804V8.22404H10.458C10.7419 8.22404 10.972 7.99391 10.972 7.71004C10.972 7.42616 10.7419 7.19603 10.458 7.19603H9.94399V5.65403C9.94399 5.37015 9.71386 5.14002 9.42999 5.14002Z" fill="#FFDB03"/>
<path d="M8.91599 7.19603V8.22404H9.94399V7.19603H8.91599ZM8.91599 8.22404H9.94399V7.19603H8.91599V8.22404ZM9.94399 8.22404V7.19603H8.91599V8.22404H9.94399ZM9.94399 7.19603H8.91599V8.22404H9.94399V7.19603ZM9.94399 5.65403C9.94399 5.9379 9.71386 6.16803 9.42999 6.16803V4.11202C8.57836 4.11202 7.88798 4.8024 7.88798 5.65403H9.94399ZM9.94399 7.19603V5.65403H7.88798V7.19603H9.94399ZM7.37398 8.22404H8.91599V6.16803H7.37398V8.22404ZM7.88798 7.71004C7.88798 7.99391 7.65785 8.22404 7.37398 8.22404V6.16803C6.52235 6.16803 5.83197 6.85841 5.83197 7.71004H7.88798ZM7.37398 7.19603C7.65785 7.19603 7.88798 7.42616 7.88798 7.71004H5.83197C5.83197 8.56166 6.52235 9.25204 7.37398 9.25204V7.19603ZM8.91599 7.19603H7.37398V9.25204H8.91599V7.19603ZM9.94399 8.73804V8.22404H7.88798V8.73804H9.94399ZM9.42999 8.22404C9.71386 8.22404 9.94399 8.45417 9.94399 8.73804H7.88798C7.88798 9.58967 8.57836 10.28 9.42999 10.28V8.22404ZM8.91599 8.73804C8.91599 8.45417 9.14611 8.22404 9.42999 8.22404V10.28C10.2816 10.28 10.972 9.58967 10.972 8.73804H8.91599ZM8.91599 8.22404V8.73804H10.972V8.22404H8.91599ZM10.458 7.19603H9.94399V9.25204H10.458V7.19603ZM9.94399 7.71004C9.94399 7.42616 10.1741 7.19603 10.458 7.19603V9.25204C11.3096 9.25204 12 8.56166 12 7.71004H9.94399ZM10.458 8.22404C10.1741 8.22404 9.94399 7.99391 9.94399 7.71004H12C12 6.85841 11.3096 6.16803 10.458 6.16803V8.22404ZM9.94399 8.22404H10.458V6.16803H9.94399V8.22404ZM8.91599 5.65403V7.19603H10.972V5.65403H8.91599ZM9.42999 6.16803C9.14611 6.16803 8.91599 5.9379 8.91599 5.65403H10.972C10.972 4.8024 10.2816 4.11202 9.42999 4.11202V6.16803Z" fill="#FAFAFA" mask="url(#path-2-outside-1_601_3026)"/>
</svg>
