<svg width="10" height="6" viewBox="0 0 10 6" fill="none" xmlns="http://www.w3.org/2000/svg">
<path fill-rule="evenodd" clip-rule="evenodd" d="M4.99978 2.05132C4.33478 2.05132 3.79427 2.44478 3.79427 2.92842C3.79427 3.41169 4.33478 3.80479 4.99978 3.80479C5.66479 3.80479 6.20579 3.41169 6.20579 2.92842C6.20579 2.44478 5.66479 2.05132 4.99978 2.05132M4.99978 4.35024C3.92128 4.35024 3.04427 3.71242 3.04427 2.92842C3.04427 2.14405 3.92128 1.50586 4.99978 1.50586C6.07829 1.50586 6.9558 2.14405 6.9558 2.92842C6.9558 3.71242 6.07829 4.35024 4.99978 4.35024" fill="#F2F5F9"/>
<mask id="mask0_818_2587" style="mask-type:alpha" maskUnits="userSpaceOnUse" x="0" y="0" width="10" height="6">
<path fill-rule="evenodd" clip-rule="evenodd" d="M0 0H10V5.85641H0V0Z" fill="white"/>
</mask>
<g mask="url(#mask0_818_2587)">
<path fill-rule="evenodd" clip-rule="evenodd" d="M0.784989 2.92814C1.715 4.42233 3.28151 5.3107 5.00002 5.31106C6.71854 5.3107 8.28505 4.42233 9.21506 2.92814C8.28505 1.43431 6.71854 0.545937 5.00002 0.545573C3.28201 0.545937 1.715 1.43431 0.784989 2.92814V2.92814ZM5.00091 5.85654H4.99891H4.99841C2.9304 5.85545 1.07338 4.80126 0.0303752 3.0358C-0.0101251 2.96707 -0.0101251 2.88925 0.0303752 2.82052C1.07338 1.05542 2.9309 0.00122632 4.99841 0.000135399C4.99941 -0.00022824 4.99941 -0.00022824 4.99991 0.000135399C5.00091 -0.00022824 5.00091 -0.00022824 5.00141 0.000135399C7.06943 0.00122632 8.92644 1.05542 9.96945 2.82052C10.0105 2.88925 10.0105 2.96707 9.96945 3.0358C8.92694 4.80126 7.06943 5.85545 5.00141 5.85654H5.00091Z" fill="#F2F5F9"/>
</g>
</svg>
