<svg width="2" height="2" viewBox="0 0 2 2" fill="none" xmlns="http://www.w3.org/2000/svg">
<path fill-rule="evenodd" clip-rule="evenodd" d="M1.6848 0.631999C1.63418 0.449999 1.5288 0.290666 1.37973 0.176C1.23136 0.0613332 1.0504 0 0.863199 0C0.676693 0 0.495039 0.0613332 0.346666 0.176C0.1976 0.290666 0.0922132 0.449999 0.0416 0.631999C0.0173333 0.718666 0.00693333 0.805999 0.00138667 0.894665C-0.000693333 0.929999 0.000693333 0.964665 0 0.999999C0.000693333 1.03467 -0.000693333 1.07 0.00138667 1.10467C0.00693333 1.194 0.0173333 1.28066 0.0416 1.36733C0.0922132 1.54933 0.1976 1.70866 0.346666 1.82333C0.495039 1.938 0.676693 2 0.863199 2C1.0504 2 1.23136 1.938 1.37973 1.82333C1.5288 1.70866 1.63418 1.54933 1.6848 1.36733C1.70906 1.28066 1.71946 1.194 1.72501 1.10467C1.72709 1.07 1.7257 1.03467 1.7264 0.999999C1.7257 0.964665 1.72709 0.929999 1.72501 0.894665C1.71946 0.805999 1.70906 0.718666 1.6848 0.631999V0.631999Z" fill="#262883"/>
</svg>
