<svg width="13" height="26" viewBox="0 0 13 26" fill="none" xmlns="http://www.w3.org/2000/svg">
<path d="M11.2206 5.90906V19.4999C11.2206 22.1117 9.10642 24.2272 6.49615 24.2272C3.88588 24.2272 1.77168 22.1117 1.77168 19.4999V4.72725C1.77168 3.09635 3.09453 1.77272 4.72447 1.77272C6.35441 1.77272 7.67727 3.09635 7.67727 4.72725V17.1363C7.67727 17.7863 7.14576 18.3181 6.49615 18.3181C5.84653 18.3181 5.31503 17.7863 5.31503 17.1363V5.90906H3.54335V17.1363C3.54335 18.7672 4.86621 20.0908 6.49615 20.0908C8.12609 20.0908 9.44894 18.7672 9.44894 17.1363V4.72725C9.44894 2.11545 7.33474 0 4.72447 0C2.1142 0 0 2.11545 0 4.72725V19.4999C0 23.0926 2.90555 25.9999 6.49615 25.9999C10.0867 25.9999 12.9923 23.0926 12.9923 19.4999V5.90906H11.2206Z" fill="#F2F5F9" fill-opacity="0.15"/>
</svg>
