<svg width="2" height="1" viewBox="0 0 2 1" fill="none" xmlns="http://www.w3.org/2000/svg">
<path fill-rule="evenodd" clip-rule="evenodd" d="M1.00724 0.131999C0.895956 0.0459998 0.760237 0 0.619837 0C0.479438 0 0.343719 0.0459998 0.232439 0.131999C0.120119 0.217999 0.0415998 0.337499 0.00311999 0.473998C0.00155999 0.482498 0.00207999 0.491498 0 0.499998C0.00207999 0.508498 0.00155999 0.516998 0.00311999 0.525498C0.0415998 0.661997 0.120119 0.781497 0.232439 0.867496C0.343719 0.953496 0.479438 0.999996 0.619837 0.999996C0.760237 0.999996 0.895956 0.953496 1.00724 0.867496C1.11956 0.781497 1.19807 0.661997 1.23655 0.525498C1.23811 0.516998 1.23759 0.508498 1.23967 0.499998C1.23759 0.491498 1.23811 0.482498 1.23655 0.473998C1.19807 0.337499 1.11956 0.217999 1.00724 0.131999V0.131999Z" fill="#262883"/>
</svg>
