<svg width="9" height="11" viewBox="0 0 9 11" fill="none" xmlns="http://www.w3.org/2000/svg">
<path d="M0.257494 10.9373C0.335586 10.9805 0.423837 11.0021 0.51308 10.9997C0.602322 10.9973 0.689302 10.9711 0.764983 10.9238L4.4999 8.58931L8.23482 10.9238C8.3105 10.9711 8.39747 10.9972 8.48669 10.9996C8.57591 11.0019 8.66413 10.9803 8.74219 10.9371C8.82025 10.8938 8.88531 10.8304 8.93061 10.7535C8.97591 10.6766 8.9998 10.589 8.9998 10.4998V1.49997C8.9998 1.10215 8.84177 0.720628 8.56047 0.43933C8.27917 0.158032 7.89765 0 7.49983 0H1.49997C1.10215 0 0.720629 0.158032 0.43933 0.43933C0.158032 0.720628 5.90135e-08 1.10215 5.90135e-08 1.49997V10.4998C-4.33065e-05 10.589 0.0238141 10.6767 0.0690946 10.7536C0.114375 10.8306 0.179427 10.894 0.257494 10.9373V10.9373ZM0.999978 1.49997C0.999978 1.36736 1.05266 1.24019 1.14642 1.14642C1.24019 1.05266 1.36736 0.999978 1.49997 0.999978H7.49983C7.63244 0.999978 7.75961 1.05266 7.85338 1.14642C7.94715 1.24019 7.99982 1.36736 7.99982 1.49997V9.59979L4.76489 7.57783C4.68543 7.52817 4.59361 7.50183 4.4999 7.50183C4.40619 7.50183 4.31437 7.52817 4.23491 7.57783L0.999978 9.59979V1.49997Z" fill="#FFDB03"/>
</svg>
