<svg width="24" height="25" viewBox="0 0 24 25" fill="none" xmlns="http://www.w3.org/2000/svg">
<path d="M7.98525 12.2063L9.36495 13.2406L8.83742 14.9216C8.67794 15.4296 8.84398 15.9607 9.26031 16.2746C9.46824 16.4313 9.7064 16.5097 9.94462 16.5097C10.1834 16.5097 10.4221 16.431 10.6303 16.2734L12.0073 15.2317L13.3768 16.2653C13.7931 16.5795 14.331 16.5792 14.7472 16.2644C15.1632 15.9497 15.3284 15.4181 15.168 14.9103L14.6405 13.2409L16.0167 12.2048C16.433 11.8914 16.5994 11.3606 16.4408 10.8528C16.2821 10.3449 15.8473 10.0168 15.3332 10.0168H13.6253L13.102 8.34064C12.9432 7.83248 12.5086 7.50439 11.9943 7.50439C11.9938 7.50439 11.9932 7.50439 11.9928 7.50439C11.4779 7.505 11.0433 7.83431 10.8856 8.34338L10.3675 10.0168H8.66687C8.15211 10.0168 7.71721 10.3454 7.5589 10.854C7.40048 11.3626 7.56793 11.8934 7.98525 12.2063V12.2063ZM10.7945 11.2335C11.049 11.2335 11.2743 11.0629 11.3523 10.8114L11.9942 8.7382L12.6419 10.8128C12.7202 11.0636 12.9453 11.2335 13.1993 11.2335H15.3106L13.6066 12.5164C13.4004 12.6716 13.3145 12.9473 13.3938 13.1985L14.0474 15.2673L12.3513 13.9872C12.1457 13.832 11.8673 13.8323 11.6618 13.9876L9.95851 15.2763L10.6115 13.1956C10.6904 12.9442 10.6039 12.6686 10.3974 12.5138L8.68948 11.2335H10.7945Z" fill="#F2F5F9" fill-opacity="0.1"/>
<path d="M7.98525 12.7067L9.36495 13.741L8.83742 15.422C8.67794 15.93 8.84398 16.4611 9.26031 16.775C9.46824 16.9318 9.7064 17.0101 9.94462 17.0101C10.1834 17.0101 10.4221 16.9314 10.6303 16.7738L12.0073 15.7321L13.3768 16.7657C13.7931 17.0799 14.331 17.0796 14.7472 16.7648C15.1632 16.4501 15.3284 15.9186 15.168 15.4107L14.6405 13.7414L16.0167 12.7053C16.433 12.3918 16.5994 11.8611 16.4408 11.3533C16.2821 10.8454 15.8473 10.5173 15.3332 10.5173H13.6253L13.102 8.84112C12.9432 8.33297 12.5086 8.00488 11.9943 8.00488C11.9938 8.00488 11.9932 8.00488 11.9928 8.00488C11.4779 8.00549 11.0433 8.33479 10.8856 8.84386L10.3675 10.5173H8.66687C8.15211 10.5173 7.71721 10.8459 7.5589 11.3545C7.40048 11.863 7.56793 12.3938 7.98525 12.7067V12.7067ZM10.7945 11.734C11.049 11.734 11.2743 11.5634 11.3523 11.3118L11.9942 9.23868L12.6419 11.3132C12.7202 11.5641 12.9453 11.734 13.1993 11.734H15.3106L13.6066 13.0169C13.4004 13.172 13.3145 13.4477 13.3938 13.699L14.0474 15.7677L12.3513 14.4877C12.1457 14.3325 11.8673 14.3327 11.6618 14.4881L9.95851 15.7767L10.6115 13.696C10.6904 13.4446 10.6039 13.1691 10.3974 13.0143L8.68948 11.734H10.7945Z" fill="#F2F5F9" fill-opacity="0.1"/>
<path fill-rule="evenodd" clip-rule="evenodd" d="M12 22.5371C17.8121 22.5371 22.5238 17.8226 22.5238 12.0071C22.5238 6.19151 17.8121 1.47706 12 1.47706C6.18786 1.47706 1.47619 6.19151 1.47619 12.0071C1.47619 17.8226 6.18786 22.5371 12 22.5371ZM12 24.0142C18.6274 24.0142 24 18.6384 24 12.0071C24 5.37575 18.6274 0 12 0C5.37258 0 0 5.37575 0 12.0071C0 18.6384 5.37258 24.0142 12 24.0142Z" fill="#F2F5F9" fill-opacity="0.1"/>
<path fill-rule="evenodd" clip-rule="evenodd" d="M12.0001 19.189C15.9642 19.189 19.1778 15.9735 19.1778 12.007C19.1778 8.04045 15.9642 4.82495 12.0001 4.82495C8.03588 4.82495 4.82228 8.04045 4.82228 12.007C4.82228 15.9735 8.03588 19.189 12.0001 19.189ZM12.0001 20.512C16.6945 20.512 20.5001 16.7041 20.5001 12.007C20.5001 7.30977 16.6945 3.50195 12.0001 3.50195C7.30564 3.50195 3.50006 7.30977 3.50006 12.007C3.50006 16.7041 7.30564 20.512 12.0001 20.512Z" fill="#F2F5F9" fill-opacity="0.1"/>
</svg>
