<svg width="2" height="9" viewBox="0 0 2 9" fill="none" xmlns="http://www.w3.org/2000/svg">
<path fill-rule="evenodd" clip-rule="evenodd" d="M1.07956 0.406286C1.04719 0.289286 0.979804 0.186857 0.884484 0.113143C0.789607 0.0394286 0.673892 0 0.554188 0C0.434927 0 0.318769 0.0394286 0.223892 0.113143C0.128572 0.186857 0.0611823 0.289286 0.0288178 0.406286C0.0133005 0.462001 0.00665025 0.518143 0.00310345 0.575144C0 0.638572 0 0.701572 0 0.764572V8.23501C0 8.29844 0 8.36101 0.00310345 8.42444C0.00665025 8.48187 0.0133005 8.53758 0.0288178 8.59287C0.0611823 8.7103 0.128572 8.81273 0.223892 8.88644C0.318769 8.96015 0.434927 9.00001 0.554188 9.00001C0.673892 9.00001 0.789607 8.96015 0.884484 8.88644C0.979804 8.81273 1.04719 8.7103 1.07956 8.59287C1.09508 8.53758 1.10173 8.48187 1.10527 8.42444C1.10838 8.36101 1.10838 8.29844 1.10838 8.23501V0.764572C1.10838 0.701572 1.10838 0.638572 1.10527 0.575144C1.10173 0.518143 1.09508 0.462001 1.07956 0.406286V0.406286Z" fill="#262883"/>
</svg>
