<svg width="2" height="12" viewBox="0 0 2 12" fill="none" xmlns="http://www.w3.org/2000/svg">
<path fill-rule="evenodd" clip-rule="evenodd" d="M1.10527 0.575143C1.10172 0.518143 1.09507 0.462 1.07956 0.406286C1.04719 0.289286 0.979803 0.186857 0.884482 0.113143C0.789606 0.0394285 0.673891 0 0.554187 0C0.434926 0 0.318768 0.0394285 0.223892 0.113143C0.128571 0.186857 0.0611822 0.289286 0.0288177 0.406286C0.0133005 0.462 0.00665024 0.518143 0.00310345 0.575143C0 0.638571 0 0.701571 0 0.764571V0.765857V11.2337V11.235C0 11.2984 0 11.361 0.00310345 11.4244C0.00665024 11.4819 0.0133005 11.5376 0.0288177 11.5929C0.0611822 11.7103 0.128571 11.8127 0.223892 11.8864C0.318768 11.9601 0.434926 12 0.554187 12C0.673891 12 0.789606 11.9601 0.884482 11.8864C0.979803 11.8127 1.04719 11.7103 1.07956 11.5929C1.09507 11.5376 1.10172 11.4819 1.10527 11.4244C1.10837 11.361 1.10837 11.2984 1.10837 11.235V11.2337V0.765857V0.764571C1.10837 0.701571 1.10837 0.638571 1.10527 0.575143V0.575143Z" fill="#262883"/>
</svg>
