<svg width="19" height="25" viewBox="0 0 19 25" fill="none" xmlns="http://www.w3.org/2000/svg">
<path d="M17.1156 8.86065L10.6254 20.7692C9.37815 23.0578 6.51543 23.9006 4.22826 22.6526C1.94108 21.4046 1.09879 18.5402 2.34603 16.2517L9.40059 3.30755C10.1794 1.87852 11.9706 1.35118 13.3988 2.13047C14.827 2.90975 15.354 4.702 14.5752 6.13103L8.64936 17.0041C8.33896 17.5736 7.61929 17.7855 7.05008 17.4749C6.48087 17.1643 6.26912 16.4442 6.57952 15.8747L11.941 6.03717L10.3886 5.19012L5.02714 15.0277C4.24832 16.4567 4.77534 18.2489 6.20353 19.0282C7.63172 19.8075 9.42292 19.2802 10.2017 17.8511L16.1276 6.97808C17.3748 4.68956 16.5325 1.82515 14.2453 0.577172C11.9582 -0.670808 9.09545 0.171982 7.84821 2.4605L0.79365 15.4046C-0.922018 18.5526 0.23555 22.4892 3.38171 24.2059C6.52787 25.9225 10.4621 24.7643 12.1778 21.6163L18.668 9.7077L17.1156 8.86065Z" fill="#F2F5F9" fill-opacity="0.15"/>
</svg>
