<svg width="18" height="25" viewBox="0 0 18 25" fill="none" xmlns="http://www.w3.org/2000/svg">
<path d="M11.3833 3.73685L15.9347 16.7168C16.8093 19.2113 15.4986 21.9405 13.0057 22.8157C10.5127 23.6908 7.7851 22.3793 6.91043 19.8849L1.96323 5.77623C1.41706 4.21863 2.23719 2.51096 3.79387 1.96447C5.35055 1.41797 7.05722 2.23858 7.60339 3.79618L11.759 15.6475C11.9767 16.2683 11.6472 16.9544 11.0268 17.1722C10.4064 17.39 9.72065 17.0603 9.50298 16.4395L5.7431 5.7169L4.05106 6.31091L7.81093 17.0335C8.3571 18.5911 10.0638 19.4117 11.6204 18.8652C13.1771 18.3187 13.9973 16.6111 13.4511 15.0535L9.29544 3.20217C8.42077 0.707751 5.69316 -0.603757 3.20021 0.271424C0.707257 1.1466 -0.60348 3.87583 0.271186 6.37024L5.21839 20.4789C6.42155 23.9102 10.1701 25.7126 13.5993 24.5087C17.0285 23.3048 18.8299 19.5541 17.6267 16.1228L13.0753 3.14283L11.3833 3.73685Z" fill="#F2F5F9" fill-opacity="0.15"/>
</svg>
