<svg width="2" height="13" viewBox="0 0 2 13" fill="none" xmlns="http://www.w3.org/2000/svg">
<path fill-rule="evenodd" clip-rule="evenodd" d="M1.15609 0.601586C1.15238 0.541965 1.14542 0.483241 1.12919 0.424965C1.09534 0.302586 1.02485 0.195448 0.925148 0.118345C0.825909 0.0412414 0.704875 0 0.579667 0C0.454923 0 0.333424 0.0412414 0.234185 0.118345C0.134483 0.195448 0.0639952 0.302586 0.0301427 0.424965C0.013912 0.483241 0.006956 0.541965 0.00324613 0.601586C0 0.667931 0 0.733827 0 0.799724V0.801069V12.1985V12.1998C0 12.2662 0 12.3316 0.00324613 12.398C0.006956 12.458 0.013912 12.5163 0.0301427 12.5741C0.0639952 12.697 0.134483 12.8041 0.234185 12.8812C0.333424 12.9583 0.454923 13 0.579667 13C0.704875 13 0.825909 12.9583 0.925148 12.8812C1.02485 12.8041 1.09534 12.697 1.12919 12.5741C1.14542 12.5163 1.15238 12.458 1.15609 12.398C1.15933 12.3316 1.15933 12.2662 1.15933 12.1998V12.1985V0.801069V0.799724C1.15933 0.733827 1.15933 0.667931 1.15609 0.601586V0.601586Z" fill="#262883"/>
</svg>
