<svg width="22" height="22" viewBox="0 0 22 22" fill="none" xmlns="http://www.w3.org/2000/svg">
<path fill-rule="evenodd" clip-rule="evenodd" d="M5.863 0H16.126C19.866 0 22 2.112 22 5.863V16.137C22 19.866 19.877 22 16.137 22H5.863C2.112 22 0 19.866 0 16.137V5.863C0 2.112 2.112 0 5.863 0ZM11.902 11.913H15.026C15.532 11.902 15.939 11.495 15.939 10.989C15.939 10.483 15.532 10.076 15.026 10.076H11.902V6.97401C11.902 6.46801 11.495 6.06101 10.989 6.06101C10.483 6.06101 10.076 6.46801 10.076 6.97401V10.076H6.963C6.721 10.076 6.49 10.175 6.314 10.34C6.149 10.516 6.05 10.7459 6.05 10.989C6.05 11.495 6.457 11.902 6.963 11.913H10.076V15.026C10.076 15.532 10.483 15.939 10.989 15.939C11.495 15.939 11.902 15.532 11.902 15.026V11.913Z" fill="#FDE74C"/>
</svg>
