<svg width="10" height="6" viewBox="0 0 10 6" fill="none" xmlns="http://www.w3.org/2000/svg">
<path fill-rule="evenodd" clip-rule="evenodd" d="M4.99978 2.05131C4.33478 2.05131 3.79427 2.44477 3.79427 2.92841C3.79427 3.41169 4.33478 3.80478 4.99978 3.80478C5.66479 3.80478 6.20579 3.41169 6.20579 2.92841C6.20579 2.44477 5.66479 2.05131 4.99978 2.05131M4.99978 4.35024C3.92128 4.35024 3.04427 3.71242 3.04427 2.92841C3.04427 2.14404 3.92128 1.50585 4.99978 1.50585C6.07829 1.50585 6.9558 2.14404 6.9558 2.92841C6.9558 3.71242 6.07829 4.35024 4.99978 4.35024" fill="#F2F5F9"/>
<mask id="mask0_818_2631" style="mask-type:alpha" maskUnits="userSpaceOnUse" x="0" y="0" width="10" height="6">
<path fill-rule="evenodd" clip-rule="evenodd" d="M0 0H10V5.85641H0V0Z" fill="white"/>
</mask>
<g mask="url(#mask0_818_2631)">
<path fill-rule="evenodd" clip-rule="evenodd" d="M0.784989 2.92814C1.715 4.42234 3.28151 5.31071 5.00002 5.31107C6.71854 5.31071 8.28505 4.42234 9.21506 2.92814C8.28505 1.43431 6.71854 0.545941 5.00002 0.545578C3.28201 0.545941 1.715 1.43431 0.784989 2.92814V2.92814ZM5.00091 5.85655H4.99891H4.99841C2.9304 5.85546 1.07338 4.80127 0.0303752 3.0358C-0.0101251 2.96707 -0.0101251 2.88925 0.0303752 2.82053C1.07338 1.05542 2.9309 0.00123048 4.99841 0.000139561C4.99941 -0.000224078 4.99941 -0.000224078 4.99991 0.000139561C5.00091 -0.000224078 5.00091 -0.000224078 5.00141 0.000139561C7.06943 0.00123048 8.92644 1.05542 9.96945 2.82053C10.0105 2.88925 10.0105 2.96707 9.96945 3.0358C8.92694 4.80127 7.06943 5.85546 5.00141 5.85655H5.00091Z" fill="#F2F5F9"/>
</g>
</svg>
