<svg width="2" height="3" viewBox="0 0 2 3" fill="none" xmlns="http://www.w3.org/2000/svg">
<path fill-rule="evenodd" clip-rule="evenodd" d="M1.51139 0.568803C1.46608 0.405002 1.37173 0.261601 1.23828 0.158401C1.10545 0.0552002 0.943453 0 0.775866 0C0.608899 0 0.446278 0.0552002 0.31345 0.158401C0.180001 0.261601 0.0856556 0.405002 0.040345 0.568803C0.0186208 0.646803 0.00931039 0.725403 0.00434485 0.805204C0 0.894004 0 0.982205 0 1.0704V1.92901C0 2.01721 0 2.10541 0.00434485 2.19421C0.00931039 2.27461 0.0186208 2.35261 0.040345 2.43061C0.0856556 2.59441 0.180001 2.73781 0.31345 2.84101C0.446278 2.94421 0.608899 3.00001 0.775866 3.00001C0.943453 3.00001 1.10545 2.94421 1.23828 2.84101C1.37173 2.73781 1.46608 2.59441 1.51139 2.43061C1.53311 2.35261 1.54242 2.27461 1.54739 2.19421C1.55173 2.10541 1.55173 2.01721 1.55173 1.92901V1.0704C1.55173 0.982205 1.55173 0.894004 1.54739 0.805204C1.54242 0.725403 1.53311 0.646803 1.51139 0.568803V0.568803Z" fill="#262883"/>
</svg>
