<svg width="2" height="3" viewBox="0 0 2 3" fill="none" xmlns="http://www.w3.org/2000/svg">
<path fill-rule="evenodd" clip-rule="evenodd" d="M1.29636 0.670999C1.2922 0.604499 1.2844 0.538999 1.2662 0.473999C1.22824 0.3375 1.1492 0.218 1.0374 0.132C0.926119 0.0459999 0.790399 0 0.649999 0C0.510119 0 0.37388 0.0459999 0.2626 0.132C0.1508 0.218 0.0717599 0.3375 0.0338 0.473999C0.0156 0.538999 0.00779999 0.604499 0.00364 0.670999C0 0.744999 0 0.818499 0 0.891999V0.893499V2.106V2.1075C0 2.181 0 2.2545 0.00364 2.3285C0.00779999 2.3955 0.0156 2.4605 0.0338 2.5255C0.0717599 2.662 0.1508 2.7815 0.2626 2.8675C0.37388 2.9535 0.510119 3 0.649999 3C0.790399 3 0.926119 2.9535 1.0374 2.8675C1.1492 2.7815 1.22824 2.662 1.2662 2.5255C1.2844 2.4605 1.2922 2.3955 1.29636 2.3285C1.3 2.2545 1.3 2.181 1.3 2.1075V2.106V0.893499V0.891999C1.3 0.818499 1.3 0.744999 1.29636 0.670999V0.670999Z" fill="#262883"/>
</svg>
