<svg width="145" height="260" viewBox="0 0 145 260" fill="none" xmlns="http://www.w3.org/2000/svg">
<path d="M102.955 113.753C102.955 113.753 100.432 118.446 100.062 119.102C99.6916 119.758 98.3374 123.308 98.7411 124.149C99.1449 124.99 99.5318 125.469 100.331 125.604C101.13 125.738 101.786 127.193 103.106 127.454C103.938 127.619 104.782 127.709 105.63 127.723C105.837 127.876 106.077 127.979 106.331 128.024C106.585 128.069 106.845 128.056 107.093 127.984C107.884 127.723 108.548 127.328 109.078 125.074C109.402 123.958 109.49 122.786 109.339 121.634L109.103 117.084L102.955 113.753Z" fill="white"/>
<path d="M106.622 128.472C106.222 128.467 105.832 128.35 105.495 128.136C104.664 128.113 103.837 128.02 103.022 127.858C102.266 127.652 101.59 127.224 101.079 126.63C100.852 126.359 100.564 126.146 100.238 126.008C99.8058 125.911 99.4052 125.706 99.074 125.412C98.7429 125.117 98.4923 124.744 98.3457 124.326C97.799 123.241 99.3887 119.38 99.683 118.892C100.07 118.245 102.543 113.602 102.568 113.551C102.623 113.454 102.713 113.382 102.82 113.35C102.923 113.308 103.037 113.308 103.14 113.35L109.28 116.672C109.343 116.708 109.395 116.759 109.434 116.821C109.472 116.882 109.494 116.953 109.498 117.025L109.734 121.567C109.888 122.759 109.793 123.971 109.456 125.125C108.935 127.37 108.254 127.993 107.194 128.346C107.011 128.418 106.818 128.46 106.622 128.472ZM103.131 114.325C102.526 115.452 100.76 118.758 100.423 119.321C99.9606 120.087 98.8504 123.426 99.1111 123.947C99.5316 124.788 99.8513 125.091 100.398 125.183C100.896 125.331 101.338 125.624 101.668 126.025C102.065 126.503 102.595 126.854 103.19 127.034C103.992 127.189 104.805 127.276 105.621 127.295C105.719 127.295 105.813 127.327 105.89 127.387C106.041 127.497 106.215 127.571 106.398 127.604C106.581 127.638 106.77 127.63 106.95 127.581C107.53 127.387 108.136 127.185 108.632 124.973C108.937 123.914 109.026 122.804 108.893 121.71L108.666 117.336L103.131 114.325Z" fill="#0E106C"/>
<path d="M117.539 240.124C117.539 240.124 113.948 245.97 113.948 247.383C113.948 248.796 118.893 251.395 121.013 252.337C123.132 253.279 126.9 254.019 129.962 254.456C133.023 254.894 139.382 256.138 137.531 253.75C135.681 251.361 124.31 245.07 123.839 244.321C123.255 243.622 122.601 242.985 121.887 242.421L117.539 240.124Z" fill="white"/>
<path d="M136.001 255.583C134.206 255.51 132.418 255.311 130.651 254.986L129.895 254.868C125.622 254.212 122.577 253.489 120.845 252.715C120.542 252.581 113.527 249.443 113.527 247.383C113.527 245.894 116.807 240.511 117.177 239.897C117.235 239.808 117.323 239.743 117.426 239.715C117.528 239.687 117.638 239.698 117.733 239.746L122.081 242.05C122.861 242.647 123.57 243.333 124.192 244.094C124.394 244.33 126.244 245.49 128.036 246.617C131.854 248.998 136.598 251.967 137.826 253.497C138.272 254.052 138.381 254.532 138.145 254.927C137.91 255.323 137.17 255.583 136.001 255.583ZM117.665 240.679C116.303 242.933 114.343 246.491 114.343 247.408C114.343 248.325 117.943 250.545 121.156 251.975C122.838 252.715 125.798 253.413 130.004 254.061L130.752 254.179C132.3 254.423 137.01 255.171 137.397 254.515C137.397 254.515 137.397 254.347 137.145 254.036C136.009 252.614 131.131 249.561 127.565 247.307C124.697 245.516 123.671 244.86 123.46 244.548C122.902 243.882 122.277 243.276 121.593 242.74L117.665 240.679Z" fill="#0E106C"/>
<path d="M123.166 249.334L124.428 251.218C125.784 253.277 127.627 254.97 129.794 256.147C133.158 257.964 138.339 260.041 142.864 258.796C150.282 256.752 131.61 245.49 131.61 245.49C131.61 245.49 124.957 250.116 123.166 249.334Z" fill="white"/>
<path d="M139.92 259.595C136.186 259.595 132.35 258.031 129.592 256.517C127.368 255.31 125.474 253.578 124.074 251.47L122.813 249.578C122.76 249.506 122.732 249.419 122.732 249.33C122.732 249.241 122.76 249.154 122.813 249.082C122.872 249.012 122.952 248.962 123.041 248.941C123.131 248.92 123.224 248.928 123.309 248.964C124.394 249.435 128.658 247.021 131.341 245.162C131.408 245.117 131.487 245.092 131.568 245.092C131.649 245.092 131.728 245.117 131.795 245.162C133.2 246.003 145.513 253.573 144.983 257.408C144.866 258.25 144.142 258.889 142.948 259.225C141.96 259.484 140.941 259.608 139.92 259.595V259.595ZM123.99 249.805L124.772 250.991C126.095 252.987 127.885 254.63 129.987 255.777C133.419 257.627 138.398 259.587 142.755 258.392C144.067 258.022 144.151 257.45 144.176 257.265C144.554 254.515 135.454 248.333 131.619 245.995C130.281 246.887 126.261 249.536 123.99 249.805Z" fill="#0E106C"/>
<path d="M125.302 250.226C127.346 253.317 130.442 255.561 134.016 256.542C140.114 258.283 141.863 257.846 143.167 256.105" fill="white"/>
<path d="M139.836 258.073C137.819 257.959 135.825 257.58 133.906 256.946C130.22 255.951 127.029 253.633 124.941 250.436C124.912 250.389 124.894 250.337 124.886 250.282C124.878 250.227 124.881 250.172 124.895 250.118C124.909 250.065 124.934 250.015 124.968 249.971C125.002 249.928 125.044 249.891 125.092 249.864C125.189 249.809 125.305 249.794 125.413 249.822C125.522 249.85 125.615 249.92 125.672 250.016C127.672 253.001 130.673 255.173 134.134 256.139C140.08 257.821 141.703 257.4 142.83 255.853C142.899 255.765 142.998 255.708 143.108 255.692C143.217 255.677 143.329 255.704 143.419 255.769C143.508 255.836 143.567 255.935 143.583 256.046C143.599 256.156 143.57 256.268 143.503 256.358C143.091 256.935 142.537 257.396 141.895 257.697C141.252 257.997 140.543 258.127 139.836 258.073V258.073Z" fill="#0E106C"/>
<path d="M114.41 246.306C114.41 246.306 121.139 251.126 124.428 251.218Z" fill="white"/>
<path d="M124.394 251.639C121.029 251.546 114.427 246.845 114.15 246.651C114.061 246.584 114.002 246.485 113.984 246.375C113.967 246.266 113.993 246.153 114.057 246.062C114.088 246.017 114.128 245.979 114.174 245.949C114.22 245.919 114.272 245.899 114.326 245.89C114.38 245.88 114.435 245.882 114.489 245.894C114.542 245.907 114.593 245.929 114.637 245.961C114.705 246.012 121.307 250.714 124.419 250.798C124.531 250.802 124.637 250.85 124.714 250.932C124.792 251.014 124.833 251.123 124.831 251.235C124.829 251.29 124.816 251.345 124.793 251.395C124.77 251.445 124.737 251.49 124.696 251.528C124.656 251.565 124.608 251.594 124.556 251.613C124.504 251.632 124.449 251.641 124.394 251.639V251.639Z" fill="#0E106C"/>
<path d="M99.8009 115.368C99.8009 115.368 105.773 125.267 107.051 127.564C108.329 129.86 124.444 148.288 130.837 164.15C137.229 180.013 143.377 194.328 143.116 198.937C142.855 203.546 121.871 242.421 121.871 242.421L117.522 240.124C117.522 240.124 124.167 203.538 123.41 199.702C122.653 195.867 99.1617 157.75 99.1617 157.75C99.1617 157.75 88.1604 150.079 83.5598 141.122" fill="#0E106C"/>
<path d="M100.65 140.104C100.65 140.104 97.3281 147.261 97.3281 148.287C97.3281 149.314 116 204.311 121.374 216.843C124.776 224.871 127.763 233.068 130.323 241.403C130.323 241.403 132.376 243.926 130.836 246.516C129.297 249.107 123.166 250.865 121.887 248.56C120.609 246.256 108.069 234.262 102.703 222.218C97.3365 210.174 89.6575 189.727 85.3007 182.057C79.5616 172.235 74.438 162.066 69.9596 151.61C64.3244 138.312 58.5294 123.896 58.5294 123.896C66.1245 124.531 73.7705 123.674 81.0365 121.373C92.8116 117.538 97.858 110.195 97.858 110.195C97.858 110.195 100.852 117.849 101.618 119.329" fill="#0E106C"/>
<path d="M102.408 161.703C102.35 161.702 102.293 161.684 102.246 161.651C102.198 161.618 102.161 161.572 102.139 161.518L96.2515 146.21C96.2312 146.153 96.2284 146.092 96.2434 146.033C96.2584 145.975 96.2905 145.922 96.3356 145.882L102.93 140.23C102.986 140.178 103.059 140.149 103.136 140.149C103.212 140.149 103.286 140.178 103.342 140.23C103.393 140.285 103.422 140.357 103.422 140.432C103.422 140.507 103.393 140.579 103.342 140.634L96.8991 146.16L102.711 161.299C102.739 161.37 102.738 161.45 102.708 161.521C102.678 161.591 102.622 161.648 102.551 161.677L102.408 161.703Z" fill="white"/>
<path d="M96.5123 146.387C96.4405 146.388 96.3711 146.361 96.3189 146.311C96.2897 146.284 96.2665 146.252 96.2506 146.216C96.2346 146.18 96.2264 146.14 96.2263 146.101C96.2263 146.059 96.2263 141.441 94.1573 138.531C93.6442 137.783 93.2321 137.194 92.8873 136.715C91.8107 135.184 91.4827 134.721 91.2893 133.956C91.1559 133.061 91.1559 132.151 91.2893 131.256C91.3036 131.182 91.3452 131.115 91.4059 131.07C91.4666 131.025 91.542 131.004 91.6173 131.012C91.655 131.017 91.6913 131.03 91.7241 131.049C91.7569 131.069 91.7855 131.094 91.8082 131.125C91.8309 131.155 91.8473 131.19 91.8564 131.227C91.8655 131.264 91.8671 131.303 91.8612 131.34C91.7425 132.163 91.7425 132.998 91.8612 133.821C92.0294 134.477 92.3153 134.881 93.3751 136.387C93.7115 136.866 94.1321 137.455 94.6451 138.203C96.5123 140.886 96.773 144.738 96.8151 145.84L108.767 145.378C108.843 145.377 108.916 145.406 108.972 145.457C109.029 145.509 109.063 145.579 109.07 145.655C109.072 145.693 109.066 145.731 109.053 145.767C109.041 145.802 109.02 145.835 108.994 145.862C108.968 145.89 108.937 145.912 108.902 145.927C108.867 145.942 108.83 145.95 108.792 145.95L96.546 146.421L96.5123 146.387Z" fill="white"/>
<path d="M136.564 200.838C131.24 200.838 124.478 197.39 124.175 197.238C124.108 197.203 124.058 197.142 124.036 197.069C124.014 196.997 124.022 196.918 124.057 196.852C124.074 196.818 124.098 196.788 124.127 196.763C124.155 196.738 124.189 196.719 124.225 196.708C124.261 196.696 124.299 196.691 124.336 196.694C124.374 196.698 124.411 196.708 124.444 196.725C124.52 196.767 132.207 200.687 137.473 200.224C137.511 200.221 137.549 200.225 137.586 200.237C137.622 200.249 137.656 200.268 137.685 200.293C137.714 200.318 137.738 200.349 137.755 200.383C137.772 200.418 137.782 200.455 137.784 200.493C137.787 200.531 137.783 200.569 137.772 200.605C137.761 200.641 137.742 200.674 137.718 200.703C137.694 200.732 137.664 200.756 137.631 200.773C137.597 200.791 137.561 200.801 137.523 200.805C137.212 200.83 136.892 200.838 136.564 200.838Z" fill="white"/>
<path d="M135.849 205.279H135.782C131.064 204.093 125.765 199.753 125.538 199.568C125.486 199.513 125.458 199.441 125.458 199.366C125.458 199.291 125.486 199.219 125.538 199.164C125.561 199.135 125.591 199.111 125.624 199.093C125.657 199.075 125.693 199.063 125.731 199.059C125.768 199.055 125.806 199.059 125.842 199.07C125.879 199.081 125.912 199.098 125.941 199.122C125.992 199.164 131.366 203.572 135.959 204.715C135.995 204.725 136.03 204.742 136.059 204.765C136.089 204.788 136.115 204.817 136.133 204.85C136.152 204.883 136.164 204.919 136.169 204.957C136.174 204.994 136.171 205.032 136.16 205.069C136.144 205.136 136.103 205.196 136.046 205.234C135.988 205.273 135.918 205.289 135.849 205.279Z" fill="white"/>
<path d="M96.2767 141.912C96.231 141.912 96.1859 141.902 96.145 141.881C96.1042 141.861 96.0686 141.831 96.0412 141.795C96.0191 141.763 96.0034 141.728 95.9952 141.691C95.9871 141.653 95.9865 141.614 95.9936 141.577C96.0006 141.539 96.0152 141.503 96.0363 141.471C96.0575 141.439 96.0849 141.412 96.1169 141.391C97.2523 140.6 99.0522 139.078 99.0522 138.329C99.0522 137.833 98.4382 137.244 97.7822 136.647C97.0561 136.041 96.456 135.298 96.016 134.46C95.587 133.46 94.0478 129.532 94.3338 128.573C94.3453 128.537 94.3637 128.504 94.3881 128.475C94.4125 128.446 94.4424 128.422 94.4761 128.405C94.5097 128.388 94.5464 128.377 94.584 128.375C94.6217 128.372 94.6596 128.376 94.6955 128.388C94.7688 128.413 94.8293 128.466 94.864 128.535C94.8986 128.604 94.9045 128.684 94.8805 128.758C94.7039 129.271 95.6206 132.122 96.5206 134.208C96.9319 134.968 97.4859 135.642 98.1523 136.193C98.9345 136.942 99.6073 137.581 99.6073 138.321C99.6073 139.616 96.7477 141.626 96.4197 141.854C96.3779 141.885 96.3286 141.905 96.2767 141.912V141.912Z" fill="white"/>
<path d="M68.2522 143.561C68.1915 143.563 68.1315 143.546 68.0811 143.512C68.0306 143.478 67.9923 143.429 67.9717 143.372C67.951 143.315 67.9492 143.253 67.9664 143.194C67.9835 143.136 68.0188 143.085 68.0672 143.048L70.4222 141.164C72.6847 139.364 74.0809 134.763 74.0977 134.713C74.121 134.64 74.1717 134.579 74.2393 134.543C74.3068 134.507 74.3857 134.498 74.4593 134.519C74.5323 134.543 74.5933 134.593 74.6294 134.661C74.6655 134.728 74.6739 134.807 74.6528 134.881C74.5939 135.074 73.1809 139.7 70.7839 141.61L68.4288 143.494C68.3796 143.536 68.3171 143.56 68.2522 143.561V143.561Z" fill="white"/>
<path d="M124.167 249.705C124.125 249.703 124.083 249.693 124.046 249.674C124.008 249.655 123.975 249.628 123.948 249.595C120.937 245.904 118.218 241.984 115.815 237.871C112.56 232.051 103.199 216.129 103.098 216.003C102.231 214.087 101.587 212.078 101.18 210.014C101.121 209.695 101.079 209.4 101.037 209.173C100.726 207.054 100.591 206.179 97.7739 204.362C94.9563 202.546 94.7796 199.383 94.5441 195.994C94.4937 195.195 94.4348 194.37 94.3423 193.555C93.9638 190.19 85.0316 175.051 78.5133 164.05C77.033 161.527 75.6873 159.272 74.5939 157.397C68.7568 147.354 64.7197 134.15 64.6776 134.015C64.6565 133.941 64.6649 133.863 64.701 133.795C64.7371 133.727 64.7981 133.677 64.8711 133.653C64.9069 133.642 64.9448 133.638 64.9823 133.641C65.0198 133.645 65.0562 133.656 65.0892 133.674C65.1223 133.692 65.1513 133.717 65.1745 133.747C65.1977 133.776 65.2147 133.81 65.2243 133.847C65.2663 133.981 69.2867 147.127 75.0901 157.103C76.1835 158.978 77.5292 161.257 79.0095 163.755C85.5615 174.816 94.5273 189.972 94.9142 193.487C95.0067 194.328 95.0656 195.169 95.1245 195.96C95.3516 199.324 95.545 202.251 98.0851 203.883C101.121 205.834 101.273 206.852 101.609 209.081C101.609 209.358 101.693 209.644 101.744 209.964C102.143 211.966 102.77 213.916 103.611 215.776C103.687 215.919 113.056 231.84 116.32 237.644C118.707 241.723 121.407 245.612 124.394 249.276C124.418 249.305 124.436 249.339 124.446 249.375C124.457 249.411 124.461 249.449 124.457 249.486C124.453 249.524 124.442 249.56 124.424 249.593C124.406 249.627 124.381 249.656 124.352 249.68C124.294 249.708 124.23 249.717 124.167 249.705V249.705Z" fill="white"/>
<path d="M58.5294 123.896C58.5294 123.896 59.0677 129.851 61.4227 131.735C63.7777 133.619 70.8427 135.268 80.4982 133.417C90.1538 131.567 100.751 123.324 101.693 120.465C102.635 117.605 97.8412 110.204 97.8412 110.204C97.8412 110.204 92.2732 118.11 76.7302 120.7C61.1872 123.291 58.5294 123.896 58.5294 123.896Z" fill="white"/>
<path d="M72.3145 134.637C66.6204 134.637 62.7179 133.317 61.1535 132.063C58.6891 130.087 58.134 124.191 58.1088 123.939C58.0999 123.838 58.1273 123.738 58.1859 123.657C58.2446 123.575 58.3306 123.517 58.4284 123.493C58.5377 123.493 61.2796 122.812 76.6629 120.246C91.8022 117.723 97.4374 110.002 97.4963 109.926C97.5359 109.872 97.5877 109.828 97.6476 109.797C97.7075 109.766 97.7738 109.75 97.8411 109.75V109.75C97.91 109.751 97.9776 109.77 98.0377 109.803C98.0978 109.837 98.1487 109.885 98.186 109.943C98.6906 110.717 103.064 117.631 102.089 120.566C101.054 123.661 90.2126 131.912 80.5739 133.796C77.8541 134.341 75.0882 134.623 72.3145 134.637V134.637ZM58.9919 124.233C59.1517 125.528 59.833 129.919 61.6834 131.407C63.786 133.09 70.523 134.906 80.4141 132.972C90.1369 131.071 100.457 122.82 101.298 120.297C101.962 118.295 99.2457 113.24 97.7991 110.902C96.302 112.694 90.2967 118.833 76.7722 121.079C64.3075 123.165 60.1189 123.956 58.9919 124.233V124.233Z" fill="#0E106C"/>
<path d="M120.609 66.1736C116.765 63.6504 86.84 40.3358 84.0224 39.3097C81.2048 38.2836 75.6116 39.3097 75.6116 39.3097C75.6116 39.3097 58.2687 41.4292 54.6353 42.8927C54.2904 43.0272 46.4768 47.5186 46.2245 47.7541C43.4069 50.0586 31.0852 55.7275 27.7714 62.8934C24.0118 71.0014 57.0491 119.817 58.5883 123.905C60.1275 127.993 68.1934 129.002 75.6116 127.976C83.0299 126.95 89.5398 125.452 94.9143 119.304C95.8887 118.08 96.7053 116.737 97.345 115.309C98.113 113.713 98.309 111.902 97.9001 110.179C95.9824 102.188 91.0874 79.1514 87.8577 63.9195C93.2405 67.3931 104.435 74.4498 110.945 76.9393C119.642 80.3036 126.295 77.9654 126.295 75.1479C126.295 72.3303 124.444 68.7305 120.609 66.1736Z" fill="white"/>
<path d="M110.222 71.1446C105.094 70.6385 100.128 69.0718 95.6376 66.5439C95.6376 66.5439 102.291 63.474 102.543 61.9348C102.795 60.3956 93.3331 61.6825 94.6115 61.1694C95.89 60.6564 97.6814 59.378 94.6115 59.378C92.1641 59.217 89.7531 58.7014 87.454 57.8472L87.7988 63.8945C90.7258 65.7869 95.3685 68.7223 100.028 71.4137C104.411 73.7179 108.924 75.7651 113.544 77.5452C113.544 77.5452 119.171 72.1707 110.222 71.1446Z" fill="#F2F5F9"/>
<g style="mix-blend-mode:multiply">
<path d="M75.5527 127.967L76.5031 127.833C78.5554 126.84 82.029 126.218 85.4101 125.377C90.5238 124.098 84.8971 124.098 76.4527 119.75C68.0083 115.402 64.6777 109.009 57.0071 99.7996C49.3365 90.5898 46.2665 85.9808 47.8057 84.9631C49.3449 83.9454 44.7358 83.9369 42.9443 82.9108C41.1528 81.8847 45.4675 81.8931 49.0841 78.3102C52.7008 74.7272 42.1705 79.0755 41.1528 78.8232C40.1351 78.5709 42.1705 75.2402 42.1705 75.2402L34.7523 82.9108L52.6587 113.61L53.6848 114.375L54.8623 116.058L58.2266 123.291C58.3612 123.543 58.4537 123.753 58.5126 123.896C60.0602 127.992 68.1345 129.002 75.5527 127.967Z" fill="#0005FF" fill-opacity="0.04"/>
</g>
<path opacity="0.3" d="M41.6406 56.4426C47.301 55.6015 63.0795 64.601 63.0795 64.601C54.4081 58.7135 46.8216 53.196 41.6322 50.7064L32.0692 57.435L31.4131 58.049C32.5233 57.8303 36.7791 57.1322 41.6406 56.4426Z" fill="#0E106C"/>
<path d="M70.1698 128.766C64.501 128.766 59.3957 127.412 58.1341 124.048C57.764 123.055 55.2744 119.001 52.1204 113.905C38.7221 92.1712 24.6509 68.4866 27.3339 62.7084C29.8572 57.2582 37.3175 52.7585 42.2546 49.7811C43.5126 49.0663 44.7285 48.28 45.8965 47.4261C46.1992 47.1822 54.0296 42.674 54.4502 42.5058C58.1004 41.0339 74.821 38.9817 75.5359 38.8976C75.7462 38.8555 81.2804 37.8631 84.1653 38.8976C86.0325 39.5789 98.8252 49.2596 109.103 57.0396C114.671 61.2449 119.474 64.8952 120.836 65.8035C125.126 68.6632 126.656 72.4817 126.656 75.1058C126.626 75.5929 126.474 76.0647 126.216 76.4787C125.957 76.8927 125.6 77.236 125.176 77.4776C122.695 79.1598 117.27 79.7906 110.735 77.2926C106.168 75.5432 98.4636 71.2285 88.4211 64.7774C91.7854 80.7999 96.4029 102.382 98.2449 110.052C98.6784 111.871 98.4735 113.783 97.6645 115.469C97.0073 116.937 96.1589 118.311 95.1413 119.557C89.5229 125.974 82.685 127.387 75.5863 128.363C73.7922 128.621 71.9825 128.756 70.1698 128.766ZM80.5991 39.2761C78.9446 39.301 77.2943 39.45 75.662 39.7218C75.4602 39.7218 58.3107 41.8498 54.7614 43.2796C54.2988 43.4899 46.8048 47.8046 46.4263 48.0821C45.229 48.9621 43.9791 49.7682 42.6835 50.496C37.839 53.4229 30.5216 57.847 28.0993 63.1121C25.3742 68.9996 43.2387 97.941 52.8353 113.509C56.2585 119.06 58.521 122.761 58.9247 123.796C60.4134 127.765 68.555 128.548 75.4938 127.589C82.4327 126.63 89.1108 125.259 94.5357 119.06C95.4893 117.866 96.2864 116.554 96.9076 115.158C97.6304 113.65 97.8145 111.94 97.429 110.313C95.545 102.474 90.8014 80.1438 87.3866 64.0541C87.3701 63.9719 87.378 63.8867 87.4094 63.809C87.4408 63.7312 87.4943 63.6644 87.5632 63.6167C87.6319 63.5715 87.7123 63.5474 87.7945 63.5474C87.8767 63.5474 87.9572 63.5715 88.0258 63.6167C98.4383 70.3453 106.395 74.8283 111.038 76.5945C117.245 78.9748 122.476 78.4112 124.697 76.8805C125.002 76.708 125.263 76.4657 125.457 76.1734C125.652 75.8811 125.774 75.547 125.815 75.1983C125.815 72.7929 124.385 69.2688 120.374 66.5942C118.986 65.669 114.175 62.0271 108.598 57.8049C98.9009 50.4708 85.6288 40.4199 83.8793 39.7807C82.8208 39.4347 81.7127 39.2643 80.5991 39.2761Z" fill="#0E106C"/>
<path d="M31.8253 57.6535C31.8253 57.6535 28.7554 61.0178 27.5611 62.5737C21.1521 70.8079 0.756061 97.1923 0.528971 99.3203C0.301881 101.448 1.26911 102.878 6.25668 104.796C11.2442 106.713 44.6097 73.2806 44.6097 73.2806" fill="white"/>
<path opacity="0.2" d="M31.8757 57.7546L31.4467 58.0322C30.8243 58.7218 29.4786 60.2274 28.4357 61.4637L12.9431 81.7841C12.9431 81.7841 12.4637 82.3224 11.7067 83.2139C5.89493 90.9602 0.83166 97.9495 0.520463 99.1943C0.520463 99.2364 0.520463 99.2784 0.520463 99.3121C0.318605 101.322 1.29424 102.853 6.25658 104.762C7.13971 105.099 8.88914 104.342 11.1853 102.87C10.0187 102.635 8.90437 102.191 7.89668 101.558C5.07909 99.7662 7.38363 97.9747 7.38363 97.9747C7.38363 97.9747 11.0423 99.4382 14.6505 100.422C15.3991 99.8588 16.1812 99.2532 16.9803 98.614C16.2117 98.1105 15.4834 97.5481 14.8019 96.9318C11.732 94.1226 9.17511 91.305 9.17511 91.305L32.6243 58.5789L31.8757 57.7546Z" fill="#0E106C"/>
<path d="M6.64358 105.284C6.45453 105.286 6.26658 105.255 6.08847 105.191C1.44574 103.4 -0.18593 101.827 0.0916245 99.3036C0.318714 97.2094 17.1822 75.2489 27.2078 62.3469C28.4022 60.8161 31.3711 57.5443 31.4973 57.4098C31.5332 57.3651 31.5779 57.3282 31.6285 57.3014C31.6792 57.2746 31.7348 57.2584 31.7919 57.2539C31.8491 57.2493 31.9065 57.2565 31.9608 57.275C32.0151 57.2935 32.065 57.3229 32.1075 57.3613C32.15 57.3998 32.1841 57.4466 32.2079 57.4987C32.2317 57.5509 32.2445 57.6074 32.2457 57.6647C32.2468 57.722 32.2362 57.7789 32.2146 57.832C32.1929 57.8851 32.1606 57.9331 32.1197 57.9733C32.1197 57.9733 29.0414 61.3376 27.8723 62.8683C11.6732 83.7101 1.0925 98.0504 0.95793 99.3962C0.764483 101.188 1.59715 102.584 6.42491 104.443C9.89854 105.78 30.9927 86.3763 44.3237 73.0117C44.4029 72.9325 44.5103 72.888 44.6223 72.888C44.7343 72.888 44.8417 72.9325 44.9209 73.0117C45 73.0909 45.0445 73.1983 45.0445 73.3103C45.0445 73.4223 45 73.5297 44.9209 73.6088C41.5818 76.9058 13.0862 105.284 6.64358 105.284Z" fill="#0E106C"/>
<path d="M99.3382 56.1226L87.7986 63.8941C89.4808 63.6586 97.4542 60.8326 97.4542 60.8326" fill="white"/>
<path d="M87.7988 64.3147C87.7142 64.316 87.6314 64.2907 87.562 64.2424C87.4926 64.1941 87.4401 64.1253 87.4119 64.0455C87.3764 63.958 87.3721 63.8609 87.3997 63.7706C87.4273 63.6803 87.485 63.6022 87.5633 63.5493L99.1112 55.7778C99.1563 55.7461 99.2072 55.7238 99.261 55.7122C99.3148 55.7006 99.3704 55.6998 99.4245 55.71C99.4786 55.7202 99.5301 55.7411 99.5759 55.7715C99.6218 55.802 99.6611 55.8413 99.6916 55.8871C99.7529 55.9812 99.7749 56.0955 99.7529 56.2055C99.7309 56.3156 99.6666 56.4127 99.5738 56.4759L90.1117 62.8512C93.0134 61.9597 97.2609 60.4626 97.3197 60.4373C97.4313 60.4005 97.5529 60.4095 97.6578 60.4624C97.7626 60.5152 97.8423 60.6076 97.8791 60.7191C97.9159 60.8306 97.9068 60.9522 97.854 61.0571C97.8012 61.162 97.7088 61.2416 97.5973 61.2784C97.2693 61.3877 89.5314 64.1212 87.8577 64.3567L87.7988 64.3147Z" fill="#0E106C"/>
<path d="M98.8672 61.0176C98.7695 61.0156 98.6754 60.9804 98.6005 60.9177C98.5256 60.855 98.4743 60.7686 98.4551 60.6727C98.4355 60.5635 98.4598 60.4509 98.5228 60.3595C98.5858 60.2681 98.6824 60.2054 98.7915 60.1849L101.382 59.7139C101.492 59.6941 101.606 59.7182 101.699 59.7811C101.791 59.8439 101.856 59.9406 101.878 60.0504C101.889 60.1057 101.889 60.1626 101.877 60.2178C101.866 60.2729 101.843 60.3252 101.811 60.3715C101.779 60.4178 101.738 60.4572 101.69 60.4872C101.642 60.5173 101.589 60.5375 101.533 60.5466L98.9429 61.0176H98.8672Z" fill="#0E106C"/>
<path d="M13.3721 91.1536C11.5914 91.1005 9.82042 91.4363 8.18271 92.1376Z" fill="white"/>
<path d="M38.5202 79.6223C38.5202 79.6223 45.0048 77.6374 46.7206 76.3169Z" fill="white"/>
<path d="M38.5203 80.043C38.4088 80.0586 38.2956 80.0293 38.2057 79.9614C38.1158 79.8936 38.0565 79.7928 38.0409 79.6813C38.0253 79.5698 38.0546 79.4566 38.1225 79.3667C38.1903 79.2768 38.2911 79.2175 38.4026 79.2019C38.4615 79.2019 44.8284 77.2338 46.4685 75.9722C46.5567 75.9043 46.6682 75.8742 46.7785 75.8884C46.8889 75.9026 46.9891 75.9599 47.0572 76.0479C47.123 76.1368 47.1518 76.2478 47.1377 76.3575C47.1236 76.4672 47.0676 76.5672 46.9815 76.6366C45.2153 77.9908 38.9156 79.9252 38.6465 80.0009C38.6078 80.0234 38.5648 80.0377 38.5203 80.043V80.043Z" fill="#0E106C"/>
<path d="M48.3105 75.6612C48.3105 75.6612 49.3702 74.736 49.7655 74.736Z" fill="white"/>
<path d="M48.3103 76.0818C48.2501 76.0813 48.1906 76.0683 48.1356 76.0437C48.0806 76.0191 48.0312 75.9834 47.9907 75.9388C47.9131 75.8588 47.8697 75.7517 47.8697 75.6402C47.8697 75.5288 47.9131 75.4217 47.9907 75.3416C48.4663 74.8511 49.0645 74.4968 49.7233 74.3155C49.8348 74.3155 49.9418 74.3598 50.0207 74.4387C50.0995 74.5176 50.1438 74.6245 50.1438 74.7361C50.1417 74.8469 50.0967 74.9526 50.0183 75.031C49.9399 75.1095 49.8342 75.1544 49.7233 75.1566C49.29 75.375 48.8929 75.6586 48.5458 75.9977C48.4782 76.0499 48.3957 76.0794 48.3103 76.0818V76.0818Z" fill="#0E106C"/>
<path d="M87.7986 64.3151C87.6945 64.3138 87.5945 64.2746 87.5171 64.205C87.4398 64.1354 87.3903 64.04 87.3781 63.9366L86.3268 53.1288C86.3212 53.0736 86.3266 53.0178 86.3427 52.9647C86.3587 52.9115 86.3851 52.8621 86.4202 52.8191C86.4554 52.7762 86.4986 52.7406 86.5475 52.7143C86.5964 52.6881 86.65 52.6717 86.7052 52.6662C86.7605 52.6607 86.8163 52.6661 86.8694 52.6821C86.9225 52.6982 86.972 52.7245 87.0149 52.7596C87.0579 52.7948 87.0935 52.838 87.1197 52.887C87.146 52.9359 87.1623 52.9895 87.1678 53.0447L88.2276 63.8609C88.2334 63.9157 88.2281 63.9711 88.2121 64.0239C88.1961 64.0766 88.1696 64.1256 88.1343 64.168C88.099 64.2103 88.0556 64.2452 88.0066 64.2704C87.9576 64.2957 87.9041 64.3109 87.8491 64.3151H87.7986Z" fill="#0E106C"/>
<path d="M0.503826 99.4298C0.503826 99.4298 -0.984874 105.124 8.56131 107.487C13.0947 108.606 43.0958 115.898 43.0958 115.898C43.0958 115.898 45.7788 110.145 44.2481 110.145C42.7173 110.145 15.0544 91.7508 15.0544 91.7508" fill="white"/>
<path d="M43.0956 116.386H42.9947C42.9947 116.386 12.9936 109.06 8.46021 107.975C4.67538 107.042 2.11011 105.452 0.840088 103.341C0.100323 102.171 -0.164459 100.763 0.099939 99.4047C0.129582 99.2976 0.199633 99.2062 0.295333 99.1497C0.391033 99.0933 0.504912 99.0761 0.612994 99.1019C0.719732 99.1315 0.810512 99.2019 0.865627 99.298C0.920742 99.394 0.935736 99.5079 0.907363 99.615V99.615C0.716964 100.765 0.956483 101.944 1.58022 102.929C2.7325 104.863 5.12114 106.293 8.66206 107.134C12.8674 108.186 39.5463 114.704 42.8601 115.494C43.8946 113.207 44.5423 110.986 44.2479 110.641C42.6499 110.641 19.4783 95.2498 14.8524 92.1378C14.7596 92.0746 14.6953 91.9776 14.6733 91.8675C14.6513 91.7574 14.6733 91.6431 14.7346 91.5491C14.7651 91.5032 14.8044 91.4639 14.8502 91.4335C14.8961 91.4031 14.9476 91.3822 15.0017 91.372C15.0558 91.3618 15.1114 91.3625 15.1652 91.3742C15.219 91.3858 15.2699 91.4081 15.315 91.4397C26.2069 98.6982 42.9106 109.573 44.2647 109.784C44.4018 109.786 44.5363 109.821 44.6565 109.887C44.7768 109.953 44.879 110.048 44.9544 110.162C45.6525 111.264 43.9956 115.015 43.4657 116.142C43.4328 116.213 43.3808 116.274 43.3154 116.317C43.25 116.36 43.1739 116.384 43.0956 116.386V116.386Z" fill="#0E106C"/>
<path d="M44.2478 110.17C44.2478 110.17 54.0968 114.779 54.8622 116.058C55.6276 117.336 57.3854 123.981 57.3854 126.033C57.3854 128.085 57.1331 128.077 55.8547 128.077C54.5762 128.077 51.2456 123.215 50.4802 122.189C49.7148 121.163 47.957 121.163 45.6188 119.666C44.9673 119.253 44.4074 118.71 43.9734 118.072C43.5395 117.435 43.2407 116.715 43.0956 115.957L44.2478 110.17Z" fill="white"/>
<path d="M55.8884 128.497C54.7866 128.497 52.9699 126.302 50.5813 123.005C50.4131 122.77 50.2785 122.576 50.1776 122.45C49.697 121.972 49.095 121.635 48.4365 121.474C47.3756 121.097 46.3623 120.598 45.4171 119.986C44.7095 119.541 44.1009 118.955 43.6292 118.265C43.1575 117.575 42.8328 116.795 42.6752 115.974C42.671 115.932 42.671 115.89 42.6752 115.848L43.8275 110.086C43.8404 110.024 43.8667 109.966 43.9045 109.915C43.9422 109.864 43.9906 109.822 44.0461 109.792C44.1036 109.763 44.1669 109.748 44.2312 109.748C44.2954 109.748 44.3588 109.763 44.4162 109.792C46.0984 110.566 54.425 114.519 55.2156 115.839C56.0062 117.16 57.8313 123.922 57.8313 126.033C57.8313 128.144 57.4444 128.497 55.8884 128.497ZM43.5247 115.94C43.6746 116.63 43.9609 117.283 44.3668 117.861C44.7726 118.439 45.2899 118.929 45.8881 119.305C46.781 119.879 47.7378 120.348 48.7393 120.701C49.549 120.911 50.2816 121.349 50.8504 121.962C50.9514 122.088 51.0943 122.282 51.2625 122.526C54.3409 126.782 55.4679 127.673 55.8884 127.673C56.9987 127.673 56.9987 127.673 56.9987 126.05C56.9987 124.065 55.2492 117.53 54.4755 116.285C53.9876 115.444 48.3104 112.584 44.5256 110.793L43.5247 115.94Z" fill="#0E106C"/>
<path d="M40.0426 115.36C40.0009 115.368 39.9581 115.368 39.9165 115.36C39.8634 115.343 39.8141 115.317 39.7716 115.281C39.7291 115.245 39.6942 115.201 39.6691 115.152C39.6439 115.102 39.629 115.048 39.6253 114.993C39.6216 114.938 39.6291 114.882 39.6473 114.83L41.1781 110.078C41.1936 110.023 41.2199 109.973 41.2555 109.929C41.2911 109.885 41.3351 109.848 41.385 109.822C41.435 109.795 41.4897 109.779 41.5461 109.774C41.6024 109.769 41.6592 109.776 41.7129 109.793C41.7667 109.811 41.8164 109.839 41.859 109.876C41.9016 109.913 41.9362 109.959 41.9609 110.01C41.9856 110.061 41.9997 110.116 42.0025 110.172C42.0053 110.229 41.9966 110.285 41.9771 110.338L40.4463 115.09C40.4141 115.171 40.3583 115.24 40.2862 115.288C40.2141 115.336 40.1292 115.361 40.0426 115.36Z" fill="#0E106C"/>
<path d="M114.721 74.3319C114.721 74.3319 112.198 83.0286 111.138 88.1423C110.079 93.2561 102.955 113.728 102.955 113.728L109.095 117.563C109.095 117.563 122.653 89.4712 125.235 83.3146C127.817 77.1579 127.026 72.5657 124.469 70.0088" fill="white"/>
<path d="M109.095 118.009C109.017 118.008 108.941 117.984 108.876 117.942L102.736 114.107C102.655 114.057 102.593 113.98 102.561 113.89C102.528 113.8 102.528 113.701 102.56 113.611C102.627 113.409 109.726 93.1136 110.726 88.0924C111.727 83.0712 114.301 74.3324 114.301 74.2399C114.332 74.1284 114.406 74.0338 114.507 73.977C114.608 73.9202 114.728 73.9059 114.839 73.9371C114.951 73.9683 115.045 74.0426 115.102 74.1435C115.159 74.2445 115.173 74.3639 115.142 74.4754C115.142 74.5595 112.577 83.2142 111.568 88.2522C110.609 93.0547 104.427 110.869 103.476 113.577L108.935 116.983C110.617 113.442 122.485 88.7989 124.84 83.1469C127.111 77.6883 126.867 73.054 124.167 70.3037C124.089 70.2256 124.045 70.1197 124.045 70.0093C124.045 69.8989 124.089 69.793 124.167 69.7149C124.245 69.6368 124.351 69.593 124.461 69.593C124.572 69.593 124.677 69.6368 124.756 69.7149C127.716 72.6671 128.027 77.6883 125.597 83.4749C123.073 89.5558 109.616 117.488 109.473 117.774C109.448 117.827 109.412 117.874 109.367 117.912C109.322 117.95 109.269 117.977 109.213 117.993L109.095 118.009Z" fill="#0E106C"/>
<path d="M104.116 110.801C104.578 110.801 110.407 114.014 110.407 114.014Z" fill="#0E106C"/>
<path d="M63.7777 64.6008C62.3647 64.3653 54.8203 59.4198 49.6393 55.4162C44.4583 51.4127 41.6323 50.7062 41.6323 50.7062L38.0997 53.0612C37.5652 51.3399 37.7346 49.4769 38.5707 47.8802C39.9837 45.2897 44.9293 42.6992 49.8748 40.8152C54.8203 38.9312 60.4723 37.3248 64.0132 37.3248C67.5541 37.3248 68.4877 38.7378 68.4877 40.6218C68.4877 42.5058 68.4877 48.3933 67.3102 52.8678C66.1327 57.3423 63.7777 64.6008 63.7777 64.6008Z" fill="white"/>
<g style="mix-blend-mode:multiply">
<path d="M61.5573 40.0417C61.5573 40.0417 59.3789 46.5685 57.2005 48.5282C55.5184 49.9388 53.698 51.1758 51.7672 52.2205C51.7672 52.2205 50.4635 47.6535 47.2002 47.6535C43.9368 47.6535 38.9324 49.8318 38.9324 49.8318C38.9324 49.8318 38.9324 48.0908 43.0621 45.9124L47.2002 43.7425L56.7716 40.0417H61.5573Z" fill="#000140"/>
</g>
<path opacity="0.5" d="M61.5573 40.0417C61.5573 40.0417 59.3789 46.5685 57.2005 48.5282C55.5184 49.9388 53.698 51.1758 51.7672 52.2205C51.7672 52.2205 50.4635 47.6535 47.2002 47.6535C43.9368 47.6535 38.9324 49.8318 38.9324 49.8318C38.9324 49.8318 38.9324 48.0908 43.0621 45.9124L47.2002 43.7425L56.7716 40.0417H61.5573Z" fill="white"/>
<path d="M63.7777 65.0217H63.702C62.1376 64.761 54.3913 59.622 49.4037 55.7699C45.0722 52.4056 42.3976 51.4047 41.7163 51.186L38.352 53.4317C38.297 53.4649 38.2358 53.4865 38.1722 53.4952C38.1086 53.5039 38.0438 53.4994 37.982 53.4822C37.9215 53.4614 37.8667 53.4271 37.8215 53.3819C37.7763 53.3367 37.742 53.2818 37.7212 53.2214C37.433 52.3135 37.3283 51.3573 37.4135 50.4086C37.4987 49.4599 37.772 48.5376 38.2175 47.6956C39.8996 44.55 46.174 41.8081 49.7486 40.4371C52.5578 39.3689 59.5723 36.8794 64.0468 36.8794C67.3354 36.8794 68.9419 38.0905 68.9419 40.5969C68.9419 42.5314 68.9419 48.4273 67.7475 52.9523C66.5532 57.4773 64.2319 64.6769 64.2066 64.7273C64.1799 64.8182 64.1226 64.8971 64.0445 64.9507C63.9663 65.0044 63.8721 65.0294 63.7777 65.0217V65.0217ZM41.6322 50.2861H41.7331C41.8509 50.2861 44.7105 51.0599 49.9 55.0718C54.7698 58.8314 61.5572 63.3059 63.5001 64.0713C64.0048 62.4901 65.8972 56.5016 66.8644 52.7C68.0335 48.2843 68.0335 42.4725 68.0335 40.5633C68.0335 39.1419 67.5541 37.6868 63.9795 37.6868C60.9349 37.6868 55.8379 38.9652 49.9925 41.1941C44.147 43.4229 40.0678 45.9377 38.9071 48.0657C38.2111 49.3874 38.0027 50.9119 38.3184 52.3719L41.3631 50.345C41.4434 50.295 41.5384 50.2743 41.6322 50.2861Z" fill="#0E106C"/>
<path d="M42.8097 34.709C45.5689 37.7519 47.5057 41.4488 48.4365 45.4495C49.9673 52.1024 59.5892 59.9244 61.8937 59.9244C64.1983 59.9244 64.0384 48.5194 63.2731 45.1972C62.5077 41.875 59.4378 32.9175 59.4378 32.9175C59.4378 32.9175 47.1917 27.03 42.8097 34.709Z" fill="white"/>
<path d="M61.9275 60.3453C59.4547 60.3453 49.6141 52.3047 48.0581 45.5424C47.1358 41.621 45.2379 37.996 42.5407 35.0038C42.4759 34.9386 42.4342 34.8539 42.422 34.7628C42.4099 34.6717 42.4279 34.5791 42.4734 34.4991C46.9648 26.5762 59.522 32.4722 59.6481 32.5394C59.6991 32.5634 59.7447 32.5973 59.7822 32.6392C59.8198 32.6811 59.8485 32.7301 59.8668 32.7834C59.993 33.145 62.9536 41.7913 63.7189 45.1051C64.3834 48.0152 64.6946 57.5782 62.9283 59.8071C62.8148 59.9683 62.6652 60.101 62.4915 60.1944C62.3177 60.2878 62.1246 60.3395 61.9275 60.3453ZM43.365 34.6505C46.0631 37.7059 47.9566 41.3859 48.874 45.3574C50.4047 51.9598 59.9678 59.5043 61.9275 59.5043C61.9275 59.5043 62.0873 59.5043 62.2639 59.2772C63.6937 57.4857 63.6012 48.3432 62.8947 45.2901C62.1882 42.237 59.5304 34.4823 59.1267 33.2207C57.7221 32.5983 47.3348 28.25 43.365 34.6505Z" fill="#2E353A"/>
<g style="mix-blend-mode:multiply">
<path d="M61.5573 40.0417C61.5573 40.0417 59.3789 46.5685 57.2005 48.5282C55.5184 49.9388 53.698 51.1758 51.7672 52.2205C51.7672 52.2205 50.4635 47.6535 47.2002 47.6535C43.9368 47.6535 38.9324 49.8318 38.9324 49.8318C38.9324 49.8318 38.9324 48.0908 43.0621 45.9124L47.2002 43.7425L56.7716 40.0417H61.5573Z" fill="#585BFA"/>
</g>
<path opacity="0.5" d="M61.5573 40.0417C61.5573 40.0417 59.3789 46.5685 57.2005 48.5282C55.5184 49.9388 53.698 51.1758 51.7672 52.2205C51.7672 52.2205 50.4635 47.6535 47.2002 47.6535C43.9368 47.6535 38.9324 49.8318 38.9324 49.8318C38.9324 49.8318 38.9324 48.0908 43.0621 45.9124L47.2002 43.7425L56.7716 40.0417H61.5573Z" fill="white"/>
<path d="M42.8099 34.7095C45.569 37.7524 47.5058 41.4493 48.4367 45.45C49.9674 52.1029 59.5893 59.9249 61.8938 59.9249C64.1984 59.9249 64.0386 48.5199 63.2732 45.1977C62.5078 41.8754 59.4379 32.918 59.4379 32.918C59.4379 32.918 47.1919 27.0305 42.8099 34.7095Z" fill="white"/>
<path d="M61.9273 60.3453C59.4546 60.3453 49.614 52.3047 48.058 45.5425C47.1356 41.621 45.2378 37.996 42.5406 35.0038C42.4757 34.9386 42.434 34.8539 42.4219 34.7628C42.4097 34.6717 42.4278 34.5791 42.4733 34.4991C46.9646 26.5762 59.5218 32.4722 59.648 32.5394C59.6989 32.5634 59.7445 32.5973 59.7821 32.6392C59.8196 32.6811 59.8484 32.7301 59.8667 32.7834C59.9928 33.145 62.9534 41.7913 63.7188 45.1051C64.3832 48.0152 64.6945 57.5782 62.9282 59.8071C62.8146 59.9683 62.665 60.101 62.4913 60.1944C62.3176 60.2878 62.1245 60.3395 61.9273 60.3453ZM43.3648 34.6505C46.0629 37.7059 47.9564 41.3859 48.8738 45.3574C50.4046 51.9598 59.9676 59.5043 61.9273 59.5043C61.9273 59.5043 62.0871 59.5043 62.2638 59.2772C63.6936 57.4857 63.6011 48.3432 62.8946 45.2901C62.1881 42.237 59.5303 34.4823 59.1265 33.2207C57.7219 32.5983 47.3347 28.25 43.3648 34.6505Z" fill="#0E106C"/>
<path d="M34.7271 22.3789C36.5317 27.2862 38.7635 32.0256 41.3968 36.5426C45.2826 42.9263 52.7849 46.543 56.9482 44.8776C61.1116 43.2123 63.946 37.8378 62.8358 29.5112C62.5919 27.6777 60.9938 26.9291 60.4808 25.3058C58.6388 19.4183 56.7632 13.7411 56.1156 11.5795C55.2745 8.79556 48.6132 6.02002 41.6743 7.9629C34.7355 9.90578 33.6169 15.7092 34.7271 22.3789Z" fill="white"/>
<path d="M57.7807 17.282C57.7807 17.282 55.2575 19.1576 49.5887 18.0726C43.9198 16.9876 40.0173 17.2315 40.2359 18.7286C40.4546 20.2257 40.892 22.2023 40.892 22.2023C40.892 22.2023 34.0877 16.3148 40.2527 14.7504C44.6936 13.5981 47.2589 15.3475 48.3439 15.5914C49.4289 15.8353 57.7807 17.282 57.7807 17.282Z" fill="#9596CE"/>
<path d="M54.6268 45.7354C50.1102 45.7354 44.2311 42.0431 41.0351 36.7864C38.3791 32.2434 36.1276 27.4758 34.3065 22.5386C34.3017 22.5164 34.3017 22.4935 34.3065 22.4713C32.9187 14.1867 35.2905 9.3001 41.5481 7.55066C48.8066 5.51526 55.6277 8.50949 56.5108 11.4448C56.8136 12.4625 57.3519 14.2456 58.1004 16.4913C58.9415 19.0145 59.8919 22.0676 60.8676 25.1964C61.1117 25.8189 61.4713 26.3896 61.9273 26.8785C62.6076 27.5925 63.0637 28.4902 63.2394 29.4606C64.4842 38.805 60.8844 43.7589 57.0995 45.2728C56.3123 45.5833 55.473 45.7403 54.6268 45.7354V45.7354ZM35.1391 22.2695C36.9312 27.137 39.1431 31.8395 41.75 36.3238C45.6609 42.7412 53.054 45.9793 56.7968 44.4822C60.2872 43.086 63.6011 38.4349 62.4151 29.5616C62.2608 28.751 61.8786 28.0011 61.3133 27.4C60.7818 26.8173 60.3728 26.1337 60.1106 25.3898C59.135 22.2695 58.1509 19.2079 57.3435 16.6931C56.6286 14.4727 56.0566 12.6812 55.7454 11.6467C55.0389 9.30851 48.8234 6.35634 41.8173 8.2824C36.0307 9.94772 33.8523 14.5063 35.1391 22.2695Z" fill="#0E106C"/>
<path d="M39.7315 31.5381C39.7315 31.5381 35.2822 29.5952 35.0047 31.5381C34.7271 33.481 36.6868 34.9024 38.6129 35.7435C39.0931 36.0062 39.6407 36.12 40.1859 36.0706C40.7311 36.0212 41.2492 35.8107 41.6744 35.4659" fill="white"/>
<path d="M40.0174 36.4837C39.4778 36.4769 38.9454 36.3596 38.453 36.1388C35.7027 34.9613 34.3317 33.3213 34.5925 31.5214C34.6147 31.3156 34.6868 31.1184 34.8026 30.9469C34.9184 30.7754 35.0744 30.6348 35.2569 30.5373C36.5942 29.7887 39.5632 31.0503 39.8996 31.2017C39.9943 31.2516 40.0664 31.3358 40.1013 31.437C40.1361 31.5382 40.131 31.6489 40.087 31.7465C40.043 31.8441 39.9635 31.9213 39.8646 31.9623C39.7657 32.0033 39.6549 32.005 39.5548 31.9671C38.4446 31.4793 36.4008 30.8653 35.6606 31.269C35.5933 31.3058 35.5364 31.359 35.4952 31.4238C35.454 31.4885 35.4299 31.5626 35.4251 31.6391C35.156 33.5147 37.4101 34.7763 38.7894 35.3651C39.1942 35.5901 39.656 35.6916 40.1178 35.6573C40.5796 35.6229 41.0213 35.4541 41.3883 35.1716C41.4693 35.1032 41.573 35.0679 41.6789 35.0728C41.7847 35.0776 41.8848 35.1222 41.9592 35.1976C42.0336 35.2731 42.0767 35.3738 42.08 35.4797C42.0834 35.5856 42.0466 35.6888 41.9771 35.7688C41.4376 36.2461 40.7375 36.5015 40.0174 36.4837Z" fill="#0E106C"/>
<path d="M57.8902 20.554C57.8902 20.554 52.9362 19.3765 55.0557 25.9789C55.4763 27.2826 58.3612 28.8049 58.3612 28.8049C58.3612 28.8049 58.1257 30.9244 56.9482 31.1599" fill="white"/>
<path d="M56.9398 31.5804C56.8433 31.5789 56.7501 31.5449 56.6753 31.4838C56.6005 31.4228 56.5485 31.3383 56.5277 31.244C56.5168 31.1893 56.5168 31.1329 56.5278 31.0782C56.5388 31.0235 56.5607 30.9716 56.592 30.9254C56.6233 30.8792 56.6635 30.8397 56.7102 30.8092C56.7569 30.7787 56.8093 30.7578 56.8641 30.7478C57.4697 30.6216 57.7809 29.6207 57.8987 29.0656C57.1249 28.6283 55.0558 27.3835 54.6605 26.1387C53.8699 23.6827 53.9372 21.9333 54.854 20.9408C55.981 19.7213 57.8987 20.1671 57.9828 20.1839C58.0908 20.2098 58.1841 20.2775 58.2424 20.372C58.3007 20.4666 58.3193 20.5804 58.294 20.6885C58.2821 20.7426 58.2595 20.7937 58.2275 20.8388C58.1955 20.884 58.1548 20.9222 58.1077 20.9512C58.0606 20.9803 58.0081 20.9995 57.9534 21.0079C57.8987 21.0162 57.8429 21.0134 57.7893 20.9997C57.7893 20.9997 56.2586 20.6549 55.4679 21.5128C54.6773 22.3707 54.7783 23.7669 55.4679 25.8779C55.7371 26.719 57.5118 27.9049 58.5631 28.46C58.6361 28.5017 58.6956 28.5635 58.7343 28.6381C58.7731 28.7127 58.7896 28.7969 58.7818 28.8806C58.7818 29.1329 58.4706 31.3197 57.0324 31.6057L56.9398 31.5804Z" fill="#0E106C"/>
<path d="M54.3493 35.8698C54.3493 35.8698 50.8168 36.5763 49.4038 34.9278Z" fill="white"/>
<path d="M52.6586 36.4839C52.009 36.5355 51.3558 36.4514 50.7405 36.2371C50.1251 36.0228 49.561 35.683 49.084 35.2391C49.0481 35.1972 49.0209 35.1485 49.0037 35.096C48.9866 35.0435 48.98 34.9881 48.9843 34.9331C48.9886 34.878 49.0037 34.8243 49.0288 34.7751C49.0538 34.7259 49.0883 34.6821 49.1303 34.6462C49.1723 34.6103 49.2209 34.583 49.2734 34.5659C49.3259 34.5488 49.3813 34.5422 49.4363 34.5465C49.4914 34.5508 49.5451 34.5659 49.5943 34.5909C49.6435 34.616 49.6873 34.6504 49.7232 34.6924C50.9596 36.1391 54.2398 35.5335 54.2734 35.5335C54.3271 35.5213 54.3827 35.5202 54.4369 35.5303C54.491 35.5404 54.5425 35.5614 54.5882 35.5922C54.6339 35.6229 54.6728 35.6626 54.7026 35.7089C54.7323 35.7553 54.7523 35.8072 54.7613 35.8615C54.7723 35.9156 54.7726 35.9714 54.7621 36.0256C54.7516 36.0799 54.7305 36.1315 54.7001 36.1776C54.6696 36.2237 54.6303 36.2633 54.5846 36.2942C54.5388 36.3251 54.4874 36.3467 54.4333 36.3578C53.8464 36.4508 53.2527 36.493 52.6586 36.4839V36.4839Z" fill="#0E106C"/>
<path d="M49.1682 24.8014C49.1682 24.8014 46.5776 23.8594 45.1646 25.0369C44.4083 25.5633 43.8234 26.3003 43.4825 27.1564" fill="white"/>
<path d="M43.1348 29.0203H43.0104C42.9442 29.0048 42.8821 28.9775 42.8275 28.9398C42.773 28.9022 42.727 28.8551 42.6923 28.8012C42.6576 28.7472 42.6349 28.6875 42.6254 28.6255C42.6159 28.5634 42.6198 28.5003 42.637 28.4397C43.0707 27.3785 43.8355 26.4581 44.8358 25.7934C46.7857 24.3084 50.1461 25.4031 50.2809 25.4507C50.3457 25.4709 50.4055 25.5029 50.4565 25.5448C50.5075 25.5866 50.5488 25.6376 50.5779 25.6945C50.607 25.7514 50.6232 25.8131 50.6256 25.8759C50.6281 25.9387 50.6166 26.0013 50.592 26.0599C50.5452 26.1785 50.449 26.2753 50.3246 26.3288C50.2001 26.3824 50.0576 26.3884 49.9283 26.3455C49.9283 26.3455 46.9931 25.3936 45.4996 26.5264C44.6775 27.0737 44.0352 27.8179 43.643 28.6777C43.6096 28.7773 43.5422 28.8644 43.4506 28.9261C43.3591 28.9878 43.2484 29.0209 43.1348 29.0203V29.0203Z" fill="#0E106C"/>
<path d="M49.101 28.8301C49.4374 29.6123 49.3701 30.3861 48.9496 30.5627C48.529 30.7393 47.9235 30.2599 47.587 29.4777C47.2506 28.6955 47.3263 27.9301 47.7468 27.7451C48.1674 27.56 48.773 28.0731 49.101 28.8301Z" fill="#0E106C"/>
<path d="M57.5705 24.709C57.9069 25.4828 57.8312 26.2565 57.4191 26.4416C57.007 26.6266 56.3846 26.1304 56.0566 25.3566C55.7286 24.5828 55.7874 23.8006 56.208 23.624C56.6285 23.4474 57.2341 23.9352 57.5705 24.709Z" fill="#0E106C"/>
<path d="M38.495 32.6569C38.495 32.6569 41.3042 30.6131 40.7912 28.8216C40.2781 27.0301 39.2604 27.0301 40.2865 26.0124C41.3126 24.9947 42.0696 24.4732 41.8173 22.9425C41.565 21.4117 37.4689 18.8464 38.7474 17.3157C40.0258 15.7849 39.5127 13.9514 50.0009 16.5419C60.4891 19.1324 67.142 15.0111 64.0721 11.1759C61.0022 7.34056 58.4453 6.8275 58.4453 6.8275C58.4453 6.8275 64.3328 4.30428 59.4714 1.70536C54.61 -0.893558 43.6088 -0.817863 37.4689 4.0099C31.3291 8.83766 32.6075 12.9337 32.6075 12.9337C32.6075 12.9337 29.2853 13.4467 29.0245 18.5689C28.7638 23.691 38.495 32.6569 38.495 32.6569Z" fill="#2E353A"/>
<path d="M55.2324 15.5241C52.9967 15.4302 50.7954 14.9404 48.7309 14.0775C47.113 13.3875 45.3894 12.9779 43.634 12.8663C39.5716 12.8663 38.7305 15.1709 38.6969 15.2718C38.6856 15.3077 38.667 15.3409 38.6425 15.3695C38.6179 15.398 38.5878 15.4212 38.554 15.4377C38.5201 15.4543 38.4833 15.4637 38.4457 15.4656C38.4081 15.4674 38.3705 15.4616 38.3352 15.4484C38.2992 15.437 38.2659 15.4185 38.237 15.3941C38.2082 15.3697 38.1845 15.3398 38.1673 15.3061C38.1501 15.2725 38.1397 15.2358 38.1368 15.1982C38.1339 15.1605 38.1384 15.1226 38.1502 15.0867C38.1922 14.9774 39.1342 12.286 43.634 12.286C45.4568 12.3938 47.2469 12.8178 48.9243 13.5392C51.5401 14.4728 54.2568 15.44 57.6715 14.683C59.5219 14.2709 60.6069 13.6065 60.876 12.7233C61.2293 11.5879 60.1358 10.402 60.1274 10.3851C60.074 10.3315 60.044 10.259 60.044 10.1833C60.044 10.1076 60.074 10.035 60.1274 9.98143C60.1834 9.92941 60.2571 9.9005 60.3335 9.9005C60.4099 9.9005 60.4835 9.92941 60.5396 9.98143C60.59 10.0403 61.8685 11.4281 61.4227 12.8831C61.0779 13.9849 59.8583 14.7756 57.7893 15.2381C56.9495 15.4238 56.0924 15.5197 55.2324 15.5241V15.5241Z" fill="#F2F5F9"/>
<path d="M36.4681 14.8177C36.3915 14.8112 36.3204 14.7751 36.2701 14.7169C36.2199 14.6588 36.1943 14.5832 36.199 14.5065C36.199 14.4476 36.6952 8.89652 41.6155 7.65173C44.5172 6.92 47.8731 7.46669 50.5729 7.90405C52.2551 8.1816 53.7606 8.42552 54.3914 8.1816C54.4606 8.16677 54.5329 8.17739 54.595 8.21153C54.657 8.24567 54.7047 8.30104 54.7292 8.36748C54.7537 8.43392 54.7535 8.50698 54.7285 8.57325C54.7035 8.63953 54.6555 8.69458 54.5933 8.7283C53.8195 9.01427 52.3476 8.77877 50.4804 8.47598C47.831 8.03862 44.534 7.50874 41.7585 8.20684C37.2335 9.35911 36.7793 14.4981 36.7709 14.5485C36.7687 14.5861 36.7592 14.6229 36.7428 14.6568C36.7264 14.6907 36.7035 14.721 36.6754 14.746C36.6473 14.771 36.6144 14.7902 36.5789 14.8025C36.5433 14.8148 36.5057 14.82 36.4681 14.8177V14.8177Z" fill="#F2F5F9"/>
<path d="M33.2131 23.4977C33.1561 23.4967 33.1006 23.4792 33.0533 23.4473C32.2982 22.814 31.7128 22.0025 31.35 21.0862C30.9873 20.1698 30.8587 19.1775 30.9759 18.199C31.2114 14.4982 34.0542 14.4562 34.0879 14.4562C34.1563 14.4679 34.2185 14.5034 34.2633 14.5565C34.3081 14.6096 34.3326 14.6769 34.3326 14.7464C34.3326 14.8158 34.3081 14.8831 34.2633 14.9362C34.2185 14.9893 34.1563 15.0248 34.0879 15.0365C33.9869 15.0365 31.7497 15.087 31.5646 18.2326C31.4508 19.1127 31.5581 20.0072 31.8767 20.8355C32.1954 21.6637 32.7154 22.3994 33.3897 22.9763C33.4208 22.9973 33.4472 23.0243 33.4675 23.0558C33.4878 23.0873 33.5015 23.1226 33.5078 23.1595C33.5141 23.1965 33.5128 23.2343 33.5041 23.2707C33.4954 23.3072 33.4794 23.3415 33.457 23.3716C33.4315 23.4126 33.3953 23.4459 33.3524 23.4681C33.3095 23.4903 33.2614 23.5005 33.2131 23.4977Z" fill="#F2F5F9"/>
<path d="M34.954 21.109C34.899 21.109 34.8451 21.0932 34.7988 21.0633C34.7526 21.0335 34.7159 20.9909 34.6933 20.9408C34.4858 20.5571 34.3626 20.1334 34.3322 19.6983C34.3017 19.2631 34.3646 18.8265 34.5167 18.4176C34.8877 17.6159 35.5489 16.9847 36.367 16.6513C36.4017 16.6364 36.439 16.6288 36.4767 16.6288C36.5145 16.6289 36.5518 16.6366 36.5864 16.6516C36.6211 16.6665 36.6523 16.6884 36.6782 16.7158C36.7041 16.7433 36.7241 16.7757 36.7371 16.8111C36.7647 16.8814 36.7634 16.9598 36.7335 17.0291C36.7035 17.0984 36.6474 17.1531 36.5773 17.1812C35.9076 17.4648 35.3637 17.9819 35.0465 18.6362C34.9274 18.9721 34.8809 19.3294 34.9099 19.6846C34.9389 20.0398 35.0428 20.3848 35.2147 20.6969C35.2463 20.7672 35.2491 20.8472 35.2223 20.9196C35.1956 20.9919 35.1415 21.0509 35.0717 21.0838C35.0346 21.1002 34.9946 21.1088 34.954 21.109Z" fill="#F2F5F9"/>
<path d="M35.6016 25.6672C35.5552 25.6663 35.5096 25.6543 35.4687 25.6324C35.4278 25.6105 35.3926 25.5792 35.3661 25.5411L34.2811 24.0271C34.2365 23.9647 34.2185 23.887 34.2311 23.8113C34.2438 23.7356 34.2859 23.668 34.3484 23.6234C34.4109 23.5788 34.4885 23.5608 34.5642 23.5734C34.6399 23.5861 34.7075 23.6282 34.7521 23.6907L35.8371 25.213C35.88 25.2746 35.8969 25.3505 35.8843 25.4245C35.8718 25.4984 35.8306 25.5644 35.7698 25.6083C35.7224 25.6471 35.6628 25.668 35.6016 25.6672V25.6672Z" fill="#F2F5F9"/>
<path d="M8.18264 92.5831C8.07111 92.6043 7.95573 92.5803 7.86187 92.5164C7.76802 92.4526 7.70339 92.354 7.6822 92.2425C7.66101 92.131 7.68499 92.0156 7.74887 91.9217C7.81275 91.8279 7.9113 91.7632 8.02284 91.742C9.72093 91.0126 11.5585 90.6652 13.4057 90.7244C13.461 90.7286 13.5149 90.7437 13.5643 90.7689C13.6137 90.794 13.6577 90.8287 13.6936 90.871C13.7296 90.9132 13.7569 90.9621 13.7738 91.0149C13.7908 91.0676 13.7972 91.1233 13.7926 91.1785C13.7819 91.2894 13.7285 91.3917 13.6438 91.4639C13.559 91.5361 13.4495 91.5725 13.3384 91.5654C11.6266 91.5158 9.92448 91.8401 8.35085 92.5158C8.3006 92.5507 8.24309 92.5737 8.18264 92.5831Z" fill="#0E106C"/>
</svg>
