<svg width="10" height="8" viewBox="0 0 10 8" fill="none" xmlns="http://www.w3.org/2000/svg">
<path d="M10 4.80113C9.99904 4.08245 9.68746 3.39345 9.1336 2.88526C8.57974 2.37708 7.82883 2.09119 7.04556 2.0903H1.55212L3.04889 0.716957C3.0923 0.678485 3.12692 0.632466 3.15075 0.581584C3.17457 0.530702 3.18711 0.475976 3.18763 0.420601C3.18816 0.365225 3.17665 0.310308 3.1538 0.259054C3.13095 0.2078 3.0972 0.161236 3.05452 0.122078C3.01184 0.0829196 2.96109 0.0519519 2.90523 0.0309823C2.84937 0.0100126 2.78952 -0.000539429 2.72917 -5.82292e-05C2.66882 0.000422971 2.60917 0.0119282 2.55372 0.0337855C2.49826 0.0556427 2.44811 0.087414 2.40618 0.127247L0.133535 2.2125C0.0912063 2.25124 0.0576231 2.29726 0.034709 2.34793C0.0117949 2.3986 0 2.45292 0 2.50777C0 2.56263 0.0117949 2.61695 0.034709 2.66761C0.0576231 2.71828 0.0912063 2.7643 0.133535 2.80304L2.40618 4.8883C2.49191 4.96427 2.60672 5.0063 2.7259 5.00535C2.84507 5.0044 2.95907 4.96054 3.04335 4.88322C3.12762 4.80589 3.17542 4.70129 3.17646 4.59194C3.1775 4.48259 3.13168 4.37724 3.04889 4.29859L1.55212 2.92441H7.04556C7.58803 2.92441 8.10828 3.12213 8.49186 3.47409C8.87545 3.82604 9.09094 4.30339 9.09094 4.80113C9.09094 5.29887 8.87545 5.77623 8.49186 6.12818C8.10828 6.48014 7.58803 6.67786 7.04556 6.67786H5.00018C4.87963 6.67786 4.76402 6.7218 4.67878 6.80001C4.59354 6.87823 4.54565 6.9843 4.54565 7.09491C4.54565 7.20552 4.59354 7.3116 4.67878 7.38981C4.76402 7.46802 4.87963 7.51196 5.00018 7.51196H7.04556C7.82883 7.51108 8.57974 7.22519 9.1336 6.717C9.68746 6.20882 9.99904 5.51982 10 4.80113V4.80113Z" fill="#FFDB03"/>
</svg>
