<svg width="12" height="12" viewBox="0 0 12 12" fill="none" xmlns="http://www.w3.org/2000/svg">
<path d="M9.91139 5.56359C9.91139 7.97356 7.96086 9.92722 5.55476 9.92722C3.14865 9.92722 1.19812 7.97356 1.19812 5.56359C1.19812 3.15362 3.14865 1.19995 5.55476 1.19995C7.96086 1.19995 9.91139 3.15362 9.91139 5.56359Z" fill="#EE9E04"/>
<path d="M11.055 6.43641C11.055 8.997 8.98255 11.0728 6.42606 11.0728C3.86956 11.0728 1.79712 8.997 1.79712 6.43641C1.79712 3.87582 3.86956 1.80005 6.42606 1.80005C8.98255 1.80005 11.055 3.87582 11.055 6.43641Z" fill="#F5B400"/>
<path fill-rule="evenodd" clip-rule="evenodd" d="M5.99039 10.5205C8.48302 10.5205 10.5037 8.49663 10.5037 6C10.5037 3.50337 8.48302 1.47945 5.99039 1.47945C3.49776 1.47945 1.47708 3.50337 1.47708 6C1.47708 8.49663 3.49776 10.5205 5.99039 10.5205ZM5.99039 12C9.29879 12 11.9808 9.31371 11.9808 6C11.9808 2.68629 9.29879 0 5.99039 0C2.68199 0 0 2.68629 0 6C0 9.31371 2.68199 12 5.99039 12Z" fill="#FFDB03"/>
<path fill-rule="evenodd" clip-rule="evenodd" d="M6.15376 10.4487C8.51652 10.4487 10.4319 8.53023 10.4319 6.16369C10.4319 3.79714 8.51652 1.87867 6.15376 1.87867C3.79101 1.87867 1.87562 3.79714 1.87562 6.16369C1.87562 8.53023 3.79101 10.4487 6.15376 10.4487ZM6.15376 10.5273C8.55987 10.5273 10.5104 8.57365 10.5104 6.16369C10.5104 3.75372 8.55987 1.80005 6.15376 1.80005C3.74765 1.80005 1.79712 3.75372 1.79712 6.16369C1.79712 8.57365 3.74765 10.5273 6.15376 10.5273Z" fill="#EE9E04"/>
<path fill-rule="evenodd" clip-rule="evenodd" d="M5.99039 11.9178C9.25347 11.9178 11.8987 9.26832 11.8987 6C11.8987 2.73168 9.25347 0.0821918 5.99039 0.0821918C2.72731 0.0821918 0.0820601 2.73168 0.0820601 6C0.0820601 9.26832 2.72731 11.9178 5.99039 11.9178ZM5.99039 12C9.29879 12 11.9808 9.31371 11.9808 6C11.9808 2.68629 9.29879 0 5.99039 0C2.68199 0 0 2.68629 0 6C0 9.31371 2.68199 12 5.99039 12Z" fill="#FEFA2B"/>
<path d="M5.92161 3.79607C6.05865 3.53477 6.45461 3.53477 6.59165 3.79607L7.12495 4.81293C7.17937 4.9167 7.28456 4.98862 7.40625 5.00525L8.59874 5.16832C8.90517 5.21022 9.02753 5.56459 8.80579 5.76798L7.9429 6.5595C7.85484 6.64027 7.81466 6.75663 7.83545 6.87068L8.03915 7.98832C8.0915 8.27551 7.77116 8.49453 7.49708 8.35893L6.43048 7.83126C6.32164 7.77741 6.19162 7.77741 6.08278 7.83126L5.01618 8.35893C4.7421 8.49453 4.42176 8.27551 4.47411 7.98832L4.67781 6.87068C4.6986 6.75663 4.65842 6.64027 4.57036 6.5595L3.70747 5.76798C3.48573 5.56459 3.60809 5.21022 3.91452 5.16832L5.10701 5.00525C5.2287 4.98862 5.33389 4.9167 5.38831 4.81293L5.92161 3.79607Z" fill="#FFDB03"/>
<g filter="url(#filter0_bd_601_2589)">
<path d="M5.07927 7.33C5.05299 7.33 5.02934 7.32223 5.00831 7.3067C4.98991 7.28895 4.98071 7.26898 4.98071 7.24679V5.08321C4.98071 5.0588 4.98991 5.03883 5.00831 5.0233C5.02934 5.00777 5.05299 5 5.07927 5H6.15163C6.49594 5 6.76402 5.06657 6.95589 5.19971C7.15039 5.33064 7.24763 5.51704 7.24763 5.75891C7.24763 5.91425 7.20427 6.04628 7.11753 6.15501C7.0308 6.26375 6.91121 6.34696 6.75877 6.40466L7.29889 7.22349C7.30677 7.2368 7.31071 7.249 7.31071 7.2601C7.31071 7.27785 7.30151 7.2945 7.28312 7.31003C7.26735 7.32334 7.24895 7.33 7.22792 7.33H6.70357C6.62735 7.33 6.57347 7.30004 6.54193 7.24013L6.09249 6.50784H5.69036V7.24679C5.69036 7.2712 5.67984 7.29117 5.65882 7.3067C5.64042 7.32223 5.61676 7.33 5.58785 7.33H5.07927ZM6.14374 6.03519C6.26464 6.03519 6.35664 6.01078 6.41971 5.96196C6.48279 5.91092 6.51433 5.84102 6.51433 5.75226C6.51433 5.6635 6.48279 5.5936 6.41971 5.54256C6.35926 5.4893 6.26727 5.46267 6.14374 5.46267H5.69036V6.03519H6.14374Z" fill="#F5B400"/>
</g>
<defs>
<filter id="filter0_bd_601_2589" x="-15.0193" y="-15" width="42.33" height="42.3301" filterUnits="userSpaceOnUse" color-interpolation-filters="sRGB">
<feFlood flood-opacity="0" result="BackgroundImageFix"/>
<feGaussianBlur in="BackgroundImage" stdDeviation="10"/>
<feComposite in2="SourceAlpha" operator="in" result="effect1_backgroundBlur_601_2589"/>
<feColorMatrix in="SourceAlpha" type="matrix" values="0 0 0 0 0 0 0 0 0 0 0 0 0 0 0 0 0 0 127 0" result="hardAlpha"/>
<feOffset dy="1"/>
<feGaussianBlur stdDeviation="0.5"/>
<feColorMatrix type="matrix" values="0 0 0 0 0.933333 0 0 0 0 0.619608 0 0 0 0 0.0156863 0 0 0 0.25 0"/>
<feBlend mode="normal" in2="effect1_backgroundBlur_601_2589" result="effect2_dropShadow_601_2589"/>
<feBlend mode="normal" in="SourceGraphic" in2="effect2_dropShadow_601_2589" result="shape"/>
</filter>
</defs>
</svg>
