<svg width="2" height="2" viewBox="0 0 2 2" fill="none" xmlns="http://www.w3.org/2000/svg">
<path fill-rule="evenodd" clip-rule="evenodd" d="M1.25949 0.474002C1.22173 0.337502 1.14311 0.218001 1.0319 0.132001C0.921211 0.0460002 0.786211 0 0.646555 0C0.507416 0 0.371898 0.0460002 0.261208 0.132001C0.150001 0.218001 0.0713796 0.337502 0.0336208 0.474002C0.0155173 0.539002 0.00775866 0.604503 0.00362071 0.671003C0 0.745003 0 0.818504 0 0.892004V1.1075C0 1.18101 0 1.25451 0.00362071 1.32851C0.00775866 1.39551 0.0155173 1.46051 0.0336208 1.52551C0.0713796 1.66201 0.150001 1.78151 0.261208 1.86751C0.371898 1.95351 0.507416 2.00001 0.646555 2.00001C0.786211 2.00001 0.921211 1.95351 1.0319 1.86751C1.14311 1.78151 1.22173 1.66201 1.25949 1.52551C1.27759 1.46051 1.28535 1.39551 1.28949 1.32851C1.29311 1.25451 1.29311 1.18101 1.29311 1.1075V0.892004C1.29311 0.818504 1.29311 0.745003 1.28949 0.671003C1.28535 0.604503 1.27759 0.539002 1.25949 0.474002V0.474002Z" fill="#262883"/>
</svg>
