<svg width="2" height="1" viewBox="0 0 2 1" fill="none" xmlns="http://www.w3.org/2000/svg">
<path fill-rule="evenodd" clip-rule="evenodd" d="M1.00776 0.132001C0.896484 0.0460002 0.760764 0 0.620363 0C0.480482 0 0.344242 0.0460002 0.232961 0.132001C0.121161 0.218001 0.0421202 0.337502 0.00416002 0.474002C0.00208001 0.482502 0.00208001 0.491502 0 0.500002C0.00208001 0.508502 0.00208001 0.517002 0.00416002 0.525502C0.0421202 0.662003 0.121161 0.781504 0.232961 0.867504C0.344242 0.953504 0.480482 1 0.620363 1C0.760764 1 0.896484 0.953504 1.00776 0.867504C1.11957 0.781504 1.19861 0.662003 1.23657 0.525502C1.23865 0.517002 1.23865 0.508502 1.24073 0.500002C1.23865 0.491502 1.23865 0.482502 1.23657 0.474002C1.19861 0.337502 1.11957 0.218001 1.00776 0.132001V0.132001Z" fill="#262883"/>
</svg>
