<svg width="2" height="15" viewBox="0 0 2 15" fill="none" xmlns="http://www.w3.org/2000/svg">
<path fill-rule="evenodd" clip-rule="evenodd" d="M1.08531 0.406286C1.05278 0.289286 0.985029 0.186857 0.8892 0.113143C0.793817 0.0394286 0.677486 0 0.557143 0C0.437246 0 0.320469 0.0394286 0.225086 0.113143C0.129257 0.186857 0.0615086 0.289286 0.0289714 0.406286C0.0133714 0.462 0.00668571 0.518143 0.00312 0.575143C0 0.638571 0 0.701572 0 0.764572V0.765857V14.2337V14.235C0 14.2984 0 14.361 0.00312 14.4244C0.00668571 14.4819 0.0133714 14.5376 0.0289714 14.5929C0.0615086 14.7103 0.129257 14.8127 0.225086 14.8864C0.320469 14.9601 0.437246 15 0.557143 15C0.677486 15 0.793817 14.9601 0.8892 14.8864C0.985029 14.8127 1.05278 14.7103 1.08531 14.5929C1.10091 14.5376 1.1076 14.4819 1.11117 14.4244C1.11429 14.361 1.11429 14.2984 1.11429 14.235V0.764572C1.11429 0.701572 1.11429 0.638571 1.11117 0.575143C1.1076 0.518143 1.10091 0.462 1.08531 0.406286V0.406286Z" fill="#262883"/>
</svg>
