<svg width="20" height="20" viewBox="0 0 20 20" fill="none" xmlns="http://www.w3.org/2000/svg">
<path d="M16.5455 9.27273C16.5455 13.2893 13.2894 16.5455 9.27277 16.5455C5.25617 16.5455 2.00006 13.2893 2.00006 9.27273C2.00006 5.25611 5.25617 2 9.27277 2C13.2894 2 16.5455 5.25611 16.5455 9.27273Z" fill="#EE9E04"/>
<path d="M18.4545 10.7273C18.4545 14.9949 14.9949 18.4545 10.7273 18.4545C6.45962 18.4545 3 14.9949 3 10.7273C3 6.45962 6.45962 3 10.7273 3C14.9949 3 18.4545 6.45962 18.4545 10.7273Z" fill="#F5B400"/>
<path fill-rule="evenodd" clip-rule="evenodd" d="M10 17.5342C14.1611 17.5342 17.5342 14.1611 17.5342 10C17.5342 5.83895 14.1611 2.46575 10 2.46575C5.83895 2.46575 2.46575 5.83895 2.46575 10C2.46575 14.1611 5.83895 17.5342 10 17.5342ZM10 20C15.5228 20 20 15.5228 20 10C20 4.47715 15.5228 0 10 0C4.47715 0 0 4.47715 0 10C0 15.5228 4.47715 20 10 20Z" fill="#FFDB03"/>
<path fill-rule="evenodd" clip-rule="evenodd" d="M10.2727 17.4144C14.217 17.4144 17.4144 14.217 17.4144 10.2727C17.4144 6.32848 14.217 3.13104 10.2727 3.13104C6.32848 3.13104 3.13104 6.32848 3.13104 10.2727C3.13104 14.217 6.32848 17.4144 10.2727 17.4144ZM10.2727 17.5455C14.2893 17.5455 17.5455 14.2893 17.5455 10.2727C17.5455 6.25611 14.2893 3 10.2727 3C6.25611 3 3 6.25611 3 10.2727C3 14.2893 6.25611 17.5455 10.2727 17.5455Z" fill="#EE9E04"/>
<path fill-rule="evenodd" clip-rule="evenodd" d="M10 19.863C15.4472 19.863 19.863 15.4472 19.863 10C19.863 4.55281 15.4472 0.136986 10 0.136986C4.55281 0.136986 0.136986 4.55281 0.136986 10C0.136986 15.4472 4.55281 19.863 10 19.863ZM10 20C15.5228 20 20 15.5228 20 10C20 4.47715 15.5228 0 10 0C4.47715 0 0 4.47715 0 10C0 15.5228 4.47715 20 10 20Z" fill="#FEFA2B"/>
<path d="M9.88518 6.32663C10.1139 5.89112 10.7749 5.89112 11.0037 6.32663L11.894 8.02139C11.9848 8.19433 12.1604 8.3142 12.3635 8.34193L14.3542 8.6137C14.8658 8.68353 15.07 9.27415 14.6999 9.61314L13.2594 10.9323C13.1124 11.0669 13.0453 11.2609 13.08 11.451L13.4201 13.3137C13.5075 13.7924 12.9727 14.1574 12.5152 13.9314L10.7347 13.0519C10.553 12.9622 10.3359 12.9622 10.1542 13.0519L8.37371 13.9314C7.91617 14.1574 7.38142 13.7924 7.4688 13.3137L7.80885 11.451C7.84355 11.2609 7.77648 11.0669 7.62949 10.9323L6.18902 9.61314C5.81887 9.27415 6.02312 8.68353 6.53466 8.6137L8.52534 8.34193C8.72847 8.3142 8.90408 8.19433 8.99492 8.02139L9.88518 6.32663Z" fill="#FFDB03"/>
<g filter="url(#filter0_bd_601_2188)">
<path d="M8.47905 12.2166C8.43517 12.2166 8.39568 12.2036 8.36058 12.1778C8.32987 12.1482 8.31451 12.1149 8.31451 12.0779V8.47194C8.31451 8.43126 8.32987 8.39797 8.36058 8.37209C8.39568 8.3462 8.43517 8.33325 8.47905 8.33325H10.2692C10.8439 8.33325 11.2915 8.4442 11.6118 8.66611C11.9364 8.88432 12.0988 9.19498 12.0988 9.59811C12.0988 9.857 12.0264 10.0771 11.8816 10.2583C11.7368 10.4395 11.5372 10.5782 11.2827 10.6743L12.1843 12.0391C12.1975 12.0613 12.2041 12.0816 12.2041 12.1001C12.2041 12.1297 12.1887 12.1574 12.158 12.1833C12.1317 12.2055 12.101 12.2166 12.0659 12.2166H11.1906C11.0633 12.2166 10.9734 12.1667 10.9207 12.0668L10.1704 10.8463H9.49915V12.0779C9.49915 12.1186 9.4816 12.1519 9.4465 12.1778C9.41579 12.2036 9.3763 12.2166 9.32804 12.2166H8.47905ZM10.256 10.0586C10.4578 10.0586 10.6114 10.0179 10.7167 9.93651C10.822 9.85145 10.8747 9.73495 10.8747 9.58701C10.8747 9.43908 10.822 9.32258 10.7167 9.23751C10.6158 9.14875 10.4622 9.10437 10.256 9.10437H9.49915V10.0586H10.256Z" fill="#F5B400"/>
</g>
<defs>
<filter id="filter0_bd_601_2188" x="-11.6855" y="-11.6667" width="43.8896" height="43.8833" filterUnits="userSpaceOnUse" color-interpolation-filters="sRGB">
<feFlood flood-opacity="0" result="BackgroundImageFix"/>
<feGaussianBlur in="BackgroundImage" stdDeviation="10"/>
<feComposite in2="SourceAlpha" operator="in" result="effect1_backgroundBlur_601_2188"/>
<feColorMatrix in="SourceAlpha" type="matrix" values="0 0 0 0 0 0 0 0 0 0 0 0 0 0 0 0 0 0 127 0" result="hardAlpha"/>
<feOffset dy="1"/>
<feGaussianBlur stdDeviation="0.5"/>
<feColorMatrix type="matrix" values="0 0 0 0 0.933333 0 0 0 0 0.619608 0 0 0 0 0.0156863 0 0 0 0.25 0"/>
<feBlend mode="normal" in2="effect1_backgroundBlur_601_2188" result="effect2_dropShadow_601_2188"/>
<feBlend mode="normal" in="SourceGraphic" in2="effect2_dropShadow_601_2188" result="shape"/>
</filter>
</defs>
</svg>
