<svg width="2" height="7" viewBox="0 0 2 7" fill="none" xmlns="http://www.w3.org/2000/svg">
<path fill-rule="evenodd" clip-rule="evenodd" d="M1.18179 0.4424C1.14636 0.315 1.07259 0.203467 0.96824 0.1232C0.864379 0.0429333 0.737707 0 0.606667 0C0.476112 0 0.348955 0.0429333 0.245093 0.1232C0.140747 0.203467 0.066976 0.315 0.0315467 0.4424C0.01456 0.503067 0.00728 0.5642 0.00339733 0.626267C0 0.695333 0 0.763933 0 0.832533V6.167C0 6.2356 0 6.3042 0.00339733 6.37327C0.00728 6.4358 0.01456 6.49647 0.0315467 6.55713C0.066976 6.68453 0.140747 6.79607 0.245093 6.87633C0.348955 6.9566 0.476112 7 0.606667 7C0.737707 7 0.864379 6.9566 0.96824 6.87633C1.07259 6.79607 1.14636 6.68453 1.18179 6.55713C1.19877 6.49647 1.20605 6.4358 1.20994 6.37327C1.21333 6.3042 1.21333 6.2356 1.21333 6.167V0.832533C1.21333 0.763933 1.21333 0.695333 1.20994 0.626267C1.20605 0.5642 1.19877 0.503067 1.18179 0.4424V0.4424Z" fill="#262883"/>
</svg>
