<svg width="14" height="14" viewBox="0 0 14 14" fill="none" xmlns="http://www.w3.org/2000/svg">
<path d="M11.5818 6.49081C11.5818 9.30244 9.30254 11.5817 6.49091 11.5817C3.67928 11.5817 1.4 9.30244 1.4 6.49081C1.4 3.67918 3.67928 1.3999 6.49091 1.3999C9.30254 1.3999 11.5818 3.67918 11.5818 6.49081Z" fill="#EE9E04"/>
<path d="M12.9182 7.50919C12.9182 10.4965 10.4964 12.9183 7.50909 12.9183C4.52173 12.9183 2.1 10.4965 2.1 7.50919C2.1 4.52183 4.52173 2.1001 7.50909 2.1001C10.4964 2.1001 12.9182 4.52183 12.9182 7.50919Z" fill="#F5B400"/>
<path fill-rule="evenodd" clip-rule="evenodd" d="M7 12.274C9.91273 12.274 12.274 9.91273 12.274 7C12.274 4.08727 9.91273 1.72603 7 1.72603C4.08727 1.72603 1.72603 4.08727 1.72603 7C1.72603 9.91273 4.08727 12.274 7 12.274ZM7 14C10.866 14 14 10.866 14 7C14 3.13401 10.866 0 7 0C3.13401 0 0 3.13401 0 7C0 10.866 3.13401 14 7 14Z" fill="#FFDB03"/>
<path fill-rule="evenodd" clip-rule="evenodd" d="M7.19091 12.1902C9.95188 12.1902 12.1901 9.95198 12.1901 7.19101C12.1901 4.43004 9.95188 2.19183 7.19091 2.19183C4.42994 2.19183 2.19173 4.43004 2.19173 7.19101C2.19173 9.95198 4.42994 12.1902 7.19091 12.1902ZM7.19091 12.2819C10.0025 12.2819 12.2818 10.0026 12.2818 7.19101C12.2818 4.37938 10.0025 2.1001 7.19091 2.1001C4.37928 2.1001 2.1 4.37938 2.1 7.19101C2.1 10.0026 4.37928 12.2819 7.19091 12.2819Z" fill="#EE9E04"/>
<path fill-rule="evenodd" clip-rule="evenodd" d="M7 13.9041C10.813 13.9041 13.9041 10.813 13.9041 7C13.9041 3.18697 10.813 0.0958904 7 0.0958904C3.18697 0.0958904 0.0958904 3.18697 0.0958904 7C0.0958904 10.813 3.18697 13.9041 7 13.9041ZM7 14C10.866 14 14 10.866 14 7C14 3.13401 10.866 0 7 0C3.13401 0 0 3.13401 0 7C0 10.866 3.13401 14 7 14Z" fill="#FEFA2B"/>
<path d="M6.71961 4.42859C6.87975 4.12374 7.34245 4.12374 7.50258 4.42859L8.12576 5.61493C8.18935 5.73598 8.31228 5.81989 8.45447 5.8393L9.84794 6.02954C10.206 6.07842 10.349 6.49186 10.0899 6.72915L9.08157 7.65258C8.97868 7.74681 8.93172 7.88258 8.95601 8.01563L9.19405 9.31954C9.25521 9.65461 8.88089 9.91012 8.56061 9.75193L7.31425 9.1363C7.18707 9.07348 7.03513 9.07348 6.90795 9.1363L5.66159 9.75193C5.34131 9.91012 4.96698 9.65461 5.02815 9.31954L5.26618 8.01563C5.29047 7.88258 5.24352 7.74681 5.14063 7.65258L4.1323 6.72915C3.87319 6.49186 4.01617 6.07842 4.37425 6.02954L5.76773 5.8393C5.90992 5.81989 6.03284 5.73598 6.09643 5.61493L6.71961 4.42859Z" fill="#FFDB03"/>
<g filter="url(#filter0_bd_0_39)">
<path d="M6.09857 8.76C6.07229 8.76 6.04863 8.7508 6.0276 8.7324C6.0092 8.71137 6 8.68771 6 8.66143V6.09857C6 6.06966 6.0092 6.046 6.0276 6.0276C6.04863 6.0092 6.07229 6 6.09857 6H7.17103C7.51537 6 7.78349 6.07886 7.97537 6.23657C8.16989 6.39166 8.26714 6.61246 8.26714 6.89897C8.26714 7.08297 8.22377 7.23937 8.13703 7.36817C8.05029 7.49697 7.93069 7.59554 7.77823 7.66389L8.3184 8.63383C8.32629 8.6496 8.33023 8.66406 8.33023 8.6772C8.33023 8.69823 8.32103 8.71794 8.30263 8.73634C8.28686 8.75211 8.26846 8.76 8.24743 8.76H7.72303C7.6468 8.76 7.59291 8.72451 7.56137 8.65354L7.11189 7.78611H6.70971V8.66143C6.70971 8.69034 6.6992 8.714 6.67817 8.7324C6.65977 8.7508 6.63611 8.76 6.6072 8.76H6.09857ZM7.16314 7.22623C7.28406 7.22623 7.37606 7.19731 7.43914 7.13949C7.50223 7.07903 7.53377 6.99623 7.53377 6.89109C7.53377 6.78594 7.50223 6.70314 7.43914 6.64269C7.37869 6.5796 7.28669 6.54806 7.16314 6.54806H6.70971V7.22623H7.16314Z" fill="#F5B400"/>
</g>
<defs>
<filter id="filter0_bd_0_39" x="-14" y="-14" width="42.3302" height="42.76" filterUnits="userSpaceOnUse" color-interpolation-filters="sRGB">
<feFlood flood-opacity="0" result="BackgroundImageFix"/>
<feGaussianBlur in="BackgroundImage" stdDeviation="10"/>
<feComposite in2="SourceAlpha" operator="in" result="effect1_backgroundBlur_0_39"/>
<feColorMatrix in="SourceAlpha" type="matrix" values="0 0 0 0 0 0 0 0 0 0 0 0 0 0 0 0 0 0 127 0" result="hardAlpha"/>
<feOffset dy="1"/>
<feGaussianBlur stdDeviation="0.5"/>
<feColorMatrix type="matrix" values="0 0 0 0 0.933333 0 0 0 0 0.619608 0 0 0 0 0.0156863 0 0 0 0.25 0"/>
<feBlend mode="normal" in2="effect1_backgroundBlur_0_39" result="effect2_dropShadow_0_39"/>
<feBlend mode="normal" in="SourceGraphic" in2="effect2_dropShadow_0_39" result="shape"/>
</filter>
</defs>
</svg>
