<svg width="14" height="14" viewBox="0 0 14 14" fill="none" xmlns="http://www.w3.org/2000/svg">
<path d="M11.4471 5.08631C11.9495 5.08631 12.4406 4.93716 12.8584 4.65771C13.2761 4.37827 13.6017 3.98108 13.7939 3.51638C13.9862 3.05168 14.0365 2.54034 13.9385 2.04701C13.8405 1.55369 13.5986 1.10054 13.2433 0.744874C12.8881 0.389208 12.4354 0.146995 11.9427 0.0488672C11.45 -0.0492611 10.9392 0.0011019 10.4751 0.193587C10.0109 0.386073 9.61417 0.712035 9.33506 1.13026C9.05594 1.54848 8.90696 2.04017 8.90696 2.54316C8.91035 2.783 8.9482 3.02111 9.01936 3.25015L4.5004 5.37623C4.16764 4.97201 3.71832 4.68051 3.21385 4.54159C2.70938 4.40267 2.17437 4.4231 1.68193 4.60008C1.18949 4.77706 0.76365 5.10197 0.462606 5.53039C0.161562 5.95882 0 6.46986 0 6.99368C0 7.5175 0.161562 8.02854 0.462606 8.45697C0.76365 8.88539 1.18949 9.2103 1.68193 9.38728C2.17437 9.56426 2.70938 9.58469 3.21385 9.44577C3.71832 9.30685 4.16764 9.01535 4.5004 8.61113L9.01936 10.7372C8.9482 10.9663 8.91035 11.2044 8.90696 11.4442C8.90551 12.0336 9.10805 12.6052 9.48013 13.0619C9.85221 13.5186 10.3708 13.8322 10.9478 13.9492C11.5247 14.0663 12.1244 13.9796 12.6447 13.7039C13.165 13.4282 13.5738 12.9805 13.8016 12.4371C14.0294 11.8937 14.0621 11.288 13.8942 10.7231C13.7262 10.1582 13.368 9.66908 12.8804 9.33883C12.3928 9.00858 11.8061 8.85765 11.2199 8.91172C10.6337 8.96579 10.0843 9.22151 9.6652 9.63538L5.04907 7.46416C5.11258 7.15394 5.11258 6.83405 5.04907 6.52383L9.6652 4.35198C10.1394 4.82221 10.7797 5.08611 11.4471 5.08631ZM11.4471 1.27158C11.6983 1.27158 11.9439 1.34616 12.1528 1.48588C12.3616 1.6256 12.5244 1.82419 12.6205 2.05655C12.7167 2.2889 12.7418 2.54457 12.6928 2.79123C12.6438 3.03789 12.5228 3.26447 12.3452 3.4423C12.1676 3.62013 11.9413 3.74124 11.6949 3.7903C11.4485 3.83937 11.1932 3.81418 10.9611 3.71794C10.729 3.6217 10.5307 3.45872 10.3911 3.24961C10.2515 3.0405 10.177 2.79465 10.177 2.54316C10.177 2.20591 10.3109 1.88248 10.549 1.64402C10.7872 1.40555 11.1103 1.27158 11.4471 1.27158V1.27158ZM2.55653 8.26526C2.30533 8.26526 2.05977 8.19068 1.85091 8.05096C1.64204 7.91124 1.47925 7.71264 1.38312 7.48029C1.28699 7.24794 1.26184 6.99227 1.31085 6.74561C1.35985 6.49895 1.48082 6.27237 1.65844 6.09454C1.83607 5.91671 2.06237 5.7956 2.30875 5.74653C2.55512 5.69747 2.81049 5.72265 3.04257 5.81889C3.27465 5.91514 3.47301 6.07812 3.61257 6.28723C3.75213 6.49634 3.82662 6.74219 3.82662 6.99368C3.82662 7.33092 3.6928 7.65435 3.45462 7.89282C3.21643 8.13129 2.89338 8.26526 2.55653 8.26526ZM11.4471 10.1726C11.6983 10.1726 11.9439 10.2472 12.1528 10.3869C12.3616 10.5266 12.5244 10.7252 12.6205 10.9576C12.7167 11.1899 12.7418 11.4456 12.6928 11.6923C12.6438 11.9389 12.5228 12.1655 12.3452 12.3433C12.1676 12.5212 11.9413 12.6423 11.6949 12.6913C11.4485 12.7404 11.1932 12.7152 10.9611 12.619C10.729 12.5227 10.5307 12.3598 10.3911 12.1507C10.2515 11.9415 10.177 11.6957 10.177 11.4442C10.177 11.107 10.3109 10.7835 10.549 10.5451C10.7872 10.3066 11.1103 10.1726 11.4471 10.1726V10.1726Z" fill="#000140"/>
</svg>
