<svg width="2" height="4" viewBox="0 0 2 4" fill="none" xmlns="http://www.w3.org/2000/svg">
<path fill-rule="evenodd" clip-rule="evenodd" d="M1.26619 0.473998C1.22823 0.337499 1.1492 0.217999 1.0374 0.131999C0.926116 0.0459998 0.790397 0 0.649997 0C0.510118 0 0.373878 0.0459998 0.262599 0.131999C0.150799 0.217999 0.0717597 0.337499 0.0337999 0.473998C0.0155999 0.538998 0.00779997 0.604497 0.00363998 0.670997C0 0.744997 0 0.818496 0 0.891996V3.10749C0 3.18099 0 3.25449 0.00363998 3.32849C0.00779997 3.39549 0.0155999 3.46048 0.0337999 3.52548C0.0717597 3.66198 0.150799 3.78148 0.262599 3.86748C0.373878 3.95348 0.510118 3.99998 0.649997 3.99998C0.790397 3.99998 0.926116 3.95348 1.0374 3.86748C1.1492 3.78148 1.22823 3.66198 1.26619 3.52548C1.28439 3.46048 1.29219 3.39549 1.29635 3.32849C1.29999 3.25449 1.29999 3.18099 1.29999 3.10749V0.891996C1.29999 0.818496 1.29999 0.744997 1.29635 0.670997C1.29219 0.604497 1.28439 0.538998 1.26619 0.473998V0.473998Z" fill="#262883"/>
</svg>
