<svg width="2" height="1" viewBox="0 0 2 1" fill="none" xmlns="http://www.w3.org/2000/svg">
<path fill-rule="evenodd" clip-rule="evenodd" d="M1.00724 0.132001C0.895964 0.0460002 0.760244 0 0.619843 0C0.479442 0 0.343722 0.0460002 0.232441 0.132001C0.120121 0.218001 0.0416002 0.337502 0.00312001 0.474002C0.00156001 0.482502 0.00208001 0.491502 0 0.500002C0.00208001 0.508502 0.00156001 0.517002 0.00312001 0.525502C0.0416002 0.662003 0.120121 0.781504 0.232441 0.867504C0.343722 0.953504 0.479442 1 0.619843 1C0.760244 1 0.895964 0.953504 1.00724 0.867504C1.11957 0.781504 1.19809 0.662003 1.23657 0.525502C1.23813 0.517002 1.23761 0.508502 1.23969 0.500002C1.23761 0.491502 1.23813 0.482502 1.23657 0.474002C1.19809 0.337502 1.11957 0.218001 1.00724 0.132001V0.132001Z" fill="#262883"/>
</svg>
