<svg width="10" height="11" viewBox="0 0 10 11" fill="none" xmlns="http://www.w3.org/2000/svg">
<path d="M8.27271 4.64391C8.27271 6.65544 6.64466 8.28611 4.63636 8.28611C2.62805 8.28611 1 6.65544 1 4.64391C1 2.63238 2.62805 1.00171 4.63636 1.00171C6.64466 1.00171 8.27271 2.63238 8.27271 4.64391Z" fill="#EE9E04"/>
<path d="M9.22727 5.37228C9.22727 7.50953 7.49747 9.24211 5.36364 9.24211C3.22981 9.24211 1.5 7.50953 1.5 5.37228C1.5 3.23503 3.22981 1.50244 5.36364 1.50244C7.49747 1.50244 9.22727 3.23503 9.22727 5.37228Z" fill="#F5B400"/>
<path fill-rule="evenodd" clip-rule="evenodd" d="M5 8.78119C7.08053 8.78119 8.76712 7.09189 8.76712 5.00802C8.76712 2.92416 7.08053 1.23486 5 1.23486C2.91948 1.23486 1.23288 2.92416 1.23288 5.00802C1.23288 7.09189 2.91948 8.78119 5 8.78119ZM5 10.016C7.76142 10.016 10 7.77388 10 5.00802C10 2.24217 7.76142 0 5 0C2.23858 0 0 2.24217 0 5.00802C0 7.77388 2.23858 10.016 5 10.016Z" fill="#FFDB03"/>
<path fill-rule="evenodd" clip-rule="evenodd" d="M5.13636 8.72121C7.10848 8.72121 8.70721 7.11993 8.70721 5.14464C8.70721 3.16935 7.10848 1.56807 5.13636 1.56807C3.16424 1.56807 1.56552 3.16935 1.56552 5.14464C1.56552 7.11993 3.16424 8.72121 5.13636 8.72121ZM5.13636 8.78684C7.14467 8.78684 8.77273 7.15617 8.77273 5.14464C8.77273 3.13311 7.14467 1.50244 5.13636 1.50244C3.12805 1.50244 1.5 3.13311 1.5 5.14464C1.5 7.15617 3.12805 8.78684 5.13636 8.78684Z" fill="#EE9E04"/>
<path fill-rule="evenodd" clip-rule="evenodd" d="M5 9.94744C7.7236 9.94744 9.93151 7.73599 9.93151 5.00802C9.93151 2.28006 7.7236 0.0686031 5 0.0686031C2.2764 0.0686031 0.0684932 2.28006 0.0684932 5.00802C0.0684932 7.73599 2.2764 9.94744 5 9.94744ZM5 10.016C7.76142 10.016 10 7.77388 10 5.00802C10 2.24217 7.76142 0 5 0C2.23858 0 0 2.24217 0 5.00802C0 7.77388 2.23858 10.016 5 10.016Z" fill="#FEFA2B"/>
<path d="M4.94259 3.16846C5.05697 2.95036 5.38747 2.95036 5.50185 3.16846L5.94698 4.0172C5.9924 4.10381 6.0802 4.16384 6.18177 4.17773L7.17711 4.31383C7.43288 4.3488 7.53501 4.64459 7.34993 4.81435L6.6297 5.47501C6.5562 5.54242 6.52267 5.63955 6.54001 5.73474L6.71004 6.6676C6.75373 6.90732 6.48635 7.09012 6.25759 6.97694L5.36733 6.53651C5.27648 6.49156 5.16796 6.49156 5.07711 6.53651L4.18685 6.97694C3.95809 7.09012 3.69071 6.90732 3.7344 6.6676L3.90443 5.73474C3.92178 5.63955 3.88824 5.54242 3.81474 5.47501L3.09451 4.81435C2.90943 4.64459 3.01156 4.3488 3.26733 4.31383L4.26267 4.17773C4.36424 4.16384 4.45204 4.10381 4.49746 4.0172L4.94259 3.16846Z" fill="#FFDB03"/>
<g filter="url(#filter0_bd_601_3058)">
<path d="M4.07928 6.76C4.053 6.76 4.02934 6.7508 4.00831 6.7324C3.98991 6.71137 3.98071 6.68771 3.98071 6.66143V4.09857C3.98071 4.06966 3.98991 4.046 4.00831 4.0276C4.02934 4.0092 4.053 4 4.07928 4H5.15174C5.49608 4 5.7642 4.07886 5.95608 4.23657C6.1506 4.39166 6.24786 4.61246 6.24786 4.89897C6.24786 5.08297 6.20448 5.23937 6.11774 5.36817C6.031 5.49697 5.9114 5.59554 5.75894 5.66389L6.29911 6.63383C6.307 6.6496 6.31094 6.66406 6.31094 6.6772C6.31094 6.69823 6.30174 6.71794 6.28334 6.73634C6.26757 6.75211 6.24917 6.76 6.22814 6.76H5.70374C5.62751 6.76 5.57363 6.72451 5.54208 6.65354L5.0926 5.78611H4.69043V6.66143C4.69043 6.69034 4.67991 6.714 4.65888 6.7324C4.64048 6.7508 4.61683 6.76 4.58791 6.76H4.07928ZM5.14386 5.22623C5.26477 5.22623 5.35677 5.19731 5.41986 5.13949C5.48294 5.07903 5.51448 4.99623 5.51448 4.89109C5.51448 4.78594 5.48294 4.70314 5.41986 4.64269C5.3594 4.5796 5.2674 4.54806 5.14386 4.54806H4.69043V5.22623H5.14386Z" fill="#F5B400"/>
</g>
<defs>
<filter id="filter0_bd_601_3058" x="-16.0193" y="-16" width="42.3303" height="42.76" filterUnits="userSpaceOnUse" color-interpolation-filters="sRGB">
<feFlood flood-opacity="0" result="BackgroundImageFix"/>
<feGaussianBlur in="BackgroundImage" stdDeviation="10"/>
<feComposite in2="SourceAlpha" operator="in" result="effect1_backgroundBlur_601_3058"/>
<feColorMatrix in="SourceAlpha" type="matrix" values="0 0 0 0 0 0 0 0 0 0 0 0 0 0 0 0 0 0 127 0" result="hardAlpha"/>
<feOffset dy="1"/>
<feGaussianBlur stdDeviation="0.5"/>
<feColorMatrix type="matrix" values="0 0 0 0 0.933333 0 0 0 0 0.619608 0 0 0 0 0.0156863 0 0 0 0.25 0"/>
<feBlend mode="normal" in2="effect1_backgroundBlur_601_3058" result="effect2_dropShadow_601_3058"/>
<feBlend mode="normal" in="SourceGraphic" in2="effect2_dropShadow_601_3058" result="shape"/>
</filter>
</defs>
</svg>
