<svg width="2" height="1" viewBox="0 0 2 1" fill="none" xmlns="http://www.w3.org/2000/svg">
<path fill-rule="evenodd" clip-rule="evenodd" d="M1.0019 0.132001C0.891211 0.0460002 0.75621 0 0.616555 0C0.476899 0 0.341898 0.0460002 0.231208 0.132001C0.119483 0.218001 0.0413795 0.337502 0.00310346 0.474002C0.00155173 0.482502 0.00206898 0.491502 0 0.500002C0.00206898 0.508502 0.00155173 0.517002 0.00310346 0.525502C0.0413795 0.662003 0.119483 0.781504 0.231208 0.867504C0.341898 0.953504 0.476899 1 0.616555 1C0.75621 1 0.891211 0.953504 1.0019 0.867504C1.11363 0.781504 1.19173 0.662003 1.23001 0.525502C1.23156 0.517002 1.23104 0.508502 1.23311 0.500002C1.23104 0.491502 1.23156 0.482502 1.23001 0.474002C1.19173 0.337502 1.11363 0.218001 1.0019 0.132001V0.132001Z" fill="#262883"/>
</svg>
