<svg width="2" height="6" viewBox="0 0 2 6" fill="none" xmlns="http://www.w3.org/2000/svg">
<path fill-rule="evenodd" clip-rule="evenodd" d="M1.29584 0.670999C1.2922 0.604499 1.2844 0.538999 1.26672 0.473999C1.22824 0.3375 1.14972 0.218 1.0374 0.132C0.926119 0.0459999 0.790399 0 0.649999 0C0.509599 0 0.37388 0.0459999 0.2626 0.132C0.1508 0.218 0.0717599 0.3375 0.0338 0.473999C0.0156 0.538999 0.00779999 0.604499 0.00364 0.670999C0 0.744999 0 0.818499 0 0.891999V0.893499V5.10599V5.10749C0 5.18099 0 5.25449 0.00364 5.32849C0.00779999 5.39549 0.0156 5.46049 0.0338 5.52549C0.0717599 5.66199 0.1508 5.78149 0.2626 5.86749C0.37388 5.95349 0.509599 5.99999 0.649999 5.99999C0.790399 5.99999 0.926119 5.95349 1.0374 5.86749C1.14972 5.78149 1.22824 5.66199 1.26672 5.52549C1.2844 5.46049 1.2922 5.39549 1.29584 5.32849C1.30052 5.25449 1.3 5.18099 1.3 5.10749V5.10599V0.893499V0.891999C1.3 0.818499 1.30052 0.744999 1.29584 0.670999V0.670999Z" fill="#262883"/>
</svg>
