<svg width="2" height="4" viewBox="0 0 2 4" fill="none" xmlns="http://www.w3.org/2000/svg">
<path fill-rule="evenodd" clip-rule="evenodd" d="M1.28898 0.670997C1.28536 0.604497 1.2776 0.538998 1.26001 0.473998C1.22174 0.337499 1.14363 0.217999 1.03191 0.131999C0.92122 0.0459998 0.786221 0 0.646566 0C0.506912 0 0.371912 0.0459998 0.261223 0.131999C0.149499 0.217999 0.0713961 0.337499 0.0331204 0.473998C0.0155343 0.538998 0.00777569 0.604497 0.00415501 0.670997C-0.00050014 0.744997 1.70988e-05 0.818496 1.70988e-05 0.891996V0.893496V3.10599V3.10749C1.70988e-05 3.18099 -0.00050014 3.25449 0.00415501 3.32849C0.00777569 3.39549 0.0155343 3.46048 0.0331204 3.52548C0.0713961 3.66198 0.149499 3.78148 0.261223 3.86748C0.371912 3.95348 0.506912 3.99998 0.646566 3.99998C0.786221 3.99998 0.92122 3.95348 1.03191 3.86748C1.14363 3.78148 1.22174 3.66198 1.26001 3.52548C1.2776 3.46048 1.28536 3.39549 1.28898 3.32849C1.29363 3.25449 1.29312 3.18099 1.29312 3.10749V3.10599V0.893496V0.891996C1.29312 0.818496 1.29363 0.744997 1.28898 0.670997V0.670997Z" fill="#262883"/>
</svg>
