<svg width="13" height="12" viewBox="0 0 13 12" fill="none" xmlns="http://www.w3.org/2000/svg">
<path d="M10.6229 4.3597C11.0892 4.3597 11.5449 4.23185 11.9326 3.99233C12.3202 3.7528 12.6224 3.41236 12.8008 3.01404C12.9792 2.61573 13.0259 2.17743 12.9349 1.75458C12.844 1.33173 12.6195 0.943321 12.2898 0.638464C11.9601 0.333607 11.5401 0.125996 11.0828 0.0418861C10.6256 -0.0422238 10.1516 0.000944487 9.72085 0.165932C9.29011 0.33092 8.92195 0.610316 8.66293 0.96879C8.40391 1.32726 8.26566 1.74872 8.26566 2.17985C8.2688 2.38543 8.30393 2.58952 8.36997 2.78585L4.17637 4.6082C3.86757 4.26172 3.4506 4.01187 2.98245 3.89279C2.5143 3.77372 2.01781 3.79123 1.56083 3.94293C1.10385 4.09462 0.708667 4.37311 0.429298 4.74034C0.149929 5.10756 0 5.54559 0 5.99458C0 6.44357 0.149929 6.88161 0.429298 7.24883C0.708667 7.61605 1.10385 7.89454 1.56083 8.04624C2.01781 8.19794 2.5143 8.21545 2.98245 8.09637C3.4506 7.9773 3.86757 7.72745 4.17637 7.38097L8.36997 9.20332C8.30393 9.39964 8.2688 9.60374 8.26566 9.80932C8.26431 10.3145 8.45227 10.8045 8.79756 11.1959C9.14285 11.5874 9.62413 11.8562 10.1595 11.9565C10.6949 12.0568 11.2514 11.9825 11.7342 11.7462C12.2171 11.5099 12.5965 11.1262 12.8079 10.6604C13.0193 10.1946 13.0496 9.67542 12.8938 9.19124C12.7379 8.70707 12.4055 8.28778 11.953 8.00471C11.5006 7.72164 10.956 7.59227 10.412 7.63862C9.86805 7.68496 9.35823 7.90415 8.9693 8.2589L4.68554 6.39786C4.74447 6.13195 4.74447 5.85776 4.68554 5.59186L8.9693 3.73027C9.40933 4.13333 10.0036 4.35952 10.6229 4.3597ZM10.6229 1.08993C10.856 1.08993 11.0839 1.15385 11.2778 1.27361C11.4716 1.39337 11.6226 1.5636 11.7119 1.76275C11.8011 1.96191 11.8244 2.18106 11.7789 2.39248C11.7335 2.60391 11.6212 2.79811 11.4564 2.95054C11.2915 3.10297 11.0815 3.20678 10.8529 3.24883C10.6242 3.29089 10.3873 3.2693 10.1719 3.18681C9.95652 3.10431 9.77244 2.96462 9.64293 2.78538C9.51342 2.60614 9.4443 2.39542 9.4443 2.17985C9.4443 1.89078 9.56848 1.61356 9.78951 1.40916C10.0106 1.20476 10.3103 1.08993 10.6229 1.08993V1.08993ZM2.37246 7.08451C2.13935 7.08451 1.91147 7.02058 1.71764 6.90082C1.52381 6.78106 1.37275 6.61084 1.28354 6.41168C1.19433 6.21252 1.17099 5.99337 1.21647 5.78195C1.26194 5.57053 1.3742 5.37632 1.53903 5.22389C1.70387 5.07146 1.91388 4.96766 2.14252 4.9256C2.37115 4.88355 2.60814 4.90513 2.8235 4.98762C3.03887 5.07012 3.22295 5.20982 3.35246 5.38905C3.48197 5.56829 3.5511 5.77902 3.5511 5.99458C3.5511 6.28365 3.42692 6.56088 3.20588 6.76528C2.98484 6.96968 2.68505 7.08451 2.37246 7.08451ZM10.6229 8.71939C10.856 8.71939 11.0839 8.78332 11.2778 8.90308C11.4716 9.02284 11.6226 9.19306 11.7119 9.39222C11.8011 9.59138 11.8244 9.81053 11.7789 10.022C11.7335 10.2334 11.6212 10.4276 11.4564 10.58C11.2915 10.7324 11.0815 10.8362 10.8529 10.8783C10.6242 10.9204 10.3873 10.8988 10.1719 10.8163C9.95652 10.7338 9.77244 10.5941 9.64293 10.4148C9.51342 10.2356 9.4443 10.0249 9.4443 9.80932C9.4443 9.52025 9.56848 9.24303 9.78951 9.03863C10.0106 8.83422 10.3103 8.71939 10.6229 8.71939V8.71939Z" fill="#FFDB03"/>
</svg>
