<svg width="2" height="11" viewBox="0 0 2 11" fill="none" xmlns="http://www.w3.org/2000/svg">
<path fill-rule="evenodd" clip-rule="evenodd" d="M1.10834 0.41712C1.07512 0.297 1.00593 0.19184 0.908068 0.11616C0.810661 0.04048 0.691861 0 0.568965 0C0.446524 0 0.327269 0.04048 0.229862 0.11616C0.132 0.19184 0.0628137 0.297 0.0295862 0.41712C0.0136552 0.47432 0.00682758 0.531959 0.0031862 0.590479C0 0.655599 0 0.720279 0 0.784959V0.786279V10.2133V10.2146C0 10.2797 0 10.3439 0.0031862 10.4091C0.00682758 10.468 0.0136552 10.5252 0.0295862 10.582C0.0628137 10.7025 0.132 10.8077 0.229862 10.8834C0.327269 10.9591 0.446524 11 0.568965 11C0.691861 11 0.810661 10.9591 0.908068 10.8834C1.00593 10.8077 1.07512 10.7025 1.10834 10.582C1.12427 10.5252 1.1311 10.468 1.13474 10.4091C1.13793 10.3439 1.13793 10.2797 1.13793 10.2146V0.784959C1.13793 0.720279 1.13793 0.655599 1.13474 0.590479C1.1311 0.531959 1.12427 0.47432 1.10834 0.41712V0.41712Z" fill="#262883"/>
</svg>
