<svg width="24" height="25" viewBox="0 0 24 25" fill="none" xmlns="http://www.w3.org/2000/svg">
<path d="M7.98525 12.2062L9.36495 13.2406L8.83742 14.9216C8.67794 15.4296 8.84398 15.9606 9.26031 16.2746C9.46824 16.4313 9.7064 16.5097 9.94462 16.5097C10.1834 16.5097 10.4221 16.431 10.6303 16.2734L12.0073 15.2317L13.3768 16.2652C13.7931 16.5795 14.331 16.5792 14.7472 16.2644C15.1632 15.9497 15.3284 15.4181 15.168 14.9103L14.6405 13.2409L16.0167 12.2048C16.433 11.8914 16.5994 11.3606 16.4408 10.8528C16.2821 10.3449 15.8473 10.0168 15.3332 10.0168H13.6253L13.102 8.34064C12.9432 7.83248 12.5086 7.50439 11.9943 7.50439C11.9938 7.50439 11.9932 7.50439 11.9928 7.50439C11.4779 7.505 11.0433 7.83431 10.8856 8.34338L10.3675 10.0168H8.66687C8.15211 10.0168 7.71721 10.3454 7.5589 10.854C7.40048 11.3626 7.56793 11.8934 7.98525 12.2062V12.2062ZM10.7945 11.2335C11.049 11.2335 11.2743 11.0629 11.3523 10.8113L11.9942 8.7382L12.6419 10.8127C12.7202 11.0636 12.9453 11.2335 13.1993 11.2335H15.3106L13.6066 12.5164C13.4004 12.6716 13.3145 12.9473 13.3938 13.1985L14.0474 15.2672L12.3513 13.9872C12.1457 13.832 11.8673 13.8323 11.6618 13.9876L9.95851 15.2762L10.6115 13.1956C10.6904 12.9442 10.6039 12.6686 10.3974 12.5138L8.68948 11.2335H10.7945Z" fill="#F2F5F9" fill-opacity="0.1"/>
<path d="M7.98525 12.7065L9.36495 13.7408L8.83742 15.4218C8.67794 15.9298 8.84398 16.4609 9.26031 16.7748C9.46824 16.9316 9.7064 17.0099 9.94462 17.0099C10.1834 17.0099 10.4221 16.9312 10.6303 16.7736L12.0073 15.7319L13.3768 16.7655C13.7931 17.0797 14.331 17.0794 14.7472 16.7646C15.1632 16.4499 15.3284 15.9184 15.168 15.4105L14.6405 13.7412L16.0167 12.705C16.433 12.3916 16.5994 11.8609 16.4408 11.353C16.2821 10.8452 15.8473 10.517 15.3332 10.517H13.6253L13.102 8.84088C12.9432 8.33272 12.5086 8.00464 11.9943 8.00464C11.9938 8.00464 11.9932 8.00464 11.9928 8.00464C11.4779 8.00525 11.0433 8.33455 10.8856 8.84362L10.3675 10.517H8.66687C8.15211 10.517 7.71721 10.8457 7.5589 11.3542C7.40048 11.8628 7.56793 12.3936 7.98525 12.7065V12.7065ZM10.7945 11.7337C11.049 11.7337 11.2743 11.5631 11.3523 11.3116L11.9942 9.23844L12.6419 11.313C12.7202 11.5639 12.9453 11.7337 13.1993 11.7337H15.3106L13.6066 13.0166C13.4004 13.1718 13.3145 13.4475 13.3938 13.6988L14.0474 15.7675L12.3513 14.4874C12.1457 14.3323 11.8673 14.3325 11.6618 14.4879L9.95851 15.7765L10.6115 13.6958C10.6904 13.4444 10.6039 13.1688 10.3974 13.0141L8.68948 11.7337H10.7945Z" fill="#F2F5F9" fill-opacity="0.1"/>
<path fill-rule="evenodd" clip-rule="evenodd" d="M12 22.5371C17.8121 22.5371 22.5238 17.8226 22.5238 12.0071C22.5238 6.1915 17.8121 1.47706 12 1.47706C6.18786 1.47706 1.47619 6.1915 1.47619 12.0071C1.47619 17.8226 6.18786 22.5371 12 22.5371ZM12 24.0141C18.6274 24.0141 24 18.6384 24 12.0071C24 5.37574 18.6274 0 12 0C5.37258 0 0 5.37574 0 12.0071C0 18.6384 5.37258 24.0141 12 24.0141Z" fill="#F2F5F9" fill-opacity="0.1"/>
<path fill-rule="evenodd" clip-rule="evenodd" d="M12 19.1889C15.9642 19.1889 19.1778 15.9735 19.1778 12.007C19.1778 8.04044 15.9642 4.82495 12 4.82495C8.03582 4.82495 4.82222 8.04044 4.82222 12.007C4.82222 15.9735 8.03582 19.1889 12 19.1889ZM12 20.5119C16.6944 20.5119 20.5 16.7041 20.5 12.007C20.5 7.30977 16.6944 3.50195 12 3.50195C7.30558 3.50195 3.5 7.30977 3.5 12.007C3.5 16.7041 7.30558 20.5119 12 20.5119Z" fill="#F2F5F9" fill-opacity="0.1"/>
</svg>
