<svg width="26" height="28" viewBox="0 0 26 28" fill="none" xmlns="http://www.w3.org/2000/svg">
<path d="M16.1768 22.0745L24.3823 15.4083C25.139 14.7936 25.4162 13.8116 25.1567 12.9325L22.6914 4.26423C22.6032 3.98775 22.4711 3.73177 22.2786 3.49458L20.7981 1.67007C19.9838 0.666584 18.497 0.512172 17.4942 1.32693L11.7412 6.00067L9.22437 1.128L9.01484 0.813858C8.71134 0.439832 8.27505 0.219092 7.82902 0.172768L6.08533 2.6491e-05L4.95535 10.8929C4.89362 11.488 5.06317 12.1071 5.47031 12.6088L12.8728 21.7314C13.6871 22.7349 15.1739 22.8893 16.1768 22.0745ZM7.29375 11.1274L8.03793 3.95366L10.7692 9.81764L18.9747 3.15144L20.4552 4.97596L22.9018 13.5838L14.6963 20.25L7.29375 11.1274ZM-1.7765e-05 17.053L3.64687 14.0902L12.5299 25.0373L8.88302 28L-1.7765e-05 17.053Z" fill="#E8E8E8" fill-opacity="0.15"/>
</svg>
