<svg width="2" height="14" viewBox="0 0 2 14" fill="none" xmlns="http://www.w3.org/2000/svg">
<path fill-rule="evenodd" clip-rule="evenodd" d="M1.14366 0.428129C1.10938 0.304839 1.03799 0.196903 0.937006 0.119226C0.836496 0.0415484 0.71391 0 0.587097 0C0.460754 0 0.337698 0.0415484 0.237187 0.119226C0.136206 0.196903 0.0648155 0.304839 0.030529 0.428129C0.0140903 0.486839 0.00704516 0.546 0.00328774 0.606064C0 0.672903 0 0.73929 0 0.805677V13.1939C0 13.2607 0 13.3266 0.00328774 13.3935C0.00704516 13.454 0.0140903 13.5127 0.030529 13.571C0.0648155 13.6947 0.136206 13.8026 0.237187 13.8803C0.337698 13.958 0.460754 14 0.587097 14C0.71391 14 0.836496 13.958 0.937006 13.8803C1.03799 13.8026 1.10938 13.6947 1.14366 13.571C1.1601 13.5127 1.16715 13.454 1.17091 13.3935C1.17419 13.3266 1.17419 13.2607 1.17419 13.1939V0.805677C1.17419 0.73929 1.17419 0.672903 1.17091 0.606064C1.16715 0.546 1.1601 0.486839 1.14366 0.428129V0.428129Z" fill="#262883"/>
</svg>
