<svg width="14" height="14" viewBox="0 0 14 14" fill="none" xmlns="http://www.w3.org/2000/svg">
<path d="M11.5818 6.49093C11.5818 9.30257 9.30254 11.5818 6.4909 11.5818C3.67927 11.5818 1.39999 9.30257 1.39999 6.49093C1.39999 3.6793 3.67927 1.40002 6.4909 1.40002C9.30254 1.40002 11.5818 3.6793 11.5818 6.49093Z" fill="#EE9E04"/>
<path d="M12.9182 7.50907C12.9182 10.4964 10.4965 12.9182 7.5091 12.9182C4.52174 12.9182 2.10001 10.4964 2.10001 7.50907C2.10001 4.52171 4.52174 2.09998 7.5091 2.09998C10.4965 2.09998 12.9182 4.52171 12.9182 7.50907Z" fill="#F5B400"/>
<path fill-rule="evenodd" clip-rule="evenodd" d="M7 12.274C9.91273 12.274 12.274 9.91273 12.274 7C12.274 4.08727 9.91273 1.72603 7 1.72603C4.08727 1.72603 1.72603 4.08727 1.72603 7C1.72603 9.91273 4.08727 12.274 7 12.274ZM7 14C10.866 14 14 10.866 14 7C14 3.13401 10.866 0 7 0C3.13401 0 0 3.13401 0 7C0 10.866 3.13401 14 7 14Z" fill="#FFDB03"/>
<path fill-rule="evenodd" clip-rule="evenodd" d="M7.19092 12.1901C9.95189 12.1901 12.1901 9.95186 12.1901 7.19089C12.1901 4.42991 9.95189 2.1917 7.19092 2.1917C4.42994 2.1917 2.19173 4.42991 2.19173 7.19089C2.19173 9.95186 4.42994 12.1901 7.19092 12.1901ZM7.19092 12.2818C10.0025 12.2818 12.2818 10.0025 12.2818 7.19089C12.2818 4.37925 10.0025 2.09998 7.19092 2.09998C4.37928 2.09998 2.10001 4.37925 2.10001 7.19089C2.10001 10.0025 4.37928 12.2818 7.19092 12.2818Z" fill="#EE9E04"/>
<path fill-rule="evenodd" clip-rule="evenodd" d="M7 13.9041C10.813 13.9041 13.9041 10.813 13.9041 7C13.9041 3.18697 10.813 0.0958904 7 0.0958904C3.18697 0.0958904 0.0958904 3.18697 0.0958904 7C0.0958904 10.813 3.18697 13.9041 7 13.9041ZM7 14C10.866 14 14 10.866 14 7C14 3.13401 10.866 0 7 0C3.13401 0 0 3.13401 0 7C0 10.866 3.13401 14 7 14Z" fill="#FEFA2B"/>
<path d="M6.71963 4.42865C6.87977 4.1238 7.34246 4.1238 7.5026 4.42865L8.12578 5.61499C8.18937 5.73604 8.31229 5.81995 8.45448 5.83936L9.84796 6.0296C10.206 6.07849 10.349 6.49192 10.0899 6.72921L9.08158 7.65265C8.97869 7.74688 8.93174 7.88264 8.95603 8.01569L9.19406 9.3196C9.25523 9.65467 8.8809 9.91018 8.56062 9.75199L7.31426 9.13636C7.18708 9.07355 7.03514 9.07355 6.90796 9.13636L5.6616 9.75199C5.34132 9.91018 4.967 9.65467 5.02816 9.3196L5.2662 8.01569C5.29049 7.88264 5.24353 7.74688 5.14064 7.65265L4.13232 6.72921C3.87321 6.49192 4.01619 6.07849 4.37427 6.0296L5.76774 5.83936C5.90993 5.81995 6.03286 5.73604 6.09645 5.61499L6.71963 4.42865Z" fill="#FFDB03"/>
</svg>
