<svg width="30" height="32" viewBox="0 0 30 32" fill="none" xmlns="http://www.w3.org/2000/svg">
<path d="M16.6667 1.77778V30.2222C16.6667 30.6937 16.4911 31.1459 16.1785 31.4793C15.8659 31.8127 15.442 32 15 32C14.558 32 14.134 31.8127 13.8215 31.4793C13.5089 31.1459 13.3333 30.6937 13.3333 30.2222V1.77778C13.3333 1.30628 13.5089 0.854097 13.8215 0.520699C14.134 0.187301 14.558 0 15 0C15.442 0 15.8659 0.187301 16.1785 0.520699C16.4911 0.854097 16.6667 1.30628 16.6667 1.77778V1.77778ZM8.33333 3.55556C7.89131 3.55556 7.46738 3.74286 7.15482 4.07625C6.84226 4.40965 6.66667 4.86184 6.66667 5.33333V26.6667C6.66667 27.1382 6.84226 27.5903 7.15482 27.9237C7.46738 28.2571 7.89131 28.4444 8.33333 28.4444C8.77536 28.4444 9.19928 28.2571 9.51184 27.9237C9.8244 27.5903 10 27.1382 10 26.6667V5.33333C10 4.86184 9.8244 4.40965 9.51184 4.07625C9.19928 3.74286 8.77536 3.55556 8.33333 3.55556V3.55556ZM1.66667 7.11111C1.22464 7.11111 0.800716 7.29841 0.488155 7.63181C0.175595 7.96521 0 8.41739 0 8.88889V23.1111C0 23.5826 0.175595 24.0348 0.488155 24.3682C0.800716 24.7016 1.22464 24.8889 1.66667 24.8889C2.10869 24.8889 2.53262 24.7016 2.84518 24.3682C3.15774 24.0348 3.33333 23.5826 3.33333 23.1111V8.88889C3.33333 8.41739 3.15774 7.96521 2.84518 7.63181C2.53262 7.29841 2.10869 7.11111 1.66667 7.11111ZM21.6667 3.55556C21.2246 3.55556 20.8007 3.74286 20.4882 4.07625C20.1756 4.40965 20 4.86184 20 5.33333V26.6667C20 27.1382 20.1756 27.5903 20.4882 27.9237C20.8007 28.2571 21.2246 28.4444 21.6667 28.4444C22.1087 28.4444 22.5326 28.2571 22.8452 27.9237C23.1577 27.5903 23.3333 27.1382 23.3333 26.6667V5.33333C23.3333 4.86184 23.1577 4.40965 22.8452 4.07625C22.5326 3.74286 22.1087 3.55556 21.6667 3.55556ZM28.3333 7.11111C27.8913 7.11111 27.4674 7.29841 27.1548 7.63181C26.8423 7.96521 26.6667 8.41739 26.6667 8.88889V23.1111C26.6667 23.5826 26.8423 24.0348 27.1548 24.3682C27.4674 24.7016 27.8913 24.8889 28.3333 24.8889C28.7754 24.8889 29.1993 24.7016 29.5118 24.3682C29.8244 24.0348 30 23.5826 30 23.1111V8.88889C30 8.41739 29.8244 7.96521 29.5118 7.63181C29.1993 7.29841 28.7754 7.11111 28.3333 7.11111Z" fill="#FDE74C"/>
</svg>
