<svg width="13" height="12" viewBox="0 0 13 12" fill="none" xmlns="http://www.w3.org/2000/svg">
<path d="M10.6229 4.35969C11.0892 4.35969 11.5449 4.23185 11.9326 3.99232C12.3202 3.7528 12.6223 3.41235 12.8008 3.01404C12.9792 2.61572 13.0259 2.17743 12.9349 1.75458C12.844 1.33173 12.6194 0.94332 12.2898 0.638463C11.9601 0.333606 11.5401 0.125996 11.0828 0.0418861C10.6255 -0.0422237 10.1516 0.000944486 9.72083 0.165932C9.2901 0.330919 8.92194 0.610315 8.66292 0.968789C8.4039 1.32726 8.26565 1.74871 8.26565 2.17985C8.26879 2.38543 8.30392 2.58952 8.36996 2.78584L4.17636 4.6082C3.86756 4.26172 3.4506 4.01186 2.98245 3.89279C2.5143 3.77371 2.01781 3.79122 1.56083 3.94292C1.10384 4.09462 0.708666 4.37311 0.429297 4.74033C0.149929 5.10755 0 5.54559 0 5.99458C0 6.44357 0.149929 6.8816 0.429297 7.24882C0.708666 7.61604 1.10384 7.89453 1.56083 8.04623C2.01781 8.19793 2.5143 8.21544 2.98245 8.09636C3.4506 7.97729 3.86756 7.72744 4.17636 7.38096L8.36996 9.20331C8.30392 9.39963 8.26879 9.60373 8.26565 9.80931C8.2643 10.3145 8.45226 10.8045 8.79755 11.1959C9.14284 11.5874 9.62412 11.8561 10.1595 11.9565C10.6949 12.0568 11.2514 11.9825 11.7342 11.7462C12.2171 11.5099 12.5965 11.1262 12.8079 10.6604C13.0193 10.1946 13.0496 9.67541 12.8938 9.19123C12.7379 8.70706 12.4055 8.28777 11.953 8.0047C11.5005 7.72163 10.956 7.59227 10.412 7.63861C9.86804 7.68495 9.35822 7.90414 8.96929 8.25889L4.68553 6.39785C4.74447 6.13195 4.74447 5.85775 4.68553 5.59185L8.96929 3.73026C9.40932 4.13332 10.0036 4.35952 10.6229 4.35969ZM10.6229 1.08992C10.856 1.08992 11.0839 1.15385 11.2777 1.27361C11.4716 1.39337 11.6226 1.56359 11.7118 1.76275C11.8011 1.96191 11.8244 2.18106 11.7789 2.39248C11.7334 2.6039 11.6212 2.79811 11.4563 2.95054C11.2915 3.10297 11.0815 3.20677 10.8529 3.24883C10.6242 3.29088 10.3872 3.2693 10.1719 3.1868C9.95651 3.10431 9.77243 2.96461 9.64292 2.78538C9.51341 2.60614 9.44429 2.39541 9.44429 2.17985C9.44429 1.89078 9.56846 1.61356 9.7895 1.40915C10.0105 1.20475 10.3103 1.08992 10.6229 1.08992V1.08992ZM2.37246 7.0845C2.13934 7.0845 1.91147 7.02058 1.71764 6.90081C1.52381 6.78105 1.37274 6.61083 1.28354 6.41167C1.19433 6.21251 1.17099 5.99337 1.21646 5.78194C1.26194 5.57052 1.3742 5.37631 1.53903 5.22389C1.70387 5.07146 1.91388 4.96765 2.14251 4.9256C2.37115 4.88354 2.60813 4.90513 2.8235 4.98762C3.03887 5.07011 3.22295 5.20981 3.35246 5.38905C3.48197 5.56829 3.55109 5.77901 3.55109 5.99458C3.55109 6.28364 3.42692 6.56087 3.20588 6.76527C2.98484 6.96967 2.68505 7.0845 2.37246 7.0845ZM10.6229 8.71938C10.856 8.71938 11.0839 8.78331 11.2777 8.90307C11.4716 9.02283 11.6226 9.19305 11.7118 9.39221C11.8011 9.59137 11.8244 9.81052 11.7789 10.0219C11.7334 10.2334 11.6212 10.4276 11.4563 10.58C11.2915 10.7324 11.0815 10.8362 10.8529 10.8783C10.6242 10.9203 10.3872 10.8988 10.1719 10.8163C9.95651 10.7338 9.77243 10.5941 9.64292 10.4148C9.51341 10.2356 9.44429 10.0249 9.44429 9.80931C9.44429 9.52024 9.56846 9.24302 9.7895 9.03862C10.0105 8.83421 10.3103 8.71938 10.6229 8.71938V8.71938Z" fill="#FFDB03"/>
</svg>
