<svg width="14" height="16" viewBox="0 0 14 16" fill="none" xmlns="http://www.w3.org/2000/svg">
<path d="M5.5914 14.5455H8.3914C8.3914 14.9312 8.2439 15.3012 7.98135 15.574C7.7188 15.8468 7.3627 16 6.9914 16C6.6201 16 6.264 15.8468 6.00145 15.574C5.7389 15.3012 5.5914 14.9312 5.5914 14.5455ZM0.196498 1.96873C0.0689876 1.83156 -0.00156843 1.64785 2.64618e-05 1.45716C0.00162136 1.26647 0.0752396 1.08407 0.205025 0.949223C0.334811 0.814381 0.51038 0.737894 0.693917 0.736237C0.877455 0.73458 1.05428 0.807885 1.1863 0.940364L11.6863 11.8495L13.7863 14.0313C13.8532 14.0984 13.9065 14.1786 13.9432 14.2673C13.9799 14.3561 13.9992 14.4515 14 14.5481C14.0008 14.6446 13.9831 14.7404 13.9479 14.8298C13.9127 14.9192 13.8607 15.0004 13.795 15.0687C13.7292 15.1369 13.6511 15.1909 13.5651 15.2275C13.479 15.2641 13.3869 15.2825 13.2939 15.2816C13.201 15.2808 13.1091 15.2607 13.0237 15.2226C12.9383 15.1845 12.8611 15.1291 12.7965 15.0596L10.9016 13.0909H1.3914C1.25297 13.0909 1.11766 13.0482 1.00258 12.9683C0.88749 12.8884 0.797793 12.7748 0.744824 12.6419C0.691855 12.5091 0.677993 12.3629 0.70499 12.2218C0.731987 12.0807 0.798632 11.9512 0.896498 11.8495L2.0914 10.608V6.54545C2.09293 5.80838 2.24891 5.08049 2.5485 4.41236L0.196498 1.96873ZM3.0812 11.6364H9.5016L3.6314 5.536C3.53953 5.86403 3.4924 6.20382 3.4914 6.54545V10.9091C3.49136 11.102 3.41758 11.2869 3.2863 11.4233L3.0812 11.6364ZM7.6914 1.51273V0.727273C7.6914 0.534388 7.61765 0.349403 7.48637 0.213013C7.3551 0.0766231 7.17705 0 6.9914 0C6.80575 0 6.6277 0.0766231 6.49642 0.213013C6.36515 0.349403 6.2914 0.534388 6.2914 0.727273V1.51055C5.75118 1.59226 5.22787 1.76702 4.743 2.02764L5.8049 3.13091C6.33281 2.92953 6.89979 2.86387 7.45743 2.93953C8.01507 3.01518 8.54681 3.22992 9.00725 3.56539C9.46769 3.90086 9.84316 4.34711 10.1016 4.86604C10.36 5.38497 10.4938 5.96118 10.4914 6.54545V8L11.8914 9.45455V6.54545C11.8891 5.32255 11.4636 4.14127 10.6926 3.2173C9.92147 2.29334 8.85625 1.68832 7.6914 1.51273V1.51273Z" fill="#000140"/>
</svg>
