<svg width="239" height="75" viewBox="0 0 239 75" fill="none" xmlns="http://www.w3.org/2000/svg">
<g filter="url(#filter0_d_601_2697)">
<rect x="10" y="4" width="219" height="55" rx="27.5" fill="#0E106C"/>
</g>
<path fill-rule="evenodd" clip-rule="evenodd" d="M51.6573 31.2698V31.5155V31.5142C51.6573 31.4736 51.6587 31.433 51.6596 31.3928C51.6587 31.3523 51.6573 31.3117 51.6573 31.2711V31.2698Z" fill="#FDE74C"/>
<path fill-rule="evenodd" clip-rule="evenodd" d="M52.7338 31.1571C52.7015 31.0404 52.6343 30.9383 52.5393 30.8648C52.4447 30.7913 52.3293 30.752 52.2099 30.752C52.091 30.752 51.9752 30.7913 51.8806 30.8648C51.7855 30.9383 51.7183 31.0404 51.6861 31.1571C51.6706 31.2126 51.664 31.2686 51.6604 31.3254C51.6591 31.3481 51.66 31.3703 51.6595 31.393C51.66 31.4152 51.6591 31.4378 51.6604 31.4601C51.664 31.5173 51.6706 31.5729 51.6861 31.6284C51.7183 31.7451 51.7855 31.8472 51.8806 31.9207C51.9752 31.9942 52.091 32.034 52.2099 32.034C52.3293 32.034 52.4447 31.9942 52.5393 31.9207C52.6343 31.8472 52.7015 31.7451 52.7338 31.6284C52.7493 31.5729 52.7559 31.5173 52.7594 31.4601C52.7608 31.4378 52.7599 31.4152 52.7603 31.393C52.7599 31.3703 52.7608 31.3481 52.7594 31.3254C52.7559 31.2686 52.7493 31.2126 52.7338 31.1571V31.1571Z" fill="#FDE74C"/>
<path fill-rule="evenodd" clip-rule="evenodd" d="M52.7604 31.3928C52.7613 31.433 52.7626 31.4736 52.7626 31.5142V31.5155V31.2698V31.2711C52.7626 31.3117 52.7613 31.3523 52.7604 31.3928V31.3928Z" fill="#FDE74C"/>
<path fill-rule="evenodd" clip-rule="evenodd" d="M55.3863 31.1571C55.354 31.0404 55.2868 30.9383 55.1917 30.8648C55.0971 30.7913 54.9818 30.752 54.8624 30.752C54.7435 30.752 54.6277 30.7913 54.533 30.8648C54.438 30.9383 54.3708 31.0404 54.3385 31.1571C54.3231 31.2126 54.3164 31.2686 54.3129 31.3254C54.3116 31.3481 54.3125 31.3703 54.312 31.393C54.3125 31.4152 54.3116 31.4378 54.3129 31.4601C54.3164 31.5173 54.3231 31.5729 54.3385 31.6284C54.3708 31.7451 54.438 31.8472 54.533 31.9207C54.6277 31.9942 54.7435 32.034 54.8624 32.034C54.9818 32.034 55.0971 31.9942 55.1917 31.9207C55.2868 31.8472 55.354 31.7451 55.3863 31.6284C55.4017 31.5729 55.4084 31.5173 55.4119 31.4601C55.4132 31.4378 55.4123 31.4152 55.4128 31.393C55.4123 31.3703 55.4132 31.3481 55.4119 31.3254C55.4084 31.2686 55.4017 31.2126 55.3863 31.1571V31.1571Z" fill="#FDE74C"/>
<path fill-rule="evenodd" clip-rule="evenodd" d="M55.4151 31.5142V31.271C55.4151 31.3116 55.4137 31.3522 55.4128 31.3928C55.4137 31.433 55.4151 31.4736 55.4151 31.5142V31.5142Z" fill="#FDE74C"/>
<path fill-rule="evenodd" clip-rule="evenodd" d="M54.3098 31.2698V31.5155V31.5142C54.3098 31.4736 54.3111 31.433 54.312 31.3928C54.3111 31.3523 54.3098 31.3117 54.3098 31.2711V31.2698Z" fill="#FDE74C"/>
<path fill-rule="evenodd" clip-rule="evenodd" d="M58.0645 30.898C58.061 30.8411 58.0543 30.7851 58.0389 30.7296C58.0066 30.6129 57.9394 30.5108 57.8443 30.4373C57.7497 30.3638 57.6344 30.3245 57.515 30.3245C57.3961 30.3245 57.2803 30.3638 57.1857 30.4373C57.0906 30.5108 57.0234 30.6129 56.9911 30.7296C56.9757 30.7851 56.969 30.8411 56.9655 30.898C56.9624 30.9612 56.9624 31.024 56.9624 31.0868V31.0881V31.6971V31.6984C56.9624 31.7612 56.9624 31.824 56.9655 31.8872C56.969 31.9445 56.9757 32.0001 56.9911 32.0556C57.0234 32.1723 57.0906 32.2744 57.1857 32.3479C57.2803 32.4214 57.3961 32.4612 57.515 32.4612C57.6344 32.4612 57.7497 32.4214 57.8443 32.3479C57.9394 32.2744 58.0066 32.1723 58.0389 32.0556C58.0543 32.0001 58.061 31.9445 58.0645 31.8872C58.0676 31.824 58.0676 31.7612 58.0676 31.6984V31.6971V31.0881V31.0868C58.0676 31.024 58.0676 30.9612 58.0645 30.898V30.898Z" fill="#FDE74C"/>
<path fill-rule="evenodd" clip-rule="evenodd" d="M59.6147 31.0574V31.7279C59.6147 31.665 59.6147 31.6022 59.6178 31.539C59.6209 31.4894 59.6285 31.4411 59.6399 31.3928C59.6285 31.3441 59.6209 31.2958 59.6178 31.2463C59.6147 31.183 59.6147 31.1202 59.6147 31.0574V31.0574Z" fill="#FDE74C"/>
<path fill-rule="evenodd" clip-rule="evenodd" d="M60.4968 31.0784C60.4022 31.0049 60.2868 30.9656 60.1674 30.9656C60.0485 30.9656 59.9327 31.0049 59.8381 31.0784C59.743 31.1519 59.6758 31.254 59.6436 31.3707C59.6418 31.378 59.6418 31.3857 59.64 31.3929C59.6418 31.4002 59.6418 31.4074 59.6436 31.4147C59.6758 31.5314 59.743 31.6335 59.8381 31.707C59.9327 31.7805 60.0485 31.8203 60.1674 31.8203C60.2868 31.8203 60.4022 31.7805 60.4968 31.707C60.5918 31.6335 60.659 31.5314 60.6913 31.4147C60.693 31.4074 60.693 31.4002 60.6948 31.3929C60.693 31.3857 60.693 31.378 60.6913 31.3707C60.659 31.254 60.5918 31.1519 60.4968 31.0784V31.0784Z" fill="#FDE74C"/>
<path fill-rule="evenodd" clip-rule="evenodd" d="M60.6948 31.3928C60.7063 31.4411 60.7138 31.4894 60.7169 31.539C60.72 31.6022 60.72 31.665 60.72 31.7279V31.0574C60.72 31.1202 60.72 31.183 60.7169 31.2463C60.7138 31.2958 60.7063 31.3441 60.6948 31.3928V31.3928Z" fill="#FDE74C"/>
<path fill-rule="evenodd" clip-rule="evenodd" d="M63.1226 30.7296C63.0903 30.6129 63.0231 30.5108 62.9281 30.4373C62.8335 30.3638 62.7181 30.3245 62.5987 30.3245C62.4798 30.3245 62.364 30.3638 62.2694 30.4373C62.1743 30.5108 62.1071 30.6129 62.0749 30.7296C62.0594 30.7851 62.0528 30.8411 62.0492 30.898C62.0461 30.9612 62.0461 31.024 62.0461 31.0868V31.6984C62.0461 31.7612 62.0461 31.824 62.0492 31.8872C62.0528 31.9445 62.0594 32.0001 62.0749 32.0556C62.1071 32.1723 62.1743 32.2744 62.2694 32.3479C62.364 32.4214 62.4798 32.4612 62.5987 32.4612C62.7181 32.4612 62.8335 32.4214 62.9281 32.3479C63.0231 32.2744 63.0903 32.1723 63.1226 32.0556C63.1381 32.0001 63.1447 31.9445 63.1482 31.8872C63.1513 31.824 63.1513 31.7612 63.1513 31.6984V31.0868C63.1513 31.024 63.1513 30.9612 63.1482 30.898C63.1447 30.8411 63.1381 30.7851 63.1226 30.7296V30.7296Z" fill="#FDE74C"/>
<path fill-rule="evenodd" clip-rule="evenodd" d="M65.8008 30.6843C65.7973 30.6275 65.7907 30.5715 65.7752 30.516C65.7429 30.3993 65.6757 30.2972 65.5807 30.2237C65.4861 30.1502 65.3707 30.1108 65.2513 30.1108C65.1324 30.1108 65.0166 30.1502 64.922 30.2237C64.8269 30.2972 64.7597 30.3993 64.7275 30.516C64.712 30.5715 64.7054 30.6275 64.7018 30.6843C64.6987 30.7476 64.6987 30.8104 64.6987 30.8732V30.8745V31.9108V31.9121C64.6987 31.9749 64.6987 32.0377 64.7018 32.101C64.7054 32.1582 64.712 32.2138 64.7275 32.2693C64.7597 32.386 64.8269 32.4881 64.922 32.5616C65.0166 32.6351 65.1324 32.6749 65.2513 32.6749C65.3707 32.6749 65.4861 32.6351 65.5807 32.5616C65.6757 32.4881 65.7429 32.386 65.7752 32.2693C65.7907 32.2138 65.7973 32.1582 65.8008 32.101C65.8039 32.0377 65.8039 31.9749 65.8039 31.9121V31.9108V30.8745V30.8732C65.8039 30.8104 65.8039 30.7476 65.8008 30.6843V30.6843Z" fill="#FDE74C"/>
<path fill-rule="evenodd" clip-rule="evenodd" d="M68.4275 28.1656C68.3953 28.049 68.3281 27.9468 68.233 27.8733C68.1384 27.7998 68.023 27.7605 67.9037 27.7605C67.7848 27.7605 67.6689 27.7998 67.5743 27.8733C67.4793 27.9468 67.4121 28.049 67.3798 28.1656C67.3643 28.2212 67.3577 28.2772 67.3542 28.334C67.3511 28.3972 67.3511 28.4601 67.3511 28.5229V34.2625C67.3511 34.3253 67.3511 34.3881 67.3542 34.4514C67.3577 34.5086 67.3643 34.5642 67.3798 34.6193C67.4121 34.7364 67.4793 34.8385 67.5743 34.912C67.6689 34.9855 67.7848 35.0253 67.9037 35.0253C68.023 35.0253 68.1384 34.9855 68.233 34.912C68.3281 34.8385 68.3953 34.7364 68.4275 34.6193C68.443 34.5642 68.4496 34.5086 68.4532 34.4514C68.4563 34.3881 68.4563 34.3253 68.4563 34.2625V28.5229C68.4563 28.4601 68.4563 28.3972 68.4532 28.334C68.4496 28.2772 68.443 28.2212 68.4275 28.1656V28.1656Z" fill="#FDE74C"/>
<path fill-rule="evenodd" clip-rule="evenodd" d="M71.1056 30.2571C71.1021 30.2002 71.0955 30.1443 71.08 30.0887C71.0477 29.972 70.9805 29.8699 70.8855 29.7964C70.7909 29.7229 70.6755 29.6836 70.5561 29.6836C70.4372 29.6836 70.3214 29.7229 70.2268 29.7964C70.1317 29.8699 70.0645 29.972 70.0323 30.0887C70.0168 30.1443 70.0102 30.2002 70.0066 30.2571C70.0035 30.3203 70.0035 30.3831 70.0035 30.446V30.4472V32.1246V32.1258C70.0035 32.1887 70.0035 32.4651 70.0066 32.5284C70.0102 32.5857 70.0168 32.6412 70.0323 32.6968C70.0645 32.8134 70.1317 32.9156 70.2268 32.9891C70.3214 33.0626 70.4372 33.1023 70.5561 33.1023C70.6755 33.1023 70.7909 33.0626 70.8855 32.9891C70.9805 32.9156 71.0477 32.8134 71.08 32.6968C71.0955 32.6412 71.1021 32.5857 71.1056 32.5284C71.1087 32.4651 71.1087 32.1887 71.1087 32.1258V32.1246V30.4472V30.446C71.1087 30.3831 71.1087 30.3203 71.1056 30.2571V30.2571Z" fill="#FDE74C"/>
<path fill-rule="evenodd" clip-rule="evenodd" d="M73.7581 27.6929C73.7546 27.636 73.7479 27.5801 73.7325 27.5245C73.7002 27.4078 73.633 27.3057 73.5379 27.2322C73.4433 27.1587 73.328 27.1194 73.2086 27.1194C73.0897 27.1194 72.9739 27.1587 72.8793 27.2322C72.7842 27.3057 72.717 27.4078 72.6847 27.5245C72.6693 27.5801 72.6626 27.636 72.6591 27.6929C72.656 27.7561 72.656 27.8189 72.656 27.8818V27.883V34.9021V34.9034C72.656 34.9666 72.656 35.029 72.6591 35.0923C72.6626 35.1495 72.6693 35.2051 72.6847 35.2602C72.717 35.3773 72.7842 35.4794 72.8793 35.5529C72.9739 35.6264 73.0897 35.6662 73.2086 35.6662C73.328 35.6662 73.4433 35.6264 73.5379 35.5529C73.633 35.4794 73.7002 35.3773 73.7325 35.2602C73.7479 35.2051 73.7546 35.1495 73.7581 35.0923C73.7612 35.029 73.7612 34.9666 73.7612 34.9034V34.9021V27.883V27.8818C73.7612 27.8189 73.7612 27.7561 73.7581 27.6929V27.6929Z" fill="#FDE74C"/>
<path fill-rule="evenodd" clip-rule="evenodd" d="M76.4107 27.052C76.4072 26.9952 76.4005 26.9392 76.385 26.8836C76.3528 26.767 76.2856 26.6648 76.1905 26.5913C76.0959 26.5178 75.9805 26.4785 75.8612 26.4785C75.7423 26.4785 75.6264 26.5178 75.5318 26.5913C75.4368 26.6648 75.3696 26.767 75.3373 26.8836C75.3219 26.9392 75.3152 26.9952 75.3117 27.052C75.3086 27.1153 75.3086 27.1781 75.3086 27.2409V27.2422V35.5432V35.5445C75.3086 35.6078 75.3086 35.6702 75.3117 35.7334C75.3152 35.7907 75.3219 35.8462 75.3373 35.9014C75.3696 36.0184 75.4368 36.1206 75.5318 36.1941C75.6264 36.2676 75.7423 36.3073 75.8612 36.3073C75.9805 36.3073 76.0959 36.2676 76.1905 36.1941C76.2856 36.1206 76.3528 36.0184 76.385 35.9014C76.4005 35.8462 76.4072 35.7907 76.4107 35.7334C76.4138 35.6702 76.4138 35.6078 76.4138 35.5445V35.5432V27.2422V27.2409C76.4138 27.1781 76.4138 27.1153 76.4107 27.052V27.052Z" fill="#FDE74C"/>
<path fill-rule="evenodd" clip-rule="evenodd" d="M79.0629 30.2571C79.0594 30.2002 79.0527 30.1443 79.0373 30.0887C79.005 29.972 78.9378 29.8699 78.8428 29.7964C78.7482 29.7229 78.6328 29.6836 78.5134 29.6836C78.3945 29.6836 78.2787 29.7229 78.1841 29.7964C78.089 29.8699 78.0218 29.972 77.9896 30.0887C77.9741 30.1443 77.9674 30.2002 77.9639 30.2571C77.9608 30.3203 77.9608 30.3831 77.9608 30.446V30.4472V32.3382V32.3395C77.9608 32.4023 77.9608 32.4651 77.9639 32.5284C77.9674 32.5857 77.9741 32.6412 77.9896 32.6968C78.0218 32.8134 78.089 32.9156 78.1841 32.9891C78.2787 33.0626 78.3945 33.1023 78.5134 33.1023C78.6328 33.1023 78.7482 33.0626 78.8428 32.9891C78.9378 32.9156 79.005 32.8134 79.0373 32.6968C79.0527 32.6412 79.0594 32.5857 79.0629 32.5284C79.066 32.4651 79.066 32.4023 79.066 32.3395V32.3382V30.4472V30.446C79.066 30.3831 79.066 30.3203 79.0629 30.2571V30.2571Z" fill="#FDE74C"/>
<path fill-rule="evenodd" clip-rule="evenodd" d="M81.69 25.1742C81.6577 25.0575 81.5905 24.9554 81.4955 24.8819C81.4009 24.8084 81.2855 24.769 81.1661 24.769C81.0472 24.769 80.9314 24.8084 80.8368 24.8819C80.7417 24.9554 80.6745 25.0575 80.6423 25.1742C80.6268 25.2297 80.6202 25.2857 80.6166 25.3425C80.6135 25.4058 80.6135 25.4686 80.6135 25.5314V37.2538C80.6135 37.317 80.6135 37.3794 80.6166 37.4427C80.6202 37.4999 80.6268 37.5555 80.6423 37.6106C80.6745 37.7277 80.7417 37.8298 80.8368 37.9033C80.9314 37.9768 81.0472 38.0166 81.1661 38.0166C81.2855 38.0166 81.4009 37.9768 81.4955 37.9033C81.5905 37.8298 81.6577 37.7277 81.69 37.6106C81.7055 37.5555 81.7121 37.4999 81.7156 37.4427C81.7187 37.3794 81.7187 37.317 81.7187 37.2538V25.5314C81.7187 25.4686 81.7187 25.4058 81.7156 25.3425C81.7121 25.2857 81.7055 25.2297 81.69 25.1742V25.1742Z" fill="#FDE74C"/>
<path fill-rule="evenodd" clip-rule="evenodd" d="M84.368 29.4023C84.3644 29.3455 84.3578 29.2895 84.3423 29.234C84.3101 29.1173 84.2429 29.0152 84.1478 28.9417C84.0532 28.8682 83.9378 28.8289 83.8185 28.8289C83.6995 28.8289 83.5837 28.8682 83.4891 28.9417C83.3941 29.0152 83.3269 29.1173 83.2946 29.234C83.2791 29.2895 83.2725 29.3455 83.269 29.4023C83.2659 29.4656 83.2659 29.5284 83.2659 29.5912V29.5925V33.1928V33.1941C83.2659 33.257 83.2659 33.3198 83.269 33.383C83.2725 33.4403 83.2791 33.4958 83.2946 33.5514C83.3269 33.6681 83.3941 33.7702 83.4891 33.8437C83.5837 33.9172 83.6995 33.9569 83.8185 33.9569C83.9378 33.9569 84.0532 33.9172 84.1478 33.8437C84.2429 33.7702 84.3101 33.6681 84.3423 33.5514C84.3578 33.4958 84.3644 33.4403 84.368 33.383C84.3711 33.3198 84.3711 33.257 84.3711 33.1941V33.1928V29.5925V29.5912C84.3711 29.5284 84.3711 29.4656 84.368 29.4023V29.4023Z" fill="#FDE74C"/>
<path fill-rule="evenodd" clip-rule="evenodd" d="M86.9948 27.7381C86.9625 27.6215 86.8953 27.5193 86.8003 27.4458C86.7057 27.3723 86.5903 27.333 86.4709 27.333C86.352 27.333 86.2362 27.3723 86.1416 27.4458C86.0465 27.5193 85.9793 27.6215 85.9471 27.7381C85.9316 27.7937 85.925 27.8497 85.9214 27.9065C85.9183 27.9697 85.9183 28.0326 85.9183 28.0954V34.6897C85.9183 34.7529 85.9183 34.8153 85.9214 34.8785C85.925 34.9358 85.9316 34.9914 85.9471 35.0465C85.9793 35.1636 86.0465 35.2657 86.1416 35.3392C86.2362 35.4127 86.352 35.4525 86.4709 35.4525C86.5903 35.4525 86.7057 35.4127 86.8003 35.3392C86.8953 35.2657 86.9625 35.1636 86.9948 35.0465C87.0103 34.9914 87.0169 34.9358 87.0204 34.8785C87.0235 34.8153 87.0235 34.7529 87.0235 34.6897V28.0954C87.0235 28.0326 87.0235 27.9697 87.0204 27.9065C87.0169 27.8497 87.0103 27.7937 86.9948 27.7381V27.7381Z" fill="#FDE74C"/>
<path fill-rule="evenodd" clip-rule="evenodd" d="M89.4261 30.9432C89.3938 30.8265 89.3266 30.7244 89.2315 30.6509C89.1369 30.5774 89.0216 30.5381 88.9022 30.5381C88.7833 30.5381 88.6675 30.5774 88.5729 30.6509C88.4778 30.7244 88.4106 30.8265 88.3783 30.9432C88.3629 30.9988 88.3562 31.0547 88.3527 31.1116C88.3496 31.1748 88.3496 31.2376 88.3496 31.3005V31.4846C88.3496 31.5475 88.3496 31.6103 88.3527 31.6735C88.3562 31.7308 88.3629 31.7863 88.3783 31.8419C88.4106 31.9586 88.4778 32.0607 88.5729 32.1342C88.6675 32.2077 88.7833 32.2474 88.9022 32.2474C89.0216 32.2474 89.1369 32.2077 89.2315 32.1342C89.3266 32.0607 89.3938 31.9586 89.4261 31.8419C89.4415 31.7863 89.4482 31.7308 89.4517 31.6735C89.4548 31.6103 89.4548 31.5475 89.4548 31.4846V31.3005C89.4548 31.2376 89.4548 31.1748 89.4517 31.1116C89.4482 31.0547 89.4415 30.9988 89.4261 30.9432V30.9432Z" fill="#FDE74C"/>
<path fill-rule="evenodd" clip-rule="evenodd" d="M92.1043 25.9836C92.1008 25.9268 92.0941 25.8708 92.0787 25.8153C92.0464 25.6986 91.9792 25.5965 91.8841 25.523C91.7895 25.4495 91.6742 25.4102 91.5548 25.4102C91.4359 25.4102 91.32 25.4495 91.2254 25.523C91.1304 25.5965 91.0632 25.6986 91.0309 25.8153C91.0155 25.8708 91.0088 25.9268 91.0053 25.9836C91.0022 26.0469 91.0022 26.1097 91.0022 26.1725V26.1738V36.6116V36.6129C91.0022 36.6761 91.0022 36.7385 91.0053 36.8017C91.0088 36.859 91.0155 36.9146 91.0309 36.9697C91.0632 37.0868 91.1304 37.1889 91.2254 37.2624C91.32 37.3359 91.4359 37.3757 91.5548 37.3757C91.6742 37.3757 91.7895 37.3359 91.8841 37.2624C91.9792 37.1889 92.0464 37.0868 92.0787 36.9697C92.0941 36.9146 92.1008 36.859 92.1043 36.8017C92.1074 36.7385 92.1074 36.6761 92.1074 36.6129V36.6116V26.1738V26.1725C92.1074 26.1097 92.1074 26.0469 92.1043 25.9836V25.9836Z" fill="#FDE74C"/>
<path fill-rule="evenodd" clip-rule="evenodd" d="M94.731 23.2513C94.6987 23.1346 94.6315 23.0325 94.5365 22.959C94.4419 22.8855 94.3265 22.8462 94.2071 22.8462C94.0882 22.8462 93.9724 22.8855 93.8778 22.959C93.7827 23.0325 93.7155 23.1346 93.6833 23.2513C93.6678 23.3069 93.6612 23.3628 93.6576 23.4197C93.6545 23.4829 93.6545 23.5457 93.6545 23.6086V23.6098V39.1757V39.177C93.6545 39.2402 93.6545 39.3026 93.6576 39.3659C93.6612 39.4231 93.6678 39.4787 93.6833 39.5338C93.7155 39.6509 93.7827 39.753 93.8778 39.8265C93.9724 39.9 94.0882 39.9398 94.2071 39.9398C94.3265 39.9398 94.4419 39.9 94.5365 39.8265C94.6315 39.753 94.6987 39.6509 94.731 39.5338C94.7465 39.4787 94.7531 39.4231 94.7566 39.3659C94.7597 39.3026 94.7597 39.2402 94.7597 39.177V23.6086C94.7597 23.5457 94.7597 23.4829 94.7566 23.4197C94.7531 23.3628 94.7465 23.3069 94.731 23.2513V23.2513Z" fill="#FDE74C"/>
<path fill-rule="evenodd" clip-rule="evenodd" d="M97.409 24.7014C97.4054 24.6446 97.3988 24.5886 97.3833 24.533C97.3511 24.4164 97.2839 24.3142 97.1888 24.2407C97.0942 24.1672 96.9788 24.1279 96.8595 24.1279C96.7406 24.1279 96.6247 24.1672 96.5301 24.2407C96.4351 24.3142 96.3679 24.4164 96.3356 24.533C96.3201 24.5886 96.3135 24.6446 96.31 24.7014C96.3069 24.7647 96.3069 24.8275 96.3069 24.8903V24.8916V37.8934V37.8947C96.3069 37.9579 96.3069 38.0203 96.31 38.0836C96.3135 38.1408 96.3201 38.1964 96.3356 38.2515C96.3679 38.3686 96.4351 38.4707 96.5301 38.5442C96.6247 38.6177 96.7406 38.6575 96.8595 38.6575C96.9788 38.6575 97.0942 38.6177 97.1888 38.5442C97.2839 38.4707 97.3511 38.3686 97.3833 38.2515C97.3988 38.1964 97.4054 38.1408 97.409 38.0836C97.4121 38.0203 97.4121 37.9579 97.4121 37.8947V37.8934V24.8916V24.8903C97.4121 24.8275 97.4121 24.7647 97.409 24.7014V24.7014Z" fill="#FDE74C"/>
<path fill-rule="evenodd" clip-rule="evenodd" d="M100.062 27.6929C100.058 27.636 100.051 27.5801 100.036 27.5245C100.004 27.4078 99.9365 27.3057 99.8414 27.2322C99.7468 27.1587 99.6314 27.1194 99.5121 27.1194C99.3931 27.1194 99.2773 27.1587 99.1827 27.2322C99.0877 27.3057 99.0205 27.4078 98.9882 27.5245C98.9727 27.5801 98.9661 27.636 98.9626 27.6929C98.9595 27.7561 98.9595 27.8189 98.9595 27.8818V27.883V34.9021V34.9034C98.9595 34.9666 98.9595 35.029 98.9626 35.0923C98.9661 35.1495 98.9727 35.2051 98.9882 35.2602C99.0205 35.3773 99.0877 35.4794 99.1827 35.5529C99.2773 35.6264 99.3931 35.6662 99.5121 35.6662C99.6314 35.6662 99.7468 35.6264 99.8414 35.5529C99.9365 35.4794 100.004 35.3773 100.036 35.2602C100.051 35.2051 100.058 35.1495 100.062 35.0923C100.065 35.029 100.065 34.9666 100.065 34.9034V34.9021V27.883V27.8818C100.065 27.8189 100.065 27.7561 100.062 27.6929V27.6929Z" fill="#FDE74C"/>
<path fill-rule="evenodd" clip-rule="evenodd" d="M102.688 24.533C102.656 24.4164 102.589 24.3142 102.494 24.2407C102.399 24.1672 102.284 24.1279 102.164 24.1279C102.045 24.1279 101.93 24.1672 101.835 24.2407C101.74 24.3142 101.673 24.4164 101.641 24.533C101.625 24.5886 101.618 24.6446 101.615 24.7014C101.612 24.7647 101.612 24.8275 101.612 24.8903V24.8916V37.8934V37.8947C101.612 37.9579 101.612 38.0203 101.615 38.0836C101.618 38.1408 101.625 38.1964 101.641 38.2515C101.673 38.3686 101.74 38.4707 101.835 38.5442C101.93 38.6177 102.045 38.6575 102.164 38.6575C102.284 38.6575 102.399 38.6177 102.494 38.5442C102.589 38.4707 102.656 38.3686 102.688 38.2515C102.704 38.1964 102.71 38.1408 102.714 38.0836C102.717 38.0203 102.717 37.9579 102.717 37.8947V24.8903C102.717 24.8275 102.717 24.7647 102.714 24.7014C102.71 24.6446 102.704 24.5886 102.688 24.533V24.533Z" fill="#FDE74C"/>
<path fill-rule="evenodd" clip-rule="evenodd" d="M105.366 25.5564C105.363 25.4996 105.356 25.4436 105.341 25.388C105.309 25.2714 105.241 25.1692 105.146 25.0957C105.052 25.0222 104.936 24.9829 104.817 24.9829C104.698 24.9829 104.582 25.0222 104.488 25.0957C104.393 25.1692 104.325 25.2714 104.293 25.388C104.278 25.4436 104.271 25.4996 104.267 25.5564C104.264 25.6196 104.264 25.6825 104.264 25.7453V25.7466V37.039V37.0403C104.264 37.1035 104.264 37.1659 104.267 37.2292C104.271 37.2864 104.278 37.342 104.293 37.3971C104.325 37.5142 104.393 37.6164 104.488 37.6899C104.582 37.7634 104.698 37.8031 104.817 37.8031C104.936 37.8031 105.052 37.7634 105.146 37.6899C105.241 37.6164 105.309 37.5142 105.341 37.3971C105.356 37.342 105.363 37.2864 105.366 37.2292C105.37 37.1659 105.37 37.1035 105.37 37.0403V37.039V25.7466V25.7453C105.37 25.6825 105.37 25.6196 105.366 25.5564V25.5564Z" fill="#FDE74C"/>
<path fill-rule="evenodd" clip-rule="evenodd" d="M107.993 29.234C107.961 29.1173 107.894 29.0152 107.799 28.9417C107.704 28.8682 107.589 28.8289 107.469 28.8289C107.351 28.8289 107.235 28.8682 107.14 28.9417C107.045 29.0152 106.978 29.1173 106.946 29.234C106.93 29.2895 106.924 29.3455 106.92 29.4023C106.917 29.4656 106.917 29.5284 106.917 29.5912V33.1941C106.917 33.257 106.917 33.3198 106.92 33.383C106.924 33.4403 106.93 33.4958 106.946 33.5514C106.978 33.6681 107.045 33.7702 107.14 33.8437C107.235 33.9172 107.351 33.9569 107.469 33.9569C107.589 33.9569 107.704 33.9172 107.799 33.8437C107.894 33.7702 107.961 33.6681 107.993 33.5514C108.009 33.4958 108.015 33.4403 108.019 33.383C108.022 33.3198 108.022 33.257 108.022 33.1941V29.5912C108.022 29.5284 108.022 29.4656 108.019 29.4023C108.015 29.3455 108.009 29.2895 107.993 29.234V29.234Z" fill="#FDE74C"/>
<path fill-rule="evenodd" clip-rule="evenodd" d="M110.671 28.5476C110.668 28.4908 110.661 28.4348 110.646 28.3792C110.614 28.2626 110.546 28.1604 110.451 28.0869C110.357 28.0134 110.241 27.9741 110.122 27.9741C110.003 27.9741 109.887 28.0134 109.793 28.0869C109.698 28.1604 109.63 28.2626 109.598 28.3792C109.583 28.4348 109.576 28.4908 109.572 28.5476C109.569 28.6109 109.569 28.6737 109.569 28.7365V28.7378V34.0475V34.0488C109.569 34.1116 109.569 34.1744 109.572 34.2376C109.576 34.2949 109.583 34.3505 109.598 34.4056C109.63 34.5227 109.698 34.6248 109.793 34.6983C109.887 34.7718 110.003 34.8116 110.122 34.8116C110.241 34.8116 110.357 34.7718 110.451 34.6983C110.546 34.6248 110.614 34.5227 110.646 34.4056C110.661 34.3505 110.668 34.2949 110.671 34.2376C110.675 34.1744 110.675 34.1116 110.675 34.0488V34.0475V28.7378V28.7365C110.675 28.6737 110.675 28.6109 110.671 28.5476V28.5476Z" fill="#FDE74C"/>
<path fill-rule="evenodd" clip-rule="evenodd" d="M113.298 29.6612C113.266 29.5446 113.199 29.4424 113.104 29.3689C113.009 29.2954 112.894 29.2561 112.774 29.2561C112.655 29.2561 112.54 29.2954 112.445 29.3689C112.35 29.4424 112.283 29.5446 112.25 29.6612C112.235 29.7168 112.228 29.7728 112.225 29.8296C112.222 29.8928 112.222 29.9557 112.222 30.0185V32.7667C112.222 32.8295 112.222 32.8923 112.225 32.9556C112.228 33.0128 112.235 33.0684 112.25 33.124C112.283 33.2406 112.35 33.3428 112.445 33.4163C112.54 33.4898 112.655 33.5295 112.774 33.5295C112.894 33.5295 113.009 33.4898 113.104 33.4163C113.199 33.3428 113.266 33.2406 113.298 33.124C113.314 33.0684 113.32 33.0128 113.324 32.9556C113.327 32.8923 113.327 32.8295 113.327 32.7667V30.0185C113.327 29.9557 113.327 29.8928 113.324 29.8296C113.32 29.7728 113.314 29.7168 113.298 29.6612V29.6612Z" fill="#FDE74C"/>
<path fill-rule="evenodd" clip-rule="evenodd" d="M115.976 30.6843C115.973 30.6275 115.966 30.5715 115.951 30.516C115.918 30.3993 115.851 30.2972 115.756 30.2237C115.662 30.1502 115.546 30.1108 115.427 30.1108C115.308 30.1108 115.192 30.1502 115.098 30.2237C115.002 30.2972 114.935 30.3993 114.903 30.516C114.888 30.5715 114.881 30.6275 114.877 30.6843C114.874 30.7476 114.874 30.8104 114.874 30.8732V30.8745V31.9108V31.9121C114.874 31.9749 114.874 32.0377 114.877 32.101C114.881 32.1582 114.888 32.2138 114.903 32.2693C114.935 32.386 115.002 32.4881 115.098 32.5616C115.192 32.6351 115.308 32.6749 115.427 32.6749C115.546 32.6749 115.662 32.6351 115.756 32.5616C115.851 32.4881 115.918 32.386 115.951 32.2693C115.966 32.2138 115.973 32.1582 115.976 32.101C115.979 32.0377 115.979 31.9749 115.979 31.9121V31.9108V30.8745V30.8732C115.979 30.8104 115.979 30.7476 115.976 30.6843V30.6843Z" fill="#FDE74C"/>
<path fill-rule="evenodd" clip-rule="evenodd" d="M118.408 23.4197C118.404 23.3628 118.398 23.3069 118.382 23.2513C118.35 23.1346 118.283 23.0325 118.188 22.959C118.093 22.8855 117.978 22.8462 117.858 22.8462C117.739 22.8462 117.624 22.8855 117.529 22.959C117.434 23.0325 117.367 23.1346 117.334 23.2513C117.319 23.3069 117.312 23.3628 117.309 23.4197C117.306 23.4829 117.306 23.5457 117.306 23.6086V23.6098V39.1757V39.177C117.306 39.2402 117.306 39.3026 117.309 39.3659C117.312 39.4231 117.319 39.4787 117.334 39.5338C117.367 39.6509 117.434 39.753 117.529 39.8265C117.624 39.9 117.739 39.9398 117.858 39.9398C117.978 39.9398 118.093 39.9 118.188 39.8265C118.283 39.753 118.35 39.6509 118.382 39.5338C118.398 39.4787 118.404 39.4231 118.408 39.3659C118.411 39.3026 118.411 39.2402 118.411 39.177V39.1757V23.6098V23.6086C118.411 23.5457 118.411 23.4829 118.408 23.4197V23.4197Z" fill="#FDE74C"/>
<path fill-rule="evenodd" clip-rule="evenodd" d="M121.06 20.4282C121.057 20.3714 121.05 20.3154 121.035 20.2599C121.002 20.1432 120.935 20.0411 120.84 19.9676C120.745 19.8941 120.63 19.8547 120.511 19.8547C120.392 19.8547 120.276 19.8941 120.181 19.9676C120.086 20.0411 120.019 20.1432 119.987 20.2599C119.971 20.3154 119.965 20.3714 119.961 20.4282C119.958 20.4915 119.958 20.5543 119.958 20.6171V20.6184V42.167V42.1683C119.958 42.2315 119.958 42.2939 119.961 42.3572C119.965 42.4144 119.971 42.47 119.987 42.5251C120.019 42.6422 120.086 42.7443 120.181 42.8178C120.276 42.8913 120.392 42.9311 120.511 42.9311C120.63 42.9311 120.745 42.8913 120.84 42.8178C120.935 42.7443 121.002 42.6422 121.035 42.5251C121.05 42.47 121.057 42.4144 121.06 42.3572C121.063 42.2939 121.063 42.2315 121.063 42.1683V42.167V20.6184V20.6171C121.063 20.5543 121.063 20.4915 121.06 20.4282V20.4282Z" fill="#FDE74C"/>
<path fill-rule="evenodd" clip-rule="evenodd" d="M123.687 24.3197C123.655 24.203 123.588 24.1009 123.493 24.0274C123.398 23.9539 123.283 23.9146 123.163 23.9146C123.044 23.9146 122.928 23.9539 122.834 24.0274C122.739 24.1009 122.672 24.203 122.639 24.3197C122.624 24.3752 122.617 24.4312 122.614 24.488C122.611 24.5513 122.611 24.6141 122.611 24.6769V24.6782V38.1074V38.1086C122.611 38.1719 122.611 38.2343 122.614 38.2975C122.617 38.3548 122.624 38.4103 122.639 38.4655C122.672 38.5826 122.739 38.6847 122.834 38.7582C122.928 38.8317 123.044 38.8714 123.163 38.8714C123.283 38.8714 123.398 38.8317 123.493 38.7582C123.588 38.6847 123.655 38.5826 123.687 38.4655C123.703 38.4103 123.709 38.3548 123.713 38.2975C123.716 38.2343 123.716 38.1719 123.716 38.1086V24.6769C123.716 24.6141 123.716 24.5513 123.713 24.488C123.709 24.4312 123.703 24.3752 123.687 24.3197V24.3197Z" fill="#FDE74C"/>
<path fill-rule="evenodd" clip-rule="evenodd" d="M126.365 25.7698C126.361 25.7129 126.355 25.657 126.339 25.6014C126.307 25.4847 126.24 25.3826 126.145 25.3091C126.05 25.2356 125.935 25.1963 125.816 25.1963C125.697 25.1963 125.581 25.2356 125.486 25.3091C125.391 25.3826 125.324 25.4847 125.292 25.6014C125.276 25.657 125.27 25.7129 125.266 25.7698C125.263 25.833 125.263 25.8958 125.263 25.9587V25.9599V36.8251V36.8263C125.263 36.8896 125.263 36.952 125.266 37.0152C125.27 37.0725 125.276 37.128 125.292 37.1832C125.324 37.3003 125.391 37.4024 125.486 37.4759C125.581 37.5494 125.697 37.5891 125.816 37.5891C125.935 37.5891 126.05 37.5494 126.145 37.4759C126.24 37.4024 126.307 37.3003 126.339 37.1832C126.355 37.128 126.361 37.0725 126.365 37.0152C126.368 36.952 126.368 36.8896 126.368 36.8263V36.8251V25.9599V25.9587C126.368 25.8958 126.368 25.833 126.365 25.7698V25.7698Z" fill="#FDE74C"/>
<path fill-rule="evenodd" clip-rule="evenodd" d="M128.992 20.6871C128.96 20.5704 128.892 20.4683 128.797 20.3948C128.703 20.3213 128.587 20.282 128.468 20.282C128.349 20.282 128.233 20.3213 128.139 20.3948C128.044 20.4683 127.976 20.5704 127.944 20.6871C127.929 20.7427 127.922 20.7986 127.918 20.8555C127.915 20.9187 127.915 20.9815 127.915 21.0444V41.7408C127.915 41.8041 127.915 41.8665 127.918 41.9297C127.922 41.987 127.929 42.0425 127.944 42.0977C127.976 42.2148 128.044 42.3169 128.139 42.3904C128.233 42.4639 128.349 42.5036 128.468 42.5036C128.587 42.5036 128.703 42.4639 128.797 42.3904C128.892 42.3169 128.96 42.2148 128.992 42.0977C129.007 42.0425 129.014 41.987 129.017 41.9297C129.021 41.8665 129.021 41.8041 129.021 41.7408V21.0444C129.021 20.9815 129.021 20.9187 129.017 20.8555C129.014 20.7986 129.007 20.7427 128.992 20.6871V20.6871Z" fill="#FDE74C"/>
<path fill-rule="evenodd" clip-rule="evenodd" d="M131.67 20.4282C131.666 20.3714 131.66 20.3154 131.644 20.2599C131.612 20.1432 131.545 20.0411 131.45 19.9676C131.355 19.8941 131.24 19.8547 131.12 19.8547C131.002 19.8547 130.886 19.8941 130.791 19.9676C130.696 20.0411 130.629 20.1432 130.597 20.2599C130.581 20.3154 130.575 20.3714 130.571 20.4282C130.568 20.4915 130.568 20.5543 130.568 20.6171V20.6184V42.167V42.1683C130.568 42.2315 130.568 42.2939 130.571 42.3572C130.575 42.4144 130.581 42.47 130.597 42.5251C130.629 42.6422 130.696 42.7443 130.791 42.8178C130.886 42.8913 131.002 42.9311 131.12 42.9311C131.24 42.9311 131.355 42.8913 131.45 42.8178C131.545 42.7443 131.612 42.6422 131.644 42.5251C131.66 42.47 131.666 42.4144 131.67 42.3572C131.673 42.2939 131.673 42.2315 131.673 42.1683V42.167V20.6184V20.6171C131.673 20.5543 131.673 20.4915 131.67 20.4282V20.4282Z" fill="#FDE74C"/>
<path fill-rule="evenodd" clip-rule="evenodd" d="M134.297 28.1656C134.265 28.049 134.197 27.9468 134.102 27.8733C134.008 27.7998 133.892 27.7605 133.773 27.7605C133.654 27.7605 133.538 27.7998 133.444 27.8733C133.349 27.9468 133.281 28.049 133.249 28.1656C133.234 28.2212 133.227 28.2772 133.223 28.334C133.22 28.3972 133.22 28.4601 133.22 28.5229V34.2625C133.22 34.3253 133.22 34.3881 133.223 34.4514C133.227 34.5086 133.234 34.5642 133.249 34.6193C133.281 34.7364 133.349 34.8385 133.444 34.912C133.538 34.9855 133.654 35.0253 133.773 35.0253C133.892 35.0253 134.008 34.9855 134.102 34.912C134.197 34.8385 134.265 34.7364 134.297 34.6193C134.312 34.5642 134.319 34.5086 134.322 34.4514C134.326 34.3881 134.326 34.3253 134.326 34.2625V28.5229C134.326 28.4601 134.326 28.3972 134.322 28.334C134.319 28.2772 134.312 28.2212 134.297 28.1656V28.1656Z" fill="#FDE74C"/>
<path fill-rule="evenodd" clip-rule="evenodd" d="M136.975 21.9238C136.971 21.867 136.965 21.811 136.949 21.7555C136.917 21.6388 136.85 21.5367 136.755 21.4632C136.66 21.3897 136.545 21.3503 136.425 21.3503C136.306 21.3503 136.191 21.3897 136.096 21.4632C136.001 21.5367 135.934 21.6388 135.902 21.7555C135.886 21.811 135.879 21.867 135.876 21.9238C135.873 21.9871 135.873 22.0499 135.873 22.1127V22.114V40.6712V40.6725C135.873 40.7357 135.873 40.7981 135.876 40.8614C135.879 40.9186 135.886 40.9742 135.902 41.0293C135.934 41.1464 136.001 41.2486 136.096 41.3221C136.191 41.3956 136.306 41.4353 136.425 41.4353C136.545 41.4353 136.66 41.3956 136.755 41.3221C136.85 41.2486 136.917 41.1464 136.949 41.0293C136.965 40.9742 136.971 40.9186 136.975 40.8614C136.978 40.7981 136.978 40.7357 136.978 40.6725V40.6712V22.114V22.1127C136.978 22.0499 136.978 21.9871 136.975 21.9238V21.9238Z" fill="#FDE74C"/>
<path fill-rule="evenodd" clip-rule="evenodd" d="M139.602 27.3109C139.569 27.1942 139.502 27.0921 139.407 27.0186C139.313 26.9451 139.197 26.9058 139.078 26.9058C138.959 26.9058 138.843 26.9451 138.749 27.0186C138.653 27.0921 138.586 27.1942 138.554 27.3109C138.539 27.3664 138.532 27.4224 138.528 27.4793C138.525 27.5425 138.525 27.6053 138.525 27.6681V35.1171C138.525 35.1803 138.525 35.2427 138.528 35.306C138.532 35.3632 138.539 35.4188 138.554 35.4739C138.586 35.591 138.653 35.6931 138.749 35.7666C138.843 35.8402 138.959 35.8799 139.078 35.8799C139.197 35.8799 139.313 35.8402 139.407 35.7666C139.502 35.6931 139.569 35.591 139.602 35.4739C139.617 35.4188 139.624 35.3632 139.627 35.306C139.63 35.2427 139.63 35.1803 139.63 35.1171V27.6681C139.63 27.6053 139.63 27.5425 139.627 27.4793C139.624 27.4224 139.617 27.3664 139.602 27.3109V27.3109Z" fill="#262883"/>
<path fill-rule="evenodd" clip-rule="evenodd" d="M142.28 28.1204C142.276 28.0635 142.27 28.0075 142.254 27.952C142.222 27.8353 142.155 27.7332 142.06 27.6597C141.965 27.5862 141.85 27.5469 141.73 27.5469C141.611 27.5469 141.496 27.5862 141.401 27.6597C141.306 27.7332 141.239 27.8353 141.206 27.952C141.191 28.0075 141.184 28.0635 141.181 28.1204C141.178 28.1836 141.178 28.2464 141.178 28.3092V28.3105V34.4749V34.4762C141.178 34.5394 141.178 34.6018 141.181 34.6651C141.184 34.7223 141.191 34.7779 141.206 34.833C141.239 34.9501 141.306 35.0522 141.401 35.1257C141.496 35.1992 141.611 35.239 141.73 35.239C141.85 35.239 141.965 35.1992 142.06 35.1257C142.155 35.0522 142.222 34.9501 142.254 34.833C142.27 34.7779 142.276 34.7223 142.28 34.6651C142.283 34.6018 142.283 34.5394 142.283 34.4762V34.4749V28.3105V28.3092C142.283 28.2464 142.283 28.1836 142.28 28.1204V28.1204Z" fill="#262883"/>
<path fill-rule="evenodd" clip-rule="evenodd" d="M144.711 24.2742C144.708 24.2173 144.701 24.1614 144.686 24.1058C144.653 23.9891 144.586 23.887 144.491 23.8135C144.396 23.74 144.281 23.7007 144.162 23.7007C144.043 23.7007 143.927 23.74 143.832 23.8135C143.737 23.887 143.67 23.9891 143.638 24.1058C143.622 24.1614 143.616 24.2173 143.612 24.2742C143.609 24.3374 143.609 24.4002 143.609 24.4631V24.4643V38.3208V38.3221C143.609 38.3854 143.609 38.4477 143.612 38.511C143.616 38.5683 143.622 38.6238 143.638 38.6789C143.67 38.796 143.737 38.8982 143.832 38.9717C143.927 39.0452 144.043 39.0849 144.162 39.0849C144.281 39.0849 144.396 39.0452 144.491 38.9717C144.586 38.8982 144.653 38.796 144.686 38.6789C144.701 38.6238 144.708 38.5683 144.711 38.511C144.714 38.4477 144.714 38.3854 144.714 38.3221V38.3208V24.4643V24.4631C144.714 24.4002 144.714 24.3374 144.711 24.2742V24.2742Z" fill="#262883"/>
<path fill-rule="evenodd" clip-rule="evenodd" d="M147.364 24.7014C147.36 24.6446 147.353 24.5886 147.338 24.533C147.306 24.4164 147.238 24.3142 147.143 24.2407C147.049 24.1672 146.933 24.1279 146.814 24.1279C146.695 24.1279 146.579 24.1672 146.485 24.2407C146.39 24.3142 146.322 24.4164 146.29 24.533C146.275 24.5886 146.268 24.6446 146.265 24.7014C146.261 24.7647 146.261 24.8275 146.261 24.8903V24.8916V37.8934V37.8947C146.261 37.9579 146.261 38.0203 146.265 38.0836C146.268 38.1408 146.275 38.1964 146.29 38.2515C146.322 38.3686 146.39 38.4707 146.485 38.5442C146.579 38.6177 146.695 38.6575 146.814 38.6575C146.933 38.6575 147.049 38.6177 147.143 38.5442C147.238 38.4707 147.306 38.3686 147.338 38.2515C147.353 38.1964 147.36 38.1408 147.364 38.0836C147.367 38.0203 147.367 37.9579 147.367 37.8947V37.8934V24.8916V24.8903C147.367 24.8275 147.367 24.7647 147.364 24.7014V24.7014Z" fill="#262883"/>
<path fill-rule="evenodd" clip-rule="evenodd" d="M149.991 27.5245C149.958 27.4078 149.891 27.3057 149.796 27.2322C149.701 27.1587 149.586 27.1194 149.467 27.1194C149.348 27.1194 149.232 27.1587 149.137 27.2322C149.042 27.3057 148.975 27.4078 148.943 27.5245C148.927 27.5801 148.921 27.636 148.917 27.6929C148.914 27.7561 148.914 27.8189 148.914 27.8818V34.9034C148.914 34.9666 148.914 35.029 148.917 35.0923C148.921 35.1495 148.927 35.2051 148.943 35.2602C148.975 35.3773 149.042 35.4794 149.137 35.5529C149.232 35.6264 149.348 35.6662 149.467 35.6662C149.586 35.6662 149.701 35.6264 149.796 35.5529C149.891 35.4794 149.958 35.3773 149.991 35.2602C150.006 35.2051 150.013 35.1495 150.016 35.0923C150.019 35.029 150.019 34.9666 150.019 34.9034V27.8818C150.019 27.8189 150.019 27.7561 150.016 27.6929C150.013 27.636 150.006 27.5801 149.991 27.5245V27.5245Z" fill="#262883"/>
<path fill-rule="evenodd" clip-rule="evenodd" d="M152.669 25.1289C152.665 25.0721 152.658 25.0161 152.643 24.9605C152.611 24.8439 152.543 24.7417 152.448 24.6682C152.354 24.5947 152.238 24.5554 152.119 24.5554C152 24.5554 151.884 24.5947 151.79 24.6682C151.695 24.7417 151.627 24.8439 151.595 24.9605C151.58 25.0161 151.573 25.0721 151.57 25.1289C151.566 25.1922 151.566 25.255 151.566 25.3178V25.3191V37.4662V37.4675C151.566 37.5307 151.566 37.5931 151.57 37.6564C151.573 37.7136 151.58 37.7692 151.595 37.8243C151.627 37.9414 151.695 38.0435 151.79 38.117C151.884 38.1905 152 38.2303 152.119 38.2303C152.238 38.2303 152.354 38.1905 152.448 38.117C152.543 38.0435 152.611 37.9414 152.643 37.8243C152.658 37.7692 152.665 37.7136 152.669 37.6564C152.672 37.5931 152.672 37.5307 152.672 37.4675V37.4662V25.3191V25.3178C152.672 25.255 152.672 25.1922 152.669 25.1289V25.1289Z" fill="#262883"/>
<path fill-rule="evenodd" clip-rule="evenodd" d="M155.295 19.4051C155.263 19.2885 155.196 19.1863 155.101 19.1128C155.006 19.0393 154.891 19 154.771 19C154.653 19 154.537 19.0393 154.442 19.1128C154.347 19.1863 154.28 19.2885 154.248 19.4051C154.232 19.4607 154.226 19.5167 154.222 19.5735C154.219 19.6367 154.219 19.6996 154.219 19.7624V43.0229C154.219 43.0861 154.219 43.1485 154.222 43.2118C154.226 43.269 154.232 43.3246 154.248 43.3797C154.28 43.4968 154.347 43.5989 154.442 43.6725C154.537 43.746 154.653 43.7857 154.771 43.7857C154.891 43.7857 155.006 43.746 155.101 43.6725C155.196 43.5989 155.263 43.4968 155.295 43.3797C155.311 43.3246 155.317 43.269 155.321 43.2118C155.324 43.1485 155.324 43.0861 155.324 43.0229V19.7624C155.324 19.6996 155.324 19.6367 155.321 19.5735C155.317 19.5167 155.311 19.4607 155.295 19.4051V19.4051Z" fill="#262883"/>
<path fill-rule="evenodd" clip-rule="evenodd" d="M157.973 27.2656C157.97 27.2088 157.963 27.1528 157.948 27.0973C157.916 26.9806 157.848 26.8785 157.753 26.805C157.659 26.7315 157.543 26.6921 157.424 26.6921C157.305 26.6921 157.189 26.7315 157.095 26.805C157 26.8785 156.932 26.9806 156.9 27.0973C156.885 27.1528 156.878 27.2088 156.874 27.2656C156.871 27.3289 156.871 27.3917 156.871 27.4545V27.4558V35.3295V35.3308C156.871 35.3941 156.871 35.4564 156.874 35.5197C156.878 35.577 156.885 35.6325 156.9 35.6876C156.932 35.8047 157 35.9069 157.095 35.9804C157.189 36.0539 157.305 36.0936 157.424 36.0936C157.543 36.0936 157.659 36.0539 157.753 35.9804C157.848 35.9069 157.916 35.8047 157.948 35.6876C157.963 35.6325 157.97 35.577 157.973 35.5197C157.977 35.4564 157.977 35.3941 157.977 35.3308V35.3295V27.4558V27.4545C157.977 27.3917 157.977 27.3289 157.973 27.2656V27.2656Z" fill="#262883"/>
<path fill-rule="evenodd" clip-rule="evenodd" d="M160.6 28.3792C160.568 28.2626 160.501 28.1604 160.406 28.0869C160.311 28.0134 160.196 27.9741 160.076 27.9741C159.957 27.9741 159.842 28.0134 159.747 28.0869C159.652 28.1604 159.585 28.2626 159.553 28.3792C159.537 28.4348 159.53 28.4908 159.527 28.5476C159.524 28.6109 159.524 28.6737 159.524 28.7365V34.0488C159.524 34.1116 159.524 34.1744 159.527 34.2376C159.53 34.2949 159.537 34.3505 159.553 34.4056C159.585 34.5227 159.652 34.6248 159.747 34.6983C159.842 34.7718 159.957 34.8116 160.076 34.8116C160.196 34.8116 160.311 34.7718 160.406 34.6983C160.501 34.6248 160.568 34.5227 160.6 34.4056C160.616 34.3505 160.622 34.2949 160.626 34.2376C160.629 34.1744 160.629 34.1116 160.629 34.0488V28.7365C160.629 28.6737 160.629 28.6109 160.626 28.5476C160.622 28.4908 160.616 28.4348 160.6 28.3792V28.3792Z" fill="#262883"/>
<path fill-rule="evenodd" clip-rule="evenodd" d="M163.278 27.2656C163.275 27.2088 163.268 27.1528 163.253 27.0973C163.22 26.9806 163.153 26.8785 163.058 26.805C162.964 26.7315 162.848 26.6921 162.729 26.6921C162.61 26.6921 162.494 26.7315 162.4 26.805C162.304 26.8785 162.237 26.9806 162.205 27.0973C162.19 27.1528 162.183 27.2088 162.179 27.2656C162.176 27.3289 162.176 27.3917 162.176 27.4545V27.4558V35.3295V35.3308C162.176 35.3941 162.176 35.4564 162.179 35.5197C162.183 35.577 162.19 35.6325 162.205 35.6876C162.237 35.8047 162.304 35.9069 162.4 35.9804C162.494 36.0539 162.61 36.0936 162.729 36.0936C162.848 36.0936 162.964 36.0539 163.058 35.9804C163.153 35.9069 163.22 35.8047 163.253 35.6876C163.268 35.6325 163.275 35.577 163.278 35.5197C163.281 35.4564 163.281 35.3941 163.281 35.3308V35.3295V27.4558V27.4545C163.281 27.3917 163.281 27.3289 163.278 27.2656V27.2656Z" fill="#262883"/>
<path fill-rule="evenodd" clip-rule="evenodd" d="M165.905 29.234C165.873 29.1173 165.806 29.0152 165.711 28.9417C165.616 28.8682 165.501 28.8289 165.381 28.8289C165.263 28.8289 165.147 28.8682 165.052 28.9417C164.957 29.0152 164.89 29.1173 164.858 29.234C164.842 29.2895 164.835 29.3455 164.832 29.4023C164.829 29.4656 164.829 29.5284 164.829 29.5912V33.1941C164.829 33.257 164.829 33.3198 164.832 33.383C164.835 33.4403 164.842 33.4958 164.858 33.5514C164.89 33.6681 164.957 33.7702 165.052 33.8437C165.147 33.9172 165.263 33.9569 165.381 33.9569C165.501 33.9569 165.616 33.9172 165.711 33.8437C165.806 33.7702 165.873 33.6681 165.905 33.5514C165.921 33.4958 165.927 33.4403 165.931 33.383C165.934 33.3198 165.934 33.257 165.934 33.1941V29.5912C165.934 29.5284 165.934 29.4656 165.931 29.4023C165.927 29.3455 165.921 29.2895 165.905 29.234Z" fill="#262883"/>
<path fill-rule="evenodd" clip-rule="evenodd" d="M168.583 21.283C168.58 21.2261 168.573 21.1701 168.558 21.1146C168.525 20.9979 168.458 20.8958 168.363 20.8223C168.268 20.7488 168.153 20.7095 168.034 20.7095C167.915 20.7095 167.799 20.7488 167.704 20.8223C167.609 20.8958 167.542 20.9979 167.51 21.1146C167.494 21.1701 167.488 21.2261 167.484 21.283C167.481 21.3462 167.481 21.409 167.481 21.4718V21.4731V41.3124V41.3137C167.481 41.3769 167.481 41.4393 167.484 41.5025C167.488 41.5598 167.494 41.6154 167.51 41.6705C167.542 41.7876 167.609 41.8897 167.704 41.9632C167.799 42.0367 167.915 42.0765 168.034 42.0765C168.153 42.0765 168.268 42.0367 168.363 41.9632C168.458 41.8897 168.525 41.7876 168.558 41.6705C168.573 41.6154 168.58 41.5598 168.583 41.5025C168.586 41.4393 168.586 41.3769 168.586 41.3137V41.3124V21.4731V21.4718C168.586 21.409 168.586 21.3462 168.583 21.283V21.283Z" fill="#262883"/>
<path fill-rule="evenodd" clip-rule="evenodd" d="M171.21 26.4564C171.178 26.3397 171.111 26.2376 171.016 26.1641C170.921 26.0906 170.806 26.0513 170.686 26.0513C170.567 26.0513 170.452 26.0906 170.357 26.1641C170.262 26.2376 170.195 26.3397 170.162 26.4564C170.147 26.5119 170.14 26.5679 170.137 26.6248C170.134 26.688 170.134 26.7508 170.134 26.8136V26.8149V35.9707V35.972C170.134 36.0352 170.134 36.0976 170.137 36.1608C170.14 36.2181 170.147 36.2737 170.162 36.3288C170.195 36.4459 170.262 36.548 170.357 36.6215C170.452 36.695 170.567 36.7348 170.686 36.7348C170.806 36.7348 170.921 36.695 171.016 36.6215C171.111 36.548 171.178 36.4459 171.21 36.3288C171.226 36.2737 171.232 36.2181 171.236 36.1608C171.239 36.0976 171.239 36.0352 171.239 35.972V26.8136C171.239 26.7508 171.239 26.688 171.236 26.6248C171.232 26.5679 171.226 26.5119 171.21 26.4564V26.4564Z" fill="#262883"/>
<path fill-rule="evenodd" clip-rule="evenodd" d="M173.888 29.8296C173.885 29.7728 173.878 29.7168 173.863 29.6612C173.83 29.5446 173.763 29.4424 173.668 29.3689C173.573 29.2954 173.458 29.2561 173.339 29.2561C173.22 29.2561 173.104 29.2954 173.009 29.3689C172.914 29.4424 172.847 29.5446 172.815 29.6612C172.799 29.7168 172.793 29.7728 172.789 29.8296C172.786 29.8928 172.786 29.9557 172.786 30.0185V30.0198V32.7654V32.7667C172.786 32.8295 172.786 32.8923 172.789 32.9556C172.793 33.0128 172.799 33.0684 172.815 33.124C172.847 33.2406 172.914 33.3428 173.009 33.4163C173.104 33.4898 173.22 33.5295 173.339 33.5295C173.458 33.5295 173.573 33.4898 173.668 33.4163C173.763 33.3428 173.83 33.2406 173.863 33.124C173.878 33.0684 173.885 33.0128 173.888 32.9556C173.891 32.8923 173.891 32.8295 173.891 32.7667V32.7654V30.0198V30.0185C173.891 29.9557 173.891 29.8928 173.888 29.8296V29.8296Z" fill="#262883"/>
<path fill-rule="evenodd" clip-rule="evenodd" d="M176.294 30.0887C176.262 29.972 176.195 29.8699 176.099 29.7964C176.005 29.7229 175.889 29.6836 175.77 29.6836C175.651 29.6836 175.535 29.7229 175.441 29.7964C175.346 29.8699 175.279 29.972 175.246 30.0887C175.231 30.1443 175.224 30.2002 175.221 30.2571C175.218 30.3203 175.218 30.3831 175.218 30.446V32.3395C175.218 32.4023 175.218 32.4651 175.221 32.5284C175.224 32.5857 175.231 32.6412 175.246 32.6968C175.279 32.8134 175.346 32.9156 175.441 32.9891C175.535 33.0626 175.651 33.1023 175.77 33.1023C175.889 33.1023 176.005 33.0626 176.099 32.9891C176.195 32.9156 176.262 32.8134 176.294 32.6968C176.309 32.6412 176.316 32.5857 176.32 32.5284C176.323 32.4651 176.323 32.4023 176.323 32.3395V30.446C176.323 30.3831 176.323 30.3203 176.32 30.2571C176.316 30.2002 176.309 30.1443 176.294 30.0887V30.0887Z" fill="#262883"/>
<path fill-rule="evenodd" clip-rule="evenodd" d="M178.972 26.4109C178.969 26.3541 178.962 26.2981 178.946 26.2425C178.914 26.1259 178.847 26.0237 178.752 25.9502C178.657 25.8767 178.542 25.8374 178.423 25.8374C178.304 25.8374 178.188 25.8767 178.093 25.9502C177.998 26.0237 177.931 26.1259 177.899 26.2425C177.883 26.2981 177.877 26.3541 177.873 26.4109C177.87 26.4741 177.87 26.537 177.87 26.5998V26.6011V36.1841V36.1854C177.87 36.2487 177.87 36.3111 177.873 36.3743C177.877 36.4316 177.883 36.4871 177.899 36.5423C177.931 36.6593 177.998 36.7615 178.093 36.835C178.188 36.9085 178.304 36.9482 178.423 36.9482C178.542 36.9482 178.657 36.9085 178.752 36.835C178.847 36.7615 178.914 36.6593 178.946 36.5423C178.962 36.4871 178.969 36.4316 178.972 36.3743C178.975 36.3111 178.975 36.2487 178.975 36.1854V36.1841V26.6011V26.5998C178.975 26.537 178.975 26.4741 178.972 26.4109V26.4109Z" fill="#262883"/>
<path fill-rule="evenodd" clip-rule="evenodd" d="M181.599 27.0973C181.567 26.9806 181.499 26.8785 181.404 26.805C181.31 26.7315 181.194 26.6921 181.075 26.6921C180.956 26.6921 180.84 26.7315 180.746 26.805C180.651 26.8785 180.583 26.9806 180.551 27.0973C180.536 27.1528 180.529 27.2088 180.526 27.2656C180.522 27.3289 180.522 27.3917 180.522 27.4545V35.3308C180.522 35.3941 180.522 35.4564 180.526 35.5197C180.529 35.577 180.536 35.6325 180.551 35.6876C180.583 35.8047 180.651 35.9069 180.746 35.9804C180.84 36.0539 180.956 36.0936 181.075 36.0936C181.194 36.0936 181.31 36.0539 181.404 35.9804C181.499 35.9069 181.567 35.8047 181.599 35.6876C181.614 35.6325 181.621 35.577 181.625 35.5197C181.628 35.4564 181.628 35.3941 181.628 35.3308V27.4545C181.628 27.3917 181.628 27.3289 181.625 27.2656C181.621 27.2088 181.614 27.1528 181.599 27.0973V27.0973Z" fill="#262883"/>
<path fill-rule="evenodd" clip-rule="evenodd" d="M184.277 27.6929C184.273 27.636 184.267 27.5801 184.251 27.5245C184.219 27.4078 184.152 27.3057 184.057 27.2322C183.962 27.1587 183.847 27.1194 183.727 27.1194C183.608 27.1194 183.493 27.1587 183.398 27.2322C183.303 27.3057 183.236 27.4078 183.204 27.5245C183.188 27.5801 183.181 27.636 183.178 27.6929C183.175 27.7561 183.175 27.8189 183.175 27.8818V27.883V34.9021V34.9034C183.175 34.9666 183.175 35.029 183.178 35.0923C183.181 35.1495 183.188 35.2051 183.204 35.2602C183.236 35.3773 183.303 35.4794 183.398 35.5529C183.493 35.6264 183.608 35.6662 183.727 35.6662C183.847 35.6662 183.962 35.6264 184.057 35.5529C184.152 35.4794 184.219 35.3773 184.251 35.2602C184.267 35.2051 184.273 35.1495 184.277 35.0923C184.28 35.029 184.28 34.9666 184.28 34.9034V34.9021V27.883V27.8818C184.28 27.8189 184.28 27.7561 184.277 27.6929V27.6929Z" fill="#262883"/>
<path fill-rule="evenodd" clip-rule="evenodd" d="M186.904 28.5929C186.871 28.4762 186.804 28.3741 186.709 28.3006C186.615 28.2271 186.499 28.1877 186.38 28.1877C186.261 28.1877 186.145 28.2271 186.051 28.3006C185.955 28.3741 185.888 28.4762 185.856 28.5929C185.841 28.6484 185.834 28.7044 185.83 28.7612C185.827 28.8245 185.827 28.8873 185.827 28.9501V33.835C185.827 33.8979 185.827 33.9607 185.83 34.0239C185.834 34.0812 185.841 34.1367 185.856 34.1923C185.888 34.309 185.955 34.4111 186.051 34.4846C186.145 34.5581 186.261 34.5978 186.38 34.5978C186.499 34.5978 186.615 34.5581 186.709 34.4846C186.804 34.4111 186.871 34.309 186.904 34.1923C186.919 34.1367 186.926 34.0812 186.929 34.0239C186.932 33.9607 186.932 33.8979 186.932 33.835V28.9501C186.932 28.8873 186.932 28.8245 186.929 28.7612C186.926 28.7044 186.919 28.6484 186.904 28.5929V28.5929Z" fill="#262883"/>
<path fill-rule="evenodd" clip-rule="evenodd" d="M189.582 29.4023C189.578 29.3455 189.572 29.2895 189.557 29.234C189.524 29.1173 189.457 29.0152 189.362 28.9417C189.267 28.8682 189.152 28.8289 189.032 28.8289C188.913 28.8289 188.798 28.8682 188.703 28.9417C188.608 29.0152 188.541 29.1173 188.509 29.234C188.493 29.2895 188.486 29.3455 188.483 29.4023C188.48 29.4656 188.48 29.5284 188.48 29.5912V29.5925V33.1928V33.1941C188.48 33.257 188.48 33.3198 188.483 33.383C188.486 33.4403 188.493 33.4958 188.509 33.5514C188.541 33.6681 188.608 33.7702 188.703 33.8437C188.798 33.9172 188.913 33.9569 189.032 33.9569C189.152 33.9569 189.267 33.9172 189.362 33.8437C189.457 33.7702 189.524 33.6681 189.557 33.5514C189.572 33.4958 189.578 33.4403 189.582 33.383C189.585 33.3198 189.585 33.257 189.585 33.1941V33.1928V29.5925V29.5912C189.585 29.5284 189.585 29.4656 189.582 29.4023V29.4023Z" fill="#262883"/>
<path fill-rule="evenodd" clip-rule="evenodd" d="M192.209 30.9432C192.176 30.8265 192.11 30.7244 192.014 30.6509C191.92 30.5774 191.804 30.5381 191.685 30.5381C191.565 30.5381 191.45 30.5774 191.355 30.6509C191.26 30.7244 191.193 30.8265 191.161 30.9432C191.145 30.9988 191.139 31.0547 191.136 31.1116C191.132 31.1748 191.132 31.2376 191.132 31.3005V31.3017V31.4834V31.4846C191.132 31.5475 191.132 31.6103 191.136 31.6735C191.139 31.7308 191.145 31.7863 191.161 31.8419C191.193 31.9586 191.26 32.0607 191.355 32.1342C191.45 32.2077 191.565 32.2474 191.685 32.2474C191.804 32.2474 191.92 32.2077 192.014 32.1342C192.11 32.0607 192.176 31.9586 192.209 31.8419C192.224 31.7863 192.231 31.7308 192.234 31.6735C192.238 31.6103 192.237 31.5475 192.237 31.4846V31.3005C192.237 31.2376 192.238 31.1748 192.234 31.1116C192.231 31.0547 192.224 30.9988 192.209 30.9432V30.9432Z" fill="#262883"/>
<path fill-rule="evenodd" clip-rule="evenodd" d="M194.886 30.2571C194.883 30.2002 194.877 30.1443 194.862 30.0887C194.829 29.972 194.762 29.8699 194.667 29.7964C194.572 29.7229 194.457 29.6836 194.337 29.6836C194.218 29.6836 194.103 29.7229 194.008 29.7964C193.912 29.8699 193.846 29.972 193.813 30.0887C193.798 30.1443 193.791 30.2002 193.788 30.2571C193.784 30.3203 193.785 30.3831 193.785 30.446V30.4472V32.3382V32.3395C193.785 32.4023 193.784 32.4651 193.788 32.5284C193.791 32.5857 193.798 32.6412 193.813 32.6968C193.846 32.8134 193.912 32.9156 194.008 32.9891C194.103 33.0626 194.218 33.1023 194.337 33.1023C194.457 33.1023 194.572 33.0626 194.667 32.9891C194.762 32.9156 194.829 32.8134 194.862 32.6968C194.877 32.6412 194.883 32.5857 194.886 32.5284C194.89 32.4651 194.89 32.4023 194.89 32.3395V32.3382V30.4472V30.446C194.89 30.3831 194.89 30.3203 194.886 30.2571V30.2571Z" fill="#262883"/>
<path fill-rule="evenodd" clip-rule="evenodd" d="M197.539 30.2571C197.536 30.2002 197.529 30.1443 197.514 30.0887C197.481 29.972 197.415 29.8699 197.319 29.7964C197.225 29.7229 197.109 29.6836 196.99 29.6836C196.871 29.6836 196.755 29.7229 196.661 29.7964C196.565 29.8699 196.498 29.972 196.466 30.0887C196.451 30.1443 196.444 30.2002 196.441 30.2571C196.437 30.3203 196.437 30.3831 196.437 30.446V30.4472V32.3382V32.3395C196.437 32.4023 196.437 32.4651 196.441 32.5284C196.444 32.5857 196.451 32.6412 196.466 32.6968C196.498 32.8134 196.565 32.9156 196.661 32.9891C196.755 33.0626 196.871 33.1023 196.99 33.1023C197.109 33.1023 197.225 33.0626 197.319 32.9891C197.415 32.9156 197.481 32.8134 197.514 32.6968C197.529 32.6412 197.536 32.5857 197.539 32.5284C197.543 32.4651 197.542 32.4023 197.542 32.3395V32.3382V30.4472V30.446C197.542 30.3831 197.543 30.3203 197.539 30.2571V30.2571Z" fill="#262883"/>
<path fill-rule="evenodd" clip-rule="evenodd" d="M200.167 30.7296C200.134 30.6129 200.067 30.5108 199.972 30.4373C199.877 30.3638 199.762 30.3245 199.642 30.3245C199.523 30.3245 199.407 30.3638 199.313 30.4373C199.217 30.5108 199.151 30.6129 199.118 30.7296C199.103 30.7851 199.096 30.8411 199.093 30.898C199.089 30.9612 199.09 31.024 199.09 31.0868V31.0881V31.6971V31.6984C199.09 31.7612 199.089 31.824 199.093 31.8872C199.096 31.9445 199.103 32.0001 199.118 32.0556C199.151 32.1723 199.217 32.2744 199.313 32.3479C199.407 32.4214 199.523 32.4612 199.642 32.4612C199.762 32.4612 199.877 32.4214 199.972 32.3479C200.067 32.2744 200.134 32.1723 200.167 32.0556C200.182 32.0001 200.188 31.9445 200.191 31.8872C200.195 31.824 200.195 31.7612 200.195 31.6984V31.0868C200.195 31.024 200.195 30.9612 200.191 30.898C200.188 30.8411 200.182 30.7851 200.167 30.7296V30.7296Z" fill="#262883"/>
<path fill-rule="evenodd" clip-rule="evenodd" d="M202.598 30.9432C202.565 30.8265 202.498 30.7244 202.403 30.6509C202.308 30.5774 202.193 30.5381 202.074 30.5381C201.954 30.5381 201.839 30.5774 201.744 30.6509C201.649 30.7244 201.582 30.8265 201.549 30.9432C201.534 30.9988 201.528 31.0547 201.525 31.1116C201.521 31.1748 201.521 31.2376 201.521 31.3005V31.4846C201.521 31.5475 201.521 31.6103 201.525 31.6735C201.528 31.7308 201.534 31.7863 201.549 31.8419C201.582 31.9586 201.649 32.0607 201.744 32.1342C201.839 32.2077 201.954 32.2474 202.074 32.2474C202.193 32.2474 202.308 32.2077 202.403 32.1342C202.498 32.0607 202.565 31.9586 202.598 31.8419C202.613 31.7863 202.62 31.7308 202.623 31.6735C202.627 31.6103 202.626 31.5475 202.626 31.4846V31.3005C202.626 31.2376 202.627 31.1748 202.623 31.1116C202.62 31.0547 202.613 30.9988 202.598 30.9432V30.9432Z" fill="#262883"/>
<path fill-rule="evenodd" clip-rule="evenodd" d="M205.055 31.0784C204.961 31.0049 204.845 30.9656 204.726 30.9656C204.607 30.9656 204.491 31.0049 204.397 31.0784C204.301 31.1519 204.234 31.254 204.202 31.3707C204.2 31.378 204.201 31.3857 204.199 31.3929C204.201 31.4002 204.2 31.4074 204.202 31.4147C204.234 31.5314 204.301 31.6335 204.397 31.707C204.491 31.7805 204.607 31.8203 204.726 31.8203C204.845 31.8203 204.961 31.7805 205.055 31.707C205.151 31.6335 205.218 31.5314 205.25 31.4147C205.252 31.4074 205.251 31.4002 205.253 31.3929C205.251 31.3857 205.252 31.378 205.25 31.3707C205.218 31.254 205.151 31.1519 205.055 31.0784V31.0784Z" fill="#262883"/>
<path fill-rule="evenodd" clip-rule="evenodd" d="M204.173 31.0574V31.0562V31.7292V31.7279C204.173 31.6651 204.173 31.6023 204.177 31.539C204.18 31.4895 204.187 31.4412 204.199 31.3929C204.187 31.3442 204.18 31.2959 204.177 31.2463C204.173 31.1831 204.173 31.1203 204.173 31.0574V31.0574Z" fill="#262883"/>
<path fill-rule="evenodd" clip-rule="evenodd" d="M205.275 31.2463C205.273 31.2959 205.265 31.3442 205.253 31.3929C205.265 31.4412 205.273 31.4895 205.275 31.539C205.279 31.6023 205.279 31.6651 205.279 31.7279V31.7292V31.0562V31.0574C205.279 31.1203 205.279 31.1831 205.275 31.2463V31.2463Z" fill="#262883"/>
<path fill-rule="evenodd" clip-rule="evenodd" d="M207.708 31.0784C207.613 31.0049 207.498 30.9656 207.379 30.9656C207.259 30.9656 207.144 31.0049 207.049 31.0784C206.954 31.1519 206.887 31.254 206.854 31.3707C206.853 31.378 206.853 31.3857 206.852 31.3929C206.853 31.4002 206.853 31.4074 206.854 31.4147C206.887 31.5314 206.954 31.6335 207.049 31.707C207.144 31.7805 207.259 31.8203 207.379 31.8203C207.498 31.8203 207.613 31.7805 207.708 31.707C207.803 31.6335 207.87 31.5314 207.903 31.4147C207.904 31.4074 207.904 31.4002 207.905 31.3929C207.904 31.3857 207.904 31.378 207.903 31.3707C207.87 31.254 207.803 31.1519 207.708 31.0784V31.0784Z" fill="#262883"/>
<path fill-rule="evenodd" clip-rule="evenodd" d="M207.906 31.3928C207.917 31.4411 207.925 31.4894 207.928 31.539C207.932 31.6022 207.931 31.665 207.931 31.7279V31.0574C207.931 31.1202 207.932 31.183 207.928 31.2463C207.925 31.2958 207.917 31.3441 207.906 31.3928V31.3928Z" fill="#262883"/>
<path fill-rule="evenodd" clip-rule="evenodd" d="M206.826 31.0574V31.7279C206.826 31.665 206.826 31.6022 206.829 31.539C206.832 31.4894 206.84 31.4411 206.852 31.3928C206.84 31.3441 206.832 31.2958 206.829 31.2463C206.826 31.183 206.826 31.1202 206.826 31.0574V31.0574Z" fill="#262883"/>
<path fill-rule="evenodd" clip-rule="evenodd" d="M210.36 31.0784C210.266 31.0049 210.15 30.9656 210.031 30.9656C209.912 30.9656 209.796 31.0049 209.702 31.0784C209.606 31.1519 209.539 31.254 209.507 31.3707C209.505 31.378 209.506 31.3857 209.504 31.3929C209.506 31.4002 209.505 31.4074 209.507 31.4147C209.539 31.5314 209.606 31.6335 209.702 31.707C209.796 31.7805 209.912 31.8203 210.031 31.8203C210.15 31.8203 210.266 31.7805 210.36 31.707C210.456 31.6335 210.523 31.5314 210.555 31.4147C210.557 31.4074 210.556 31.4002 210.558 31.3929C210.556 31.3857 210.557 31.378 210.555 31.3707C210.523 31.254 210.456 31.1519 210.36 31.0784V31.0784Z" fill="#262883"/>
<path fill-rule="evenodd" clip-rule="evenodd" d="M209.478 31.0574V31.0562V31.7292V31.7279C209.478 31.6651 209.478 31.6023 209.482 31.539C209.485 31.4895 209.492 31.4412 209.504 31.3929C209.492 31.3442 209.485 31.2959 209.482 31.2463C209.478 31.1831 209.478 31.1203 209.478 31.0574V31.0574Z" fill="#262883"/>
<path fill-rule="evenodd" clip-rule="evenodd" d="M210.584 31.0574C210.584 31.1203 210.584 31.1831 210.58 31.2463C210.577 31.2959 210.57 31.3442 210.558 31.3929C210.57 31.4412 210.577 31.4895 210.58 31.539C210.584 31.6023 210.584 31.6651 210.584 31.7279V31.7292V31.0562V31.0574Z" fill="#262883"/>
<path fill-rule="evenodd" clip-rule="evenodd" d="M50.1079 31.3928C50.1088 31.433 50.1101 31.4736 50.1101 31.5142V31.5155V31.2698V31.2711C50.1101 31.3117 50.1088 31.3523 50.1079 31.3928V31.3928Z" fill="#FDE74C"/>
<path fill-rule="evenodd" clip-rule="evenodd" d="M49.005 31.2698V31.5155V31.5142C49.005 31.4736 49.0063 31.433 49.0072 31.3928C49.0063 31.3523 49.005 31.3117 49.005 31.2711V31.2698Z" fill="#FDE74C"/>
<path fill-rule="evenodd" clip-rule="evenodd" d="M50.0813 31.1571C50.0491 31.0404 49.9819 30.9383 49.8868 30.8648C49.7922 30.7913 49.6768 30.752 49.5575 30.752C49.4385 30.752 49.3227 30.7913 49.2281 30.8648C49.1331 30.9383 49.0659 31.0404 49.0336 31.1571C49.0181 31.2126 49.0115 31.2686 49.008 31.3254C49.0066 31.3481 49.0075 31.3703 49.0071 31.393C49.0075 31.4152 49.0066 31.4378 49.008 31.4601C49.0115 31.5173 49.0181 31.5729 49.0336 31.6284C49.0659 31.7451 49.1331 31.8472 49.2281 31.9207C49.3227 31.9942 49.4385 32.034 49.5575 32.034C49.6768 32.034 49.7922 31.9942 49.8868 31.9207C49.9819 31.8472 50.0491 31.7451 50.0813 31.6284C50.0968 31.5729 50.1034 31.5173 50.107 31.4601C50.1083 31.4378 50.1074 31.4152 50.1078 31.393C50.1074 31.3703 50.1083 31.3481 50.107 31.3254C50.1034 31.2686 50.0968 31.2126 50.0813 31.1571V31.1571Z" fill="#FDE74C"/>
<rect x="33" y="25" width="4" height="12" fill="#FDE74C"/>
<rect x="40" y="25" width="4" height="12" fill="#FDE74C"/>
<defs>
<filter id="filter0_d_601_2697" x="0" y="0" width="239" height="75" filterUnits="userSpaceOnUse" color-interpolation-filters="sRGB">
<feFlood flood-opacity="0" result="BackgroundImageFix"/>
<feColorMatrix in="SourceAlpha" type="matrix" values="0 0 0 0 0 0 0 0 0 0 0 0 0 0 0 0 0 0 127 0" result="hardAlpha"/>
<feOffset dy="6"/>
<feGaussianBlur stdDeviation="5"/>
<feColorMatrix type="matrix" values="0 0 0 0 0.147344 0 0 0 0 0.155113 0 0 0 0 0.5125 0 0 0 0.42 0"/>
<feBlend mode="normal" in2="BackgroundImageFix" result="effect1_dropShadow_601_2697"/>
<feBlend mode="normal" in="SourceGraphic" in2="effect1_dropShadow_601_2697" result="shape"/>
</filter>
</defs>
</svg>
