<svg width="2" height="3" viewBox="0 0 2 3" fill="none" xmlns="http://www.w3.org/2000/svg">
<path fill-rule="evenodd" clip-rule="evenodd" d="M1.52009 0.568803C1.47392 0.405002 1.37969 0.261601 1.24491 0.158401C1.11137 0.0552002 0.948505 0 0.780024 0C0.611544 0 0.448679 0.0552002 0.315142 0.158401C0.180358 0.261601 0.086133 0.405002 0.0399568 0.568803C0.0187407 0.646803 0.00938067 0.725403 0.00501265 0.805204C-0.000603375 0.894004 2.06282e-05 0.982205 2.06282e-05 1.0704V1.0722V1.92721V1.92901C2.06282e-05 2.01721 -0.000603375 2.10541 0.00501265 2.19421C0.00938067 2.27461 0.0187407 2.35261 0.0399568 2.43061C0.086133 2.59441 0.180358 2.73781 0.315142 2.84101C0.448679 2.94421 0.611544 3.00001 0.780024 3.00001C0.948505 3.00001 1.11137 2.94421 1.24491 2.84101C1.37969 2.73781 1.47392 2.59441 1.52009 2.43061C1.54131 2.35261 1.55067 2.27461 1.55504 2.19421C1.56065 2.10541 1.56003 2.01721 1.56003 1.92901V1.0704C1.56003 0.982205 1.56065 0.894004 1.55504 0.805204C1.55067 0.725403 1.54131 0.646803 1.52009 0.568803V0.568803Z" fill="#262883"/>
</svg>
