<svg width="2" height="11" viewBox="0 0 2 11" fill="none" xmlns="http://www.w3.org/2000/svg">
<path fill-rule="evenodd" clip-rule="evenodd" d="M1.11425 0.41712C1.08085 0.297 1.01129 0.19184 0.912911 0.11616C0.814985 0.04048 0.695551 0 0.571999 0C0.448905 0 0.329014 0.04048 0.231088 0.11616C0.132704 0.19184 0.0631487 0.297 0.029744 0.41712C0.013728 0.47432 0.00686399 0.531959 0.0032032 0.590479C0 0.655599 0 0.720279 0 0.784959V0.786279V10.2133V10.2146C0 10.2797 0 10.3439 0.0032032 10.4091C0.00686399 10.468 0.013728 10.5252 0.029744 10.582C0.0631487 10.7025 0.132704 10.8077 0.231088 10.8834C0.329014 10.9591 0.448905 11 0.571999 11C0.695551 11 0.814985 10.9591 0.912911 10.8834C1.01129 10.8077 1.08085 10.7025 1.11425 10.582C1.13027 10.5252 1.13713 10.468 1.1408 10.4091C1.144 10.3439 1.144 10.2797 1.144 10.2146V0.784959C1.144 0.720279 1.144 0.655599 1.1408 0.590479C1.13713 0.531959 1.13027 0.47432 1.11425 0.41712V0.41712Z" fill="#262883"/>
</svg>
