<svg width="8" height="10" viewBox="0 0 8 10" fill="none" xmlns="http://www.w3.org/2000/svg">
<path d="M0.228889 9.7222C0.298305 9.76066 0.376752 9.77983 0.45608 9.77772C0.535408 9.77561 0.612725 9.7523 0.679999 9.7102L3.99999 7.6351L7.31999 9.7102C7.38726 9.75225 7.46457 9.77553 7.54388 9.77761C7.62318 9.77969 7.7016 9.76051 7.77099 9.72205C7.84038 9.68359 7.89821 9.62725 7.93848 9.5589C7.97875 9.49054 7.99998 9.41265 7.99998 9.33332V1.33333C7.99998 0.97971 7.85951 0.640572 7.60946 0.390524C7.35941 0.140476 7.02027 0 6.66665 0H1.33333C0.979709 0 0.640572 0.140476 0.390524 0.390524C0.140476 0.640572 5.24575e-08 0.97971 5.24575e-08 1.33333V9.33332C-3.84954e-05 9.41267 0.0211685 9.49058 0.0614187 9.55897C0.101669 9.62736 0.159494 9.68372 0.228889 9.7222V9.7222ZM0.888887 1.33333C0.888887 1.21546 0.935712 1.10241 1.01906 1.01906C1.10241 0.935712 1.21546 0.888887 1.33333 0.888887H6.66665C6.78453 0.888887 6.89757 0.935712 6.98092 1.01906C7.06427 1.10241 7.1111 1.21546 7.1111 1.33333V8.53332L4.23555 6.73599C4.16491 6.69184 4.08329 6.66843 3.99999 6.66843C3.91669 6.66843 3.83507 6.69184 3.76444 6.73599L0.888887 8.53332V1.33333Z" fill="#FFDB03"/>
</svg>
